<?xml version="1.0" standalone="no"?>
<!DOCTYPE svg PUBLIC "-//W3C//DTD SVG 1.1//EN" "http://www.w3.org/Graphics/SVG/1.1/DTD/svg11.dtd" >
<svg xmlns="http://www.w3.org/2000/svg" xmlns:xlink="http://www.w3.org/1999/xlink" version="1.1">
<metadata>
Created by FontForge 20170731 at Thu May 28 16:24:01 2020
 By Aleksey,,,
Ferrari
</metadata>
<defs>
<font id="Ferrari-SansMedium" horiz-adv-x="0" >
  <font-face 
    font-family="Ferrari Sans Medium"
    font-weight="400"
    font-stretch="normal"
    units-per-em="1000"
    panose-1="0 0 5 0 0 0 0 0 0 0"
    ascent="800"
    descent="-200"
    x-height="575"
    cap-height="717"
    bbox="-594 -291 1759 1007"
    underline-thickness="50"
    underline-position="-150"
    unicode-range="U+0020-25CB"
  />
<missing-glyph horiz-adv-x="643" 
 />
    <glyph glyph-name="f_i" unicode="fi" horiz-adv-x="863" 
d="M782 0h-151v472h-341v-472h-150v472h-125l10 103h115v38q0 162 182 162h207l10 -106h-185q-35 0 -49.5 -15t-14.5 -45v-34h492v-575zM619 655v119h176v-119h-176z" />
    <glyph glyph-name="f_l" unicode="fl" horiz-adv-x="859" 
d="M778 0h-151v669h-273q-35 0 -49.5 -15t-14.5 -45v-34h250v-103h-250v-472h-150v472h-125l10 103h115v38q0 162 182 162h456v-775z" />
    <glyph glyph-name=".notdef" horiz-adv-x="643" 
 />
    <glyph glyph-name=".null" 
 />
    <glyph glyph-name="nonmarkingreturn" horiz-adv-x="267" 
 />
    <glyph glyph-name="space" unicode=" " horiz-adv-x="267" 
 />
    <glyph glyph-name="exclam" unicode="!" horiz-adv-x="345" 
d="M218 263h-90l-59 454h208zM265 0h-186v160h186v-160z" />
    <glyph glyph-name="quotedbl" unicode="&#x22;" horiz-adv-x="464" 
d="M65 480v307h144l-37 -307h-107zM273 480v307h144l-37 -307h-107z" />
    <glyph glyph-name="numbersign" unicode="#" horiz-adv-x="847" 
d="M803 534v-100h-147l-48 -144h135v-99h-168l-64 -191h-115l64 191h-183l-64 -191h-115l64 191h-117v99h150l48 144h-138v100h171l61 183h115l-61 -183h183l61 183h115l-61 -183h114zM310 290h183l48 144h-183z" />
    <glyph glyph-name="dollar" unicode="$" horiz-adv-x="877" 
d="M734 50.5q-88 -58.5 -262 -62.5v-98h-84v99q-127 5 -201 32.5t-105.5 77t-33.5 127.5h166q4 -55 44 -85t136 -36v199q-133 15 -205 42t-99.5 68t-27.5 105q0 98 80.5 151.5t245.5 57.5v100h84v-101q159 -8 235 -60t80 -158h-170q-4 46 -39 69.5t-112 28.5v-179h2
q141 -14 216 -36.5t106.5 -63.5t31.5 -113q0 -106 -88 -164.5zM233.5 484q13.5 -16 50.5 -27.5t110 -20.5v172q-94 -2 -134 -20.5t-40 -60.5q0 -27 13.5 -43zM466 104q106 2 151 26t45 69q0 31 -15 48t-56 28t-125 21v-192z" />
    <glyph glyph-name="percent" unicode="%" horiz-adv-x="970" 
d="M459 538q0 -78 -56.5 -119.5t-153.5 -41.5t-153 41.5t-56 119.5v24q0 78 56.5 119.5t152.5 41.5t153 -41.5t57 -119.5v-24zM752 717h105v-18l-641 -700h-107v18zM154 538q0 -38 23.5 -59t71.5 -21t72 21t24 59v29q0 36 -24 55.5t-72 19.5q-95 0 -95 -75v-29zM875 292.5
q57 -41.5 57 -119.5v-23q0 -78 -56.5 -119.5t-153.5 -41.5t-153 41.5t-56 119.5v23q0 78 56.5 119.5t152.5 41.5t153 -41.5zM818 179q0 36 -24 55.5t-72 19.5t-71.5 -19.5t-23.5 -55.5v-29q0 -38 23.5 -59t71.5 -21t72 21t24 59v29z" />
    <glyph glyph-name="ampersand" unicode="&#x26;" horiz-adv-x="953" 
d="M925 351l-178 -183l164 -143v-25h-196l-88 74q-34 -28 -68.5 -46t-89 -28.5t-136.5 -10.5q-148 0 -219.5 49t-71.5 153q0 61 25 100.5t72 65.5t125 52q-47 44 -68 76.5t-21 77.5q0 80 64.5 122.5t208.5 42.5q141 0 202 -42t61 -119q0 -46 -21 -79t-66 -58.5t-123 -50.5
l164 -140l115 135h144zM356 513.5q16 -19.5 59 -55.5l20 -17q80 24 110.5 48t30.5 65q0 71 -115 71q-62 0 -91.5 -16.5t-29.5 -50.5q0 -25 16 -44.5zM470.5 114q39.5 12 70.5 38l-207 178q-72 -19 -105.5 -45.5t-33.5 -72.5q0 -57 39 -83.5t128 -26.5q69 0 108.5 12z" />
    <glyph glyph-name="quotesingle" unicode="'" horiz-adv-x="256" 
d="M65 480v307h144l-37 -307h-107z" />
    <glyph glyph-name="parenleft" unicode="(" horiz-adv-x="405" 
d="M383 -193q-129 0 -199 54t-98.5 169t-28.5 315t28.5 315.5t98.5 169.5t199 54v-101q-70 0 -108 -38t-55 -131.5t-17 -268.5t17 -268.5t55 -131t108 -37.5v-101z" />
    <glyph glyph-name="parenright" unicode=")" horiz-adv-x="405" 
d="M21 -92q70 0 108.5 37.5t55.5 131t17 268.5t-17 268.5t-55.5 131.5t-108.5 38v101q129 0 199.5 -54t99 -169.5t28.5 -315.5t-28.5 -315t-99 -169t-199.5 -54v101z" />
    <glyph glyph-name="asterisk" unicode="*" horiz-adv-x="540" 
d="M338 628h151v-57h-151l107 -107l-39 -39l-109 109v-154h-55v152l-107 -107l-39 39l107 107h-152v57h152l-106 106l38 40l107 -107v151h55v-153l109 109l38 -40z" />
    <glyph glyph-name="plus" unicode="+" horiz-adv-x="665" 
d="M271 103v218h-221v108h221v218h122v-218h222v-108h-222v-218h-122z" />
    <glyph glyph-name="comma" unicode="," horiz-adv-x="313" 
d="M92 -168h-114l131 369h163z" />
    <glyph glyph-name="hyphen" unicode="-" horiz-adv-x="436" 
d="M67 244v114h302v-114h-302z" />
    <glyph glyph-name="period" unicode="." horiz-adv-x="300" 
d="M65 0v175h169v-175h-169z" />
    <glyph glyph-name="slash" unicode="/" horiz-adv-x="635" 
d="M20 -214l461 1100h133l-461 -1100h-133z" />
    <glyph glyph-name="zero" unicode="0" horiz-adv-x="872" 
d="M717 646q102 -83 102 -241v-93q0 -158 -100 -241t-283 -83q-181 0 -281.5 83.5t-100.5 240.5v93q0 158 101.5 241t280.5 83t281 -83zM650 409q0 197 -214 197q-213 0 -213 -197v-88q0 -208 213 -208q107 0 160.5 51t53.5 157v88z" />
    <glyph glyph-name="one" unicode="1" horiz-adv-x="736" 
d="M544 713v-596h189v-117h-695v117h337v448l-340 -188v132l394 212z" />
    <glyph glyph-name="two" unicode="2" horiz-adv-x="753" 
d="M250 117h459v-117h-678v95l44 34l45 34q208 156 281.5 214t99 88t25.5 60q0 45 -37 64.5t-123 19.5q-151 0 -314 -16l12 118q177 16 328 16q162 0 232.5 -48t70.5 -144q0 -50 -21 -89.5t-56 -70.5t-93 -71z" />
    <glyph glyph-name="three" unicode="3" horiz-adv-x="779" 
d="M52 0l-13 120h370q82 0 120.5 20.5t38.5 72.5q0 47 -31 66.5t-104 19.5h-225l-15 105l318 185l-1 9l-468 -5l12 124h652l3 -143l-326 -184l2 -8l115 -1q130 -1 184.5 -47t54.5 -131q0 -106 -77.5 -154.5t-234.5 -48.5h-375z" />
    <glyph glyph-name="four" unicode="4" horiz-adv-x="819" 
d="M676 327h114v-119h-114v-208h-161v208h-503v113l503 396h161v-390zM515 580l-346 -253h346v253z" />
    <glyph glyph-name="five" unicode="5" horiz-adv-x="773" 
d="M67 0l-12 125h335q88 0 127 28t39 95q0 64 -41 91.5t-126 27.5q-74 0 -118 -18t-74 -62h-123v430h613v-121h-469v-213h11q26 49 74 70.5t142 21.5q143 0 212.5 -54.5t69.5 -175.5q0 -134 -79.5 -189.5t-237.5 -55.5h-343z" />
    <glyph glyph-name="six" unicode="6" horiz-adv-x="825" 
d="M710 402.5q71 -56.5 71 -172.5q0 -122 -87 -182t-267 -60q-141 0 -223 37t-117 112t-35 198q0 195 95.5 288.5t263.5 93.5h328l10 -122h-327q-67 0 -110.5 -22.5t-67.5 -77.5t-25 -152h10q33 64 91 90t163 26q156 0 227 -56.5zM568 128.5q47 31.5 47 96.5q0 66 -42 97
t-134 31q-103 0 -155.5 -29t-52.5 -95q0 -65 47 -98.5t147 -33.5q96 0 143 31.5z" />
    <glyph glyph-name="seven" unicode="7" horiz-adv-x="701" 
d="M500 587h-481v130h663v-84l-336 -633h-172z" />
    <glyph glyph-name="eight" unicode="8" horiz-adv-x="829" 
d="M586 379q103 -20 149 -62.5t46 -112.5q0 -111 -87 -163.5t-279 -52.5q-190 0 -278.5 53t-88.5 163q0 70 45.5 112.5t148.5 62.5v9q-88 19 -126 55t-38 99q0 188 337 188q173 0 254.5 -47.5t81.5 -140.5q0 -64 -38.5 -99.5t-126.5 -54.5v-9zM276 449q39 -24 99 -24h80
q62 0 100 23.5t38 73.5q0 51 -40.5 73.5t-137.5 22.5q-95 0 -136.5 -22.5t-41.5 -73.5q0 -49 39 -73zM568.5 130q46.5 26 46.5 88q0 60 -42 88t-118 28h-80q-73 0 -116.5 -28.5t-43.5 -87.5q0 -62 48 -88t152 -26q107 0 153.5 26z" />
    <glyph glyph-name="nine" unicode="9" horiz-adv-x="825" 
d="M621 692q82 -37 117 -112t35 -198q0 -196 -95.5 -289t-263.5 -93h-328l-10 122h327q67 0 110.5 22.5t67.5 77.5t25 152h-10q-33 -64 -90.5 -90t-163.5 -26q-156 0 -227 56.5t-71 172.5q0 122 87.5 182t267.5 60q140 0 222 -37zM541.5 393q52.5 29 52.5 95q0 65 -47 98.5
t-147 33.5q-96 0 -142.5 -31.5t-46.5 -96.5q0 -66 42 -97t133 -31q103 0 155.5 29z" />
    <glyph glyph-name="colon" unicode=":" horiz-adv-x="309" 
d="M70 346v176h169v-176h-169zM70 37v175h169v-175h-169z" />
    <glyph glyph-name="semicolon" unicode=";" horiz-adv-x="344" 
d="M95 310v175h169v-175h-169zM107 -168h-114l132 369h163z" />
    <glyph glyph-name="less" unicode="&#x3c;" horiz-adv-x="566" 
d="M493 84l-436 164v212l436 165v-129l-405 -143l405 -137v-132z" />
    <glyph glyph-name="equal" unicode="=" horiz-adv-x="695" 
d="M78 407v102h538v-102h-538zM78 204v101h538v-101h-538z" />
    <glyph glyph-name="greater" unicode="&#x3e;" horiz-adv-x="566" 
d="M509 460v-212l-435 -164v132l404 137l-404 143v129z" />
    <glyph glyph-name="question" unicode="?" horiz-adv-x="691" 
d="M261 247l-8 138l176 63q37 14 50.5 32t13.5 49q0 39 -32.5 60.5t-115.5 21.5q-86 0 -126.5 -25t-40.5 -94h-145q0 88 33.5 139.5t103.5 74t185 22.5q299 0 299 -191q0 -68 -27 -108.5t-95 -63.5l-146 -51l-8 -67h-117zM417 0h-186v160h186v-160z" />
    <glyph glyph-name="at" unicode="@" horiz-adv-x="1157" 
d="M1110 -42q-165 -128 -482 -128q-280 0 -430.5 111.5t-150.5 364.5q0 233 143 342t393 109q253 0 387 -102.5t134 -294.5q0 -155 -70.5 -232.5t-183.5 -77.5q-62 0 -100.5 27t-38.5 69v18h-10q-29 -60 -74 -91t-111 -31q-108 0 -167 67.5t-59 194.5t61 195t167 68
q69 0 112.5 -31.5t70.5 -93.5h10v116h150v-357q0 -24 11 -37t33 -13q124 0 124 211q0 159 -114.5 245.5t-331.5 86.5q-216 0 -335.5 -93t-119.5 -297q0 -215 131.5 -311t372.5 -96q135 0 245 28.5t201 95.5zM668.5 184.5q42.5 32.5 42.5 94.5v62q0 33 -20.5 58.5t-53.5 40
t-68 14.5q-57 0 -92 -38.5t-35 -111.5q0 -72 36.5 -112t89.5 -40q58 0 100.5 32.5z" />
    <glyph glyph-name="A" unicode="A" horiz-adv-x="942" 
d="M575 717l364 -682v-35h-166l-76 150h-461l-76 -150h-159v35l366 682h208zM466 604l-168 -333h337z" />
    <glyph glyph-name="B" unicode="B" horiz-adv-x="867" 
d="M620 365q93 -8 146.5 -51t53.5 -123q0 -98 -65 -144.5t-200 -46.5h-469v717h452q122 0 183 -46t61 -129q0 -69 -43 -110.5t-119 -54.5v-12zM251 600v-182h245q125 0 125 94q0 47 -33 67.5t-96 20.5h-241zM514 117q73 0 106.5 24.5t33.5 78.5q0 48 -35.5 73t-101.5 25
h-266v-201h263z" />
    <glyph glyph-name="C" unicode="C" horiz-adv-x="948" 
d="M904 278q-2 -142 -110.5 -216t-302.5 -74q-213 0 -326 96.5t-113 282.5q0 111 50 192.5t146.5 125t233.5 43.5q213 0 312 -74.5t103 -211.5h-173q-4 79 -64 118t-171 39q-130 0 -194 -58t-64 -175q0 -126 65 -186t199 -60q106 0 170.5 40.5t65.5 117.5h173z" />
    <glyph glyph-name="D" unicode="D" horiz-adv-x="926" 
d="M772 625q101 -92 101 -259q0 -174 -98.5 -270t-294.5 -96h-394v717h381q204 0 305 -92zM460 127q125 0 180.5 58t55.5 177q0 115 -59 171t-199 56h-182v-462h204z" />
    <glyph glyph-name="E" unicode="E" horiz-adv-x="809" 
d="M763 717v-118h-507v-177h387v-115h-387v-189h507v-118h-677v717h677z" />
    <glyph glyph-name="F" unicode="F" horiz-adv-x="777" 
d="M751 717v-118h-495v-223h378v-117h-378v-259h-170v717h665z" />
    <glyph glyph-name="G" unicode="G" horiz-adv-x="1006" 
d="M488 374h444v-374h-128v127h-12q-31 -68 -106 -103.5t-212 -35.5q-207 0 -314.5 94t-107.5 280q0 111 52.5 193.5t153 127.5t242.5 45q213 0 318 -74t111 -200h-179q-5 69 -67.5 107t-172.5 38q-279 0 -279 -235q0 -128 69.5 -189t212.5 -61q111 0 174 36t71 109h-270
v115z" />
    <glyph glyph-name="H" unicode="H" horiz-adv-x="942" 
d="M855 717v-717h-170v303h-429v-303h-170v717h170v-289h429v289h170z" />
    <glyph glyph-name="I" unicode="I" horiz-adv-x="342" 
d="M256 717v-717h-170v717h170z" />
    <glyph glyph-name="J" unicode="J" horiz-adv-x="620" 
d="M536 188q0 -99 -44 -143.5t-141 -44.5h-321l-10 124h261q47 0 66 16t19 55v522h170v-529z" />
    <glyph glyph-name="K" unicode="K" horiz-adv-x="868" 
d="M86 717h170v-717h-170v717zM847 680l-388 -315l408 -331v-34h-187l-415 345v35l405 337h177v-37z" />
    <glyph glyph-name="L" unicode="L" horiz-adv-x="750" 
d="M256 717v-599h475v-118h-645v717h170z" />
    <glyph glyph-name="M" unicode="M" horiz-adv-x="1108" 
d="M1021 717v-717h-158v528l-274 -528h-70l-273 528v-528h-159v717h216l251 -479l251 479h216z" />
    <glyph glyph-name="N" unicode="N" horiz-adv-x="935" 
d="M845 717v-717h-174l-430 507v-507h-155v717h176l428 -503v503h155z" />
    <glyph glyph-name="O" unicode="O" horiz-adv-x="992" 
d="M736 683.5q100 -44.5 152 -127.5t52 -197q0 -176 -113.5 -273.5t-330.5 -97.5t-330.5 97.5t-113.5 273.5q0 114 52 197t152 127.5t240 44.5t240 -44.5zM694.5 176q69.5 63 69.5 184t-68 183t-200 62t-200 -62t-68 -183t69.5 -184t198.5 -63t198.5 63z" />
    <glyph glyph-name="P" unicode="P" horiz-adv-x="854" 
d="M757.5 660q63.5 -57 63.5 -161q0 -102 -65 -163.5t-198 -61.5h-302v-274h-170v717h474q134 0 197.5 -57zM532 393q127 0 127 104q0 47 -30.5 71.5t-92.5 24.5h-280v-200h276z" />
    <glyph glyph-name="Q" unicode="Q" horiz-adv-x="992" 
d="M951 -25v-132l-382 148q-34 -3 -73 -3q-217 0 -330.5 97.5t-113.5 273.5q0 114 52 197t152 127.5t240 44.5t240 -44.5t152 -127.5t52 -197q0 -115 -48.5 -197t-144.5 -127zM297.5 176q69.5 -63 198.5 -63t198.5 63t69.5 184t-68 183t-200 62t-200 -62t-68 -183t69.5 -184
z" />
    <glyph glyph-name="R" unicode="R" horiz-adv-x="893" 
d="M682 337q68 -8 104.5 -44.5t36.5 -93.5v-199h-166v203q0 45 -34.5 66.5t-81.5 21.5h-285v-291h-170v717h489q135 0 199 -50.5t64 -140.5q0 -149 -156 -179v-10zM548 406q126 0 126 102q0 44 -30.5 68t-91.5 24h-296v-194h292z" />
    <glyph glyph-name="S" unicode="S" horiz-adv-x="861" 
d="M209 14q-84 26 -120 77.5t-38 134.5h166q5 -62 53.5 -92t166.5 -30q115 0 164.5 24.5t49.5 70.5q0 32 -17.5 50t-66 29t-147.5 20q-143 13 -219.5 38t-106 66t-29.5 110q0 103 86 159.5t255 56.5q190 0 279 -52.5t93 -166.5h-170q-5 52 -50 75.5t-148 23.5
q-98 0 -142.5 -19.5t-44.5 -61.5q0 -30 18 -47t67.5 -28.5t150.5 -21.5q141 -14 216 -37t106.5 -64.5t31.5 -113.5q0 -111 -94.5 -169t-282.5 -58q-143 0 -227 26z" />
    <glyph glyph-name="T" unicode="T" horiz-adv-x="842" 
d="M830 717v-118h-324v-599h-170v599h-324v118h818z" />
    <glyph glyph-name="U" unicode="U" horiz-adv-x="925" 
d="M846 296q0 -108 -39 -175t-123.5 -99.5t-223.5 -32.5q-199 0 -290 71.5t-91 229.5v427h170v-412q0 -65 20 -105.5t66.5 -60.5t125.5 -20q81 0 127.5 20t67 62t20.5 112v404h170v-421z" />
    <glyph glyph-name="V" unicode="V" horiz-adv-x="957" 
d="M947 717v-27l-364 -690h-202l-364 691v26h164l299 -591h8l295 591h164z" />
    <glyph glyph-name="W" unicode="W" horiz-adv-x="1396" 
d="M1385 717v-24l-258 -693h-215l-214 549l-214 -549h-215l-258 693v24h170l207 -570h20l209 570h163l215 -570h18l202 570h170z" />
    <glyph glyph-name="X" unicode="X" horiz-adv-x="915" 
d="M877 684l-309 -310l342 -341v-33h-187l-275 274l-261 -274h-182v33l340 344l-308 307v33h187l241 -241l230 241h182v-33z" />
    <glyph glyph-name="Y" unicode="Y" horiz-adv-x="895" 
d="M884 717v-33l-351 -446v-238h-170v238l-352 446v33h166l271 -359l270 359h166z" />
    <glyph glyph-name="Z" unicode="Z" horiz-adv-x="794" 
d="M760 717v-58l-490 -546h487v-113h-733v57l488 552h-458v108h706z" />
    <glyph glyph-name="bracketleft" unicode="[" horiz-adv-x="440" 
d="M94 -178v1058h323v-103h-177v-853h177v-102h-323z" />
    <glyph glyph-name="backslash" unicode="\" horiz-adv-x="635" 
d="M20 886h133l461 -1100h-133z" />
    <glyph glyph-name="bracketright" unicode="]" horiz-adv-x="439" 
d="M345 -178h-322v102h177v853h-177v103h322v-1058z" />
    <glyph glyph-name="asciicircum" unicode="^" horiz-adv-x="609" 
d="M39 266l199 441h133l198 -441h-132l-134 322l-135 -322h-129z" />
    <glyph glyph-name="underscore" unicode="_" horiz-adv-x="551" 
d="M25 -145v75h501v-75h-501z" />
    <glyph glyph-name="grave" unicode="`" horiz-adv-x="513" 
d="M66 794v20h224l83 -159h-129z" />
    <glyph glyph-name="a" unicode="a" horiz-adv-x="745" 
d="M671 376v-376h-146l2 95l-11 1q-26 -56 -80.5 -82t-159.5 -26q-118 0 -174 39.5t-56 126.5q0 91 59 130.5t185 44.5l232 11v34q0 56 -36.5 83t-116.5 27q-82 0 -120 -28t-38 -83h-140q0 107 78 161t226 54q296 0 296 -212zM473 115.5q49 27.5 49 89.5v41l-217 -11
q-60 -3 -85 -18.5t-25 -52.5q0 -38 29.5 -57t105.5 -19q94 0 143 27.5z" />
    <glyph glyph-name="b" unicode="b" horiz-adv-x="840" 
d="M716 514q77 -74 77 -222q0 -153 -80.5 -228.5t-223.5 -75.5q-106 0 -161.5 32t-85.5 93h-10v-113h-151v775h151v-308h10q34 62 89.5 91.5t159.5 29.5q148 0 225 -74zM589.5 146.5q51.5 45.5 51.5 145.5q0 186 -200 186q-101 0 -155 -33.5t-54 -109.5v-81q0 -153 207 -153
q99 0 150.5 45.5z" />
    <glyph glyph-name="c" unicode="c" horiz-adv-x="772" 
d="M583 337q-6 139 -187 139q-197 0 -197 -185q0 -100 51.5 -147.5t153.5 -47.5q84 0 130.5 35t49.5 101h146q-4 -117 -87.5 -180.5t-247.5 -63.5q-166 0 -258 77.5t-92 224.5q0 91 40.5 158t117.5 103.5t185 36.5q155 0 245.5 -59t92.5 -192h-143z" />
    <glyph glyph-name="d" unicode="d" horiz-adv-x="840" 
d="M758 0h-151v110h-10q-34 -62 -89.5 -92t-159.5 -30q-147 0 -224 74.5t-77 222.5q0 152 80.5 227.5t222.5 75.5q105 0 161 -32t86 -92h10v311h151v-775zM553 132q54 34 54 109v82q0 153 -207 153q-98 0 -149.5 -46t-51.5 -145q0 -187 199 -187q101 0 155 34z" />
    <glyph glyph-name="e" unicode="e" horiz-adv-x="764" 
d="M715 261h-518q3 -80 51 -125t141 -45q89 0 131.5 24t50.5 76h144q-8 -98 -90 -150.5t-239 -52.5q-168 0 -254.5 77.5t-86.5 226.5q0 92 40 158.5t116 102t182 35.5q163 0 247.5 -69t84.5 -207v-51zM568 354v8q0 61 -45 94.5t-137 33.5q-91 0 -136 -36t-51 -100h369z" />
    <glyph glyph-name="f" unicode="f" horiz-adv-x="548" 
d="M290 575h250v-103h-250v-472h-150v472h-125l10 103h115v38q0 162 182 162h259l10 -106h-237q-35 0 -49.5 -15t-14.5 -45v-34z" />
    <glyph glyph-name="g" unicode="g" horiz-adv-x="835" 
d="M756 10q0 -101 -60 -145.5t-175 -44.5h-411l-15 107h391q67 0 93 23t26 66v128h-10q-33 -60 -89.5 -87.5t-161.5 -27.5q-137 0 -215.5 70t-78.5 206q0 138 81.5 210.5t216.5 72.5q105 0 161 -32t86 -92h10v111h151v-565zM605 276v47q0 81 -54.5 118.5t-151.5 37.5
q-94 0 -145.5 -43.5t-51.5 -130.5q0 -85 51.5 -128.5t144.5 -43.5q207 0 207 143z" />
    <glyph glyph-name="h" unicode="h" horiz-adv-x="806" 
d="M664 532q68 -56 68 -172v-360h-150v334q0 70 -40 103.5t-129 33.5q-88 0 -134.5 -35.5t-46.5 -104.5v-331h-151v775h151v-308h10q30 61 80.5 91t148.5 30q125 0 193 -56z" />
    <glyph glyph-name="i" unicode="i" horiz-adv-x="310" 
d="M66 655v119h176v-119h-176zM78 575h151v-575h-151v575z" />
    <glyph glyph-name="j" unicode="j" horiz-adv-x="318" 
d="M72 655v119h168v-119h-168zM231 575v-572q0 -58 -10.5 -109t-26.5 -76h-139q26 102 26 185v572h150z" />
    <glyph glyph-name="k" unicode="k" horiz-adv-x="767" 
d="M81 775h151v-775h-151v775zM726 556l-295 -260l344 -275v-21h-179l-350 277v20l318 278h162v-19z" />
    <glyph glyph-name="l" unicode="l" horiz-adv-x="312" 
d="M232 775v-775h-151v775h151z" />
    <glyph glyph-name="m" unicode="m" horiz-adv-x="1259" 
d="M1118.5 531q66.5 -57 66.5 -171v-360h-149v334q0 137 -160 137q-88 0 -126 -33.5t-39 -103.5v-334h-149v334q0 69 -38.5 103t-120.5 34q-84 0 -129 -35.5t-46 -104.5v-331h-150v575h150v-108h10q31 61 81 91t147 30q83 0 141 -30t84 -91h13q28 58 81 89.5t154 31.5
q113 0 179.5 -57z" />
    <glyph glyph-name="n" unicode="n" horiz-adv-x="802" 
d="M661 532q68 -56 68 -172v-360h-151v334q0 70 -39.5 103.5t-127.5 33.5q-89 0 -135.5 -35.5t-46.5 -104.5v-331h-151v575h151v-108h10q30 61 80.5 91t148.5 30q125 0 193 -56z" />
    <glyph glyph-name="o" unicode="o" horiz-adv-x="795" 
d="M135.5 63q-89.5 75 -89.5 224t91 225t261 76q171 0 261 -75t90 -222q0 -150 -91 -226.5t-262 -76.5t-260.5 75zM547.5 140q48.5 48 48.5 148q0 101 -48 148.5t-150 47.5t-150.5 -47.5t-48.5 -146.5q0 -102 48.5 -150t150.5 -48q101 0 149.5 48z" />
    <glyph glyph-name="p" unicode="p" horiz-adv-x="834" 
d="M711 514q76 -74 76 -222q0 -152 -80 -228t-218 -76q-106 0 -161.5 32t-85.5 93h-10v-295h-151v757h151v-108h10q34 62 90.5 91.5t160.5 29.5q142 0 218 -74zM584.5 146.5q50.5 45.5 50.5 145.5q0 186 -196 186q-102 0 -154.5 -33.5t-52.5 -109.5v-81q0 -153 206 -153
q96 0 146.5 45.5z" />
    <glyph glyph-name="q" unicode="q" horiz-adv-x="843" 
d="M607 575h151v-768h-151v303h-10q-34 -62 -89.5 -92t-159.5 -30q-147 0 -224 74.5t-77 222.5q0 152 80.5 227.5t222.5 75.5q105 0 161 -32t86 -92h10v111zM553 132q54 34 54 109v82q0 153 -207 153q-98 0 -149.5 -46t-51.5 -145q0 -187 199 -187q101 0 155 34z" />
    <glyph glyph-name="r" unicode="r" horiz-adv-x="656" 
d="M625 386v-93h-135v63q0 110 -120 110q-70 0 -105.5 -35t-35.5 -109v-322h-151v575h151v-104h9q24 62 67.5 89.5t119.5 27.5q200 0 200 -202z" />
    <glyph glyph-name="s" unicode="s" horiz-adv-x="706" 
d="M175 8q-68 20 -97.5 62.5t-31.5 114.5h152q1 -53 38 -77.5t123 -24.5q85 0 121.5 18.5t36.5 53.5q0 29 -15.5 43t-57 22.5t-139.5 19.5q-98 12 -152.5 34.5t-76 57t-21.5 87.5q0 79 71 124t214 45q111 0 177 -19t95.5 -58t29.5 -103h-152q0 49 -35.5 68t-115.5 19
q-77 0 -111 -16t-34 -48q0 -24 14 -37.5t51 -22.5t116 -18q114 -13 175.5 -33.5t86.5 -54t25 -90.5q0 -187 -299 -187q-120 0 -188 20z" />
    <glyph glyph-name="t" unicode="t" horiz-adv-x="496" 
d="M284 0h-150v468h-116l10 107h108v118h145v-118h202v-107h-199v-468z" />
    <glyph glyph-name="u" unicode="u" horiz-adv-x="799" 
d="M719 470h-1v-470h-150v108h-10q-30 -61 -80.5 -91t-145.5 -30q-124 0 -191.5 56.5t-67.5 171.5v360h152v-105h-2v-229q0 -69 40 -103t126 -34q87 0 133 35.5t46 104.5v331h151v-105z" />
    <glyph glyph-name="v" unicode="v" horiz-adv-x="774" 
d="M762 575v-22l-256 -553h-238l-254 550v25h151l217 -481h10l217 481h153z" />
    <glyph glyph-name="w" unicode="w" horiz-adv-x="1165" 
d="M1150 575v-23l-201 -552h-213l-153 420l-154 -420h-213l-199 549v26h142l167 -478h10l171 478h151l171 -478h10l167 478h144z" />
    <glyph glyph-name="x" unicode="x" horiz-adv-x="765" 
d="M731 555l-255 -251l284 -282v-22h-169l-218 218l-205 -218h-163v21l283 282l-251 251v21h168l185 -185l177 185h164v-20z" />
    <glyph glyph-name="y" unicode="y" horiz-adv-x="738" 
d="M724 548l-298 -627q-20 -43 -44.5 -65t-57 -29t-85.5 -7h-210l-15 107h207q30 0 46 5.5t26.5 19.5t22.5 43l21 46h-44l-275 509v25h150l210 -423h10l194 423h142v-27z" />
    <glyph glyph-name="z" unicode="z" horiz-adv-x="663" 
d="M242 112v-9h387v-103h-594v78l377 386v12h-370v99h582v-76z" />
    <glyph glyph-name="braceleft" unicode="{" horiz-adv-x="431" 
d="M140 344q78 -13 114 -48.5t36 -86.5q0 -20 -6 -100q-1 -21 -3 -47t-2 -49q0 -45 22.5 -67.5t79.5 -22.5h19v-102h-51q-113 0 -166 46t-53 137q0 25 6 105q1 21 3 54t2 47q0 44 -26.5 66.5t-105.5 22.5v99q56 0 85 12t38 31.5t9 50.5q0 13 -2 44t-3 52q-6 80 -6 106
q0 90 53 136t166 46h51v-102h-19q-57 0 -79.5 -22.5t-22.5 -67.5q0 -23 6 -107q1 -24 3 -49t2 -44q0 -49 -36.5 -83.5t-113.5 -47.5v-9z" />
    <glyph glyph-name="bar" unicode="|" horiz-adv-x="296" 
d="M94 -163v1017h108v-1017h-108z" />
    <glyph glyph-name="braceright" unicode="}" horiz-adv-x="431" 
d="M291 353q-77 13 -113.5 47.5t-36.5 83.5q0 19 2 44t3 49q6 84 6 107q0 45 -22.5 67.5t-79.5 22.5h-19v102h51q113 0 166 -46t53 -136q0 -26 -6 -106q-1 -21 -3 -52t-2 -44q0 -31 9 -50.5t38 -31.5t85 -12v-99q-79 0 -105.5 -22.5t-26.5 -66.5q0 -14 2 -47t3 -54
q6 -80 6 -105q0 -91 -53 -137t-166 -46h-51v102h19q57 0 79.5 22.5t22.5 67.5q0 23 -2 49t-3 47q-6 80 -6 100q0 51 36 86.5t114 48.5v9z" />
    <glyph glyph-name="asciitilde" unicode="~" horiz-adv-x="627" 
d="M67 219q7 98 46 153t107 55q35 0 58 -13t58 -41q6 -4 19.5 -15.5t24.5 -17t22 -5.5q50 0 59 88h101q-7 -100 -45 -155t-105 -55q-33 0 -56.5 13t-57.5 39q-4 4 -19 16.5t-27 18.5t-24 6q-29 0 -41.5 -24t-18.5 -63h-101z" />
    <glyph glyph-name="Zcaron" horiz-adv-x="794" 
d="M760 717v-58l-490 -546h487v-113h-733v57l488 552h-458v108h706zM386 867l80 104h131l-160 -183h-102l-160 183h131z" />
    <glyph glyph-name="Zcaron" unicode="&#x17d;" horiz-adv-x="794" 
d="M760 717v-58l-490 -546h487v-113h-733v57l488 552h-458v108h706zM386 867l80 104h131l-160 -183h-102l-160 183h131z" />
    <glyph glyph-name="zcaron" horiz-adv-x="663" 
d="M242 112v-9h387v-103h-594v78l377 386v12h-370v99h582v-76zM338 717l80 104h131l-160 -183h-102l-160 183h131z" />
    <glyph glyph-name="zcaron" unicode="&#x17e;" horiz-adv-x="663" 
d="M242 112v-9h387v-103h-594v78l377 386v12h-370v99h582v-76zM338 717l80 104h131l-160 -183h-102l-160 183h131z" />
    <glyph glyph-name="uni00A0" unicode="&#xa0;" horiz-adv-x="267" 
 />
    <glyph glyph-name="exclamdown" unicode="&#xa1;" horiz-adv-x="321" 
d="M68 437h186v-160h-186v160zM115 174h90l59 -454h-209z" />
    <glyph glyph-name="cent" unicode="&#xa2;" horiz-adv-x="798" 
d="M740 262q-3 -110 -77 -173t-219 -70v-106h-83v106q-146 11 -225.5 87.5t-79.5 212.5q0 131 80.5 210.5t224.5 87.5v105h83v-106q289 -17 292 -249h-143q-4 128 -155 140v-381q73 4 113 39t44 97h145zM367 128v378q-158 -18 -158 -185q0 -173 158 -193z" />
    <glyph glyph-name="sterling" unicode="&#xa3;" horiz-adv-x="812" 
d="M781 214q-2 -108 -36.5 -161t-118.5 -53h-506l-24 92q35 28 55 61t20 82q0 38 -11 79h-112l15 89h71q-21 76 -21 132q0 88 61.5 139t174.5 51h285l18 -125h-275q-50 0 -72.5 -24t-22.5 -62q0 -20 4.5 -50.5t9.5 -60.5h277v-89h-261q5 -38 5 -65q0 -38 -16 -70t-44 -49
l4 -9l293 1q42 0 58 20t17 72h152z" />
    <glyph glyph-name="yen" unicode="&#xa5;" horiz-adv-x="940" 
d="M742 717h161v-36l-246 -296h180v-75h-243l-40 -49v-37h283v-75h-283v-149h-170v149h-283v75h283v37l-40 49h-243v75h180l-246 296v36h161l273 -359z" />
    <glyph glyph-name="brokenbar" unicode="&#xa6;" horiz-adv-x="299" 
d="M95 426v428h109v-428h-109zM95 -163v474h109v-474h-109z" />
    <glyph glyph-name="section" unicode="&#xa7;" horiz-adv-x="722" 
d="M90 -137l-25 96h310q51 0 71 14t20 49q0 29 -37.5 47t-131.5 39q-93 21 -146 42.5t-78.5 55t-25.5 87.5q0 63 37 100t104 56q-35 26 -53.5 56.5t-18.5 72.5q0 48 25.5 86.5t74 60t115.5 21.5h321l12 -98h-321q-44 0 -65 -17.5t-21 -44.5q0 -24 14.5 -39.5t47.5 -27.5
t95 -26q103 -24 156.5 -45.5t77.5 -55t24 -90.5q0 -59 -35.5 -95t-101.5 -56q71 -50 71 -124q0 -80 -49.5 -122t-159.5 -42h-307zM439 201q48 9 68 25t20 53q0 25 -13.5 40t-43 26t-92.5 28l-95 25q-45 -7 -67.5 -24t-22.5 -54q0 -24 15.5 -39.5t45.5 -27t89 -26.5z" />
    <glyph glyph-name="dieresis" unicode="&#xa8;" horiz-adv-x="511" 
d="M68 666v136h135v-136h-135zM302 666v136h136v-136h-136z" />
    <glyph glyph-name="copyright" unicode="&#xa9;" horiz-adv-x="1069" 
d="M279.5 1q-107.5 53 -164 146.5t-56.5 210.5q0 116 56.5 209.5t164.5 147.5t255 54q149 0 256 -54t162.5 -146.5t55.5 -208.5q0 -118 -56 -211.5t-163.5 -147t-256.5 -53.5q-146 0 -253.5 53zM757 42.5q94 45.5 143 127.5t49 190q0 106 -48.5 187.5t-142 127t-223.5 45.5
q-131 0 -224.5 -45.5t-141.5 -127.5t-48 -189t49 -188.5t142 -127t221 -45.5q130 0 224 45.5zM781 314q-6 -94 -69 -138.5t-173 -44.5q-131 0 -199 59.5t-68 173.5q0 68 31 118.5t88 78.5t134 28q124 0 185 -48t63 -136h-104q-6 52 -39 76.5t-97 24.5q-71 0 -108.5 -37.5
t-37.5 -104.5q0 -150 151 -150q127 0 136 100h107z" />
    <glyph glyph-name="ordfeminine" unicode="&#xaa;" horiz-adv-x="621" 
d="M484.5 655q59.5 -40 59.5 -127v-295h-129v75h-9q-14 -29 -32 -47t-52.5 -28t-92.5 -10q-177 0 -177 131q0 71 46.5 99.5t146.5 33.5l166 9v31q0 42 -24.5 60t-78.5 18q-58 0 -85.5 -19t-27.5 -59h-124q0 84 62 126t179 42q113 0 172.5 -40zM377 329q34 18 34 65v30
l-147 -9q-45 -3 -63 -15t-18 -38q0 -28 20.5 -39.5t73.5 -11.5q66 0 100 18z" />
    <glyph glyph-name="guillemotleft" unicode="&#xab;" horiz-adv-x="583" 
d="M201 517h114l-157 -218l157 -218h-114l-157 218zM417 517h114l-157 -218l157 -218h-114l-157 218z" />
    <glyph glyph-name="registered" unicode="&#xae;" horiz-adv-x="714" 
d="M139.5 304.5q-76.5 65.5 -76.5 177.5t76 178.5t217 66.5q142 0 218 -66t76 -178t-76.5 -178t-217.5 -66q-140 0 -216.5 65.5zM544.5 330q63.5 54 63.5 153q0 100 -63 154t-189 54q-125 0 -187.5 -54.5t-62.5 -154.5q0 -99 63.5 -152.5t186.5 -53.5q125 0 188.5 54z
M448 477q27 -4 36.5 -15.5t9.5 -37.5v-58h-73v57q0 35 -36 35h-88v-94h-76v246h192q40 0 62.5 -18t22.5 -48q0 -27 -12 -40t-38 -21v-6zM380 500q42 0 42 33q0 31 -36 31h-89v-64h83z" />
    <glyph glyph-name="macron" unicode="&#xaf;" horiz-adv-x="511" 
d="M88 687v85h334v-85h-334z" />
    <glyph glyph-name="degree" unicode="&#xb0;" horiz-adv-x="508" 
d="M408 646.5q56 -49.5 56 -129.5q0 -51 -25 -91t-72.5 -63t-112.5 -23q-66 0 -113.5 23t-72.5 63t-25 91q0 80 56 129.5t155 49.5q98 0 154 -49.5zM356 433.5q34 30.5 34 83.5q0 55 -34 85.5t-102 30.5t-102.5 -30.5t-34.5 -85.5q0 -53 34.5 -83.5t102.5 -30.5t102 30.5z
" />
    <glyph glyph-name="plusminus" unicode="&#xb1;" horiz-adv-x="691" 
d="M284 174v197h-221v108h221v196h122v-196h222v-108h-222v-197h-122zM63 0v98h567v-98h-567z" />
    <glyph glyph-name="acute" unicode="&#xb4;" horiz-adv-x="511" 
d="M194 650l72 174h155l-118 -174h-109z" />
    <glyph glyph-name="paragraph" unicode="&#xb6;" horiz-adv-x="727" 
d="M338 305q-163 0 -234.5 49.5t-71.5 153.5q0 106 69.5 158.5t209.5 52.5h314v-829h-87v767h-114v-767h-86v415z" />
    <glyph glyph-name="periodcentered" unicode="&#xb7;" horiz-adv-x="310" 
d="M70 268v176h169v-176h-169z" />
    <glyph glyph-name="cedilla" unicode="&#xb8;" horiz-adv-x="511" 
d="M169 -218q-35 25 -43 71h77q4 -18 17.5 -28.5t36.5 -10.5q24 0 37 11.5t13 30.5q0 18 -13 28.5t-35 10.5q-20 0 -42 -11l-37 33l56 83h68l-40 -57q16 2 21 2q46 0 77.5 -23t31.5 -67q0 -46 -36 -72t-95 -26t-94 25z" />
    <glyph glyph-name="ordmasculine" unicode="&#xba;" horiz-adv-x="671" 
d="M126.5 283.5q-73.5 60.5 -73.5 175.5t74.5 175.5t208.5 60.5t208 -60t74 -174q0 -116 -74.5 -177t-208.5 -61q-135 0 -208.5 60.5zM477 460q0 71 -35.5 105t-105.5 34q-71 0 -106.5 -33.5t-35.5 -104.5q0 -141 142 -141q141 0 141 140z" />
    <glyph glyph-name="guillemotright" unicode="&#xbb;" horiz-adv-x="583" 
d="M52 517h115l157 -218l-157 -218h-115l157 218zM268 517h115l157 -218l-157 -218h-115l157 218z" />
    <glyph glyph-name="questiondown" unicode="&#xbf;" horiz-adv-x="728" 
d="M312 437h186v-160h-186v160zM468 190l8 -138l-176 -63q-37 -14 -50.5 -32t-13.5 -49q0 -39 32.5 -60.5t115.5 -21.5q86 0 126.5 25t40.5 94h145q0 -88 -33.5 -139.5t-103.5 -74t-185 -22.5q-299 0 -299 191q0 68 27 108.5t95 63.5l146 51l8 67h117z" />
    <glyph glyph-name="Agrave" unicode="&#xc0;" horiz-adv-x="942" 
d="M575 717l364 -682v-35h-166l-76 150h-461l-76 -150h-159v35l366 682h208zM466 604l-168 -333h337zM249 931v20h233l102 -171h-131z" />
    <glyph glyph-name="Aacute" unicode="&#xc1;" horiz-adv-x="942" 
d="M575 717l364 -682v-35h-166l-76 150h-461l-76 -150h-159v35l366 682h208zM466 604l-168 -333h337zM470 955h232v-20l-203 -151h-131z" />
    <glyph glyph-name="Acircumflex" unicode="&#xc2;" horiz-adv-x="942" 
d="M575 717l364 -682v-35h-166l-76 150h-461l-76 -150h-159v35l366 682h208zM466 604l-168 -333h337zM520 963l160 -183h-131l-80 103l-80 -103h-131l160 183h102z" />
    <glyph glyph-name="Atilde" unicode="&#xc3;" horiz-adv-x="942" 
d="M575 717l364 -682v-35h-166l-76 150h-461l-76 -150h-159v35l366 682h208zM466 604l-168 -333h337zM582 960l87 -4l-3 -49q-4 -52 -37 -79t-77 -27q-27 0 -49.5 7.5t-45.5 21.5q-39 25 -63 25q-16 0 -27 -9t-12 -24l-2 -28l-87 4l3 45q3 53 36 80.5t77 27.5q27 0 48 -7.5
t48 -22.5q39 -24 62 -24q15 0 26.5 10t12.5 25z" />
    <glyph glyph-name="Adieresis" unicode="&#xc4;" horiz-adv-x="942" 
d="M575 717l364 -682v-35h-166l-76 150h-461l-76 -150h-159v35l366 682h208zM466 604l-168 -333h337zM294 812v137h136v-137h-136zM509 812v137h135v-137h-135z" />
    <glyph glyph-name="Aring" unicode="&#xc5;" horiz-adv-x="942" 
d="M575 717l364 -682v-35h-166l-76 150h-461l-76 -150h-159v35l366 682h208zM466 604l-168 -333h337zM353 791q-39 33 -39 84q0 52 39 85t116 33t115.5 -33t38.5 -85q0 -51 -38.5 -84t-115.5 -33t-116 33zM556 875q0 60 -87 60q-88 0 -88 -60q0 -59 88 -59q87 0 87 59z" />
    <glyph glyph-name="AE" unicode="&#xc6;" horiz-adv-x="1150" 
d="M1103 717v-118h-403v-177h288v-115h-288v-189h403v-118h-573v147h-304l-75 -147h-147v35l366 682h733zM288 270h242v329h-75z" />
    <glyph glyph-name="Ccedilla" unicode="&#xc7;" horiz-adv-x="948" 
d="M904 278q-2 -139 -107.5 -213.5t-294.5 -76.5l-29 -44h80q50 0 79 -22t29 -67q0 -47 -35.5 -72.5t-102.5 -25.5q-109 0 -161 6l-16 75q70 -5 159 -5q57 0 57 29q0 28 -49 28h-108l-15 30l46 70q-187 12 -285.5 107.5t-98.5 269.5q0 111 50 192.5t146.5 125t233.5 43.5
q213 0 312 -74.5t103 -211.5h-173q-4 79 -64 118t-171 39q-130 0 -194 -58t-64 -175q0 -126 65 -186t199 -60q106 0 170.5 40.5t65.5 117.5h173z" />
    <glyph glyph-name="Egrave" unicode="&#xc8;" horiz-adv-x="809" 
d="M763 717v-118h-507v-177h387v-115h-387v-189h507v-118h-677v717h677zM212 931v20h233l102 -171h-131z" />
    <glyph glyph-name="Eacute" unicode="&#xc9;" horiz-adv-x="809" 
d="M763 717v-118h-507v-177h387v-115h-387v-189h507v-118h-677v717h677zM407 955h232v-20l-203 -151h-131z" />
    <glyph glyph-name="Ecircumflex" unicode="&#xca;" horiz-adv-x="809" 
d="M763 717v-118h-507v-177h387v-115h-387v-189h507v-118h-677v717h677zM484 963l160 -183h-131l-80 103l-80 -103h-131l160 183h102z" />
    <glyph glyph-name="Edieresis" unicode="&#xcb;" horiz-adv-x="809" 
d="M763 717v-118h-507v-177h387v-115h-387v-189h507v-118h-677v717h677zM248 812v137h136v-137h-136zM463 812v137h135v-137h-135z" />
    <glyph glyph-name="Igrave" unicode="&#xcc;" horiz-adv-x="342" 
d="M256 717v-717h-170v717h170zM-41 931v20h233l102 -171h-131z" />
    <glyph glyph-name="Iacute" unicode="&#xcd;" horiz-adv-x="342" 
d="M256 717v-717h-170v717h170zM158 955h232v-20l-203 -151h-131z" />
    <glyph glyph-name="Icircumflex" unicode="&#xce;" horiz-adv-x="342" 
d="M256 717v-717h-170v717h170zM222 963l160 -183h-131l-80 103l-80 -103h-131l160 183h102z" />
    <glyph glyph-name="Idieresis" unicode="&#xcf;" horiz-adv-x="342" 
d="M256 717v-717h-170v717h170zM-4 812v137h136v-137h-136zM211 812v137h135v-137h-135z" />
    <glyph glyph-name="Eth" unicode="&#xd0;" horiz-adv-x="932" 
d="M778 625q101 -92 101 -259q0 -174 -98.5 -270t-294.5 -96h-394v329h-42v107h42v281h381q204 0 305 -92zM466 127q125 0 180.5 58t55.5 177q0 115 -59 171t-199 56h-182v-153h224v-107h-224v-202h204z" />
    <glyph glyph-name="Ntilde" unicode="&#xd1;" horiz-adv-x="935" 
d="M845 717v-717h-174l-430 507v-507h-155v717h176l428 -503v503h155zM594 960l87 -4l-3 -49q-4 -52 -37 -79t-77 -27q-27 0 -49.5 7.5t-45.5 21.5q-39 25 -63 25q-16 0 -27 -9t-12 -24l-2 -28l-87 4l3 45q3 53 36 80.5t77 27.5q27 0 48 -7.5t48 -22.5q39 -24 62 -24
q15 0 26.5 10t12.5 25z" />
    <glyph glyph-name="Ograve" unicode="&#xd2;" horiz-adv-x="992" 
d="M736 683.5q100 -44.5 152 -127.5t52 -197q0 -176 -113.5 -273.5t-330.5 -97.5t-330.5 97.5t-113.5 273.5q0 114 52 197t152 127.5t240 44.5t240 -44.5zM694.5 176q69.5 63 69.5 184t-68 183t-200 62t-200 -62t-68 -183t69.5 -184t198.5 -63t198.5 63zM273 931v20h233
l102 -171h-131z" />
    <glyph glyph-name="Oacute" unicode="&#xd3;" horiz-adv-x="992" 
d="M736 683.5q100 -44.5 152 -127.5t52 -197q0 -176 -113.5 -273.5t-330.5 -97.5t-330.5 97.5t-113.5 273.5q0 114 52 197t152 127.5t240 44.5t240 -44.5zM694.5 176q69.5 63 69.5 184t-68 183t-200 62t-200 -62t-68 -183t69.5 -184t198.5 -63t198.5 63zM505 955h232v-20
l-203 -151h-131z" />
    <glyph glyph-name="Ocircumflex" unicode="&#xd4;" horiz-adv-x="992" 
d="M736 683.5q100 -44.5 152 -127.5t52 -197q0 -176 -113.5 -273.5t-330.5 -97.5t-330.5 97.5t-113.5 273.5q0 114 52 197t152 127.5t240 44.5t240 -44.5zM694.5 176q69.5 63 69.5 184t-68 183t-200 62t-200 -62t-68 -183t69.5 -184t198.5 -63t198.5 63zM552 963l160 -183
h-131l-80 103l-80 -103h-131l160 183h102z" />
    <glyph glyph-name="Otilde" unicode="&#xd5;" horiz-adv-x="992" 
d="M736 683.5q100 -44.5 152 -127.5t52 -197q0 -176 -113.5 -273.5t-330.5 -97.5t-330.5 97.5t-113.5 273.5q0 114 52 197t152 127.5t240 44.5t240 -44.5zM694.5 176q69.5 63 69.5 184t-68 183t-200 62t-200 -62t-68 -183t69.5 -184t198.5 -63t198.5 63zM605 960l87 -4
l-3 -49q-4 -52 -37 -79t-77 -27q-27 0 -49.5 7.5t-45.5 21.5q-39 25 -63 25q-16 0 -27 -9t-12 -24l-2 -28l-87 4l3 45q3 53 36 80.5t77 27.5q27 0 48 -7.5t48 -22.5q39 -24 62 -24q15 0 26.5 10t12.5 25z" />
    <glyph glyph-name="Odieresis" unicode="&#xd6;" horiz-adv-x="992" 
d="M736 683.5q100 -44.5 152 -127.5t52 -197q0 -176 -113.5 -273.5t-330.5 -97.5t-330.5 97.5t-113.5 273.5q0 114 52 197t152 127.5t240 44.5t240 -44.5zM694.5 176q69.5 63 69.5 184t-68 183t-200 62t-200 -62t-68 -183t69.5 -184t198.5 -63t198.5 63zM335 812v137h136
v-137h-136zM550 812v137h135v-137h-135z" />
    <glyph glyph-name="multiply" unicode="&#xd7;" horiz-adv-x="669" 
d="M139 106l-84 77l194 171l-196 173l85 78l195 -174l196 171l85 -77l-195 -171l198 -173l-88 -77l-196 172z" />
    <glyph glyph-name="Oslash" unicode="&#xd8;" horiz-adv-x="1000" 
d="M842 616q101 -96 101 -257q0 -176 -113.5 -273.5t-330.5 -97.5q-182 0 -292 70l-103 -91l-36 50l89 79q-102 94 -102 263q0 114 52 197t152 127.5t240 44.5q181 0 295 -74l92 81l35 -49zM278 201l405 356q-67 48 -184 48q-132 0 -200 -62t-68 -183q0 -98 47 -159z
M697.5 176q69.5 63 69.5 184q0 96 -42 154l-403 -355q65 -46 177 -46q129 0 198.5 63z" />
    <glyph glyph-name="Ugrave" unicode="&#xd9;" horiz-adv-x="925" 
d="M846 296q0 -108 -39 -175t-123.5 -99.5t-223.5 -32.5q-199 0 -290 71.5t-91 229.5v427h170v-412q0 -65 20 -105.5t66.5 -60.5t125.5 -20q81 0 127.5 20t67 62t20.5 112v404h170v-421zM265 931v20h233l102 -171h-131z" />
    <glyph glyph-name="Uacute" unicode="&#xda;" horiz-adv-x="925" 
d="M846 296q0 -108 -39 -175t-123.5 -99.5t-223.5 -32.5q-199 0 -290 71.5t-91 229.5v427h170v-412q0 -65 20 -105.5t66.5 -60.5t125.5 -20q81 0 127.5 20t67 62t20.5 112v404h170v-421zM467 955h232v-20l-203 -151h-131z" />
    <glyph glyph-name="Ucircumflex" unicode="&#xdb;" horiz-adv-x="925" 
d="M846 296q0 -108 -39 -175t-123.5 -99.5t-223.5 -32.5q-199 0 -290 71.5t-91 229.5v427h170v-412q0 -65 20 -105.5t66.5 -60.5t125.5 -20q81 0 127.5 20t67 62t20.5 112v404h170v-421zM510 963l160 -183h-131l-80 103l-80 -103h-131l160 183h102z" />
    <glyph glyph-name="Udieresis" unicode="&#xdc;" horiz-adv-x="925" 
d="M846 296q0 -108 -39 -175t-123.5 -99.5t-223.5 -32.5q-199 0 -290 71.5t-91 229.5v427h170v-412q0 -65 20 -105.5t66.5 -60.5t125.5 -20q81 0 127.5 20t67 62t20.5 112v404h170v-421zM283 812v137h136v-137h-136zM498 812v137h135v-137h-135z" />
    <glyph glyph-name="Yacute" unicode="&#xdd;" horiz-adv-x="895" 
d="M884 717v-33l-351 -446v-238h-170v238l-352 446v33h166l271 -359l270 359h166zM442 955h232v-20l-203 -151h-131z" />
    <glyph glyph-name="Thorn" unicode="&#xde;" horiz-adv-x="863" 
d="M554 595q137 0 202 -58.5t65 -165.5q0 -103 -66 -163.5t-203 -60.5h-296v-147h-170v717h170v-122h298zM535 262q128 0 128 107q0 99 -124 99h-283v-206h279z" />
    <glyph glyph-name="germandbls" unicode="&#xdf;" horiz-adv-x="899" 
d="M774 314q51 -20 74.5 -53t23.5 -91q0 -85 -70.5 -133.5t-214.5 -48.5q-153 0 -219.5 46.5t-66.5 150.5h137q1 -55 35 -80t110 -25t110 19t34 58q0 25 -14.5 38.5t-49.5 24.5t-118 29q-82 19 -125.5 37.5t-63 45.5t-19.5 72q0 54 24.5 87.5t77.5 46.5l90 21q37 9 51 21.5
t14 35.5q0 26 -19.5 38t-60.5 12h-174q-53 0 -83.5 -20t-30.5 -62v-584h-150v588q0 91 60.5 138.5t171.5 47.5h241q83 0 133.5 -37t50.5 -104q0 -60 -29.5 -90.5t-86.5 -44.5l-75 -17q-37 -9 -49.5 -20.5t-12.5 -30.5q0 -17 12.5 -28.5t42.5 -21.5t87 -22q101 -24 152 -44z
" />
    <glyph glyph-name="agrave" unicode="&#xe0;" horiz-adv-x="745" 
d="M671 376v-376h-146l2 95l-11 1q-26 -56 -80.5 -82t-159.5 -26q-118 0 -174 39.5t-56 126.5q0 91 59 130.5t185 44.5l232 11v34q0 56 -36.5 83t-116.5 27q-82 0 -120 -28t-38 -83h-140q0 107 78 161t226 54q296 0 296 -212zM473 115.5q49 27.5 49 89.5v41l-217 -11
q-60 -3 -85 -18.5t-25 -52.5q0 -38 29.5 -57t105.5 -19q94 0 143 27.5zM190 787v20h188l102 -171h-101z" />
    <glyph glyph-name="aacute" unicode="&#xe1;" horiz-adv-x="745" 
d="M671 376v-376h-146l2 95l-11 1q-26 -56 -80.5 -82t-159.5 -26q-118 0 -174 39.5t-56 126.5q0 91 59 130.5t185 44.5l232 11v34q0 56 -36.5 83t-116.5 27q-82 0 -120 -28t-38 -83h-140q0 107 78 161t226 54q296 0 296 -212zM473 115.5q49 27.5 49 89.5v41l-217 -11
q-60 -3 -85 -18.5t-25 -52.5q0 -38 29.5 -57t105.5 -19q94 0 143 27.5zM391 807h187v-20l-188 -151h-101z" />
    <glyph glyph-name="acircumflex" unicode="&#xe2;" horiz-adv-x="745" 
d="M671 376v-376h-146l2 95l-11 1q-26 -56 -80.5 -82t-159.5 -26q-118 0 -174 39.5t-56 126.5q0 91 59 130.5t185 44.5l232 11v34q0 56 -36.5 83t-116.5 27q-82 0 -120 -28t-38 -83h-140q0 107 78 161t226 54q296 0 296 -212zM473 115.5q49 27.5 49 89.5v41l-217 -11
q-60 -3 -85 -18.5t-25 -52.5q0 -38 29.5 -57t105.5 -19q94 0 143 27.5zM426 821l160 -183h-131l-80 104l-80 -104h-131l160 183h102z" />
    <glyph glyph-name="atilde" unicode="&#xe3;" horiz-adv-x="745" 
d="M671 376v-376h-146l2 95l-11 1q-26 -56 -80.5 -82t-159.5 -26q-118 0 -174 39.5t-56 126.5q0 91 59 130.5t185 44.5l232 11v34q0 56 -36.5 83t-116.5 27q-82 0 -120 -28t-38 -83h-140q0 107 78 161t226 54q296 0 296 -212zM473 115.5q49 27.5 49 89.5v41l-217 -11
q-60 -3 -85 -18.5t-25 -52.5q0 -38 29.5 -57t105.5 -19q94 0 143 27.5zM497 827l87 -5l-3 -50q-3 -58 -36 -87.5t-78 -29.5t-95 32q-40 27 -63 27q-16 0 -27 -9.5t-12 -26.5l-2 -30l-87 4l3 51q3 57 35.5 86t77.5 29q27 0 47.5 -8.5t48.5 -24.5q19 -13 33.5 -19.5t28.5 -6.5
q15 0 26.5 10.5t12.5 27.5z" />
    <glyph glyph-name="adieresis" unicode="&#xe4;" horiz-adv-x="745" 
d="M671 376v-376h-146l2 95l-11 1q-26 -56 -80.5 -82t-159.5 -26q-118 0 -174 39.5t-56 126.5q0 91 59 130.5t185 44.5l232 11v34q0 56 -36.5 83t-116.5 27q-82 0 -120 -28t-38 -83h-140q0 107 78 161t226 54q296 0 296 -212zM473 115.5q49 27.5 49 89.5v41l-217 -11
q-60 -3 -85 -18.5t-25 -52.5q0 -38 29.5 -57t105.5 -19q94 0 143 27.5zM209 666v136h136v-136h-136zM422 666v136h136v-136h-136z" />
    <glyph glyph-name="aring" unicode="&#xe5;" horiz-adv-x="745" 
d="M671 376v-376h-146l2 95l-11 1q-26 -56 -80.5 -82t-159.5 -26q-118 0 -174 39.5t-56 126.5q0 91 59 130.5t185 44.5l232 11v34q0 56 -36.5 83t-116.5 27q-82 0 -120 -28t-38 -83h-140q0 107 78 161t226 54q296 0 296 -212zM473 115.5q49 27.5 49 89.5v41l-217 -11
q-60 -3 -85 -18.5t-25 -52.5q0 -38 29.5 -57t105.5 -19q94 0 143 27.5zM268 674.5q-39 32.5 -39 83.5q0 52 39 85t116 33q78 0 116.5 -33t38.5 -85q0 -51 -38.5 -83.5t-116.5 -32.5q-77 0 -116 32.5zM471 758q0 28 -19.5 44t-67.5 16q-87 0 -87 -60q0 -59 87 -59t87 59z" />
    <glyph glyph-name="ae" unicode="&#xe6;" horiz-adv-x="1213" 
d="M1164 263h-498q2 -80 49.5 -126t136.5 -46q80 0 120 24t48 76h144q-8 -98 -87.5 -150.5t-227.5 -52.5q-197 0 -273 115h-5q-28 -56 -94 -85.5t-187 -29.5q-127 0 -185.5 39.5t-58.5 126.5q0 62 27 97.5t79.5 52t137.5 20.5l232 11v39q0 55 -36.5 82.5t-116.5 27.5
q-82 0 -120 -28t-38 -83h-140q0 107 78 161t226 54q170 0 240 -79q40 38 98.5 58.5t130.5 20.5q320 0 320 -284v-41zM1018 350v7q0 64 -43 98.5t-129 34.5t-129.5 -37.5t-49.5 -102.5h351zM472.5 115.5q49.5 27.5 49.5 89.5v41l-217 -11q-60 -3 -85 -18.5t-25 -52.5
q0 -38 29.5 -57t105.5 -19q93 0 142.5 27.5z" />
    <glyph glyph-name="ccedilla" unicode="&#xe7;" horiz-adv-x="772" 
d="M730 232q-4 -117 -87.5 -180.5t-247.5 -63.5l-29 -44h80q51 0 80 -22t29 -67q0 -47 -36 -72.5t-103 -25.5q-109 0 -160 6l-16 75q67 -5 159 -5q56 0 56 29q0 28 -48 28h-109l-14 30l46 71q-137 14 -211 90t-74 209q0 91 40.5 158t117.5 103.5t185 36.5q155 0 245.5 -59
t92.5 -192h-143q-6 139 -187 139q-197 0 -197 -185q0 -100 51.5 -147.5t153.5 -47.5q84 0 130.5 35t49.5 101h146z" />
    <glyph glyph-name="egrave" unicode="&#xe8;" horiz-adv-x="764" 
d="M715 261h-518q3 -80 51 -125t141 -45q89 0 131.5 24t50.5 76h144q-8 -98 -90 -150.5t-239 -52.5q-168 0 -254.5 77.5t-86.5 226.5q0 92 40 158.5t116 102t182 35.5q163 0 247.5 -69t84.5 -207v-51zM568 354v8q0 61 -45 94.5t-137 33.5q-91 0 -136 -36t-51 -100h369z
M189 787v20h188l102 -171h-101z" />
    <glyph glyph-name="eacute" unicode="&#xe9;" horiz-adv-x="764" 
d="M715 261h-518q3 -80 51 -125t141 -45q89 0 131.5 24t50.5 76h144q-8 -98 -90 -150.5t-239 -52.5q-168 0 -254.5 77.5t-86.5 226.5q0 92 40 158.5t116 102t182 35.5q163 0 247.5 -69t84.5 -207v-51zM568 354v8q0 61 -45 94.5t-137 33.5q-91 0 -136 -36t-51 -100h369z
M389 807h187v-20l-188 -151h-101z" />
    <glyph glyph-name="ecircumflex" unicode="&#xea;" horiz-adv-x="764" 
d="M715 261h-518q3 -80 51 -125t141 -45q89 0 131.5 24t50.5 76h144q-8 -98 -90 -150.5t-239 -52.5q-168 0 -254.5 77.5t-86.5 226.5q0 92 40 158.5t116 102t182 35.5q163 0 247.5 -69t84.5 -207v-51zM568 354v8q0 61 -45 94.5t-137 33.5q-91 0 -136 -36t-51 -100h369z
M440 821l160 -183h-131l-80 104l-80 -104h-131l160 183h102z" />
    <glyph glyph-name="edieresis" unicode="&#xeb;" horiz-adv-x="764" 
d="M715 261h-518q3 -80 51 -125t141 -45q89 0 131.5 24t50.5 76h144q-8 -98 -90 -150.5t-239 -52.5q-168 0 -254.5 77.5t-86.5 226.5q0 92 40 158.5t116 102t182 35.5q163 0 247.5 -69t84.5 -207v-51zM568 354v8q0 61 -45 94.5t-137 33.5q-91 0 -136 -36t-51 -100h369z
M212 666v136h136v-136h-136zM425 666v136h136v-136h-136z" />
    <glyph glyph-name="igrave" unicode="&#xec;" horiz-adv-x="310" 
d="M229 575v-575h-151v575h151zM-24 787v20h188l102 -171h-101z" />
    <glyph glyph-name="iacute" unicode="&#xed;" horiz-adv-x="310" 
d="M229 575v-575h-151v575h151zM158 807h187v-20l-188 -151h-101z" />
    <glyph glyph-name="icircumflex" unicode="&#xee;" horiz-adv-x="310" 
d="M229 575v-575h-151v575h151zM204 821l160 -183h-131l-80 104l-80 -104h-131l160 183h102z" />
    <glyph glyph-name="idieresis" unicode="&#xef;" horiz-adv-x="310" 
d="M229 575v-575h-151v575h151zM-17 666v136h136v-136h-136zM196 666v136h136v-136h-136z" />
    <glyph glyph-name="eth" unicode="&#xf0;" horiz-adv-x="821" 
d="M608 700q150 -153 150 -330v-89q0 -148 -88.5 -220.5t-269.5 -72.5q-175 0 -264 71t-89 226q0 149 81 223.5t222 74.5q105 0 161 -32t86 -93h7q-16 104 -140 209l-231 -52l-11 54l185 43q-38 28 -104 68v18l168 12q42 -27 86 -64l146 34l12 -56zM552.5 134
q54.5 36 54.5 117v66q0 154 -207 154q-201 0 -201 -186q0 -97 50 -142t149 -45q100 0 154.5 36z" />
    <glyph glyph-name="ntilde" unicode="&#xf1;" horiz-adv-x="802" 
d="M661 532q68 -56 68 -172v-360h-151v334q0 70 -39.5 103.5t-127.5 33.5q-89 0 -135.5 -35.5t-46.5 -104.5v-331h-151v575h151v-108h10q30 61 80.5 91t148.5 30q125 0 193 -56zM525 827l87 -5l-3 -50q-3 -58 -36 -87.5t-78 -29.5t-95 32q-40 27 -63 27q-16 0 -27 -9.5
t-12 -26.5l-2 -30l-87 4l3 51q3 57 35.5 86t77.5 29q27 0 47.5 -8.5t48.5 -24.5q19 -13 33.5 -19.5t28.5 -6.5q15 0 26.5 10.5t12.5 27.5z" />
    <glyph glyph-name="ograve" unicode="&#xf2;" horiz-adv-x="795" 
d="M135.5 63q-89.5 75 -89.5 224t91 225t261 76q171 0 261 -75t90 -222q0 -150 -91 -226.5t-262 -76.5t-260.5 75zM547.5 140q48.5 48 48.5 148q0 101 -48 148.5t-150 47.5t-150.5 -47.5t-48.5 -146.5q0 -102 48.5 -150t150.5 -48q101 0 149.5 48zM213 787v20h188l102 -171
h-101z" />
    <glyph glyph-name="oacute" unicode="&#xf3;" horiz-adv-x="795" 
d="M135.5 63q-89.5 75 -89.5 224t91 225t261 76q171 0 261 -75t90 -222q0 -150 -91 -226.5t-262 -76.5t-260.5 75zM547.5 140q48.5 48 48.5 148q0 101 -48 148.5t-150 47.5t-150.5 -47.5t-48.5 -146.5q0 -102 48.5 -150t150.5 -48q101 0 149.5 48zM413 807h187v-20
l-188 -151h-101z" />
    <glyph glyph-name="ocircumflex" unicode="&#xf4;" horiz-adv-x="795" 
d="M135.5 63q-89.5 75 -89.5 224t91 225t261 76q171 0 261 -75t90 -222q0 -150 -91 -226.5t-262 -76.5t-260.5 75zM547.5 140q48.5 48 48.5 148q0 101 -48 148.5t-150 47.5t-150.5 -47.5t-48.5 -146.5q0 -102 48.5 -150t150.5 -48q101 0 149.5 48zM463 821l160 -183h-131
l-80 104l-80 -104h-131l160 183h102z" />
    <glyph glyph-name="otilde" unicode="&#xf5;" horiz-adv-x="795" 
d="M135.5 63q-89.5 75 -89.5 224t91 225t261 76q171 0 261 -75t90 -222q0 -150 -91 -226.5t-262 -76.5t-260.5 75zM547.5 140q48.5 48 48.5 148q0 101 -48 148.5t-150 47.5t-150.5 -47.5t-48.5 -146.5q0 -102 48.5 -150t150.5 -48q101 0 149.5 48zM522 827l87 -5l-3 -50
q-3 -58 -36 -87.5t-78 -29.5t-95 32q-40 27 -63 27q-16 0 -27 -9.5t-12 -26.5l-2 -30l-87 4l3 51q3 57 35.5 86t77.5 29q27 0 47.5 -8.5t48.5 -24.5q19 -13 33.5 -19.5t28.5 -6.5q15 0 26.5 10.5t12.5 27.5z" />
    <glyph glyph-name="odieresis" unicode="&#xf6;" horiz-adv-x="795" 
d="M135.5 63q-89.5 75 -89.5 224t91 225t261 76q171 0 261 -75t90 -222q0 -150 -91 -226.5t-262 -76.5t-260.5 75zM547.5 140q48.5 48 48.5 148q0 101 -48 148.5t-150 47.5t-150.5 -47.5t-48.5 -146.5q0 -102 48.5 -150t150.5 -48q101 0 149.5 48zM215 666v136h136v-136
h-136zM428 666v136h136v-136h-136z" />
    <glyph glyph-name="divide" unicode="&#xf7;" horiz-adv-x="703" 
d="M271 507v164h159v-164h-159zM58 326v98h587v-98h-587zM271 79v165h159v-165h-159z" />
    <glyph glyph-name="oslash" unicode="&#xf8;" horiz-adv-x="806" 
d="M757 550l-69 -60q66 -75 66 -199q0 -150 -91 -226.5t-262 -76.5q-140 0 -226 51l-84 -74l-36 50l71 62q-75 75 -75 210q0 149 91 225t261 76q152 0 238 -58l80 70zM230 169l314 275q-49 40 -141 40q-102 0 -150.5 -47.5t-48.5 -146.5q0 -74 26 -121zM581 396l-309 -272
q47 -32 131 -32q101 0 149.5 48t48.5 148q0 67 -20 108z" />
    <glyph glyph-name="ugrave" unicode="&#xf9;" horiz-adv-x="799" 
d="M719 470h-1v-470h-150v108h-10q-30 -61 -80.5 -91t-145.5 -30q-124 0 -191.5 56.5t-67.5 171.5v360h152v-105h-2v-229q0 -69 40 -103t126 -34q87 0 133 35.5t46 104.5v331h151v-105zM200 787v20h188l102 -171h-101z" />
    <glyph glyph-name="uacute" unicode="&#xfa;" horiz-adv-x="799" 
d="M719 470h-1v-470h-150v108h-10q-30 -61 -80.5 -91t-145.5 -30q-124 0 -191.5 56.5t-67.5 171.5v360h152v-105h-2v-229q0 -69 40 -103t126 -34q87 0 133 35.5t46 104.5v331h151v-105zM400 807h187v-20l-188 -151h-101z" />
    <glyph glyph-name="ucircumflex" unicode="&#xfb;" horiz-adv-x="799" 
d="M719 470h-1v-470h-150v108h-10q-30 -61 -80.5 -91t-145.5 -30q-124 0 -191.5 56.5t-67.5 171.5v360h152v-105h-2v-229q0 -69 40 -103t126 -34q87 0 133 35.5t46 104.5v331h151v-105zM449 821l160 -183h-131l-80 104l-80 -104h-131l160 183h102z" />
    <glyph glyph-name="udieresis" unicode="&#xfc;" horiz-adv-x="799" 
d="M719 470h-1v-470h-150v108h-10q-30 -61 -80.5 -91t-145.5 -30q-124 0 -191.5 56.5t-67.5 171.5v360h152v-105h-2v-229q0 -69 40 -103t126 -34q87 0 133 35.5t46 104.5v331h151v-105zM222 666v136h136v-136h-136zM435 666v136h136v-136h-136z" />
    <glyph glyph-name="yacute" unicode="&#xfd;" horiz-adv-x="738" 
d="M724 548l-298 -627q-20 -43 -44.5 -65t-57 -29t-85.5 -7h-210l-15 107h207q30 0 46 5.5t26.5 19.5t22.5 43l21 46h-44l-275 509v25h150l210 -423h10l194 423h142v-27zM371 807h187v-20l-188 -151h-101z" />
    <glyph glyph-name="thorn" unicode="&#xfe;" horiz-adv-x="840" 
d="M717 514q76 -74 76 -222q0 -152 -80 -228t-218 -76q-106 0 -162 32t-86 93h-10v-295h-150v957h150v-308h10q34 62 90.5 91.5t160.5 29.5q143 0 219 -74zM589.5 146.5q50.5 45.5 50.5 145.5q0 186 -195 186q-100 0 -154 -34t-54 -109v-81q0 -153 206 -153q96 0 146.5 45.5
z" />
    <glyph glyph-name="ydieresis" unicode="&#xff;" horiz-adv-x="738" 
d="M724 548l-298 -627q-20 -43 -44.5 -65t-57 -29t-85.5 -7h-210l-15 107h207q30 0 46 5.5t26.5 19.5t22.5 43l21 46h-44l-275 509v25h150l210 -423h10l194 423h142v-27zM195 666v136h136v-136h-136zM408 666v136h136v-136h-136z" />
    <glyph glyph-name="Amacron" unicode="&#x100;" horiz-adv-x="942" 
d="M575 717l364 -682v-35h-166l-76 150h-461l-76 -150h-159v35l366 682h208zM466 604l-168 -333h337zM290 818v84h354v-84h-354z" />
    <glyph glyph-name="amacron" unicode="&#x101;" horiz-adv-x="745" 
d="M671 376v-376h-146l2 95l-11 1q-26 -56 -80.5 -82t-159.5 -26q-118 0 -174 39.5t-56 126.5q0 91 59 130.5t185 44.5l232 11v34q0 56 -36.5 83t-116.5 27q-82 0 -120 -28t-38 -83h-140q0 107 78 161t226 54q296 0 296 -212zM473 115.5q49 27.5 49 89.5v41l-217 -11
q-60 -3 -85 -18.5t-25 -52.5q0 -38 29.5 -57t105.5 -19q94 0 143 27.5zM212 687v85h334v-85h-334z" />
    <glyph glyph-name="Abreve" unicode="&#x102;" horiz-adv-x="942" 
d="M575 717l364 -682v-35h-166l-76 150h-461l-76 -150h-159v35l366 682h208zM466 604l-168 -333h337zM675 945q0 -86 -53.5 -128.5t-150.5 -42.5t-150.5 42.5t-54.5 128.5h98q1 -40 26 -59.5t81 -19.5t80.5 19.5t25.5 59.5h98z" />
    <glyph glyph-name="abreve" unicode="&#x103;" horiz-adv-x="745" 
d="M671 376v-376h-146l2 95l-11 1q-26 -56 -80.5 -82t-159.5 -26q-118 0 -174 39.5t-56 126.5q0 91 59 130.5t185 44.5l232 11v34q0 56 -36.5 83t-116.5 27q-82 0 -120 -28t-38 -83h-140q0 107 78 161t226 54q296 0 296 -212zM473 115.5q49 27.5 49 89.5v41l-217 -11
q-60 -3 -85 -18.5t-25 -52.5q0 -38 29.5 -57t105.5 -19q94 0 143 27.5zM572 817q-1 -86 -54.5 -128.5t-150.5 -42.5t-150.5 42.5t-53.5 128.5h98q1 -39 25.5 -59t80.5 -20t81 20t26 59h98z" />
    <glyph glyph-name="Aogonek" unicode="&#x104;" horiz-adv-x="942" 
d="M953 -108l-13 -74h-128q-51 0 -80 19.5t-29 58.5q0 37 14 58t57 46h-1l-76 150h-461l-76 -150h-159v35l366 682h208l364 -682v-35h-60q-34 -26 -44.5 -39.5t-10.5 -33.5q0 -18 12.5 -26t39.5 -8zM466 604l-168 -333h337z" />
    <glyph glyph-name="aogonek" unicode="&#x105;" horiz-adv-x="745" 
d="M688 -108l-12 -74h-129q-50 0 -79 19.5t-29 58.5q0 28 6.5 45t24.5 32t55 36l2 86l-11 1q-26 -56 -80.5 -82t-159.5 -26q-118 0 -174 39.5t-56 126.5q0 91 59 130.5t185 44.5l232 11v34q0 56 -36.5 83t-116.5 27q-82 0 -120 -28t-38 -83h-140q0 107 78 161t226 54
q296 0 296 -212v-376h-57q-34 -26 -44.5 -39.5t-10.5 -33.5q0 -18 12.5 -26t39.5 -8zM473 115.5q49 27.5 49 89.5v41l-217 -11q-60 -3 -85 -18.5t-25 -52.5q0 -38 29.5 -57t105.5 -19q94 0 143 27.5z" />
    <glyph glyph-name="Cacute" unicode="&#x106;" horiz-adv-x="948" 
d="M904 278q-2 -142 -110.5 -216t-302.5 -74q-213 0 -326 96.5t-113 282.5q0 111 50 192.5t146.5 125t233.5 43.5q213 0 312 -74.5t103 -211.5h-173q-4 79 -64 118t-171 39q-130 0 -194 -58t-64 -175q0 -126 65 -186t199 -60q106 0 170.5 40.5t65.5 117.5h173zM460 955h232
v-20l-203 -151h-131z" />
    <glyph glyph-name="cacute" unicode="&#x107;" horiz-adv-x="772" 
d="M583 337q-6 139 -187 139q-197 0 -197 -185q0 -100 51.5 -147.5t153.5 -47.5q84 0 130.5 35t49.5 101h146q-4 -117 -87.5 -180.5t-247.5 -63.5q-166 0 -258 77.5t-92 224.5q0 91 40.5 158t117.5 103.5t185 36.5q155 0 245.5 -59t92.5 -192h-143zM401 807h187v-20
l-188 -151h-101z" />
    <glyph glyph-name="Ccircumflex" unicode="&#x108;" horiz-adv-x="948" 
d="M904 278q-2 -142 -110.5 -216t-302.5 -74q-213 0 -326 96.5t-113 282.5q0 111 50 192.5t146.5 125t233.5 43.5q213 0 312 -74.5t103 -211.5h-173q-4 79 -64 118t-171 39q-130 0 -194 -58t-64 -175q0 -126 65 -186t199 -60q106 0 170.5 40.5t65.5 117.5h173zM543 963
l160 -183h-131l-80 103l-80 -103h-131l160 183h102z" />
    <glyph glyph-name="ccircumflex" unicode="&#x109;" horiz-adv-x="772" 
d="M583 337q-6 139 -187 139q-197 0 -197 -185q0 -100 51.5 -147.5t153.5 -47.5q84 0 130.5 35t49.5 101h146q-4 -117 -87.5 -180.5t-247.5 -63.5q-166 0 -258 77.5t-92 224.5q0 91 40.5 158t117.5 103.5t185 36.5q155 0 245.5 -59t92.5 -192h-143zM449 821l160 -183h-131
l-80 104l-80 -104h-131l160 183h102z" />
    <glyph glyph-name="Cdotaccent" unicode="&#x10a;" horiz-adv-x="948" 
d="M904 278q-2 -142 -110.5 -216t-302.5 -74q-213 0 -326 96.5t-113 282.5q0 111 50 192.5t146.5 125t233.5 43.5q213 0 312 -74.5t103 -211.5h-173q-4 79 -64 118t-171 39q-130 0 -194 -58t-64 -175q0 -126 65 -186t199 -60q106 0 170.5 40.5t65.5 117.5h173zM421 803v137
h136v-137h-136z" />
    <glyph glyph-name="cdotaccent" unicode="&#x10b;" horiz-adv-x="772" 
d="M583 337q-6 139 -187 139q-197 0 -197 -185q0 -100 51.5 -147.5t153.5 -47.5q84 0 130.5 35t49.5 101h146q-4 -117 -87.5 -180.5t-247.5 -63.5q-166 0 -258 77.5t-92 224.5q0 91 40.5 158t117.5 103.5t185 36.5q155 0 245.5 -59t92.5 -192h-143zM326 666v136h136v-136
h-136z" />
    <glyph glyph-name="Ccaron" unicode="&#x10c;" horiz-adv-x="948" 
d="M904 278q-2 -142 -110.5 -216t-302.5 -74q-213 0 -326 96.5t-113 282.5q0 111 50 192.5t146.5 125t233.5 43.5q213 0 312 -74.5t103 -211.5h-173q-4 79 -64 118t-171 39q-130 0 -194 -58t-64 -175q0 -126 65 -186t199 -60q106 0 170.5 40.5t65.5 117.5h173zM477 867
l80 104h131l-160 -183h-102l-160 183h131z" />
    <glyph glyph-name="ccaron" unicode="&#x10d;" horiz-adv-x="772" 
d="M583 337q-6 139 -187 139q-197 0 -197 -185q0 -100 51.5 -147.5t153.5 -47.5q84 0 130.5 35t49.5 101h146q-4 -117 -87.5 -180.5t-247.5 -63.5q-166 0 -258 77.5t-92 224.5q0 91 40.5 158t117.5 103.5t185 36.5q155 0 245.5 -59t92.5 -192h-143zM398 717l80 104h131
l-160 -183h-102l-160 183h131z" />
    <glyph glyph-name="Dcaron" unicode="&#x10e;" horiz-adv-x="926" 
d="M772 625q101 -92 101 -259q0 -174 -98.5 -270t-294.5 -96h-394v717h381q204 0 305 -92zM460 127q125 0 180.5 58t55.5 177q0 115 -59 171t-199 56h-182v-462h204zM433 867l80 104h131l-160 -183h-102l-160 183h131z" />
    <glyph glyph-name="dcaron" unicode="&#x10f;" horiz-adv-x="840" 
d="M797 637l5 161h120l-49 -161h-76zM758 775v-775h-151v110h-10q-34 -62 -89.5 -92t-159.5 -30q-147 0 -224 74.5t-77 222.5q0 152 80.5 227.5t222.5 75.5q105 0 161 -32t86 -92h10v311h151zM553 132q54 34 54 109v82q0 153 -207 153q-98 0 -149.5 -46t-51.5 -145
q0 -187 199 -187q101 0 155 34z" />
    <glyph glyph-name="Dcroat" unicode="&#x110;" horiz-adv-x="932" 
d="M778 625q101 -92 101 -259q0 -174 -98.5 -270t-294.5 -96h-394v329h-42v107h42v281h381q204 0 305 -92zM466 127q125 0 180.5 58t55.5 177q0 115 -59 171t-199 56h-182v-153h224v-107h-224v-202h204z" />
    <glyph glyph-name="dcroat" unicode="&#x111;" horiz-adv-x="846" 
d="M828 696v-72h-70v-624h-151v110h-10q-34 -62 -89.5 -92t-159.5 -30q-147 0 -224 74.5t-77 222.5q0 152 80.5 227.5t222.5 75.5q105 0 161 -32t86 -92h10v160h-200v72h200v79h151v-79h70zM607 241v82q0 153 -207 153q-98 0 -149.5 -46t-51.5 -145q0 -187 199 -187
q209 0 209 143z" />
    <glyph glyph-name="Emacron" unicode="&#x112;" horiz-adv-x="809" 
d="M763 717v-118h-507v-177h387v-115h-387v-189h507v-118h-677v717h677zM252 818v84h354v-84h-354z" />
    <glyph glyph-name="emacron" unicode="&#x113;" horiz-adv-x="764" 
d="M715 261h-518q3 -80 51 -125t141 -45q89 0 131.5 24t50.5 76h144q-8 -98 -90 -150.5t-239 -52.5q-168 0 -254.5 77.5t-86.5 226.5q0 92 40 158.5t116 102t182 35.5q163 0 247.5 -69t84.5 -207v-51zM568 354v8q0 61 -45 94.5t-137 33.5q-91 0 -136 -36t-51 -100h369z
M221 687v85h334v-85h-334z" />
    <glyph glyph-name="Ebreve" unicode="&#x114;" horiz-adv-x="809" 
d="M763 717v-118h-507v-177h387v-115h-387v-189h507v-118h-677v717h677zM629 945q0 -86 -53.5 -128.5t-150.5 -42.5t-150.5 42.5t-54.5 128.5h98q1 -40 26 -59.5t81 -19.5t80.5 19.5t25.5 59.5h98z" />
    <glyph glyph-name="ebreve" unicode="&#x115;" horiz-adv-x="764" 
d="M715 261h-518q3 -80 51 -125t141 -45q89 0 131.5 24t50.5 76h144q-8 -98 -90 -150.5t-239 -52.5q-168 0 -254.5 77.5t-86.5 226.5q0 92 40 158.5t116 102t182 35.5q163 0 247.5 -69t84.5 -207v-51zM568 354v8q0 61 -45 94.5t-137 33.5q-91 0 -136 -36t-51 -100h369z
M589 817q-1 -86 -54.5 -128.5t-150.5 -42.5t-150.5 42.5t-53.5 128.5h98q1 -39 25.5 -59t80.5 -20t81 20t26 59h98z" />
    <glyph glyph-name="Edotaccent" unicode="&#x116;" horiz-adv-x="809" 
d="M763 717v-118h-507v-177h387v-115h-387v-189h507v-118h-677v717h677zM357 803v137h136v-137h-136z" />
    <glyph glyph-name="edotaccent" unicode="&#x117;" horiz-adv-x="764" 
d="M715 261h-518q3 -80 51 -125t141 -45q89 0 131.5 24t50.5 76h144q-8 -98 -90 -150.5t-239 -52.5q-168 0 -254.5 77.5t-86.5 226.5q0 92 40 158.5t116 102t182 35.5q163 0 247.5 -69t84.5 -207v-51zM568 354v8q0 61 -45 94.5t-137 33.5q-91 0 -136 -36t-51 -100h369z
M311 666v136h136v-136h-136z" />
    <glyph glyph-name="Eogonek" unicode="&#x118;" horiz-adv-x="809" 
d="M796 -108l-13 -74h-128q-51 0 -80 19.5t-29 58.5q0 37 14 58t57 46h-531v717h677v-118h-507v-177h387v-115h-387v-189h507v-118h-41q-34 -26 -44.5 -39.5t-10.5 -33.5q0 -18 12.5 -26t39.5 -8z" />
    <glyph glyph-name="eogonek" unicode="&#x119;" horiz-adv-x="764" 
d="M715 261h-518q3 -80 51 -125t141 -45q89 0 131.5 24t50.5 76h144q-5 -73 -52 -121t-136 -68q-36 -28 -46.5 -41t-10.5 -34q0 -18 12.5 -26t39.5 -8l77 -1l-12 -74h-129q-50 0 -79 19.5t-29 58.5q0 33 10 52.5t41 39.5h-15q-168 0 -254.5 77.5t-86.5 226.5q0 92 40 158.5
t116 102t182 35.5q163 0 247.5 -69t84.5 -207v-51zM568 354v8q0 61 -45 94.5t-137 33.5q-91 0 -136 -36t-51 -100h369z" />
    <glyph glyph-name="Ecaron" unicode="&#x11a;" horiz-adv-x="809" 
d="M763 717v-118h-507v-177h387v-115h-387v-189h507v-118h-677v717h677zM441 867l80 104h131l-160 -183h-102l-160 183h131z" />
    <glyph glyph-name="ecaron" unicode="&#x11b;" horiz-adv-x="764" 
d="M715 261h-518q3 -80 51 -125t141 -45q89 0 131.5 24t50.5 76h144q-8 -98 -90 -150.5t-239 -52.5q-168 0 -254.5 77.5t-86.5 226.5q0 92 40 158.5t116 102t182 35.5q163 0 247.5 -69t84.5 -207v-51zM568 354v8q0 61 -45 94.5t-137 33.5q-91 0 -136 -36t-51 -100h369z
M384 717l80 104h131l-160 -183h-102l-160 183h131z" />
    <glyph glyph-name="Gcircumflex" unicode="&#x11c;" horiz-adv-x="1006" 
d="M488 374h444v-374h-128v127h-12q-31 -68 -106 -103.5t-212 -35.5q-207 0 -314.5 94t-107.5 280q0 111 52.5 193.5t153 127.5t242.5 45q213 0 318 -74t111 -200h-179q-5 69 -67.5 107t-172.5 38q-279 0 -279 -235q0 -128 69.5 -189t212.5 -61q111 0 174 36t71 109h-270
v115zM551 963l160 -183h-131l-80 103l-80 -103h-131l160 183h102z" />
    <glyph glyph-name="gcircumflex" unicode="&#x11d;" horiz-adv-x="835" 
d="M756 10q0 -101 -60 -145.5t-175 -44.5h-411l-15 107h391q67 0 93 23t26 66v128h-10q-33 -60 -89.5 -87.5t-161.5 -27.5q-137 0 -215.5 70t-78.5 206q0 138 81.5 210.5t216.5 72.5q105 0 161 -32t86 -92h10v111h151v-565zM605 276v47q0 81 -54.5 118.5t-151.5 37.5
q-94 0 -145.5 -43.5t-51.5 -130.5q0 -85 51.5 -128.5t144.5 -43.5q207 0 207 143zM479 821l160 -183h-131l-80 104l-80 -104h-131l160 183h102z" />
    <glyph glyph-name="Gbreve" unicode="&#x11e;" horiz-adv-x="1006" 
d="M488 374h444v-374h-128v127h-12q-31 -68 -106 -103.5t-212 -35.5q-207 0 -314.5 94t-107.5 280q0 111 52.5 193.5t153 127.5t242.5 45q213 0 318 -74t111 -200h-179q-5 69 -67.5 107t-172.5 38q-279 0 -279 -235q0 -128 69.5 -189t212.5 -61q111 0 174 36t71 109h-270
v115zM705 945q0 -86 -53.5 -128.5t-150.5 -42.5t-150.5 42.5t-54.5 128.5h98q1 -40 26 -59.5t81 -19.5t80.5 19.5t25.5 59.5h98z" />
    <glyph glyph-name="gbreve" unicode="&#x11f;" horiz-adv-x="835" 
d="M756 10q0 -101 -60 -145.5t-175 -44.5h-411l-15 107h391q67 0 93 23t26 66v128h-10q-33 -60 -89.5 -87.5t-161.5 -27.5q-137 0 -215.5 70t-78.5 206q0 138 81.5 210.5t216.5 72.5q105 0 161 -32t86 -92h10v111h151v-565zM605 276v47q0 81 -54.5 118.5t-151.5 37.5
q-94 0 -145.5 -43.5t-51.5 -130.5q0 -85 51.5 -128.5t144.5 -43.5q207 0 207 143zM627 817q-1 -86 -54.5 -128.5t-150.5 -42.5t-150.5 42.5t-53.5 128.5h98q1 -39 25.5 -59t80.5 -20t81 20t26 59h98z" />
    <glyph glyph-name="Gdotaccent" unicode="&#x120;" horiz-adv-x="1006" 
d="M488 374h444v-374h-128v127h-12q-31 -68 -106 -103.5t-212 -35.5q-207 0 -314.5 94t-107.5 280q0 111 52.5 193.5t153 127.5t242.5 45q213 0 318 -74t111 -200h-179q-5 69 -67.5 107t-172.5 38q-279 0 -279 -235q0 -128 69.5 -189t212.5 -61q111 0 174 36t71 109h-270
v115zM437 803v137h136v-137h-136z" />
    <glyph glyph-name="gdotaccent" unicode="&#x121;" horiz-adv-x="835" 
d="M756 10q0 -101 -60 -145.5t-175 -44.5h-411l-15 107h391q67 0 93 23t26 66v128h-10q-33 -60 -89.5 -87.5t-161.5 -27.5q-137 0 -215.5 70t-78.5 206q0 138 81.5 210.5t216.5 72.5q105 0 161 -32t86 -92h10v111h151v-565zM605 276v47q0 81 -54.5 118.5t-151.5 37.5
q-94 0 -145.5 -43.5t-51.5 -130.5q0 -85 51.5 -128.5t144.5 -43.5q207 0 207 143zM350 666v136h136v-136h-136z" />
    <glyph glyph-name="uni0122" unicode="&#x122;" horiz-adv-x="1006" 
d="M488 374h444v-374h-128v127h-12q-31 -68 -106 -103.5t-212 -35.5q-207 0 -314.5 94t-107.5 280q0 111 52.5 193.5t153 127.5t242.5 45q213 0 318 -74t111 -200h-179q-5 69 -67.5 107t-172.5 38q-279 0 -279 -235q0 -128 69.5 -189t212.5 -61q111 0 174 36t71 109h-270
v115zM493 -224h-124l101 178h168z" />
    <glyph glyph-name="uni0123" unicode="&#x123;" horiz-adv-x="835" 
d="M436 823h124l-101 -178h-168zM756 10q0 -101 -60 -145.5t-175 -44.5h-411l-15 107h391q67 0 93 23t26 66v128h-10q-33 -60 -89.5 -87.5t-161.5 -27.5q-137 0 -215.5 70t-78.5 206q0 138 81.5 210.5t216.5 72.5q105 0 161 -32t86 -92h10v111h151v-565zM605 276v47
q0 81 -54.5 118.5t-151.5 37.5q-94 0 -145.5 -43.5t-51.5 -130.5q0 -85 51.5 -128.5t144.5 -43.5q207 0 207 143z" />
    <glyph glyph-name="Hcircumflex" unicode="&#x124;" horiz-adv-x="942" 
d="M855 717v-717h-170v303h-429v-303h-170v717h170v-289h429v289h170zM518 963l160 -183h-131l-80 103l-80 -103h-131l160 183h102z" />
    <glyph glyph-name="hcircumflex" unicode="&#x125;" horiz-adv-x="806" 
d="M664 532q68 -56 68 -172v-360h-150v334q0 70 -40 103.5t-129 33.5q-88 0 -134.5 -35.5t-46.5 -104.5v-331h-151v775h151v-308h10q30 61 80.5 91t148.5 30q125 0 193 -56zM466 1001l160 -183h-131l-80 104l-80 -104h-131l160 183h102z" />
    <glyph glyph-name="Hbar" unicode="&#x126;" horiz-adv-x="943" 
d="M856 569h40v-66h-40v-503h-170v303h-429v-303h-170v503h-40v66h40v148h170v-148h429v148h170v-148zM257 428h429v75h-429v-75z" />
    <glyph glyph-name="hbar" unicode="&#x127;" horiz-adv-x="806" 
d="M664 532q68 -56 68 -172v-360h-150v334q0 70 -40 103.5t-129 33.5q-88 0 -134.5 -35.5t-46.5 -104.5v-331h-151v624h-42v72h42v79h151v-79h228v-72h-228v-157h10q30 61 80.5 91t148.5 30q125 0 193 -56z" />
    <glyph glyph-name="Itilde" unicode="&#x128;" horiz-adv-x="342" 
d="M256 717v-717h-170v717h170zM288 960l87 -4l-3 -49q-4 -52 -37 -79t-77 -27q-27 0 -49.5 7.5t-45.5 21.5q-39 25 -63 25q-16 0 -27 -9t-12 -24l-2 -28l-87 4l3 45q3 53 36 80.5t77 27.5q27 0 48 -7.5t48 -22.5q39 -24 62 -24q15 0 26.5 10t12.5 25z" />
    <glyph glyph-name="itilde" unicode="&#x129;" horiz-adv-x="310" 
d="M229 575v-575h-151v575h151zM274 827l87 -5l-3 -50q-3 -58 -36 -87.5t-78 -29.5t-95 32q-40 27 -63 27q-16 0 -27 -9.5t-12 -26.5l-2 -30l-87 4l3 51q3 57 35.5 86t77.5 29q27 0 47.5 -8.5t48.5 -24.5q19 -13 33.5 -19.5t28.5 -6.5q15 0 26.5 10.5t12.5 27.5z" />
    <glyph glyph-name="Imacron" unicode="&#x12a;" horiz-adv-x="342" 
d="M256 717v-717h-170v717h170zM-6 818v84h354v-84h-354z" />
    <glyph glyph-name="imacron" unicode="&#x12b;" horiz-adv-x="310" 
d="M229 575v-575h-151v575h151zM-15 687v85h334v-85h-334z" />
    <glyph glyph-name="Ibreve" unicode="&#x12c;" horiz-adv-x="342" 
d="M256 717v-717h-170v717h170zM375 945q0 -86 -53.5 -128.5t-150.5 -42.5t-150.5 42.5t-54.5 128.5h98q1 -40 26 -59.5t81 -19.5t80.5 19.5t25.5 59.5h98z" />
    <glyph glyph-name="ibreve" unicode="&#x12d;" horiz-adv-x="310" 
d="M229 575v-575h-151v575h151zM363 817q-1 -86 -54.5 -128.5t-150.5 -42.5t-150.5 42.5t-53.5 128.5h98q1 -39 25.5 -59t80.5 -20t81 20t26 59h98z" />
    <glyph glyph-name="Iogonek" unicode="&#x12e;" horiz-adv-x="342" 
d="M306 -108l-12 -74h-129q-50 0 -79 19.5t-29 58.5q0 37 13.5 58t56.5 46h-41v717h170v-717h-24q-34 -26 -44.5 -39.5t-10.5 -33.5q0 -18 12.5 -26t39.5 -8z" />
    <glyph glyph-name="iogonek" unicode="&#x12f;" horiz-adv-x="310" 
d="M66 655v119h176v-119h-176zM78 575h151v-575h-151v575z" />
    <glyph glyph-name="Idotaccent" unicode="&#x130;" horiz-adv-x="342" 
d="M256 717v-717h-170v717h170zM105 803v137h136v-137h-136z" />
    <glyph glyph-name="dotlessi" unicode="&#x131;" horiz-adv-x="310" 
d="M229 575v-575h-151v575h151z" />
    <glyph glyph-name="IJ" unicode="&#x132;" horiz-adv-x="910" 
d="M256 717v-717h-170v717h170zM827 188q0 -99 -44 -143.5t-141 -44.5h-321l-10 124h261q47 0 66 16t19 55v522h170v-529z" />
    <glyph glyph-name="ij" unicode="&#x133;" horiz-adv-x="622" 
d="M66 655v119h176v-119h-176zM78 575h151v-575h-151v575zM376 655v119h168v-119h-168zM535 575v-572q0 -58 -10.5 -109t-26.5 -76h-139q26 102 26 185v572h150z" />
    <glyph glyph-name="Jcircumflex" unicode="&#x134;" horiz-adv-x="620" 
d="M536 188q0 -99 -44 -143.5t-141 -44.5h-321l-10 124h261q47 0 66 16t19 55v522h170v-529zM486 963l160 -183h-131l-80 103l-80 -103h-131l160 183h102z" />
    <glyph glyph-name="jcircumflex" unicode="&#x135;" horiz-adv-x="318" 
d="M231 3q0 -58 -10.5 -109t-26.5 -76h-139q26 102 26 185v572h150v-572zM184 821l160 -183h-131l-80 104l-80 -104h-131l160 183h102z" />
    <glyph glyph-name="uni0136" unicode="&#x136;" horiz-adv-x="868" 
d="M86 717h170v-717h-170v717zM847 680l-388 -315l408 -331v-34h-187l-415 345v35l405 337h177v-37zM432 -224h-124l101 178h168z" />
    <glyph glyph-name="uni0137" unicode="&#x137;" horiz-adv-x="767" 
d="M81 775h151v-775h-151v775zM726 556l-295 -260l344 -275v-21h-179l-350 277v20l318 278h162v-19zM375 -224h-124l101 178h168z" />
    <glyph glyph-name="Lacute" unicode="&#x139;" horiz-adv-x="750" 
d="M256 717v-599h475v-118h-645v717h170zM169 955h232v-20l-203 -151h-131z" />
    <glyph glyph-name="lacute" unicode="&#x13a;" horiz-adv-x="312" 
d="M232 775v-775h-151v775h151zM166 1007h187v-20l-188 -151h-101z" />
    <glyph glyph-name="uni013B" unicode="&#x13b;" horiz-adv-x="750" 
d="M256 717v-599h475v-118h-645v717h170zM399 -224h-124l101 178h168z" />
    <glyph glyph-name="uni013C" unicode="&#x13c;" horiz-adv-x="312" 
d="M232 0h-151v775h151v-775zM47 -224l101 178h168l-145 -178h-124z" />
    <glyph glyph-name="Lcaron" unicode="&#x13d;" horiz-adv-x="750" 
d="M435 798h120l-50 -259h-75zM256 717v-599h475v-118h-645v717h170z" />
    <glyph glyph-name="lcaron" unicode="&#x13e;" horiz-adv-x="312" 
d="M271 637l5 161h120l-49 -161h-76zM81 775h151v-775h-151v775z" />
    <glyph glyph-name="Ldot" unicode="&#x13f;" horiz-adv-x="753" 
d="M256 717v-599h475v-118h-645v717h170zM496 403v137h136v-137h-136z" />
    <glyph glyph-name="ldot" unicode="&#x140;" horiz-adv-x="404" 
d="M232 775v-775h-151v775h151zM292 362v136h136v-136h-136z" />
    <glyph glyph-name="Lslash" unicode="&#x141;" horiz-adv-x="778" 
d="M284 324v-206h474v-118h-644v263l-73 -26v92l73 26v362h170v-301l268 96v-92z" />
    <glyph glyph-name="lslash" unicode="&#x142;" horiz-adv-x="372" 
d="M259 548l76 37v-90l-76 -37v-458h-150v384l-72 -35v90l72 35v301h150v-227z" />
    <glyph glyph-name="Nacute" unicode="&#x143;" horiz-adv-x="935" 
d="M845 717v-717h-174l-430 507v-507h-155v717h176l428 -503v503h155zM445 955h232v-20l-203 -151h-131z" />
    <glyph glyph-name="nacute" unicode="&#x144;" horiz-adv-x="802" 
d="M661 532q68 -56 68 -172v-360h-151v334q0 70 -39.5 103.5t-127.5 33.5q-89 0 -135.5 -35.5t-46.5 -104.5v-331h-151v575h151v-108h10q30 61 80.5 91t148.5 30q125 0 193 -56zM415 807h187v-20l-188 -151h-101z" />
    <glyph glyph-name="uni0145" unicode="&#x145;" horiz-adv-x="935" 
d="M845 717v-717h-174l-430 507v-507h-155v717h176l428 -503v503h155zM449 -224h-124l101 178h168z" />
    <glyph glyph-name="uni0146" unicode="&#x146;" horiz-adv-x="802" 
d="M661 532q68 -56 68 -172v-360h-151v334q0 70 -39.5 103.5t-127.5 33.5q-89 0 -135.5 -35.5t-46.5 -104.5v-331h-151v575h151v-108h10q30 61 80.5 91t148.5 30q125 0 193 -56zM393 -224h-124l101 178h168z" />
    <glyph glyph-name="Ncaron" unicode="&#x147;" horiz-adv-x="935" 
d="M845 717v-717h-174l-430 507v-507h-155v717h176l428 -503v503h155zM458 867l80 104h131l-160 -183h-102l-160 183h131z" />
    <glyph glyph-name="ncaron" unicode="&#x148;" horiz-adv-x="802" 
d="M661 532q68 -56 68 -172v-360h-151v334q0 70 -39.5 103.5t-127.5 33.5q-89 0 -135.5 -35.5t-46.5 -104.5v-331h-151v575h151v-108h10q30 61 80.5 91t148.5 30q125 0 193 -56zM423 717l80 104h131l-160 -183h-102l-160 183h131z" />
    <glyph glyph-name="napostrophe" unicode="&#x149;" horiz-adv-x="928" 
d="M25 631v160h159v-203q0 -42 -25.5 -63t-72.5 -21h-102v58h63q24 0 33 9t9 36v24h-64zM786.5 532q67.5 -56 67.5 -172v-360h-150v334q0 70 -40 103.5t-128 33.5t-134.5 -35.5t-47.5 -104.5v-331h-150v575h150v-108h10q31 62 81.5 91.5t148.5 29.5q125 0 192.5 -56z" />
    <glyph glyph-name="Eng" unicode="&#x14a;" horiz-adv-x="935" 
d="M845 -26q0 -87 -44.5 -129t-140.5 -42h-236l-10 124h176q48 0 68 13.5t20 51.5v8h-7l-430 507v-507h-155v717h176l428 -503v503h155v-743z" />
    <glyph glyph-name="eng" unicode="&#x14b;" horiz-adv-x="808" 
d="M661 532q68 -56 68 -172v-368q0 -50 -11 -99.5t-27 -74.5h-139q26 102 26 185v331q0 70 -39.5 103.5t-127.5 33.5q-89 0 -135.5 -35.5t-46.5 -104.5v-331h-151v575h151v-108h10q30 61 80.5 91t148.5 30q125 0 193 -56z" />
    <glyph glyph-name="Omacron" unicode="&#x14c;" horiz-adv-x="992" 
d="M736 683.5q100 -44.5 152 -127.5t52 -197q0 -176 -113.5 -273.5t-330.5 -97.5t-330.5 97.5t-113.5 273.5q0 114 52 197t152 127.5t240 44.5t240 -44.5zM694.5 176q69.5 63 69.5 184t-68 183t-200 62t-200 -62t-68 -183t69.5 -184t198.5 -63t198.5 63zM316 818v84h354v-84
h-354z" />
    <glyph glyph-name="omacron" unicode="&#x14d;" horiz-adv-x="795" 
d="M135.5 63q-89.5 75 -89.5 224t91 225t261 76q171 0 261 -75t90 -222q0 -150 -91 -226.5t-262 -76.5t-260.5 75zM547.5 140q48.5 48 48.5 148q0 101 -48 148.5t-150 47.5t-150.5 -47.5t-48.5 -146.5q0 -102 48.5 -150t150.5 -48q101 0 149.5 48zM239 687v85h334v-85h-334z
" />
    <glyph glyph-name="Obreve" unicode="&#x14e;" horiz-adv-x="992" 
d="M736 683.5q100 -44.5 152 -127.5t52 -197q0 -176 -113.5 -273.5t-330.5 -97.5t-330.5 97.5t-113.5 273.5q0 114 52 197t152 127.5t240 44.5t240 -44.5zM694.5 176q69.5 63 69.5 184t-68 183t-200 62t-200 -62t-68 -183t69.5 -184t198.5 -63t198.5 63zM714 945
q0 -86 -53.5 -128.5t-150.5 -42.5t-150.5 42.5t-54.5 128.5h98q1 -40 26 -59.5t81 -19.5t80.5 19.5t25.5 59.5h98z" />
    <glyph glyph-name="obreve" unicode="&#x14f;" horiz-adv-x="795" 
d="M135.5 63q-89.5 75 -89.5 224t91 225t261 76q171 0 261 -75t90 -222q0 -150 -91 -226.5t-262 -76.5t-260.5 75zM547.5 140q48.5 48 48.5 148q0 101 -48 148.5t-150 47.5t-150.5 -47.5t-48.5 -146.5q0 -102 48.5 -150t150.5 -48q101 0 149.5 48zM604 817
q-1 -86 -54.5 -128.5t-150.5 -42.5t-150.5 42.5t-53.5 128.5h98q1 -39 25.5 -59t80.5 -20t81 20t26 59h98z" />
    <glyph glyph-name="Ohungarumlaut" unicode="&#x150;" horiz-adv-x="992" 
d="M736 683.5q100 -44.5 152 -127.5t52 -197q0 -176 -113.5 -273.5t-330.5 -97.5t-330.5 97.5t-113.5 273.5q0 114 52 197t152 127.5t240 44.5t240 -44.5zM694.5 176q69.5 63 69.5 184t-68 183t-200 62t-200 -62t-68 -183t69.5 -184t198.5 -63t198.5 63zM392 957h160v-20
l-141 -151h-121zM612 957h160v-20l-141 -151h-121z" />
    <glyph glyph-name="ohungarumlaut" unicode="&#x151;" horiz-adv-x="795" 
d="M135.5 63q-89.5 75 -89.5 224t91 225t261 76q171 0 261 -75t90 -222q0 -150 -91 -226.5t-262 -76.5t-260.5 75zM547.5 140q48.5 48 48.5 148q0 101 -48 148.5t-150 47.5t-150.5 -47.5t-48.5 -146.5q0 -102 48.5 -150t150.5 -48q101 0 149.5 48zM313 807h160v-20
l-141 -151h-121zM533 807h160v-20l-141 -151h-121z" />
    <glyph glyph-name="OE" unicode="&#x152;" horiz-adv-x="1259" 
d="M1212 599h-437v-177h317v-115h-317v-189h437v-118h-711q-222 0 -335.5 92t-113.5 267q0 113 53.5 193.5t155.5 122.5t245 42h706v-118zM605 118v481h-99q-136 0 -206.5 -61t-70.5 -178q0 -118 70 -180t202 -62h104z" />
    <glyph glyph-name="oe" unicode="&#x153;" horiz-adv-x="1299" 
d="M1250 263h-518q2 -81 50.5 -126.5t141.5 -45.5q89 0 131.5 24t50.5 76h144q-8 -98 -89 -150.5t-235 -52.5q-185 0 -261 105q-81 -105 -269 -105q-171 0 -260.5 75t-89.5 224t91 225t261 76q189 0 270 -106q79 106 256 106q161 0 243.5 -69.5t82.5 -214.5v-41zM1104 350v7
q0 64 -45 98.5t-138 34.5q-92 0 -137 -37t-51 -103h371zM547.5 140q48.5 48 48.5 148q0 101 -48 148.5t-150 47.5t-150.5 -47.5t-48.5 -146.5q0 -102 48.5 -150t150.5 -48q101 0 149.5 48z" />
    <glyph glyph-name="Racute" unicode="&#x154;" horiz-adv-x="893" 
d="M682 337q68 -8 104.5 -44.5t36.5 -93.5v-199h-166v203q0 45 -34.5 66.5t-81.5 21.5h-285v-291h-170v717h489q135 0 199 -50.5t64 -140.5q0 -149 -156 -179v-10zM548 406q126 0 126 102q0 44 -30.5 68t-91.5 24h-296v-194h292zM410 955h232v-20l-203 -151h-131z" />
    <glyph glyph-name="racute" unicode="&#x155;" horiz-adv-x="656" 
d="M625 386v-93h-135v63q0 110 -120 110q-70 0 -105.5 -35t-35.5 -109v-322h-151v575h151v-104h9q24 62 67.5 89.5t119.5 27.5q200 0 200 -202zM375 807h187v-20l-188 -151h-101z" />
    <glyph glyph-name="uni0156" unicode="&#x156;" horiz-adv-x="893" 
d="M682 337q68 -8 104.5 -44.5t36.5 -93.5v-199h-166v203q0 45 -34.5 66.5t-81.5 21.5h-285v-291h-170v717h489q135 0 199 -50.5t64 -140.5q0 -149 -156 -179v-10zM548 406q126 0 126 102q0 44 -30.5 68t-91.5 24h-296v-194h292zM431 -224h-124l101 178h168z" />
    <glyph glyph-name="uni0157" unicode="&#x157;" horiz-adv-x="656" 
d="M625 386v-93h-135v63q0 110 -120 110q-70 0 -105.5 -35t-35.5 -109v-322h-151v575h151v-104h9q24 62 67.5 89.5t119.5 27.5q200 0 200 -202zM187 -224h-124l101 178h168z" />
    <glyph glyph-name="Rcaron" unicode="&#x158;" horiz-adv-x="893" 
d="M682 337q68 -8 104.5 -44.5t36.5 -93.5v-199h-166v203q0 45 -34.5 66.5t-81.5 21.5h-285v-291h-170v717h489q135 0 199 -50.5t64 -140.5q0 -149 -156 -179v-10zM548 406q126 0 126 102q0 44 -30.5 68t-91.5 24h-296v-194h292zM433 867l80 104h131l-160 -183h-102
l-160 183h131z" />
    <glyph glyph-name="rcaron" unicode="&#x159;" horiz-adv-x="656" 
d="M625 386v-93h-135v63q0 110 -120 110q-70 0 -105.5 -35t-35.5 -109v-322h-151v575h151v-104h9q24 62 67.5 89.5t119.5 27.5q200 0 200 -202zM339 717l80 104h131l-160 -183h-102l-160 183h131z" />
    <glyph glyph-name="Sacute" unicode="&#x15a;" horiz-adv-x="861" 
d="M209 14q-84 26 -120 77.5t-38 134.5h166q5 -62 53.5 -92t166.5 -30q115 0 164.5 24.5t49.5 70.5q0 32 -17.5 50t-66 29t-147.5 20q-143 13 -219.5 38t-106 66t-29.5 110q0 103 86 159.5t255 56.5q190 0 279 -52.5t93 -166.5h-170q-5 52 -50 75.5t-148 23.5
q-98 0 -142.5 -19.5t-44.5 -61.5q0 -30 18 -47t67.5 -28.5t150.5 -21.5q141 -14 216 -37t106.5 -64.5t31.5 -113.5q0 -111 -94.5 -169t-282.5 -58q-143 0 -227 26zM419 955h232v-20l-203 -151h-131z" />
    <glyph glyph-name="sacute" unicode="&#x15b;" horiz-adv-x="706" 
d="M175 8q-68 20 -97.5 62.5t-31.5 114.5h152q1 -53 38 -77.5t123 -24.5q85 0 121.5 18.5t36.5 53.5q0 29 -15.5 43t-57 22.5t-139.5 19.5q-98 12 -152.5 34.5t-76 57t-21.5 87.5q0 79 71 124t214 45q111 0 177 -19t95.5 -58t29.5 -103h-152q0 49 -35.5 68t-115.5 19
q-77 0 -111 -16t-34 -48q0 -24 14 -37.5t51 -22.5t116 -18q114 -13 175.5 -33.5t86.5 -54t25 -90.5q0 -187 -299 -187q-120 0 -188 20zM349 807h187v-20l-188 -151h-101z" />
    <glyph glyph-name="Scircumflex" unicode="&#x15c;" horiz-adv-x="861" 
d="M209 14q-84 26 -120 77.5t-38 134.5h166q5 -62 53.5 -92t166.5 -30q115 0 164.5 24.5t49.5 70.5q0 32 -17.5 50t-66 29t-147.5 20q-143 13 -219.5 38t-106 66t-29.5 110q0 103 86 159.5t255 56.5q190 0 279 -52.5t93 -166.5h-170q-5 52 -50 75.5t-148 23.5
q-98 0 -142.5 -19.5t-44.5 -61.5q0 -30 18 -47t67.5 -28.5t150.5 -21.5q141 -14 216 -37t106.5 -64.5t31.5 -113.5q0 -111 -94.5 -169t-282.5 -58q-143 0 -227 26zM487 963l160 -183h-131l-80 103l-80 -103h-131l160 183h102z" />
    <glyph glyph-name="scircumflex" unicode="&#x15d;" horiz-adv-x="706" 
d="M175 8q-68 20 -97.5 62.5t-31.5 114.5h152q1 -53 38 -77.5t123 -24.5q85 0 121.5 18.5t36.5 53.5q0 29 -15.5 43t-57 22.5t-139.5 19.5q-98 12 -152.5 34.5t-76 57t-21.5 87.5q0 79 71 124t214 45q111 0 177 -19t95.5 -58t29.5 -103h-152q0 49 -35.5 68t-115.5 19
q-77 0 -111 -16t-34 -48q0 -24 14 -37.5t51 -22.5t116 -18q114 -13 175.5 -33.5t86.5 -54t25 -90.5q0 -187 -299 -187q-120 0 -188 20zM402 821l160 -183h-131l-80 104l-80 -104h-131l160 183h102z" />
    <glyph glyph-name="Scedilla" unicode="&#x15e;" horiz-adv-x="861" 
d="M721 47q-92 -58 -274 -59l-29 -44h80q51 0 80 -22t29 -67q0 -47 -36 -72.5t-103 -25.5q-109 0 -160 6l-16 75q67 -5 159 -5q56 0 56 29q0 28 -48 28h-109l-14 30l45 69q-122 5 -194 32.5t-103 77.5t-33 127h166q5 -62 53.5 -92t166.5 -30q115 0 164.5 24.5t49.5 70.5
q0 32 -17.5 50t-66 29t-147.5 20q-143 13 -219.5 38t-106 66t-29.5 110q0 103 86 159.5t255 56.5q190 0 279 -52.5t93 -166.5h-170q-5 52 -50 75.5t-148 23.5q-98 0 -142.5 -19.5t-44.5 -61.5q0 -30 18 -47t67.5 -28.5t150.5 -21.5q141 -14 216 -37t106.5 -64.5t31.5 -113.5
q0 -110 -92 -168z" />
    <glyph glyph-name="scedilla" unicode="&#x15f;" horiz-adv-x="706" 
d="M363 -12l-29 -44h80q51 0 80 -22t29 -67q0 -47 -36 -72.5t-103 -25.5q-109 0 -160 6l-16 75q67 -5 159 -5q56 0 56 29q0 28 -48 28h-109l-14 30l45 70q-93 5 -147.5 27t-78 62.5t-25.5 105.5h152q1 -53 38 -77.5t123 -24.5q85 0 121.5 18.5t36.5 53.5q0 29 -15.5 43
t-57 22.5t-139.5 19.5q-98 12 -152.5 34.5t-76 57t-21.5 87.5q0 79 71 124t214 45q111 0 177 -19t95.5 -58t29.5 -103h-152q0 49 -35.5 68t-115.5 19q-77 0 -111 -16t-34 -48q0 -24 14 -37.5t51 -22.5t116 -18q114 -13 175.5 -33.5t86.5 -54t25 -90.5q0 -187 -299 -187z" />
    <glyph glyph-name="Scaron" unicode="&#x160;" horiz-adv-x="861" 
d="M209 14q-84 26 -120 77.5t-38 134.5h166q5 -62 53.5 -92t166.5 -30q115 0 164.5 24.5t49.5 70.5q0 32 -17.5 50t-66 29t-147.5 20q-143 13 -219.5 38t-106 66t-29.5 110q0 103 86 159.5t255 56.5q190 0 279 -52.5t93 -166.5h-170q-5 52 -50 75.5t-148 23.5
q-98 0 -142.5 -19.5t-44.5 -61.5q0 -30 18 -47t67.5 -28.5t150.5 -21.5q141 -14 216 -37t106.5 -64.5t31.5 -113.5q0 -111 -94.5 -169t-282.5 -58q-143 0 -227 26zM423 867l80 104h131l-160 -183h-102l-160 183h131z" />
    <glyph glyph-name="scaron" unicode="&#x161;" horiz-adv-x="706" 
d="M175 8q-68 20 -97.5 62.5t-31.5 114.5h152q1 -53 38 -77.5t123 -24.5q85 0 121.5 18.5t36.5 53.5q0 29 -15.5 43t-57 22.5t-139.5 19.5q-98 12 -152.5 34.5t-76 57t-21.5 87.5q0 79 71 124t214 45q111 0 177 -19t95.5 -58t29.5 -103h-152q0 49 -35.5 68t-115.5 19
q-77 0 -111 -16t-34 -48q0 -24 14 -37.5t51 -22.5t116 -18q114 -13 175.5 -33.5t86.5 -54t25 -90.5q0 -187 -299 -187q-120 0 -188 20zM351 717l80 104h131l-160 -183h-102l-160 183h131z" />
    <glyph glyph-name="uni0162" unicode="&#x162;" horiz-adv-x="842" 
d="M830 599h-324v-599h-65l-37 -56h80q51 0 80 -22t29 -67q0 -47 -36 -72.5t-103 -25.5q-109 0 -160 6l-16 75q67 -5 159 -5q56 0 56 29q0 28 -48 28h-109l-14 30l52 80h-38v599h-324v118h818v-118z" />
    <glyph glyph-name="uni0163" unicode="&#x163;" horiz-adv-x="496" 
d="M284 0h-71l-37 -56h80q51 0 80 -22t29 -67q0 -47 -36 -72.5t-103 -25.5q-109 0 -160 6l-16 75q67 -5 159 -5q56 0 56 29q0 28 -48 28h-109l-14 30l52 80h-12v468h-116l10 107h108v118h145v-118h202v-107h-199v-468z" />
    <glyph glyph-name="Tcaron" unicode="&#x164;" horiz-adv-x="842" 
d="M830 717v-118h-324v-599h-170v599h-324v118h818zM422 867l80 104h131l-160 -183h-102l-160 183h131z" />
    <glyph glyph-name="tcaron" unicode="&#x165;" horiz-adv-x="496" 
d="M344 637l5 161h120l-49 -161h-76zM284 0h-150v468h-116l10 107h108v118h145v-118h202v-107h-199v-468z" />
    <glyph glyph-name="Tbar" unicode="&#x166;" horiz-adv-x="853" 
d="M836 717v-118h-324v-176h174v-94h-174v-329h-170v329h-176v94h176v176h-324v118h818z" />
    <glyph glyph-name="tbar" unicode="&#x167;" horiz-adv-x="500" 
d="M486 575v-107h-199v-114h134v-69h-134v-285h-150v285h-94v69h94v114h-116l10 107h108v118h145v-118h202z" />
    <glyph glyph-name="Utilde" unicode="&#x168;" horiz-adv-x="925" 
d="M846 296q0 -108 -39 -175t-123.5 -99.5t-223.5 -32.5q-199 0 -290 71.5t-91 229.5v427h170v-412q0 -65 20 -105.5t66.5 -60.5t125.5 -20q81 0 127.5 20t67 62t20.5 112v404h170v-421zM585 960l87 -4l-3 -49q-4 -52 -37 -79t-77 -27q-27 0 -49.5 7.5t-45.5 21.5
q-39 25 -63 25q-16 0 -27 -9t-12 -24l-2 -28l-87 4l3 45q3 53 36 80.5t77 27.5q27 0 48 -7.5t48 -22.5q39 -24 62 -24q15 0 26.5 10t12.5 25z" />
    <glyph glyph-name="utilde" unicode="&#x169;" horiz-adv-x="799" 
d="M719 470h-1v-470h-150v108h-10q-30 -61 -80.5 -91t-145.5 -30q-124 0 -191.5 56.5t-67.5 171.5v360h152v-105h-2v-229q0 -69 40 -103t126 -34q87 0 133 35.5t46 104.5v331h151v-105zM518 827l87 -5l-3 -50q-3 -58 -36 -87.5t-78 -29.5t-95 32q-40 27 -63 27
q-16 0 -27 -9.5t-12 -26.5l-2 -30l-87 4l3 51q3 57 35.5 86t77.5 29q27 0 47.5 -8.5t48.5 -24.5q19 -13 33.5 -19.5t28.5 -6.5q15 0 26.5 10.5t12.5 27.5z" />
    <glyph glyph-name="Umacron" unicode="&#x16a;" horiz-adv-x="925" 
d="M846 296q0 -108 -39 -175t-123.5 -99.5t-223.5 -32.5q-199 0 -290 71.5t-91 229.5v427h170v-412q0 -65 20 -105.5t66.5 -60.5t125.5 -20q81 0 127.5 20t67 62t20.5 112v404h170v-421zM281 818v84h354v-84h-354z" />
    <glyph glyph-name="umacron" unicode="&#x16b;" horiz-adv-x="799" 
d="M719 470h-1v-470h-150v108h-10q-30 -61 -80.5 -91t-145.5 -30q-124 0 -191.5 56.5t-67.5 171.5v360h152v-105h-2v-229q0 -69 40 -103t126 -34q87 0 133 35.5t46 104.5v331h151v-105zM234 687v85h334v-85h-334z" />
    <glyph glyph-name="Ubreve" unicode="&#x16c;" horiz-adv-x="925" 
d="M846 296q0 -108 -39 -175t-123.5 -99.5t-223.5 -32.5q-199 0 -290 71.5t-91 229.5v427h170v-412q0 -65 20 -105.5t66.5 -60.5t125.5 -20q81 0 127.5 20t67 62t20.5 112v404h170v-421zM668 945q0 -86 -53.5 -128.5t-150.5 -42.5t-150.5 42.5t-54.5 128.5h98
q1 -40 26 -59.5t81 -19.5t80.5 19.5t25.5 59.5h98z" />
    <glyph glyph-name="ubreve" unicode="&#x16d;" horiz-adv-x="799" 
d="M719 470h-1v-470h-150v108h-10q-30 -61 -80.5 -91t-145.5 -30q-124 0 -191.5 56.5t-67.5 171.5v360h152v-105h-2v-229q0 -69 40 -103t126 -34q87 0 133 35.5t46 104.5v331h151v-105zM610 817q-1 -86 -54.5 -128.5t-150.5 -42.5t-150.5 42.5t-53.5 128.5h98
q1 -39 25.5 -59t80.5 -20t81 20t26 59h98z" />
    <glyph glyph-name="Uring" unicode="&#x16e;" horiz-adv-x="925" 
d="M846 296q0 -108 -39 -175t-123.5 -99.5t-223.5 -32.5q-199 0 -290 71.5t-91 229.5v427h170v-412q0 -65 20 -105.5t66.5 -60.5t125.5 -20q81 0 127.5 20t67 62t20.5 112v404h170v-421zM348 791q-39 33 -39 84q0 52 39 85t116 33t115.5 -33t38.5 -85q0 -51 -38.5 -84
t-115.5 -33t-116 33zM551 875q0 60 -87 60q-88 0 -88 -60q0 -59 88 -59q87 0 87 59z" />
    <glyph glyph-name="uring" unicode="&#x16f;" horiz-adv-x="799" 
d="M719 470h-1v-470h-150v108h-10q-30 -61 -80.5 -91t-145.5 -30q-124 0 -191.5 56.5t-67.5 171.5v360h152v-105h-2v-229q0 -69 40 -103t126 -34q87 0 133 35.5t46 104.5v331h151v-105zM279 674.5q-39 32.5 -39 83.5q0 52 39 85t116 33q78 0 116.5 -33t38.5 -85
q0 -51 -38.5 -83.5t-116.5 -32.5q-77 0 -116 32.5zM482 758q0 28 -19.5 44t-67.5 16q-87 0 -87 -60q0 -59 87 -59t87 59z" />
    <glyph glyph-name="Uhungarumlaut" unicode="&#x170;" horiz-adv-x="925" 
d="M846 296q0 -108 -39 -175t-123.5 -99.5t-223.5 -32.5q-199 0 -290 71.5t-91 229.5v427h170v-412q0 -65 20 -105.5t66.5 -60.5t125.5 -20q81 0 127.5 20t67 62t20.5 112v404h170v-421zM366 957h160v-20l-141 -151h-121zM586 957h160v-20l-141 -151h-121z" />
    <glyph glyph-name="uhungarumlaut" unicode="&#x171;" horiz-adv-x="799" 
d="M719 470h-1v-470h-150v108h-10q-30 -61 -80.5 -91t-145.5 -30q-124 0 -191.5 56.5t-67.5 171.5v360h152v-105h-2v-229q0 -69 40 -103t126 -34q87 0 133 35.5t46 104.5v331h151v-105zM316 807h160v-20l-141 -151h-121zM536 807h160v-20l-141 -151h-121z" />
    <glyph glyph-name="Uogonek" unicode="&#x172;" horiz-adv-x="925" 
d="M846 296q0 -127 -54.5 -198t-174.5 -95q-37 -29 -47.5 -42t-10.5 -34q0 -18 12.5 -26t39.5 -8l77 -1l-12 -74h-129q-50 0 -79 19.5t-29 58.5q0 34 10.5 53t42.5 40h-32q-199 0 -290 71.5t-91 229.5v427h170v-412q0 -65 20 -105.5t66.5 -60.5t125.5 -20q81 0 127.5 20
t67 62t20.5 112v404h170v-421z" />
    <glyph glyph-name="uogonek" unicode="&#x173;" horiz-adv-x="799" 
d="M733 -108l-12 -74h-129q-50 0 -79 19.5t-29 58.5q0 28 6.5 45t24 32t53.5 35v100h-10q-30 -61 -80.5 -91t-145.5 -30q-124 0 -191.5 56.5t-67.5 171.5v360h152v-105h-2v-229q0 -69 40 -103t126 -34q87 0 133 35.5t46 104.5v331h151v-105h-1v-470h-59q-34 -26 -44.5 -39.5
t-10.5 -33.5q0 -18 12.5 -26t39.5 -8z" />
    <glyph glyph-name="Wcircumflex" unicode="&#x174;" horiz-adv-x="1396" 
d="M1385 717v-24l-258 -693h-215l-214 549l-214 -549h-215l-258 693v24h170l207 -570h20l209 570h163l215 -570h18l202 570h170zM750 963l160 -183h-131l-80 103l-80 -103h-131l160 183h102z" />
    <glyph glyph-name="wcircumflex" unicode="&#x175;" horiz-adv-x="1165" 
d="M1150 575v-23l-201 -552h-213l-153 420l-154 -420h-213l-199 549v26h142l167 -478h10l171 478h151l171 -478h10l167 478h144zM653 821l160 -183h-131l-80 104l-80 -104h-131l160 183h102z" />
    <glyph glyph-name="Ycircumflex" unicode="&#x176;" horiz-adv-x="895" 
d="M884 717v-33l-351 -446v-238h-170v238l-352 446v33h166l271 -359l270 359h166zM492 963l160 -183h-131l-80 103l-80 -103h-131l160 183h102z" />
    <glyph glyph-name="ycircumflex" unicode="&#x177;" horiz-adv-x="738" 
d="M724 548l-298 -627q-20 -43 -44.5 -65t-57 -29t-85.5 -7h-210l-15 107h207q30 0 46 5.5t26.5 19.5t22.5 43l21 46h-44l-275 509v25h150l210 -423h10l194 423h142v-27zM414 821l160 -183h-131l-80 104l-80 -104h-131l160 183h102z" />
    <glyph glyph-name="Ydieresis" unicode="&#x178;" horiz-adv-x="895" 
d="M884 717v-33l-351 -446v-238h-170v238l-352 446v33h166l271 -359l270 359h166zM266 812v137h136v-137h-136zM481 812v137h135v-137h-135z" />
    <glyph glyph-name="Zacute" unicode="&#x179;" horiz-adv-x="794" 
d="M760 717v-58l-490 -546h487v-113h-733v57l488 552h-458v108h706zM384 955h232v-20l-203 -151h-131z" />
    <glyph glyph-name="zacute" unicode="&#x17a;" horiz-adv-x="663" 
d="M242 112v-9h387v-103h-594v78l377 386v12h-370v99h582v-76zM337 807h187v-20l-188 -151h-101z" />
    <glyph glyph-name="Zdotaccent" unicode="&#x17b;" horiz-adv-x="794" 
d="M760 717v-58l-490 -546h487v-113h-733v57l488 552h-458v108h706zM340 803v137h136v-137h-136z" />
    <glyph glyph-name="zdotaccent" unicode="&#x17c;" horiz-adv-x="663" 
d="M242 112v-9h387v-103h-594v78l377 386v12h-370v99h582v-76zM265 666v136h136v-136h-136z" />
    <glyph glyph-name="uni0192" unicode="&#x192;" horiz-adv-x="654" 
d="M424 666q-35 0 -51.5 -13.5t-21.5 -43.5l-23 -145h211v-103h-227l-86 -543h-150l85 543h-106v103h123l23 149q25 161 208 161h218v-108h-203z" />
    <glyph glyph-name="Aringacute" unicode="&#x1fa;" horiz-adv-x="942" 
d="M575 717l364 -682v-35h-166l-76 150h-461l-76 -150h-159v35l366 682h208zM466 604l-168 -333h337zM183 791q-39 33 -39 84q0 52 39 85t116 33t115.5 -33t38.5 -85q0 -51 -38.5 -84t-115.5 -33t-116 33zM386 875q0 60 -87 60q-88 0 -88 -60q0 -59 88 -59q87 0 87 59z
M579 955h232v-20l-203 -151h-131z" />
    <glyph glyph-name="aringacute" unicode="&#x1fb;" horiz-adv-x="745" 
d="M463 709l84 170h155v-19l-155 -151h-84zM168 674.5q-39 32.5 -39 83.5q0 52 39 85t116 33q78 0 116.5 -33t38.5 -85q0 -51 -38.5 -83.5t-116.5 -32.5q-77 0 -116 32.5zM197 758q0 -59 87 -59t87 59q0 28 -19.5 44t-67.5 16q-87 0 -87 -60zM671 376v-376h-146l2 95l-11 1
q-26 -56 -80.5 -82t-159.5 -26q-118 0 -174 39.5t-56 126.5q0 91 59 130.5t185 44.5l232 11v34q0 56 -36.5 83t-116.5 27q-82 0 -120 -28t-38 -83h-140q0 107 78 161t226 54q296 0 296 -212zM473 115.5q49 27.5 49 89.5v41l-217 -11q-60 -3 -85 -18.5t-25 -52.5
q0 -38 29.5 -57t105.5 -19q94 0 143 27.5z" />
    <glyph glyph-name="AEacute" unicode="&#x1fc;" horiz-adv-x="1150" 
d="M1103 717v-118h-403v-177h288v-115h-288v-189h403v-118h-573v147h-304l-75 -147h-147v35l366 682h733zM288 270h242v329h-75zM702 955h232v-20l-203 -151h-131z" />
    <glyph glyph-name="aeacute" unicode="&#x1fd;" horiz-adv-x="1213" 
d="M1164 263h-498q2 -80 49.5 -126t136.5 -46q80 0 120 24t48 76h144q-8 -98 -87.5 -150.5t-227.5 -52.5q-197 0 -273 115h-5q-28 -56 -94 -85.5t-187 -29.5q-127 0 -185.5 39.5t-58.5 126.5q0 62 27 97.5t79.5 52t137.5 20.5l232 11v39q0 55 -36.5 82.5t-116.5 27.5
q-82 0 -120 -28t-38 -83h-140q0 107 78 161t226 54q170 0 240 -79q40 38 98.5 58.5t130.5 20.5q320 0 320 -284v-41zM1018 350v7q0 64 -43 98.5t-129 34.5t-129.5 -37.5t-49.5 -102.5h351zM472.5 115.5q49.5 27.5 49.5 89.5v41l-217 -11q-60 -3 -85 -18.5t-25 -52.5
q0 -38 29.5 -57t105.5 -19q93 0 142.5 27.5zM621 807h187v-20l-188 -151h-101z" />
    <glyph glyph-name="Oslashacute" unicode="&#x1fe;" horiz-adv-x="1000" 
d="M842 616q101 -96 101 -257q0 -176 -113.5 -273.5t-330.5 -97.5q-182 0 -292 70l-103 -91l-36 50l89 79q-102 94 -102 263q0 114 52 197t152 127.5t240 44.5q181 0 295 -74l92 81l35 -49zM278 201l405 356q-67 48 -184 48q-132 0 -200 -62t-68 -183q0 -98 47 -159z
M697.5 176q69.5 63 69.5 184q0 96 -42 154l-403 -355q65 -46 177 -46q129 0 198.5 63zM508 955h232v-20l-203 -151h-131z" />
    <glyph glyph-name="oslashacute" unicode="&#x1ff;" horiz-adv-x="806" 
d="M757 550l-69 -60q66 -75 66 -199q0 -150 -91 -226.5t-262 -76.5q-140 0 -226 51l-84 -74l-36 50l71 62q-75 75 -75 210q0 149 91 225t261 76q152 0 238 -58l80 70zM230 169l314 275q-49 40 -141 40q-102 0 -150.5 -47.5t-48.5 -146.5q0 -74 26 -121zM581 396l-309 -272
q47 -32 131 -32q101 0 149.5 48t48.5 148q0 67 -20 108zM402 807h187v-20l-188 -151h-101z" />
    <glyph glyph-name="uni0218" unicode="&#x218;" horiz-adv-x="872" 
d="M209 14q-84 26 -120 77.5t-38 134.5h166q5 -62 53.5 -92t166.5 -30q115 0 164.5 24.5t49.5 70.5q0 32 -17.5 50t-66 29t-147.5 20q-143 13 -219.5 38t-106 66t-29.5 110q0 103 86 159.5t255 56.5q190 0 279 -52.5t93 -166.5h-170q-5 52 -50 75.5t-148 23.5
q-98 0 -142.5 -19.5t-44.5 -61.5q0 -30 18 -47t67.5 -28.5t150.5 -21.5q141 -14 216 -37t106.5 -64.5t31.5 -113.5q0 -111 -94.5 -169t-282.5 -58q-143 0 -227 26zM407 -224h-124l101 178h168z" />
    <glyph glyph-name="uni0219" unicode="&#x219;" horiz-adv-x="706" 
d="M175 8q-68 20 -97.5 62.5t-31.5 114.5h152q1 -53 38 -77.5t123 -24.5q85 0 121.5 18.5t36.5 53.5q0 29 -15.5 43t-57 22.5t-139.5 19.5q-98 12 -152.5 34.5t-76 57t-21.5 87.5q0 79 71 124t214 45q111 0 177 -19t95.5 -58t29.5 -103h-152q0 49 -35.5 68t-115.5 19
q-77 0 -111 -16t-34 -48q0 -24 14 -37.5t51 -22.5t116 -18q114 -13 175.5 -33.5t86.5 -54t25 -90.5q0 -187 -299 -187q-120 0 -188 20zM338 -224h-124l101 178h168z" />
    <glyph glyph-name="uni021A" unicode="&#x21a;" horiz-adv-x="842" 
d="M830 717v-118h-324v-599h-170v599h-324v118h818zM400 -224h-124l101 178h168z" />
    <glyph glyph-name="uni021B" unicode="&#x21b;" horiz-adv-x="496" 
d="M284 0h-150v468h-116l10 107h108v118h145v-118h202v-107h-199v-468zM194 -224h-124l101 178h168z" />
    <glyph glyph-name="uni0237" unicode="&#x237;" horiz-adv-x="318" 
d="M231 3q0 -58 -10.5 -109t-26.5 -76h-139q26 102 26 185v572h150v-572z" />
    <glyph glyph-name="circumflex" unicode="&#x2c6;" horiz-adv-x="511" 
d="M60 651l141 167h112l137 -167h-107l-89 77l-89 -77h-105z" />
    <glyph glyph-name="caron" unicode="&#x2c7;" horiz-adv-x="466" 
d="M233 717l80 104h131l-160 -183h-102l-160 183h131z" />
    <glyph glyph-name="breve" unicode="&#x2d8;" horiz-adv-x="511" 
d="M453 817q-1 -86 -54.5 -128.5t-150.5 -42.5t-150.5 42.5t-53.5 128.5h98q1 -39 25.5 -59t80.5 -20t81 20t26 59h98z" />
    <glyph glyph-name="dotaccent" unicode="&#x2d9;" horiz-adv-x="511" 
d="M195 683.5q-24 21.5 -24 55.5q0 33 24 54.5t61 21.5q36 0 60 -22t24 -54q0 -34 -24 -55.5t-60 -21.5q-37 0 -61 21.5z" />
    <glyph glyph-name="ring" unicode="&#x2da;" horiz-adv-x="511" 
d="M190 657.5q-30 15.5 -48 42.5t-18 58q0 32 18 59t48 43t65 16t65.5 -16t48 -43t17.5 -59q0 -31 -17.5 -58t-48 -42.5t-65.5 -15.5t-65 15.5zM300.5 715.5q17.5 16.5 17.5 42.5t-17.5 43t-45.5 17q-27 0 -44.5 -17t-17.5 -43t17.5 -42.5t44.5 -16.5q28 0 45.5 16.5z" />
    <glyph glyph-name="ogonek" unicode="&#x2db;" horiz-adv-x="511" 
d="M237 -182q-50 0 -79 19.5t-29 58.5q0 29 7 46t26 32.5t58 37.5l93 -5q-41 -31 -52.5 -45t-11.5 -35q0 -18 12.5 -26t39.5 -8l77 -1l-12 -74h-129z" />
    <glyph glyph-name="tilde" unicode="&#x2dc;" horiz-adv-x="516" 
d="M368 821h87v-40q0 -60 -34 -91t-81 -31q-24 0 -45.5 7.5t-44.5 20.5q-33 21 -60 21q-16 0 -28 -10.5t-13 -27.5v-21h-87v40q0 60 33.5 91t80.5 31q25 0 45.5 -7.5t44.5 -20.5q19 -10 32.5 -15.5t28.5 -5.5q17 0 28.5 10.5t11.5 27.5z" />
    <glyph glyph-name="hungarumlaut" unicode="&#x2dd;" horiz-adv-x="730" 
d="M239 807h160v-20l-141 -151h-121zM459 807h160v-20l-141 -151h-121z" />
    <glyph glyph-name="gravecomb" unicode="&#x300;" 
d="M-594 787v20h188l102 -171h-101z" />
    <glyph glyph-name="acutecomb" unicode="&#x301;" 
d="M-394 807h187v-20l-188 -151h-101z" />
    <glyph glyph-name="uni0302" unicode="&#x302;" 
d="M-182 821l160 -183h-131l-80 104l-80 -104h-131l160 183h102z" />
    <glyph glyph-name="tildecomb" unicode="&#x303;" 
d="M-143 827l87 -5l-3 -50q-3 -58 -36 -87.5t-78 -29.5t-95 32q-40 27 -63 27q-16 0 -27 -9.5t-12 -26.5l-2 -30l-87 4l3 51q3 57 35.5 86t77.5 29q27 0 47.5 -8.5t48.5 -24.5q19 -13 33.5 -19.5t28.5 -6.5q15 0 26.5 10.5t12.5 27.5z" />
    <glyph glyph-name="uni0304" unicode="&#x304;" 
d="M-423 687v85h334v-85h-334z" />
    <glyph glyph-name="uni0306" unicode="&#x306;" 
d="M-58 817q-1 -86 -54.5 -128.5t-150.5 -42.5t-150.5 42.5t-53.5 128.5h98q1 -39 25.5 -59t80.5 -20t81 20t26 59h98z" />
    <glyph glyph-name="uni0307" unicode="&#x307;" 
d="M-227 666v136h136v-136h-136z" />
    <glyph glyph-name="uni0308" unicode="&#x308;" 
d="M-424 666v136h136v-136h-136zM-211 666v136h136v-136h-136z" />
    <glyph glyph-name="uni030A" unicode="&#x30a;" 
d="M-361 674.5q-39 32.5 -39 83.5q0 52 39 85t116 33q78 0 116.5 -33t38.5 -85q0 -51 -38.5 -83.5t-116.5 -32.5q-77 0 -116 32.5zM-158 758q0 28 -19.5 44t-67.5 16q-87 0 -87 -60q0 -59 87 -59t87 59z" />
    <glyph glyph-name="uni030B" unicode="&#x30b;" 
d="M-491 807h160v-20l-141 -151h-121zM-271 807h160v-20l-141 -151h-121z" />
    <glyph glyph-name="uni030C" unicode="&#x30c;" 
d="M-233 717l80 104h131l-160 -183h-102l-160 183h131z" />
    <glyph glyph-name="uni0326" unicode="&#x326;" 
 />
    <glyph glyph-name="uni0327" unicode="&#x327;" 
d="M-230 14l66 -2l-45 -68h80q51 0 80 -22t29 -67q0 -47 -36 -72.5t-103 -25.5q-109 0 -160 6l-16 75q68 -5 159 -5q56 0 56 29q0 28 -48 28h-109l-14 30z" />
    <glyph glyph-name="uni0328" unicode="&#x328;" 
d="M-274 -182q-50 0 -79 19.5t-29 58.5q0 29 7 46t26 32.5t58 37.5l93 -5q-41 -31 -52.5 -45t-11.5 -35q0 -18 12.5 -26t39.5 -8l77 -1l-12 -74h-129z" />
    <glyph glyph-name="Wgrave" unicode="&#x1e80;" horiz-adv-x="1396" 
d="M1385 717v-24l-258 -693h-215l-214 549l-214 -549h-215l-258 693v24h170l207 -570h20l209 570h163l215 -570h18l202 570h170zM490 931v20h233l102 -171h-131z" />
    <glyph glyph-name="wgrave" unicode="&#x1e81;" horiz-adv-x="1165" 
d="M1150 575v-23l-201 -552h-213l-153 420l-154 -420h-213l-199 549v26h142l167 -478h10l171 478h151l171 -478h10l167 478h144zM421 787v20h188l102 -171h-101z" />
    <glyph glyph-name="Wacute" unicode="&#x1e82;" horiz-adv-x="1396" 
d="M1385 717v-24l-258 -693h-215l-214 549l-214 -549h-215l-258 693v24h170l207 -570h20l209 570h163l215 -570h18l202 570h170zM687 955h232v-20l-203 -151h-131z" />
    <glyph glyph-name="wacute" unicode="&#x1e83;" horiz-adv-x="1165" 
d="M1150 575v-23l-201 -552h-213l-153 420l-154 -420h-213l-199 549v26h142l167 -478h10l171 478h151l171 -478h10l167 478h144zM606 807h187v-20l-188 -151h-101z" />
    <glyph glyph-name="Wdieresis" unicode="&#x1e84;" horiz-adv-x="1396" 
d="M1385 717v-24l-258 -693h-215l-214 549l-214 -549h-215l-258 693v24h170l207 -570h20l209 570h163l215 -570h18l202 570h170zM523 812v137h136v-137h-136zM738 812v137h135v-137h-135z" />
    <glyph glyph-name="wdieresis" unicode="&#x1e85;" horiz-adv-x="1165" 
d="M1150 575v-23l-201 -552h-213l-153 420l-154 -420h-213l-199 549v26h142l167 -478h10l171 478h151l171 -478h10l167 478h144zM422 666v136h136v-136h-136zM635 666v136h136v-136h-136z" />
    <glyph glyph-name="Ygrave" unicode="&#x1ef2;" horiz-adv-x="895" 
d="M884 717v-33l-351 -446v-238h-170v238l-352 446v33h166l271 -359l270 359h166zM230 931v20h233l102 -171h-131z" />
    <glyph glyph-name="ygrave" unicode="&#x1ef3;" horiz-adv-x="738" 
d="M724 548l-298 -627q-20 -43 -44.5 -65t-57 -29t-85.5 -7h-210l-15 107h207q30 0 46 5.5t26.5 19.5t22.5 43l21 46h-44l-275 509v25h150l210 -423h10l194 423h142v-27zM186 787v20h188l102 -171h-101z" />
    <glyph glyph-name="uni2009" unicode="&#x2009;" horiz-adv-x="267" 
 />
    <glyph glyph-name="endash" unicode="&#x2013;" horiz-adv-x="639" 
d="M60 267v97h518v-97h-518z" />
    <glyph glyph-name="emdash" unicode="&#x2014;" horiz-adv-x="1106" 
d="M60 267v97h986v-97h-986z" />
    <glyph glyph-name="quoteleft" unicode="&#x2018;" horiz-adv-x="309" 
d="M61 694q0 97 98 97h112v-63h-71q-34 0 -44 -7t-10 -33v-46h84v-196h-169v248z" />
    <glyph glyph-name="quoteright" unicode="&#x2019;" horiz-adv-x="312" 
d="M256 530q0 -42 -25.5 -63.5t-72.5 -21.5h-112v64h83q25 0 33.5 7t8.5 33v45h-84v196h169v-260z" />
    <glyph glyph-name="quotesinglbase" unicode="&#x201a;" horiz-adv-x="305" 
d="M239 1q0 -42 -25 -63.5t-72 -21.5h-112v64h82q25 0 33.5 7t8.5 33v45h-84v196h169v-260z" />
    <glyph glyph-name="quotedblleft" unicode="&#x201c;" horiz-adv-x="541" 
d="M293 707q0 42 25.5 63t72.5 21h112v-63h-83q-25 0 -33.5 -7.5t-8.5 -32.5v-46h84v-196h-169v261zM61 706q0 42 25.5 63t72.5 21h112v-63h-83q-25 0 -33.5 -7t-8.5 -33v-46h84v-196h-169v261z" />
    <glyph glyph-name="quotedblright" unicode="&#x201d;" horiz-adv-x="544" 
d="M488 530q0 -42 -25.5 -63t-72.5 -21h-112v63h83q25 0 33.5 7.5t8.5 32.5v46h-84v196h169v-261zM256 530q0 -42 -25.5 -63.5t-72.5 -21.5h-112v64h83q25 0 33.5 7t8.5 33v45h-84v196h169v-260z" />
    <glyph glyph-name="quotedblbase" unicode="&#x201e;" horiz-adv-x="539" 
d="M473 1q0 -42 -25 -63t-72 -21h-112v63h82q25 0 33.5 7t8.5 34v45h-84v196h169v-261zM241 1q0 -42 -25 -63.5t-72 -21.5h-112v64h82q25 0 33.5 7t8.5 33v45h-84v196h169v-260z" />
    <glyph glyph-name="dagger" unicode="&#x2020;" horiz-adv-x="526" 
d="M489 485h-164l-10 -458h-104l-10 458h-164v103h164v172h124v-172h164v-103z" />
    <glyph glyph-name="daggerdbl" unicode="&#x2021;" horiz-adv-x="547" 
d="M500 588v-103h-164l-4 -184h143v-100h-145l-4 -174h-105l-4 174h-145v100h143l-4 184h-164v103h164v172h125v-172h164z" />
    <glyph glyph-name="bullet" unicode="&#x2022;" horiz-adv-x="487" 
d="M88 334q0 71 37 109t120 38t119 -38t36 -109q0 -70 -36 -108.5t-119 -38.5q-157 0 -157 147z" />
    <glyph glyph-name="ellipsis" unicode="&#x2026;" horiz-adv-x="948" 
d="M65 0v175h169v-175h-169zM389 0v175h169v-175h-169zM713 0v175h169v-175h-169z" />
    <glyph glyph-name="uni2032" unicode="&#x2032;" horiz-adv-x="273" 
d="M66 342l15 373h144l-52 -373h-107z" />
    <glyph glyph-name="uni2033" unicode="&#x2033;" horiz-adv-x="487" 
d="M66 342l15 373h144l-52 -373h-107zM280 342l15 373h144l-52 -373h-107z" />
    <glyph glyph-name="guilsinglleft" unicode="&#x2039;" horiz-adv-x="367" 
d="M201 517h114l-157 -218l157 -218h-114l-157 218z" />
    <glyph glyph-name="guilsinglright" unicode="&#x203a;" horiz-adv-x="367" 
d="M52 517h115l157 -218l-157 -218h-115l157 218z" />
    <glyph glyph-name="Euro" unicode="&#x20ac;" horiz-adv-x="968" 
d="M908 263q-2 -136 -103 -205.5t-274 -69.5q-164 0 -260 69t-122 206h-100v68h92q-1 12 -1 36q0 26 1 38h-92v68h101q27 122 119.5 188.5t252.5 66.5q187 0 281 -71.5t98 -199.5h-173q-4 79 -59 118.5t-147 39.5q-84 0 -133 -34.5t-68 -107.5h315l-20 -68h-305
q-1 -12 -1 -39q0 -24 1 -35h280l-19 -68h-252q18 -83 70 -121t140 -38q92 0 148 39.5t57 119.5h173z" />
    <glyph glyph-name="trademark" unicode="&#x2122;" horiz-adv-x="999" 
d="M278 311h-94v341h-153v65h401v-65h-154v-341zM574 311h-79v406h117l91 -216l92 216h118v-406h-92v300l-109 -245h-30l-108 245v-300z" />
    <glyph glyph-name="arrowleft" unicode="&#x2190;" horiz-adv-x="1154" 
d="M228 364h877v-110h-877l210 -275h-137l-252 330l252 330h137z" />
    <glyph glyph-name="arrowup" unicode="&#x2191;" horiz-adv-x="727" 
d="M364 833l330 -254v-143l-268 205v-769h-125v769l-267 -205v143z" />
    <glyph glyph-name="arrowright" unicode="&#x2192;" horiz-adv-x="1154" 
d="M716 639h137l252 -330l-252 -330h-137l210 275h-877v110h877z" />
    <glyph glyph-name="arrowdown" unicode="&#x2193;" horiz-adv-x="728" 
d="M427 773v-770l267 205v-143l-330 -253l-330 253v143l268 -205v770h125z" />
    <glyph glyph-name="arrowboth" unicode="&#x2194;" horiz-adv-x="1452" 
d="M1017 639h137l252 -330l-252 -330h-137l210 275h-1001l210 -275h-137l-252 330l252 330h137l-210 -275h1001z" />
    <glyph glyph-name="arrowupdn" unicode="&#x2195;" horiz-adv-x="762" 
d="M711 579v-143l-268 205v-687l268 205v-143l-330 -253l-330 253v143l267 -205v687l-267 -205v143l330 254z" />
    <glyph glyph-name="uni2196" unicode="&#x2196;" horiz-adv-x="914" 
d="M264 634l613 -466l-77 -103l-624 475l-1 -345l-108 89l2 416l400 106l108 -88z" />
    <glyph glyph-name="uni2197" unicode="&#x2197;" horiz-adv-x="914" 
d="M846 700l1 -416l-107 -89l-1 345l-624 -475l-77 103l613 466l-313 84l108 88z" />
    <glyph glyph-name="uni2198" unicode="&#x2198;" horiz-adv-x="915" 
d="M739 209l1 345l108 -90l-2 -416l-400 -106l-108 89l312 83l-612 467l77 102z" />
    <glyph glyph-name="uni2199" unicode="&#x2199;" horiz-adv-x="915" 
d="M800 683l77 -102l-612 -467l312 -83l-108 -89l-400 106l-2 416l108 90l1 -345z" />
    <glyph glyph-name="minus" unicode="&#x2212;" horiz-adv-x="691" 
d="M62 319v113h567v-113h-567z" />
    <glyph glyph-name="approxequal" unicode="&#x2248;" horiz-adv-x="636" 
d="M71 358q8 99 47 153.5t107 54.5q35 0 57.5 -13t57.5 -41q7 -6 20.5 -16.5t24 -16t21.5 -5.5q50 0 59 88h102q-8 -101 -45.5 -155.5t-105.5 -54.5q-32 0 -56.5 13.5t-56.5 38.5q-6 5 -20.5 17t-26.5 18t-23 6q-29 0 -42 -24.5t-18 -62.5h-102zM71 108q8 99 47 153.5
t107 54.5q35 0 58.5 -13t56.5 -41q6 -5 20 -16t24.5 -16t21.5 -5q50 0 59 87h102q-8 -100 -45.5 -154.5t-105.5 -54.5q-33 0 -58 13.5t-55 38.5q-7 5 -21.5 17t-26 17.5t-22.5 5.5q-29 0 -42 -24.5t-18 -62.5h-102z" />
    <glyph glyph-name="notequal" unicode="&#x2260;" horiz-adv-x="677" 
d="M605 509v-102h-195l-43 -102h238v-101h-279l-42 -100h-106l42 100h-153v101h195l42 102h-237v102h280l42 101h105l-42 -101h153z" />
    <glyph glyph-name="lessequal" unicode="&#x2264;" horiz-adv-x="583" 
d="M507 174l-436 165v212l436 165v-129l-405 -143l405 -137v-133zM70 135h438v-98h-438v98z" />
    <glyph glyph-name="greaterequal" unicode="&#x2265;" horiz-adv-x="583" 
d="M512 551v-212l-435 -165v133l404 137l-404 143v129zM75 37v98h439v-98h-439z" />
    <glyph glyph-name="uni2460" unicode="&#x2460;" horiz-adv-x="1279" 
d="M799 713v-596h189v-117h-695v117h337v448l-340 -188v132l394 212zM186.5 -56q-146.5 131 -146.5 405t147 405t453 131q304 0 451.5 -132t147.5 -404q0 -274 -146.5 -405t-452.5 -131q-307 0 -453.5 131zM948 -84.5q119 51.5 176 158t57 275.5q0 168 -57.5 275
t-176.5 158.5t-307 51.5q-189 0 -308.5 -51t-176.5 -158t-57 -276t57 -276t176.5 -158t308.5 -51t308 51.5z" />
    <glyph glyph-name="uni2461" unicode="&#x2461;" horiz-adv-x="1279" 
d="M525 117h459v-117h-678v95l44 34l45 34q208 156 281.5 214t99 88t25.5 60q0 45 -37 64.5t-123 19.5q-151 0 -314 -16l12 118q177 16 328 16q162 0 232.5 -48t70.5 -144q0 -50 -21 -89.5t-56 -70.5t-93 -71zM186.5 -56q-146.5 131 -146.5 405t147 405t453 131
q304 0 451.5 -132t147.5 -404q0 -274 -146.5 -405t-452.5 -131q-307 0 -453.5 131zM948 -84.5q119 51.5 176 158t57 275.5q0 168 -57.5 275t-176.5 158.5t-307 51.5q-189 0 -308.5 -51t-176.5 -158t-57 -276t57 -276t176.5 -158t308.5 -51t308 51.5z" />
    <glyph glyph-name="uni2462" unicode="&#x2462;" horiz-adv-x="1279" 
d="M313 0l-13 120h370q82 0 120.5 20.5t38.5 72.5q0 47 -31 66.5t-104 19.5h-225l-15 105l318 185l-1 9l-468 -5l12 124h652l3 -143l-326 -184l2 -8l115 -1q130 -1 184.5 -47t54.5 -131q0 -106 -77.5 -154.5t-234.5 -48.5h-375zM186.5 -56q-146.5 131 -146.5 405t147 405
t453 131q304 0 451.5 -132t147.5 -404q0 -274 -146.5 -405t-452.5 -131q-307 0 -453.5 131zM948 -84.5q119 51.5 176 158t57 275.5q0 168 -57.5 275t-176.5 158.5t-307 51.5q-189 0 -308.5 -51t-176.5 -158t-57 -276t57 -276t176.5 -158t308.5 -51t308 51.5z" />
    <glyph glyph-name="uni2463" unicode="&#x2463;" horiz-adv-x="1279" 
d="M881 327h114v-119h-114v-208h-161v208h-503v113l503 396h161v-390zM720 580l-346 -253h346v253zM186.5 -56q-146.5 131 -146.5 405t147 405t453 131q304 0 451.5 -132t147.5 -404q0 -274 -146.5 -405t-452.5 -131q-307 0 -453.5 131zM948 -84.5q119 51.5 176 158
t57 275.5q0 168 -57.5 275t-176.5 158.5t-307 51.5q-189 0 -308.5 -51t-176.5 -158t-57 -276t57 -276t176.5 -158t308.5 -51t308 51.5z" />
    <glyph glyph-name="uni2464" unicode="&#x2464;" horiz-adv-x="1279" 
d="M327 0l-12 125h335q88 0 127 28t39 95q0 64 -41 91.5t-126 27.5q-74 0 -118 -18t-74 -62h-123v430h613v-121h-469v-213h11q26 49 74 70.5t142 21.5q143 0 212.5 -54.5t69.5 -175.5q0 -134 -79.5 -189.5t-237.5 -55.5h-343zM186.5 -56q-146.5 131 -146.5 405t147 405
t453 131q304 0 451.5 -132t147.5 -404q0 -274 -146.5 -405t-452.5 -131q-307 0 -453.5 131zM948 -84.5q119 51.5 176 158t57 275.5q0 168 -57.5 275t-176.5 158.5t-307 51.5q-189 0 -308.5 -51t-176.5 -158t-57 -276t57 -276t176.5 -158t308.5 -51t308 51.5z" />
    <glyph glyph-name="uni2465" unicode="&#x2465;" horiz-adv-x="1279" 
d="M922 402.5q71 -56.5 71 -172.5q0 -122 -87 -182t-267 -60q-141 0 -223 37t-117 112t-35 198q0 195 95.5 288.5t263.5 93.5h328l10 -122h-327q-67 0 -110.5 -22.5t-67.5 -77.5t-25 -152h10q33 64 91 90t163 26q156 0 227 -56.5zM780 128.5q47 31.5 47 96.5q0 66 -42 97
t-134 31q-103 0 -155.5 -29t-52.5 -95q0 -65 47 -98.5t147 -33.5q96 0 143 31.5zM186.5 -56q-146.5 131 -146.5 405t147 405t453 131q304 0 451.5 -132t147.5 -404q0 -274 -146.5 -405t-452.5 -131q-307 0 -453.5 131zM948 -84.5q119 51.5 176 158t57 275.5q0 168 -57.5 275
t-176.5 158.5t-307 51.5q-189 0 -308.5 -51t-176.5 -158t-57 -276t57 -276t176.5 -158t308.5 -51t308 51.5z" />
    <glyph glyph-name="uni2466" unicode="&#x2466;" horiz-adv-x="1279" 
d="M790 587h-481v130h663v-84l-336 -633h-172zM186.5 -56q-146.5 131 -146.5 405t147 405t453 131q304 0 451.5 -132t147.5 -404q0 -274 -146.5 -405t-452.5 -131q-307 0 -453.5 131zM948 -84.5q119 51.5 176 158t57 275.5q0 168 -57.5 275t-176.5 158.5t-307 51.5
q-189 0 -308.5 -51t-176.5 -158t-57 -276t57 -276t176.5 -158t308.5 -51t308 51.5z" />
    <glyph glyph-name="uni2467" unicode="&#x2467;" horiz-adv-x="1279" 
d="M811 379q103 -20 149 -62.5t46 -112.5q0 -111 -87 -163.5t-279 -52.5q-190 0 -278.5 53t-88.5 163q0 70 45.5 112.5t148.5 62.5v9q-88 19 -126 55t-38 99q0 188 337 188q173 0 254.5 -47.5t81.5 -140.5q0 -64 -38.5 -99.5t-126.5 -54.5v-9zM501 449q39 -24 99 -24h80
q62 0 100 23.5t38 73.5q0 51 -40.5 73.5t-137.5 22.5q-95 0 -136.5 -22.5t-41.5 -73.5q0 -49 39 -73zM793.5 130q46.5 26 46.5 88q0 60 -42 88t-118 28h-80q-73 0 -116.5 -28.5t-43.5 -87.5q0 -62 48 -88t152 -26q107 0 153.5 26zM186.5 -56q-146.5 131 -146.5 405t147 405
t453 131q304 0 451.5 -132t147.5 -404q0 -274 -146.5 -405t-452.5 -131q-307 0 -453.5 131zM948 -84.5q119 51.5 176 158t57 275.5q0 168 -57.5 275t-176.5 158.5t-307 51.5q-189 0 -308.5 -51t-176.5 -158t-57 -276t57 -276t176.5 -158t308.5 -51t308 51.5z" />
    <glyph glyph-name="uni2468" unicode="&#x2468;" horiz-adv-x="1279" 
d="M858 692q82 -37 117 -112t35 -198q0 -196 -95.5 -289t-263.5 -93h-328l-10 122h327q67 0 110.5 22.5t67.5 77.5t25 152h-10q-33 -64 -90.5 -90t-163.5 -26q-156 0 -227 56.5t-71 172.5q0 122 87.5 182t267.5 60q140 0 222 -37zM778.5 393q52.5 29 52.5 95q0 65 -47 98.5
t-147 33.5q-96 0 -142.5 -31.5t-46.5 -96.5q0 -66 42 -97t133 -31q103 0 155.5 29zM186.5 -56q-146.5 131 -146.5 405t147 405t453 131q304 0 451.5 -132t147.5 -404q0 -274 -146.5 -405t-452.5 -131q-307 0 -453.5 131zM948 -84.5q119 51.5 176 158t57 275.5
q0 168 -57.5 275t-176.5 158.5t-307 51.5q-189 0 -308.5 -51t-176.5 -158t-57 -276t57 -276t176.5 -158t308.5 -51t308 51.5z" />
    <glyph glyph-name="uni24C5" unicode="&#x24c5;" horiz-adv-x="1069" 
d="M279.5 1q-107.5 53 -164 146.5t-56.5 210.5q0 116 56.5 209.5t164.5 147.5t255 54q149 0 256 -54t162.5 -146.5t55.5 -208.5q0 -118 -56 -211.5t-163.5 -147t-256.5 -53.5q-146 0 -253.5 53zM757 42.5q94 45.5 143 127.5t49 190q0 106 -48.5 187.5t-142 127t-223.5 45.5
q-131 0 -224.5 -45.5t-141.5 -127.5t-48 -189t49 -188.5t142 -127t221 -45.5q130 0 224 45.5zM347 137v433h259q94 0 136.5 -35t42.5 -108q0 -68 -44.5 -103t-127.5 -35h-150v-152h-116zM598 361q41 0 59 16.5t18 49.5q0 35 -19.5 49.5t-60.5 14.5h-132v-130h135z" />
    <glyph glyph-name="uni24EA" unicode="&#x24ea;" horiz-adv-x="1279" 
d="M1091.5 753q147.5 -132 147.5 -404q0 -274 -146.5 -405t-452.5 -131q-307 0 -453.5 131t-146.5 405t147 405t453 131q304 0 451.5 -132zM948 -84.5q119 51.5 176 158t57 275.5q0 168 -57.5 275t-176.5 158.5t-307 51.5q-189 0 -308.5 -51t-176.5 -158t-57 -276t57 -276
t176.5 -158t308.5 -51t308 51.5zM826 692.5q80 -36.5 124.5 -109.5t44.5 -178v-93q0 -156 -95.5 -240t-259.5 -84t-259.5 84t-95.5 240v93q0 105 44.5 178t124.5 109.5t186 36.5t186 -36.5zM833 406q0 98 -52 149.5t-141 51.5t-141.5 -51.5t-52.5 -149.5v-83
q0 -103 52.5 -157t141.5 -54t141 54t52 157v83z" />
    <glyph glyph-name="circle" unicode="&#x25cb;" horiz-adv-x="1299" 
d="M196.5 -56q-146.5 131 -146.5 405t147 405t453 131q304 0 451.5 -132t147.5 -404q0 -274 -146.5 -405t-452.5 -131q-307 0 -453.5 131zM958 -84.5q119 51.5 176 158t57 275.5q0 168 -57.5 275t-176.5 158.5t-307 51.5q-189 0 -308.5 -51t-176.5 -158t-57 -276t57 -276
t176.5 -158t308.5 -51t308 51.5z" />
    <glyph glyph-name="i.loclTRK" horiz-adv-x="310" 
d="M229 575v-575h-151v575h151zM87 666v136h136v-136h-136z" />
    <glyph glyph-name="a.1" horiz-adv-x="800" 
d="M435 575q141 0 216 -49t75 -158v-368h-144v96l-10 1q-48 -109 -247 -109q-109 0 -166 40t-57 126q0 62 27 97.5t79 52t137 20.5l233 11v28q0 55 -36 82t-112 27h-412l15 103h402zM524.5 116q53.5 28 53.5 87v43l-217 -11q-60 -3 -85.5 -18.5t-25.5 -52.5q0 -38 29.5 -57
t106.5 -19q85 0 138.5 28z" />
    <glyph glyph-name="e.1" horiz-adv-x="836" 
d="M822 110l-13 -110h-422q-170 0 -255.5 72t-85.5 220q0 139 88.5 217.5t250.5 78.5q164 0 247 -69t83 -215v-41h-517q3 -153 191 -153h433zM199 350h370v7q0 64 -45 98.5t-138 34.5q-175 0 -187 -140z" />
    <glyph glyph-name="c_t" horiz-adv-x="1191" 
d="M976 575h202v-109h-199v-466h-150v466h-433q-100 0 -148.5 -42t-48.5 -133q0 -100 51.5 -147.5t153.5 -47.5q84 0 130.5 35t49.5 101h146q-4 -117 -87.5 -180.5t-247.5 -63.5q-166 0 -258 77.5t-92 224.5q0 136 90 210.5t253 74.5h442v118h146v-118z" />
    <glyph glyph-name="c_t_a" horiz-adv-x="1833" 
d="M1684 526q75 -49 75 -158v-368h-144v96l-10 1q-48 -109 -247 -109q-109 0 -166 40t-57 126q0 62 27 97.5t79 52t137 20.5l233 11v28q0 54 -35.5 78.5t-112.5 24.5h-484v-466h-150v466h-433q-100 0 -148.5 -42t-48.5 -133q0 -100 51.5 -147.5t153.5 -47.5q84 0 130.5 35
t49.5 101h146q-4 -117 -87.5 -180.5t-247.5 -63.5q-166 0 -258 77.5t-92 224.5q0 136 90 210.5t253 74.5h442v118h146v-118h492q141 0 216 -49zM1557.5 116q53.5 28 53.5 87v43l-217 -11q-60 -3 -85.5 -18.5t-25.5 -52.5q0 -38 29.5 -57t106.5 -19q85 0 138.5 28z" />
    <glyph glyph-name="f_a" horiz-adv-x="1203" 
d="M1055 526q75 -49 75 -158v-368h-144v96l-11 1q-22 -51 -82 -80t-164 -29q-110 0 -167 40t-57 126q0 62 27 97.5t79.5 52t137.5 20.5l232 11v28q0 55 -35.5 82t-112.5 27h-543v-472h-150v472h-125l10 103h115v38q0 162 182 162h259l10 -106h-237q-35 0 -49.5 -15
t-14.5 -45v-34h549q141 0 216 -49zM927.5 116q53.5 28 53.5 87v43l-217 -11q-60 -3 -85 -18.5t-25 -52.5q0 -38 29.5 -57t105.5 -19q85 0 138.5 28z" />
    <glyph glyph-name="p_a" horiz-adv-x="1576" 
d="M1503 376v-376h-146l2 95l-11 1q-25 -53 -81 -80.5t-165 -27.5q-110 0 -167 40t-57 126q0 91 59 130.5t185 44.5l232 11v34q0 55 -36.5 82.5t-116.5 27.5q-68 0 -172 -4q-102 -4 -165 -4q-52 0 -112.5 3t-77.5 4l-30 2v-14q80 -31 111.5 -79.5t31.5 -121.5
q0 -87 -37.5 -150.5t-105 -97.5t-155.5 -34q-106 0 -161.5 32t-85.5 93h-10v-295h-151v757h151v-108h10q34 62 90.5 91.5t160.5 29.5q83 0 207 -4q28 -1 79 -2t90 -1q36 0 82.5 1t71.5 2q112 4 184 4q296 0 296 -212zM584.5 146.5q50.5 45.5 50.5 145.5q0 186 -196 186
q-100 0 -153.5 -33.5t-53.5 -109.5v-81q0 -153 206 -153q96 0 146.5 45.5zM1304.5 115.5q49.5 27.5 49.5 89.5v41l-217 -11q-60 -3 -85 -18.5t-25 -52.5q0 -38 29.5 -57t105.5 -19q93 0 142.5 27.5z" />
    <glyph glyph-name="r_a" horiz-adv-x="1141" 
d="M772 589q143 0 219.5 -53.5t76.5 -163.5v-372h-144v96l-11 1q-22 -51 -82 -80t-164 -29q-110 0 -167 40t-57 126q0 62 27 97.5t79.5 52t137.5 20.5l232 11v32q0 56 -36.5 83t-116.5 27h-385q-74 0 -113 -39t-39 -115v-323h-151v575h151v-105h9q25 60 68 89.5t115 29.5
h351zM865.5 116q53.5 28 53.5 87v43l-217 -11q-60 -3 -85 -18.5t-25 -52.5q0 -38 29.5 -57t105.5 -19q85 0 138.5 28z" />
    <glyph glyph-name="r_i" horiz-adv-x="859" 
d="M615 655v119h176v-119h-176zM778 0h-151v461h-246q-75 0 -113.5 -35t-38.5 -109v-317h-151v575h151v-115h9q24 60 67 87.5t116 27.5h357v-575z" />
    <glyph glyph-name="s_t" horiz-adv-x="1145" 
d="M930 575h202v-107h-199v-468h-150v471h-140q-35 0 -224 3q-88 2 -110 2q-60 0 -87.5 -13t-27.5 -42q0 -22 14 -33.5t51 -20t116 -17.5q114 -12 175.5 -31.5t86.5 -53t25 -90.5q0 -187 -299 -187q-120 0 -188 20t-97.5 62.5t-31.5 114.5h152q1 -53 38 -77.5t123 -24.5
q85 0 121.5 18.5t36.5 53.5q0 29 -15.5 43t-57 22.5t-139.5 19.5q-99 12 -153 33t-75.5 54.5t-21.5 85.5q0 78 65 120t189 42h319h157v118h145v-118z" />
    <glyph glyph-name="s_t_a" horiz-adv-x="1782" 
d="M1634 526q75 -49 75 -158v-368h-144v96l-11 1q-22 -51 -82 -80t-164 -29q-224 0 -224 166q0 62 27 97.5t79.5 52t137.5 20.5l232 11v28q0 54 -35 78.5t-113 24.5h-479v-466h-150v471h-140q-35 0 -224 3q-88 2 -110 2q-60 0 -87.5 -13t-27.5 -42q0 -22 14 -33.5t51 -20
t116 -17.5q114 -12 175.5 -31.5t86.5 -53t25 -90.5q0 -187 -299 -187q-120 0 -188 20t-97.5 62.5t-31.5 114.5h152q1 -53 38 -77.5t123 -24.5q85 0 121.5 18.5t36.5 53.5q0 29 -15.5 43t-57 22.5t-139.5 19.5q-99 12 -153 33t-75.5 54.5t-21.5 85.5q0 78 65 120t189 42h319
h157v118h145v-118h488q141 0 216 -49zM1506.5 116q53.5 28 53.5 87v43l-217 -11q-60 -3 -85 -18.5t-25 -52.5q0 -38 29.5 -57t105.5 -19q85 0 138.5 28z" />
    <glyph glyph-name="t_a" horiz-adv-x="1129" 
d="M980 526q75 -49 75 -158v-368h-144v96l-10 1q-48 -109 -247 -109q-223 0 -223 166q0 62 27 97.5t79 52t137 20.5l233 11v28q0 54 -35.5 78.5t-112.5 24.5h-479v-466h-150v466h-111l10 109h102v118h146v-118h487q141 0 216 -49zM853.5 116q53.5 28 53.5 87v43l-217 -11
q-60 -3 -85.5 -18.5t-25.5 -52.5q0 -38 29.5 -57t106.5 -19q85 0 138.5 28z" />
    <glyph glyph-name="u_p" horiz-adv-x="1709" 
d="M1586 514q76 -74 76 -222q0 -152 -80 -228t-218 -76q-107 0 -162 32t-85 93h-10v-295h-151v651h-238v-469h-150v108h-10q-30 -59 -81 -90t-146 -31q-123 0 -190.5 56.5t-67.5 171.5v360h150v-334q0 -69 39.5 -103t126.5 -34q86 0 132 35.5t47 104.5v331h539v-108h10
q34 62 90.5 91.5t160.5 29.5q142 0 218 -74zM1459.5 146.5q50.5 45.5 50.5 145.5q0 186 -196 186q-207 0 -207 -143v-81q0 -153 206 -153q96 0 146.5 45.5z" />
    <glyph glyph-name="zero.final" horiz-adv-x="1103" 
d="M717 646q102 -83 102 -241v-93q0 -158 -100 -241t-283 -83q-181 0 -281.5 83.5t-100.5 240.5v93q0 158 101.5 241t280.5 83t281 -83zM650 409q0 197 -214 197q-213 0 -213 -197v-88q0 -208 213 -208q107 0 160.5 51t53.5 157v88zM464 885q305 -1 452 -132.5t147 -403.5
q0 -274 -146.5 -405t-452.5 -131h-484v51h484q189 0 308 51.5t176 158t57 275.5q0 168 -57.5 275t-176.5 158.5t-307 51.5h-484v51h484z" />
    <glyph glyph-name="one.final" horiz-adv-x="1022" 
d="M544 713v-596h189v-117h-695v117h337v448l-340 -188v132l394 212zM383 885q305 -1 452 -132.5t147 -403.5q0 -274 -146.5 -405t-452.5 -131h-484v51h484q189 0 308 51.5t176 158t57 275.5q0 168 -57.5 275t-176.5 158.5t-307 51.5h-484v51h484z" />
    <glyph glyph-name="two.final" horiz-adv-x="1004" 
d="M250 117h459v-117h-678v95l44 34l45 34q208 156 281.5 214t99 88t25.5 60q0 45 -37 64.5t-123 19.5q-151 0 -314 -16l12 118q177 16 328 16q162 0 232.5 -48t70.5 -144q0 -50 -21 -89.5t-56 -70.5t-93 -71zM365 885q305 -1 452 -132.5t147 -403.5q0 -274 -146.5 -405
t-452.5 -131h-484v51h484q189 0 308 51.5t176 158t57 275.5q0 168 -57.5 275t-176.5 158.5t-307 51.5h-484v51h484z" />
    <glyph glyph-name="three.final" horiz-adv-x="1018" 
d="M52 0l-13 120h370q82 0 120.5 20.5t38.5 72.5q0 47 -31 66.5t-104 19.5h-225l-15 105l318 185l-1 9l-468 -5l12 124h652l3 -143l-326 -184l2 -8l115 -1q130 -1 184.5 -47t54.5 -131q0 -106 -77.5 -154.5t-234.5 -48.5h-375zM379 885q305 -1 452 -132.5t147 -403.5
q0 -274 -146.5 -405t-452.5 -131h-484v51h484q189 0 308 51.5t176 158t57 275.5q0 168 -57.5 275t-176.5 158.5t-307 51.5h-484v51h484z" />
    <glyph glyph-name="four.final" horiz-adv-x="1074" 
d="M676 327h114v-119h-114v-208h-161v208h-503v113l503 396h161v-390zM515 580l-346 -253h346v253zM435 885q305 -1 452 -132.5t147 -403.5q0 -274 -146.5 -405t-452.5 -131h-484v51h484q189 0 308 51.5t176 158t57 275.5q0 168 -57.5 275t-176.5 158.5t-307 51.5h-484v51
h484z" />
    <glyph glyph-name="five.final" horiz-adv-x="1010" 
d="M67 0l-12 125h335q88 0 127 28t39 95q0 64 -41 91.5t-126 27.5q-74 0 -118 -18t-74 -62h-123v430h613v-121h-469v-213h11q26 49 74 70.5t142 21.5q143 0 212.5 -54.5t69.5 -175.5q0 -134 -79.5 -189.5t-237.5 -55.5h-343zM371 885q305 -1 452 -132.5t147 -403.5
q0 -274 -146.5 -405t-452.5 -131h-484v51h484q189 0 308 51.5t176 158t57 275.5q0 168 -57.5 275t-176.5 158.5t-307 51.5h-484v51h484z" />
    <glyph glyph-name="six.final" horiz-adv-x="1073" 
d="M710 402.5q71 -56.5 71 -172.5q0 -122 -87 -182t-267 -60q-141 0 -223 37t-117 112t-35 198q0 195 95.5 288.5t263.5 93.5h328l10 -122h-327q-67 0 -110.5 -22.5t-67.5 -77.5t-25 -152h10q33 64 91 90t163 26q156 0 227 -56.5zM568 128.5q47 31.5 47 96.5q0 66 -42 97
t-134 31q-103 0 -155.5 -29t-52.5 -95q0 -65 47 -98.5t147 -33.5q96 0 143 31.5zM434 885q305 -1 452 -132.5t147 -403.5q0 -274 -146.5 -405t-452.5 -131h-484v51h484q189 0 308 51.5t176 158t57 275.5q0 168 -57.5 275t-176.5 158.5t-307 51.5h-484v51h484z" />
    <glyph glyph-name="seven.final" horiz-adv-x="986" 
d="M500 587h-481v130h663v-84l-336 -633h-172zM347 885q305 -1 452 -132.5t147 -403.5q0 -274 -146.5 -405t-452.5 -131h-484v51h484q189 0 308 51.5t176 158t57 275.5q0 168 -57.5 275t-176.5 158.5t-307 51.5h-484v51h484z" />
    <glyph glyph-name="eight.final" horiz-adv-x="1037" 
d="M586 379q103 -20 149 -62.5t46 -112.5q0 -111 -87 -163.5t-279 -52.5q-190 0 -278.5 53t-88.5 163q0 70 45.5 112.5t148.5 62.5v9q-88 19 -126 55t-38 99q0 188 337 188q173 0 254.5 -47.5t81.5 -140.5q0 -64 -38.5 -99.5t-126.5 -54.5v-9zM276 449q39 -24 99 -24h80
q62 0 100 23.5t38 73.5q0 51 -40.5 73.5t-137.5 22.5q-95 0 -136.5 -22.5t-41.5 -73.5q0 -49 39 -73zM568.5 130q46.5 26 46.5 88q0 60 -42 88t-118 28h-80q-73 0 -116.5 -28.5t-43.5 -87.5q0 -62 48 -88t152 -26q107 0 153.5 26zM398 885q305 -1 452 -132.5t147 -403.5
q0 -274 -146.5 -405t-452.5 -131h-484v51h484q189 0 308 51.5t176 158t57 275.5q0 168 -57.5 275t-176.5 158.5t-307 51.5h-484v51h484z" />
    <glyph glyph-name="nine.final" horiz-adv-x="1023" 
d="M622 692q82 -37 117 -112t35 -198q0 -196 -95.5 -289t-263.5 -93h-328l-10 122h327q67 0 110.5 22.5t67.5 77.5t25 152h-10q-33 -64 -90.5 -90t-163.5 -26q-156 0 -227 56.5t-71 172.5q0 122 87.5 182t267.5 60q140 0 222 -37zM542.5 393q52.5 29 52.5 95q0 65 -47 98.5
t-147 33.5q-96 0 -142.5 -31.5t-46.5 -96.5q0 -66 42 -97t133 -31q103 0 155.5 29zM384 885q305 -1 452 -132.5t147 -403.5q0 -274 -146.5 -405t-452.5 -131h-484v51h484q189 0 308 51.5t176 158t57 275.5q0 168 -57.5 275t-176.5 158.5t-307 51.5h-484v51h484z" />
    <glyph glyph-name="zero.initial" horiz-adv-x="1103" 
d="M948 646q102 -83 102 -241v-93q0 -158 -100 -241t-283 -83q-181 0 -281.5 83.5t-100.5 240.5v93q0 158 101.5 241t280.5 83t281 -83zM881 409q0 197 -214 197q-213 0 -213 -197v-88q0 -208 213 -208q107 0 160.5 51t53.5 157v88zM639 834q-187 0 -306.5 -51.5
t-177 -158.5t-57.5 -275q0 -169 57 -275.5t176 -158t308 -51.5h494v-51h-494q-305 0 -452 131t-147 405q0 272 147 403.5t452 132.5h494v-51h-494z" />
    <glyph glyph-name="one.initial" horiz-adv-x="993" 
d="M801 713v-596h189v-117h-695v117h337v448l-340 -188v132l394 212zM639 834q-187 0 -306.5 -51.5t-177 -158.5t-57.5 -275q0 -169 57 -275.5t176 -158t308 -51.5h494v-51h-494q-305 0 -452 131t-147 405q0 272 147 403.5t452 132.5h494v-51h-494z" />
    <glyph glyph-name="two.initial" horiz-adv-x="1028" 
d="M525 117h459v-117h-678v95l44 34l45 34q208 156 281.5 214t99 88t25.5 60q0 45 -37 64.5t-123 19.5q-151 0 -314 -16l12 118q177 16 328 16q162 0 232.5 -48t70.5 -144q0 -50 -21 -89.5t-56 -70.5t-93 -71zM639 834q-187 0 -306.5 -51.5t-177 -158.5t-57.5 -275
q0 -169 57 -275.5t176 -158t308 -51.5h494v-51h-494q-305 0 -452 131t-147 405q0 272 147 403.5t452 132.5h494v-51h-494z" />
    <glyph glyph-name="three.initial" horiz-adv-x="1040" 
d="M313 0l-13 120h370q82 0 120.5 20.5t38.5 72.5q0 47 -31 66.5t-104 19.5h-225l-15 105l318 185l-1 9l-468 -5l12 124h652l3 -143l-326 -184l2 -8l115 -1q130 -1 184.5 -47t54.5 -131q0 -106 -77.5 -154.5t-234.5 -48.5h-375zM639 834q-187 0 -306.5 -51.5t-177 -158.5
t-57.5 -275q0 -169 57 -275.5t176 -158t308 -51.5h494v-51h-494q-305 0 -452 131t-147 405q0 272 147 403.5t452 132.5h494v-51h-494z" />
    <glyph glyph-name="four.initial" horiz-adv-x="1024" 
d="M881 327h114v-119h-114v-208h-161v208h-503v113l503 396h161v-390zM720 580l-346 -253h346v253zM639 834q-187 0 -306.5 -51.5t-177 -158.5t-57.5 -275q0 -169 57 -275.5t176 -158t308 -51.5h494v-51h-494q-305 0 -452 131t-147 405q0 272 147 403.5t452 132.5h494v-51
h-494z" />
    <glyph glyph-name="five.initial" horiz-adv-x="1034" 
d="M327 0l-12 125h335q88 0 127 28t39 95q0 64 -41 91.5t-126 27.5q-74 0 -118 -18t-74 -62h-123v430h613v-121h-469v-213h11q26 49 74 70.5t142 21.5q143 0 212.5 -54.5t69.5 -175.5q0 -134 -79.5 -189.5t-237.5 -55.5h-343zM639 834q-187 0 -306.5 -51.5t-177 -158.5
t-57.5 -275q0 -169 57 -275.5t176 -158t308 -51.5h494v-51h-494q-305 0 -452 131t-147 405q0 272 147 403.5t452 132.5h494v-51h-494z" />
    <glyph glyph-name="six.initial" horiz-adv-x="1037" 
d="M922 402.5q71 -56.5 71 -172.5q0 -122 -87 -182t-267 -60q-141 0 -223 37t-117 112t-35 198q0 195 95.5 288.5t263.5 93.5h328l10 -122h-327q-67 0 -110.5 -22.5t-67.5 -77.5t-25 -152h10q33 64 91 90t163 26q156 0 227 -56.5zM780 128.5q47 31.5 47 96.5q0 66 -42 97
t-134 31q-103 0 -155.5 -29t-52.5 -95q0 -65 47 -98.5t147 -33.5q96 0 143 31.5zM639 834q-187 0 -306.5 -51.5t-177 -158.5t-57.5 -275q0 -169 57 -275.5t176 -158t308 -51.5h494v-51h-494q-305 0 -452 131t-147 405q0 272 147 403.5t452 132.5h494v-51h-494z" />
    <glyph glyph-name="seven.initial" horiz-adv-x="992" 
d="M790 587h-481v130h663v-84l-336 -633h-172zM639 834q-187 0 -306.5 -51.5t-177 -158.5t-57.5 -275q0 -169 57 -275.5t176 -158t308 -51.5h494v-51h-494q-305 0 -452 131t-147 405q0 272 147 403.5t452 132.5h494v-51h-494z" />
    <glyph glyph-name="eight.initial" horiz-adv-x="1054" 
d="M811 379q103 -20 149 -62.5t46 -112.5q0 -111 -87 -163.5t-279 -52.5q-190 0 -278.5 53t-88.5 163q0 70 45.5 112.5t148.5 62.5v9q-88 19 -126 55t-38 99q0 188 337 188q173 0 254.5 -47.5t81.5 -140.5q0 -64 -38.5 -99.5t-126.5 -54.5v-9zM501 449q39 -24 99 -24h80
q62 0 100 23.5t38 73.5q0 51 -40.5 73.5t-137.5 22.5q-95 0 -136.5 -22.5t-41.5 -73.5q0 -49 39 -73zM793.5 130q46.5 26 46.5 88q0 60 -42 88t-118 28h-80q-73 0 -116.5 -28.5t-43.5 -87.5q0 -62 48 -88t152 -26q107 0 153.5 26zM639 834q-187 0 -306.5 -51.5t-177 -158.5
t-57.5 -275q0 -169 57 -275.5t176 -158t308 -51.5h494v-51h-494q-305 0 -452 131t-147 405q0 272 147 403.5t452 132.5h494v-51h-494z" />
    <glyph glyph-name="nine.initial" horiz-adv-x="1063" 
d="M858 692q82 -37 117 -112t35 -198q0 -196 -95.5 -289t-263.5 -93h-328l-10 122h327q67 0 110.5 22.5t67.5 77.5t25 152h-10q-33 -64 -90.5 -90t-163.5 -26q-156 0 -227 56.5t-71 172.5q0 122 87.5 182t267.5 60q140 0 222 -37zM778.5 393q52.5 29 52.5 95q0 65 -47 98.5
t-147 33.5q-96 0 -142.5 -31.5t-46.5 -96.5q0 -66 42 -97t133 -31q103 0 155.5 29zM639 834q-187 0 -306.5 -51.5t-177 -158.5t-57.5 -275q0 -169 57 -275.5t176 -158t308 -51.5h494v-51h-494q-305 0 -452 131t-147 405q0 272 147 403.5t452 132.5h494v-51h-494z" />
    <glyph glyph-name="zero.med" horiz-adv-x="872" 
d="M-1 834v51h874v-51h-874zM819 312q0 -158 -100 -241t-283 -83q-181 0 -281.5 83.5t-100.5 240.5v93q0 158 101.5 241t280.5 83t281 -83t102 -241v-93zM223 321q0 -208 213 -208q107 0 160.5 51t53.5 157v88q0 197 -214 197q-213 0 -213 -197v-88zM873 -187h-874v51h874
v-51z" />
    <glyph glyph-name="one.med" horiz-adv-x="736" 
d="M-2 834v51h743v-51h-743zM35 509l394 212l115 -8v-596h189v-117h-695v117h337v448l-340 -188v132zM741 -187h-743v51h743v-51z" />
    <glyph glyph-name="two.med" horiz-adv-x="751" 
d="M1 834v51h761v-51h-761zM74 129l32 24q215 162 290.5 221.5t101.5 90t26 60.5q0 45 -37 64.5t-123 19.5q-150 0 -313 -16l12 118q177 16 328 16q161 0 231.5 -48t70.5 -144q0 -50 -21 -89.5t-56 -71t-93 -70.5l-274 -187h459v-117h-679v95zM762 -187h-761v51h761v-51z
" />
    <glyph glyph-name="three.med" horiz-adv-x="779" 
d="M-17 834v51h805v-51h-805zM52 0l-13 120h370q82 0 120.5 20.5t38.5 72.5q0 47 -31 66.5t-104 19.5h-225l-15 105l318 185l-1 9l-468 -5l12 124h652l3 -143l-326 -184l2 -8l115 -1q130 -1 184.5 -47t54.5 -131q0 -106 -77.5 -154.5t-234.5 -48.5h-375zM-17 -187v51h805
v-51h-805z" />
    <glyph glyph-name="four.med" horiz-adv-x="819" 
d="M-11 834v51h836v-51h-836zM12 321l503 396h161v-390h114v-119h-114v-208h-161v208h-503v113zM515 580l-346 -253h346v253zM825 -187h-836v51h836v-51z" />
    <glyph glyph-name="five.med" horiz-adv-x="773" 
d="M-14 834v51h793v-51h-793zM67 0l-12 125h335q88 0 127 28t39 95q0 64 -41 91.5t-126 27.5q-74 0 -118 -18t-74 -62h-123v430h613v-121h-469v-213h11q26 49 74 70.5t142 21.5q143 0 212.5 -54.5t69.5 -175.5q0 -134 -79.5 -189.5t-237.5 -55.5h-343zM-14 -187v51h793v-51
h-793z" />
    <glyph glyph-name="six.med" horiz-adv-x="825" 
d="M-8 834v51h846v-51h-846zM422 595q-67 0 -110.5 -22.5t-67.5 -77.5t-25 -152h10q33 64 91 90t163 26q156 0 227 -56.5t71 -172.5q0 -122 -87 -182t-267 -60q-141 0 -223 37t-117 112t-35 198q0 195 95.5 288.5t263.5 93.5h328l10 -122h-327zM283.5 324
q-52.5 -29 -52.5 -95q0 -65 47 -98.5t147 -33.5q96 0 143 31.5t47 96.5q0 66 -42 97t-134 31q-103 0 -155.5 -29zM838 -187h-846v51h846v-51z" />
    <glyph glyph-name="seven.med" horiz-adv-x="701" 
d="M-7 834v51h721v-51h-721zM500 587h-481v130h663v-84l-336 -633h-172zM-7 -187v51h721v-51h-721z" />
    <glyph glyph-name="eight.med" horiz-adv-x="829" 
d="M-6 834v51h838v-51h-838zM93.5 316.5q45.5 42.5 148.5 62.5v9q-88 19 -126 55t-38 99q0 188 337 188q173 0 254.5 -47.5t81.5 -140.5q0 -64 -38.5 -99.5t-126.5 -54.5v-9q103 -20 149 -62.5t46 -112.5q0 -111 -87 -163.5t-279 -52.5q-190 0 -278.5 53t-88.5 163
q0 70 45.5 112.5zM276 449q39 -24 99 -24h80q62 0 100 23.5t38 73.5q0 51 -40.5 73.5t-137.5 22.5q-95 0 -136.5 -22.5t-41.5 -73.5q0 -49 39 -73zM375 334q-73 0 -116.5 -28.5t-43.5 -87.5q0 -62 48 -88t152 -26q107 0 153.5 26t46.5 88q0 60 -42 88t-118 28h-80zM832 -187
h-838v51h838v-51z" />
    <glyph glyph-name="nine.med" horiz-adv-x="826" 
d="M-12 834v51h845v-51h-845zM404 122q67 0 110.5 22.5t67.5 77.5t25 152h-10q-33 -64 -91 -90t-163 -26q-156 0 -227 56.5t-71 172.5q0 122 87 182t267 60q141 0 223 -37t117 -112t35 -198q0 -195 -95.5 -288.5t-263.5 -93.5h-328l-10 122h327zM542.5 393q52.5 29 52.5 95
q0 65 -47 98.5t-147 33.5q-96 0 -143 -31.5t-47 -96.5q0 -66 42 -97t134 -31q103 0 155.5 29zM833 -187h-845v51h845v-51z" />
    <glyph glyph-name="zero.osf" horiz-adv-x="869" 
d="M715 514q102 -73 102 -210v-38q0 -136 -100 -207t-283 -71q-182 0 -282 71t-100 207v38q0 137 101.5 210t280.5 73t281 -73zM648 314q0 79 -54.5 121.5t-159.5 42.5t-159 -42.5t-54 -121.5v-45q0 -84 54 -127.5t159 -43.5q106 0 160 43.5t54 127.5v45z" />
    <glyph glyph-name="one.osf" horiz-adv-x="756" 
d="M511 427l-476 -208v131l514 225h118v-575h-156v427z" />
    <glyph glyph-name="two.osf" horiz-adv-x="775" 
d="M276 117h448v-117h-683v100l413 215q49 28 68 47.5t19 47.5q0 31 -30.5 47.5t-104.5 16.5q-139 0 -344 -10l12 111q220 10 373 10q145 0 204 -37.5t59 -112.5q0 -68 -41.5 -113t-132.5 -84z" />
    <glyph glyph-name="three.osf" horiz-adv-x="782" 
d="M52 -182l-13 112h380q83 0 121 22.5t38 83.5q0 54 -31 76t-104 22h-235l-15 100l325 215l-1 9l-475 -5l12 123h652l3 -125l-338 -219l2 -7l127 -2q124 -1 181.5 -47.5t57.5 -140.5q0 -113 -77.5 -165t-234.5 -52h-375z" />
    <glyph glyph-name="four.osf" horiz-adv-x="838" 
d="M694 176h114v-113h-114v-245h-151v245h-503v107l503 405h151v-399zM543 431l-340 -255h340v255z" />
    <glyph glyph-name="five.osf" horiz-adv-x="767" 
d="M87 -182l-12 120h315q97 0 139 28.5t42 102.5q0 129 -177 129q-85 0 -129.5 -20.5t-72.5 -72.5h-113v470h608v-122h-479v-241h11q26 49 78 73t147 24q133 0 208 -63.5t75 -179.5q0 -125 -83.5 -186.5t-233.5 -61.5h-323z" />
    <glyph glyph-name="six.osf" horiz-adv-x="815" 
d="M697 391q71 -57 71 -161q0 -123 -85 -182.5t-261 -59.5q-136 0 -216.5 35.5t-116 110t-35.5 196.5q0 175 98 261t266 86h308l10 -114h-307q-112 0 -168.5 -53.5t-49.5 -172.5h10q33 60 95 85.5t169 25.5q141 0 212 -57zM563.5 127.5q47.5 30.5 47.5 92.5t-43 92t-137 30
q-102 0 -155 -28t-53 -90q0 -127 194 -127q99 0 146.5 30.5z" />
    <glyph glyph-name="seven.osf" horiz-adv-x="708" 
d="M517 447h-496v128h663v-78l-350 -661h-149z" />
    <glyph glyph-name="eight.osf" horiz-adv-x="832" 
d="M586 379q104 -20 150 -62.5t46 -112.5q0 -111 -87 -163.5t-279 -52.5q-190 0 -278.5 53t-88.5 163q0 70 46 112.5t149 62.5v9q-88 19 -126.5 55t-38.5 99q0 188 337 188q173 0 254.5 -47.5t81.5 -140.5q0 -64 -38.5 -99.5t-127.5 -54.5v-9zM277 449q39 -24 99 -24h80
q62 0 100 23.5t38 73.5q0 51 -40.5 73.5t-137.5 22.5q-95 0 -136.5 -22.5t-41.5 -73.5q0 -49 39 -73zM569.5 130q46.5 26 46.5 88q0 60 -42 88t-118 28h-80q-73 0 -116.5 -28.5t-43.5 -87.5q0 -62 48 -88t152 -26q107 0 153.5 26z" />
    <glyph glyph-name="nine.osf" horiz-adv-x="815" 
d="M619 550.5q79 -37.5 112 -115t33 -206.5q0 -210 -91.5 -310.5t-257.5 -100.5h-333l-10 120h332q100 0 150.5 62.5t52.5 215.5h-10q-33 -61 -94 -86t-180 -25q-143 0 -213 58t-70 176q0 130 87 189.5t272 59.5q141 0 220 -37.5zM540 242.5q55 31.5 55 97.5q0 70 -48.5 105
t-155.5 35q-99 0 -147 -33t-48 -102q0 -67 43.5 -100.5t137.5 -33.5q108 0 163 31.5z" />
    <glyph glyph-name="space.tab" horiz-adv-x="389" 
 />
    <glyph glyph-name="caron.alt" horiz-adv-x="471" 
d="M188 651l13 185h120l-50 -185h-83z" />
    <glyph glyph-name="dieresis.uc" horiz-adv-x="498" 
d="M74 812v137h136v-137h-136zM289 812v137h135v-137h-135z" />
    <glyph glyph-name="dotaccent.uc" horiz-adv-x="502" 
d="M183 803v137h136v-137h-136z" />
    <glyph glyph-name="grave.uc" horiz-adv-x="498" 
d="M35 931v20h233l102 -171h-131z" />
    <glyph glyph-name="acute.uc" horiz-adv-x="511" 
d="M247 955h232v-20l-203 -151h-131z" />
    <glyph glyph-name="hungarumlaut.uc" horiz-adv-x="616" 
d="M184 957h160v-20l-141 -151h-121zM404 957h160v-20l-141 -151h-121z" />
    <glyph glyph-name="circumflex.uc" horiz-adv-x="511" 
d="M303 963l160 -183h-131l-80 103l-80 -103h-131l160 183h102z" />
    <glyph glyph-name="caron.uc" horiz-adv-x="498" 
d="M249 867l80 104h131l-160 -183h-102l-160 183h131z" />
    <glyph glyph-name="breve.uc" horiz-adv-x="511" 
d="M457 945q0 -86 -53.5 -128.5t-150.5 -42.5t-150.5 42.5t-54.5 128.5h98q1 -40 26 -59.5t81 -19.5t80.5 19.5t25.5 59.5h98z" />
    <glyph glyph-name="ring.uc" horiz-adv-x="506" 
d="M134 791q-39 33 -39 84q0 52 39 85t116 33t115.5 -33t38.5 -85q0 -51 -38.5 -84t-115.5 -33t-116 33zM337 875q0 60 -87 60q-88 0 -88 -60q0 -59 88 -59q87 0 87 59z" />
    <glyph glyph-name="tilde.uc" horiz-adv-x="503" 
d="M367 960l87 -4l-3 -49q-4 -52 -37 -79t-77 -27q-27 0 -49.5 7.5t-45.5 21.5q-39 25 -63 25q-16 0 -27 -9t-12 -24l-2 -28l-87 4l3 45q3 53 36 80.5t77 27.5q27 0 48 -7.5t48 -22.5q39 -24 62 -24q15 0 26.5 10t12.5 25z" />
    <glyph glyph-name="macron.uc" horiz-adv-x="506" 
d="M72 818v84h354v-84h-354z" />
    <glyph glyph-name="half_circled_sx" horiz-adv-x="1053" 
d="M649 834q-187 0 -306.5 -51.5t-177 -158.5t-57.5 -275q0 -169 57 -275.5t176 -158t308 -51.5h494v-51h-494q-305 0 -452 131t-147 405q0 272 147 403.5t452 132.5h494v-51h-494z" />
    <glyph glyph-name="middle" horiz-adv-x="865" 
d="M0 834v51h865v-51h-865zM0 -187v51h865v-51h-865z" />
    <glyph glyph-name="half_circled_dx" horiz-adv-x="1053" 
d="M404 885q305 -1 452 -132.5t147 -403.5q0 -274 -146.5 -405t-452.5 -131h-484v51h484q189 0 308 51.5t176 158t57 275.5q0 168 -57.5 275t-176.5 158.5t-307 51.5h-484v51h484z" />
    </font>
</defs>
</svg>
