<?xml version="1.0" standalone="no"?>
<!DOCTYPE svg PUBLIC "-//W3C//DTD SVG 1.1//EN" "http://www.w3.org/Graphics/SVG/1.1/DTD/svg11.dtd" >
<svg xmlns="http://www.w3.org/2000/svg" xmlns:xlink="http://www.w3.org/1999/xlink" version="1.1">
<metadata>
Created by FontForge 20170731 at Wed May  9 13:59:14 1928
 By Aleksey,,,
(c)Copyright SoftCom Co., Ltd., 1994.
</metadata>
<defs>
<font id="PragmaticaCTT-Italic" horiz-adv-x="600" >
  <font-face 
    font-family="PragmaticaCTT"
    font-weight="400"
    font-style="italic"
    font-stretch="normal"
    units-per-em="1000"
    panose-1="0 0 0 0 0 0 0 0 0 0"
    ascent="800"
    descent="-200"
    x-height="508"
    cap-height="700"
    bbox="-107 -224 1224 878"
    underline-thickness="40"
    underline-position="-140"
    slope="12"
    unicode-range="U+0020-2219"
  />
<missing-glyph horiz-adv-x="878" 
d="M54 0v878h770v-878h-770zM770 54v770h-662v-770h662z" />
    <glyph glyph-name=".notdef" horiz-adv-x="878" 
d="M54 0v878h770v-878h-770zM770 54v770h-662v-770h662z" />
    <glyph glyph-name=".null" horiz-adv-x="0" 
 />
    <glyph glyph-name="nonmarkingreturn" horiz-adv-x="310" 
 />
    <glyph glyph-name="space" unicode=" " horiz-adv-x="310" 
 />
    <glyph glyph-name="exclam" unicode="!" horiz-adv-x="310" 
d="M200 700h99l-57 -269l-73 -230h-49l23 230zM52 0l24 109h99l-24 -109h-99z" />
    <glyph glyph-name="quotedbl" unicode="&#x22;" horiz-adv-x="420" 
d="M280 700l-80 -192h-53v192h133zM467 700l-80 -192h-53v192h133z" />
    <glyph glyph-name="numbersign" unicode="#" horiz-adv-x="701" 
d="M457 10h-68l26 168h-143l-26 -168h-68l26 168h-134l13 85h134l28 179h-134l13 85h134l26 167h68l-26 -167h143l26 167h68l-26 -167h134l-13 -85h-134l-28 -179h134l-13 -85h-134zM428 263l28 179h-143l-28 -179h143z" />
    <glyph glyph-name="dollar" unicode="$" horiz-adv-x="610" 
d="M42 208h91l-3 -17v-10q0 -57 29.5 -90.5t84.5 -33.5l57 266q-106 33 -142.5 75.5t-36.5 105.5q0 88 66 147q36 31 83 47t110 16l14 65h53l-14 -65q73 0 118 -36t45 -108l-1 -21q0 -12 -2 -19h-86l1 11l1 10q0 42 -25 68q-23 26 -65 26l-53 -246q95 -21 139.5 -68
t44.5 -116q0 -89 -74 -157q-36 -33 -86.5 -51.5t-110.5 -18.5l-17 -81h-53l17 81q-44 0 -78 11.5t-60 34.5q-49 43 -49 123v32q0 12 2 19zM349 314l-55 -257q64 0 114 43t50 103q0 44 -28 71.5t-81 39.5zM319 408l50 237q-75 0 -114.5 -41t-39.5 -94q0 -34 27.5 -61
t76.5 -41z" />
    <glyph glyph-name="percent" unicode="%" horiz-adv-x="915" 
d="M135 0l603 700h79l-603 -700h-79zM97 508q15 90 71 144q28 27 59 41.5t65 14.5q59 0 100 -38.5t41 -114.5q0 -93 -56 -170t-144 -77q-67 0 -104 36t-37 117l1 21q0 11 4 26zM162 508l-4 -23l-1 -14q0 -59 17 -85q19 -25 57 -25q56 0 96.5 57.5t40.5 126.5
q0 51 -19.5 80.5t-55.5 29.5q-42 0 -79 -38t-52 -109zM525 192q17 83 67 141q26 30 57 44.5t70 14.5q70 0 106 -40.5t36 -112.5q0 -107 -61 -177t-140 -70q-63 0 -102 38t-39 115l1 18q0 13 5 29zM590 192l-6 -28v-9q0 -55 19.5 -82.5t54.5 -27.5q49 0 93.5 52.5t44.5 131.5
q0 62 -20 86t-55 24q-45 0 -79.5 -37.5t-51.5 -109.5z" />
    <glyph glyph-name="ampersand" unicode="&#x26;" horiz-adv-x="688" 
d="M554 306h79q-16 -48 -40.5 -92t-50.5 -74l88 -140h-105l-47 75q-45 -45 -102.5 -68.5t-126.5 -23.5q-94 0 -144 46.5t-50 113.5q0 86 50.5 147.5t171.5 114.5q-26 48 -33 72t-7 49q0 79 54.5 126.5t129.5 47.5q67 0 102.5 -30t35.5 -78q0 -61 -40 -113.5t-130 -93.5
l115 -182q16 22 27 46zM442 135l-131 213q-82 -30 -123 -79.5t-41 -103.5q0 -46 29.5 -76t85.5 -30q50 0 97.5 19t82.5 57zM358 438q50 17 85 53.5t35 82.5q0 27 -16 43.5t-43 16.5q-38 0 -68 -26t-30 -72q0 -22 9 -48.5t28 -49.5z" />
    <glyph glyph-name="quotesingle" unicode="'" horiz-adv-x="233" 
d="M280 700l-80 -192h-53v192h133z" />
    <glyph glyph-name="parenleft" unicode="(" horiz-adv-x="381" 
d="M243 700h79q-120 -167 -176.5 -312.5t-56.5 -280.5q0 -63 12 -145t34 -147h-72q-37 88 -55 159.5t-18 132.5q0 72 14 141t44 142q57 140 195 310z" />
    <glyph glyph-name="parenright" unicode=")" horiz-adv-x="381" 
d="M177 700h72q36 -89 54.5 -159.5t18.5 -132.5q0 -144 -58.5 -285t-194.5 -308h-79q118 163 175.5 309.5t57.5 283.5q0 30 -3 64.5t-10 78.5q-12 79 -33 149z" />
    <glyph glyph-name="asterisk" unicode="*" horiz-adv-x="466" 
d="M296 511l-97 -98l-36 35l93 96l-118 58l22 44l119 -58l19 131l49 -4l-18 -130l133 26l10 -49l-132 -26l60 -109l-43 -23z" />
    <glyph glyph-name="plus" unicode="+" 
d="M63 386h219v219h62v-219h219v-62h-219v-219h-62v219h-219v62z" />
    <glyph glyph-name="comma" unicode="," horiz-adv-x="318" 
d="M51 0l23 109h99l-24 -114q-15 -68 -45 -97.5t-84 -45.5l11 55q24 4 41.5 23t27.5 65l1 5h-50z" />
    <glyph glyph-name="hyphen" unicode="-" horiz-adv-x="426" 
d="M73 225l18 85h264l-18 -85h-264z" />
    <glyph glyph-name="period" unicode="." horiz-adv-x="319" 
d="M52 0l23 109h99l-23 -109h-99z" />
    <glyph glyph-name="slash" unicode="/" horiz-adv-x="420" 
d="M-91 -185l545 885h63l-545 -885h-63z" />
    <glyph glyph-name="zero" unicode="0" horiz-adv-x="593" 
d="M250 -21q-98 0 -147.5 68.5t-49.5 188.5q0 202 91 343.5t236 141.5q95 0 147.5 -61.5t52.5 -195.5q0 -201 -92 -343t-238 -142zM260 58q94 0 158 127.5t64 291.5q0 78 -28 121.5t-84 43.5q-96 0 -157.5 -123.5t-61.5 -292.5q0 -87 29 -127.5t80 -40.5z" />
    <glyph glyph-name="one" unicode="1" horiz-adv-x="587" 
d="M189 526l10 49h19q65 0 118.5 32.5t74.5 92.5h68l-151 -700h-94l112 526h-157z" />
    <glyph glyph-name="two" unicode="2" horiz-adv-x="583" 
d="M494 75l-16 -75h-473q11 78 53 137.5t143 122.5q253 156 273 196.5t20 83.5q0 50 -33.5 76t-87.5 26q-66 0 -113.5 -40.5t-62.5 -124.5h-96q21 123 94.5 183.5t180.5 60.5q111 0 163.5 -43t52.5 -120q0 -89 -51 -156.5t-238 -172.5q-75 -42 -115.5 -76.5t-62.5 -77.5h369
z" />
    <glyph glyph-name="three" unicode="3" horiz-adv-x="588" 
d="M27 213h91q-2 -8 -3 -19t-1 -20q0 -43 24 -73q35 -43 111 -43q77 0 129.5 45.5t52.5 119.5q0 51 -31.5 78t-122.5 27h-26l15 75h28q82 0 130 36t48 101q0 49 -29 75.5t-90 26.5q-67 0 -107.5 -36.5t-61.5 -118.5h-89q12 108 81 171t180 63q105 0 159.5 -42.5t54.5 -111.5
q0 -72 -44 -127.5t-109 -69.5l-1 -5q57 -15 85 -47.5t28 -83.5q0 -96 -73 -175.5t-203 -79.5t-187 57q-43 43 -43 125v21t4 31z" />
    <glyph glyph-name="four" unicode="4" horiz-adv-x="583" 
d="M342 161h-329l16 81l413 458h102l-97 -460h103l-16 -79h-103l-35 -161h-89zM125 240h233l74 347z" />
    <glyph glyph-name="five" unicode="5" horiz-adv-x="581" 
d="M28 179h91v-15q0 -50 35 -78t92 -28q92 0 144 59t52 153q0 51 -36 85.5t-102 34.5q-22 0 -40.5 -3t-35.5 -11q-31 -13 -61 -45h-88l128 369h378l-16 -79h-309l-71 -202q33 24 71.5 37t81.5 13q91 0 144.5 -53.5t53.5 -144.5q0 -135 -82 -213.5t-219 -78.5q-102 0 -157 41
t-55 125v24z" />
    <glyph glyph-name="six" unicode="6" horiz-adv-x="586" 
d="M594 546h-85q0 23 -8.5 39.5t-27.5 31.5q-33 25 -86 25q-85 0 -141 -66.5t-83 -189.5h4q32 39 79 59q22 9 49 14.5t52 5.5q86 0 141 -49.5t55 -143.5q0 -124 -71 -208.5t-207 -84.5q-116 0 -168 63t-52 174q0 207 97.5 356t255.5 149q90 0 143 -43.5t53 -131.5zM146 221
l-3 -21v-21q0 -54 35 -89q35 -32 100 -32q74 0 120.5 57.5t46.5 149.5q0 61 -32 90q-31 31 -93 31q-67 0 -114.5 -45.5t-59.5 -119.5z" />
    <glyph glyph-name="seven" unicode="7" horiz-adv-x="579" 
d="M107 621l17 79h497l-13 -64q-76 -67 -141.5 -146.5t-119.5 -167.5q-49 -80 -86 -161q-30 -71 -59 -161h-100q10 37 24 74.5t35 81.5q38 82 87 160q26 42 53 80t59 76q60 72 143 149h-396z" />
    <glyph glyph-name="eight" unicode="8" horiz-adv-x="586" 
d="M266 -21q-121 0 -178 50t-57 140q0 76 45 133t130 82q-35 13 -55.5 45.5t-20.5 78.5q0 89 69.5 151t178.5 62q97 0 147 -47t50 -120q0 -62 -37 -110t-102 -69q48 -13 74 -56q27 -41 27 -96q0 -115 -78.5 -179.5t-192.5 -64.5zM261 58q82 0 130 54t48 120q0 47 -32 76
t-95 29q-78 0 -130.5 -43t-52.5 -112q0 -57 35 -90.5t97 -33.5zM328 412q66 0 112 38.5t46 95.5q0 49 -32 72q-30 24 -85 24q-66 0 -108 -39t-42 -95q0 -44 28 -71q31 -25 81 -25z" />
    <glyph glyph-name="nine" unicode="9" horiz-adv-x="586" 
d="M32 152h85q0 -44 33 -70q33 -24 89 -24q77 0 135 62t88 192h-4q-30 -37 -73 -57.5t-95 -20.5q-99 0 -154 51t-55 141q0 134 75 214.5t204 80.5q118 0 169.5 -61t51.5 -171t-23 -200t-72 -164q-93 -146 -259 -146q-94 0 -144.5 43t-50.5 130zM480 477l2 18l1 24
q0 54 -36 88.5t-99 34.5q-80 0 -124.5 -58t-44.5 -151q0 -60 31 -91q32 -29 96 -29q66 0 113 44t61 120z" />
    <glyph glyph-name="colon" unicode=":" horiz-adv-x="313" 
d="M136 399l23 109h99l-23 -109h-99zM52 0l23 109h99l-23 -109h-99z" />
    <glyph glyph-name="semicolon" unicode=";" horiz-adv-x="312" 
d="M135 399l23 109h99l-23 -109h-99zM51 0l23 109h99l-24 -114q-15 -68 -45 -97.5t-84 -45.5l11 55q24 4 41.5 23t27.5 65l1 5h-50z" />
    <glyph glyph-name="less" unicode="&#x3c;" horiz-adv-x="669" 
d="M149 342l449 -255l-30 -54l-495 285v48l495 285l30 -54z" />
    <glyph glyph-name="equal" unicode="=" 
d="M63 476h500v-62h-500v62zM63 276h500v-62h-500v62z" />
    <glyph glyph-name="greater" unicode="&#x3e;" horiz-adv-x="669" 
d="M546 342l-449 255l30 54l495 -285v-48l-495 -285l-30 54z" />
    <glyph glyph-name="question" unicode="?" horiz-adv-x="551" 
d="M166 0l24 109h99l-24 -109h-99zM190 489h-87q18 111 84.5 169.5t175.5 58.5q98 0 148 -39.5t50 -110.5q0 -61 -30.5 -107t-113.5 -105q-71 -50 -92 -80.5t-29 -71.5h-73q0 25 7.5 47t22.5 47q25 42 79 83q91 67 114.5 102.5t23.5 74.5q0 45 -30 66q-13 10 -33.5 16
t-46.5 6q-69 0 -112 -38t-58 -118z" />
    <glyph glyph-name="at" unicode="@" horiz-adv-x="863" 
d="M601 82l29 -53q-22 -13 -43 -22t-47 -16q-42 -12 -96 -12q-161 0 -266 98.5t-105 273.5q0 161 106.5 265.5t264.5 104.5q177 0 274.5 -102t97.5 -248q0 -95 -53.5 -159.5t-128.5 -64.5q-33 0 -55 11.5t-34 36.5q-13 -26 -44 -41q-33 -13 -78 -13q-80 0 -126.5 54
t-46.5 143q0 84 44.5 140.5t121.5 56.5q39 0 71 -15q29 -12 47 -40l3 41h76v-252q0 -29 7.5 -43.5t30.5 -14.5q44 0 73 45.5t29 114.5q0 136 -88 215t-221 79q-137 0 -222.5 -93t-85.5 -221q0 -138 85 -226.5t223 -88.5q41 0 79 10t78 36zM530 337q0 61 -24.5 96.5
t-71.5 35.5q-45 0 -72.5 -34t-27.5 -98q0 -57 24 -94t75 -37q44 0 70.5 33.5t26.5 97.5z" />
    <glyph glyph-name="A" unicode="A" horiz-adv-x="630" 
d="M155 181l-105 -181h-98l406 700h102l116 -700h-97l-28 181h-296zM197 260h245l-50 345z" />
    <glyph glyph-name="B" unicode="B" horiz-adv-x="693" 
d="M179 700h295q90 0 138.5 -36.5t48.5 -104.5q0 -65 -36 -116.5t-100 -75.5q27 -9 45 -21t32 -31q26 -35 26 -92q0 -100 -78 -161.5t-216 -61.5h-303zM257 621l-46 -218h189q75 0 119 36.5t44 94.5q0 45 -29.5 66t-91.5 21h-185zM194 324l-52 -245h195q86 0 139.5 37
t53.5 109q0 52 -37 75.5t-104 23.5h-195z" />
    <glyph glyph-name="C" unicode="C" horiz-adv-x="715" 
d="M575 232h98q-33 -117 -118.5 -185t-212.5 -68q-132 0 -209.5 66t-77.5 206q0 203 113 336.5t286 133.5q119 0 192 -48t73 -146l-1 -24q0 -12 -2 -19h-95l1 12l1 17q0 61 -46.5 95t-125.5 34q-141 0 -218 -116t-77 -258q0 -99 52.5 -154.5t144.5 -55.5q81 0 139 46t83 128
z" />
    <glyph glyph-name="D" unicode="D" horiz-adv-x="718" 
d="M180 700h244q134 0 208 -68t74 -203q0 -216 -115.5 -322.5t-325.5 -106.5h-234zM257 621l-115 -542h137q153 0 239.5 89.5t86.5 254.5q0 105 -52 151.5t-145 46.5h-151z" />
    <glyph glyph-name="E" unicode="E" horiz-adv-x="608" 
d="M210 401h367l-17 -79h-366l-52 -243h416l-16 -79h-511l149 700h499l-17 -79h-405z" />
    <glyph glyph-name="F" unicode="F" horiz-adv-x="563" 
d="M208 393h330l-17 -79h-329l-67 -314h-94l149 700h470l-18 -79h-375z" />
    <glyph glyph-name="G" unicode="G" horiz-adv-x="743" 
d="M421 365h287l-79 -365h-72l19 92q-55 -63 -110.5 -88t-135.5 -25q-135 0 -205 77.5t-70 224.5q0 180 111 310t309 130q126 0 190 -56t64 -143l-1 -18v-11h-98v7l1 22q0 51 -43 85.5t-121 34.5q-145 0 -228 -107t-83 -252q0 -107 49.5 -166t152.5 -59q96 0 157 59.5
t89 168.5h-200z" />
    <glyph glyph-name="H" unicode="H" horiz-adv-x="709" 
d="M195 329l-70 -329h-94l149 700h94l-62 -292h351l62 292h94l-149 -700h-94l70 329h-351z" />
    <glyph glyph-name="I" unicode="I" horiz-adv-x="264" 
d="M180 700h94l-149 -700h-94z" />
    <glyph glyph-name="J" unicode="J" horiz-adv-x="517" 
d="M18 232h96l-11 -49l-3 -31q0 -44 24 -69t71 -25q63 0 96 36t57 139l99 467h94l-97 -458q-33 -157 -90 -210t-162 -53q-90 0 -138 37t-48 127l3 46z" />
    <glyph glyph-name="K" unicode="K" horiz-adv-x="659" 
d="M201 355l418 345h123l-355 -298l232 -402h-121l-191 347l-131 -107l-51 -240h-94l149 700h94z" />
    <glyph glyph-name="L" unicode="L" horiz-adv-x="531" 
d="M499 79l-18 -79h-450l149 700h94l-132 -621h357z" />
    <glyph glyph-name="M" unicode="M" horiz-adv-x="870" 
d="M345 0l-106 568l-5 -26l-116 -542h-87l149 700h119l109 -576l342 576h130l-149 -700h-87l116 542l7 26l-343 -568h-79z" />
    <glyph glyph-name="N" unicode="N" horiz-adv-x="731" 
d="M241 548l-116 -548h-94l148 700h93l259 -548l116 548h94l-149 -700h-92z" />
    <glyph glyph-name="O" unicode="O" horiz-adv-x="761" 
d="M347 -21q-138 0 -216 67t-78 206q0 192 105.5 330.5t293.5 138.5q141 0 217.5 -73t76.5 -197q0 -194 -104.5 -333t-294.5 -139zM358 58q129 0 208 110q39 55 59 121.5t20 147.5q0 97 -52 151t-151 54q-128 0 -208 -112t-80 -266q0 -106 54 -156t150 -50z" />
    <glyph glyph-name="P" unicode="P" horiz-adv-x="638" 
d="M180 700h270q113 0 163 -38.5t50 -115.5q0 -125 -76 -196t-201 -71h-202l-59 -279h-94zM257 621l-56 -263h178q92 0 139 46.5t47 125.5q0 44 -33.5 67.5t-109.5 23.5h-165z" />
    <glyph glyph-name="Q" unicode="Q" horiz-adv-x="761" 
d="M580 56l53 -81l-63 -49l-60 89q-29 -15 -73 -26q-18 -4 -41.5 -7t-47.5 -3q-154 0 -224.5 72t-70.5 201q0 206 110 337.5t289 131.5q150 0 222 -75.5t72 -205.5q0 -110 -44 -216.5t-122 -167.5zM464 220l64 -94q52 45 85 130q16 43 24 87t8 94q0 97 -52 151t-151 54
q-132 0 -210 -111t-78 -267q0 -106 53 -156t151 -50q14 0 28 1t27 4q25 6 50 20l-62 90z" />
    <glyph glyph-name="R" unicode="R" horiz-adv-x="678" 
d="M31 0l149 700h297q103 0 153 -41.5t50 -116.5q0 -73 -40 -128.5t-103 -76.5l-1 -3q30 -11 45.5 -37t15.5 -59l-1 -22q0 -10 -18 -97l-7 -44l-3 -34l3 -20q4 -11 11 -21h-99l-9 21l-2 19l20 123l4 33l3 26q0 35 -28 56q-29 19 -82 19h-201l-63 -297h-94zM257 621l-52 -245
h210q69 0 118 40.5t49 112.5q0 44 -27.5 68t-88.5 24h-209z" />
    <glyph glyph-name="S" unicode="S" horiz-adv-x="646" 
d="M39 222h96q-6 -24 -6 -44q0 -42 28 -75q39 -45 135 -45q93 0 148.5 45t55.5 107q0 37 -23.5 59t-191.5 63q-106 24 -139 62t-33 97q0 97 74.5 163.5t218.5 66.5q109 0 171.5 -41t62.5 -125l-1 -20q0 -11 -2 -17h-91v8l1 14q0 45 -37 73.5t-111 28.5q-82 0 -133.5 -37.5
t-51.5 -96.5q0 -39 26.5 -59.5t126.5 -40.5q150 -30 192 -68.5t42 -99.5q0 -117 -80.5 -189t-232.5 -72q-144 0 -205 61q-45 47 -45 125q0 10 0.5 18.5t4.5 38.5z" />
    <glyph glyph-name="T" unicode="T" horiz-adv-x="569" 
d="M318 621h-227l17 79h548l-17 -79h-227l-132 -621h-94z" />
    <glyph glyph-name="U" unicode="U" horiz-adv-x="695" 
d="M165 700h94l-88 -417l-11 -54q-2 -10 -2 -20v-15q0 -63 38 -99.5t111 -36.5q90 0 144.5 47.5t84.5 177.5l89 417h94l-91 -429q-30 -143 -103.5 -217.5t-218.5 -74.5q-125 0 -183.5 49t-58.5 146v21.5t2 27.5t3.5 26t4.5 22z" />
    <glyph glyph-name="V" unicode="V" horiz-adv-x="583" 
d="M271 96l317 604h99l-380 -700h-119l-96 700h101z" />
    <glyph glyph-name="W" unicode="W" horiz-adv-x="880" 
d="M509 589l-250 -589h-127l-40 700h103l25 -588l254 588h113l34 -588l254 588h109l-324 -700h-119z" />
    <glyph glyph-name="X" unicode="X" horiz-adv-x="593" 
d="M307 295l-246 -295h-115l314 370l-164 330h112l130 -275l226 275h114l-296 -350l178 -350h-113z" />
    <glyph glyph-name="Y" unicode="Y" horiz-adv-x="590" 
d="M326 380l257 320h111l-336 -408l-61 -292h-94l61 292l-172 408h105z" />
    <glyph glyph-name="Z" unicode="Z" horiz-adv-x="591" 
d="M496 621h-371l17 79h500l-16 -75l-514 -546h419l-18 -79h-540l18 86z" />
    <glyph glyph-name="bracketleft" unicode="[" horiz-adv-x="367" 
d="M200 700h212l-13 -62h-122l-162 -761h122l-13 -62h-212z" />
    <glyph glyph-name="backslash" unicode="\" horiz-adv-x="420" 
d="M97 700h53l169 -885h-53z" />
    <glyph glyph-name="bracketright" unicode="]" horiz-adv-x="370" 
d="M147 700h212l-188 -885h-212l13 62h122l162 761h-122z" />
    <glyph glyph-name="asciicircum" unicode="^" horiz-adv-x="442" 
d="M271 657l-95 -175h-70l120 218h90l120 -218h-70z" />
    <glyph glyph-name="underscore" unicode="_" horiz-adv-x="497" 
d="M0 -185v52h497v-52h-497z" />
    <glyph glyph-name="grave" unicode="`" horiz-adv-x="312" 
d="M245 700l42 -132h-77l-69 132h104z" />
    <glyph glyph-name="a" unicode="a" horiz-adv-x="561" 
d="M163 358h-84q15 87 77.5 128.5t160.5 41.5q96 0 141 -35q47 -33 47 -85l-1 -13q0 -7 -1 -12q-4 -15 -7 -26l-54 -235q-4 -19 -4 -33q0 -8 1 -11q5 -15 33 -15l11 -1l-14 -62q-15 0 -23 -2l-15 -1q-37 0 -54.5 13.5t-17.5 39.5v11q-40 -45 -83 -63t-96 -18
q-83 0 -127.5 30t-44.5 98q0 83 58.5 128t255.5 65q31 0 48.5 6t27.5 17q15 18 15 66q0 36 -25.5 56t-70.5 20q-65 0 -105 -30t-49 -78zM377 217l10 38l-14 -10l-135 -17q-73 -9 -105.5 -36.5t-32.5 -72.5q0 -37 20 -57t64 -20q72 0 120 42t73 133z" />
    <glyph glyph-name="b" unicode="b" horiz-adv-x="599" 
d="M166 700h89l-51 -241q24 30 72.5 49.5t102.5 19.5q84 0 135 -52t51 -141q0 -160 -82 -257.5t-203 -97.5q-58 0 -99 21.5t-63 68.5l-16 -70h-84zM155 257l-8 -44l-2 -35q0 -66 29.5 -101t86.5 -35q94 0 153.5 83.5t59.5 197.5q0 70 -29 106.5t-89 36.5q-71 0 -124 -51.5
t-77 -157.5z" />
    <glyph glyph-name="c" unicode="c" horiz-adv-x="551" 
d="M414 181h84q-23 -93 -89 -147t-162 -54q-97 0 -154 53t-57 153q0 140 78.5 241t217.5 101q94 0 145 -40t51 -113v-26h-84q0 60 -29 88q-27 29 -82 29q-93 0 -148 -88.5t-55 -196.5q0 -65 31.5 -102t95.5 -37q60 0 99 37.5t58 101.5z" />
    <glyph glyph-name="d" unicode="d" horiz-adv-x="597" 
d="M532 700h89l-148 -700h-83l11 55q-37 -40 -79.5 -57.5t-98.5 -17.5q-93 0 -141.5 55.5t-48.5 156.5q0 145 78.5 240.5t211.5 95.5q61 0 101 -23q38 -20 53 -63zM133 245l-5 -34l-1 -33q0 -64 31 -101q32 -35 90 -35q88 0 146.5 81.5t58.5 200.5q0 66 -32 104
q-16 19 -37 28.5t-51 9.5q-79 0 -130.5 -62.5t-69.5 -158.5z" />
    <glyph glyph-name="e" unicode="e" horiz-adv-x="582" 
d="M416 147h90q-27 -84 -92 -125.5t-138 -41.5q-124 0 -182.5 54.5t-58.5 146.5q0 159 86.5 253t234.5 94q93 0 142 -46t49 -136q0 -14 -1 -28.5t-4 -29.5q-3 -27 -12 -54h-397l-4 -20v-13q0 -86 33 -124q33 -35 96 -35q55 0 99.5 27t58.5 78zM148 296h299l5 27l3 23
q0 61 -32 90q-30 30 -80 30q-73 0 -123.5 -42.5t-71.5 -127.5z" />
    <glyph glyph-name="f" unicode="f" horiz-adv-x="313" 
d="M358 508l-13 -62h-109l-94 -446h-89l94 446h-93l13 62h93l15 69q12 61 53.5 92t108.5 31q20 0 31 -2l31 -5l-12 -60l-31 3l-31 2q-24 0 -39 -15t-24 -54l-13 -61h109z" />
    <glyph glyph-name="g" unicode="g" 
d="M16 -57h84q0 -34 31 -54.5t87 -20.5q66 0 112 40.5t62 119.5l7 37q-36 -48 -72.5 -66.5t-96.5 -18.5q-96 0 -143.5 61.5t-47.5 155.5q0 152 82 241.5t191 89.5q64 0 109 -23t60 -67l16 70h84l-98 -466q-27 -122 -94 -179t-170 -57q-112 0 -157.5 35.5t-45.5 101.5z
M257 42q92 0 144.5 85t52.5 206q0 62 -32.5 97.5t-89.5 35.5q-84 0 -141.5 -76t-57.5 -191q0 -78 30 -119q30 -38 94 -38z" />
    <glyph glyph-name="h" unicode="h" horiz-adv-x="577" 
d="M165 700h90l-53 -248q42 39 86.5 57.5t99.5 18.5q63 0 101 -34t38 -94l-3 -29q-1 -10 -1 -20q-3 -9 -4 -13l-71 -338h-89l66 311l8 45l4 35q0 34 -21.5 54.5t-66.5 20.5q-69 0 -115 -43t-69 -146l-58 -277h-89z" />
    <glyph glyph-name="i" unicode="i" horiz-adv-x="228" 
d="M126 508h89l-108 -508h-89zM147 608l20 92h89l-20 -92h-89z" />
    <glyph glyph-name="j" unicode="j" horiz-adv-x="231" 
d="M128 508h89l-118 -555q-16 -75 -51.5 -108.5t-99.5 -33.5l-25 2h-11q-7 0 -19 2l14 65h9l5 -1q38 0 58 15.5t33 69.5zM149 608l20 92h89l-20 -92h-89z" />
    <glyph glyph-name="k" unicode="k" horiz-adv-x="522" 
d="M165 276l281 232h115l-239 -201l154 -307h-105l-123 257l-105 -84l-36 -173h-89l147 700h89z" />
    <glyph glyph-name="l" unicode="l" horiz-adv-x="231" 
d="M166 700h89l-148 -700h-89z" />
    <glyph glyph-name="m" unicode="m" horiz-adv-x="877" 
d="M125 508h85l-14 -61q31 37 73.5 59t89.5 22q58 0 93 -26q36 -24 43 -68q29 44 81 69t111 25q62 0 100 -33t38 -90l-3 -37l-6 -40l-69 -328h-89l68 322l7 38l2 26q0 39 -19 59q-17 21 -59 21q-57 0 -103 -40t-62 -119l-65 -307h-89l68 321q6 30 6 55q0 30 -9 51
q-17 39 -68 39q-61 0 -105 -45.5t-59 -117.5l-64 -303h-89z" />
    <glyph glyph-name="n" unicode="n" horiz-adv-x="576" 
d="M125 508h86l-11 -56q45 39 90 57.5t98 18.5q64 0 100 -35q38 -33 38 -88l-3 -33q0 -16 -5 -34l-71 -338h-89l66 311l8 48l4 32q0 33 -23.5 54t-65.5 21q-67 0 -115 -45q-44 -41 -67 -144l-58 -277h-89z" />
    <glyph glyph-name="o" unicode="o" horiz-adv-x="587" 
d="M42 268q24 123 101.5 191.5t194.5 68.5q99 0 155.5 -55t56.5 -159q0 -141 -82.5 -237.5t-220.5 -96.5q-107 0 -159.5 57t-52.5 152l1 42zM135 246l-5 -33l-1 -24q0 -75 33 -111t91 -36q92 0 147.5 83t55.5 190q0 68 -33 110q-15 20 -38 30.5t-54 10.5q-71 0 -123 -54
t-73 -166z" />
    <glyph glyph-name="p" unicode="p" horiz-adv-x="601" 
d="M124 508h86l-16 -69q46 46 90 67.5t105 21.5q88 0 132.5 -53t44.5 -143q0 -151 -83 -252q-41 -50 -90 -75t-110 -25q-57 0 -100 22t-62 71l-54 -258h-89zM154 252l-7 -37l-1 -30q0 -64 30.5 -103.5t90.5 -39.5q84 0 144.5 82.5t60.5 209.5q0 65 -31.5 98.5t-93.5 33.5
q-66 0 -118 -53.5t-75 -160.5z" />
    <glyph glyph-name="q" unicode="q" horiz-adv-x="599" 
d="M495 508h85l-146 -693h-89l51 241q-38 -38 -79 -57t-97 -19q-86 0 -135.5 54.5t-49.5 148.5q0 143 81.5 244t209.5 101q55 0 93.5 -21.5t59.5 -67.5zM137 255l-6 -40l-2 -39q0 -65 29 -100q31 -34 86 -34q85 0 147.5 83t62.5 205q0 63 -29.5 99.5t-86.5 36.5
q-81 0 -132 -60t-69 -151z" />
    <glyph glyph-name="r" unicode="r" horiz-adv-x="368" 
d="M413 528l-16 -65q-11 0 -16 2l-9 1q-86 0 -139 -60t-77 -172l-49 -234h-89l107 508h86l-18 -83q41 55 85 79t110 24h25z" />
    <glyph glyph-name="s" unicode="s" horiz-adv-x="501" 
d="M12 151h87q-1 -8 -1 -12q0 -42 28 -68q34 -29 94 -29q32 0 55 7t45 25q40 32 40 77q0 25 -15.5 40.5t-131.5 42.5q-83 18 -110 43q-25 27 -25 69q0 81 54.5 131.5t163.5 50.5q99 0 145 -43q39 -38 39 -93q0 -11 -1 -17h-84v12q0 36 -25 57q-11 10 -28.5 16t-42.5 6
q-57 0 -93 -27.5t-36 -71.5q0 -25 13.5 -38.5t114 -36.5t127.5 -50q27 -24 27 -71q0 -88 -61 -139.5t-172 -51.5q-102 0 -161 45q-47 38 -47 104q0 14 1 22z" />
    <glyph glyph-name="t" unicode="t" horiz-adv-x="319" 
d="M67 508h89l32 150h89l-32 -150h110l-13 -62h-110l-68 -323l-5 -23v-11q0 -25 11 -33t34 -8l24 2q12 1 16 2t17 6l-14 -62l-48 -12l-41 -4q-52 0 -72.5 20t-20.5 57l1 22q2 17 5 26l72 341h-89z" />
    <glyph glyph-name="u" unicode="u" horiz-adv-x="574" 
d="M448 0h-87l14 57q-43 -40 -90 -58.5t-98 -18.5q-64 0 -102 32.5t-38 95.5l1 22q0 11 3 22.5t5 18.5l71 337h89l-67 -311l-7 -39l-2 -33q0 -39 24 -62q24 -21 61 -21q74 0 118 46t65 143l58 277h89z" />
    <glyph glyph-name="v" unicode="v" horiz-adv-x="469" 
d="M203 88l225 420h102l-291 -508h-106l-82 508h94z" />
    <glyph glyph-name="w" unicode="w" horiz-adv-x="718" 
d="M392 407l-184 -407h-100l-57 508h91l37 -407l181 407h98l24 -407l199 407h98l-258 -508h-106z" />
    <glyph glyph-name="x" unicode="x" horiz-adv-x="482" 
d="M256 317l157 191h111l-228 -250l134 -258h-99l-99 209l-174 -209h-112l246 272l-124 236h97z" />
    <glyph glyph-name="y" unicode="y" horiz-adv-x="495" 
d="M-3 -184l14 65l26 -3q13 0 18 -2q26 0 48.5 17t50.5 69l20 38l-114 508h106l76 -398l212 398h98l-323 -568q-49 -85 -82.5 -107t-76.5 -22h-19q-10 0 -26 2z" />
    <glyph glyph-name="z" unicode="z" horiz-adv-x="467" 
d="M102 508h380l-14 -65l-370 -381h303l-13 -62h-415l13 62l378 384h-276z" />
    <glyph glyph-name="braceleft" unicode="{" horiz-adv-x="497" 
d="M115 262l14 66q47 0 80 46q29 40 47 152.5t67 159.5q25 24 59.5 38.5t74.5 14.5l-11 -53q-41 -10 -64.5 -38t-33.5 -110q-13 -102 -49.5 -154t-113.5 -85l-2 -7q38 -21 60 -50.5t22 -67.5q0 -25 -6 -55q-4 -28 -15 -66l-14 -52l-3 -40q0 -21 14.5 -35.5t38.5 -20.5
l-12 -53q-27 0 -49.5 7.5t-42.5 22.5q-34 26 -34 77l3 46q2 15 5 28.5t12 39.5l14 62l5 47q0 33 -15.5 54.5t-50.5 25.5z" />
    <glyph glyph-name="bar" unicode="|" horiz-adv-x="481" 
d="M208 -224v1053h52v-1053h-52z" />
    <glyph glyph-name="braceright" unicode="}" horiz-adv-x="497" 
d="M370 328l-14 -66q-47 -6 -80 -45q-29 -37 -47 -149t-66 -160t-136 -56l12 53q44 9 65.5 41t32.5 120t48 140t116 86l2 7q-43 21 -63 47.5t-20 70.5v22.5t4 31.5q3 30 17 67l12 48l4 43q0 20 -13.5 34t-38.5 23l11 53q28 0 51 -8.5t41 -24.5q34 -28 34 -76v-26
q-3 -13 -4 -19l-15 -67l-15 -64l-5 -46q0 -37 17 -57t50 -23z" />
    <glyph glyph-name="asciitilde" unicode="~" 
d="M102 288l-39 16q22 61 57.5 94.5t75.5 33.5q14 0 21 -1t26 -6.5t40 -15.5l103 -55l23 -9l29 -4q25 0 47 20t39 61l39 -16q-24 -65 -57.5 -96.5t-75.5 -31.5q-21 0 -38 4.5t-27.5 8.5t-21.5 10l-103 55l-26 9l-27 4q-28 0 -51 -23t-34 -58z" />
    <glyph glyph-name="afii10051" horiz-adv-x="871" 
d="M194 621l17 79h549l-17 -79h-227l-48 -225l93 4l62 3q107 0 157 -39.5t50 -105.5q0 -105 -76 -190.5t-201 -85.5l-26 3l-37 10l17 80l34 -11l30 -3q75 0 119 54q43 57 43 122q0 42 -31.5 64.5t-113.5 22.5l-57 -2l-79 -5l-68 -317h-94l132 621h-228z" />
    <glyph glyph-name="afii10052" horiz-adv-x="539" 
d="M257 621l-132 -621h-94l149 700h446l-17 -79h-352zM393 878h112l-124 -132h-86z" />
    <glyph glyph-name="uni0082" horiz-adv-x="318" 
d="M51 0l23 109h99l-24 -114q-15 -68 -45 -97.5t-84 -45.5l11 55q24 4 41.5 23t27.5 65l1 5h-50z" />
    <glyph glyph-name="afii10100" horiz-adv-x="431" 
d="M201 446l-94 -446h-89l107 508h349l-14 -62h-259zM317 700h112l-124 -132h-86z" />
    <glyph glyph-name="uni0084" horiz-adv-x="429" 
d="M25 0l23 109h99l-24 -114q-13 -64 -42 -94.5t-88 -48.5l12 55q24 4 41.5 23t27.5 65l1 5h-50zM190 0l23 109h99l-24 -114q-15 -68 -45 -97.5t-85 -45.5l12 55q24 4 41.5 23t27.5 65l1 5h-50z" />
    <glyph glyph-name="uni0085" unicode="&#x85;" horiz-adv-x="939" 
d="M52 0l23 109h99l-23 -109h-99zM362 0l23 109h99l-23 -109h-99zM672 0l23 109h99l-23 -109h-99z" />
    <glyph glyph-name="uni0086" horiz-adv-x="499" 
d="M306 700h79l-41 -192h185l-15 -68h-185l-133 -625h-79l133 625h-185l15 68h185z" />
    <glyph glyph-name="uni0087" horiz-adv-x="555" 
d="M362 700h79l-41 -192h185l-15 -68h-185l-41 -192h185l-15 -68h-184l-78 -365h-79l78 365h-186l15 68h185l41 192h-185l15 68h185z" />
    <glyph glyph-name="uni0089" horiz-adv-x="1278" 
d="M135 0l603 700h79l-603 -700h-79zM97 508q15 90 71 144q28 27 59 41.5t65 14.5q59 0 100 -38.5t41 -114.5q0 -93 -56 -170t-144 -77q-67 0 -104 36t-37 117l1 21q0 11 4 26zM162 508l-4 -23l-1 -14q0 -59 17 -85q19 -25 57 -25q56 0 96.5 57.5t40.5 126.5
q0 51 -19.5 80.5t-55.5 29.5q-42 0 -79 -38t-52 -109zM525 192q17 83 67 141q26 30 57 44.5t70 14.5q70 0 106 -40.5t36 -112.5q0 -107 -61 -177t-140 -70q-63 0 -102 38t-39 115l1 18q0 13 5 29zM590 192l-6 -28v-9q0 -55 19.5 -82.5t54.5 -27.5q49 0 93.5 52.5t44.5 131.5
q0 62 -20 86t-55 24q-45 0 -79.5 -37.5t-51.5 -109.5zM888 192q17 83 67 141q26 30 57 44.5t70 14.5q69 0 105.5 -40t36.5 -113q0 -107 -61 -177t-140 -70q-63 0 -102 38t-39 115l1 18q0 13 5 29zM953 192l-6 -28v-9q0 -56 19 -83t55 -27q49 0 93.5 52.5t44.5 131.5
q0 62 -20 86t-55 24q-45 0 -79.5 -37.5t-51.5 -109.5z" />
    <glyph glyph-name="afii10058" horiz-adv-x="1143" 
d="M14 0l17 82l11 -2h14q69 0 117.5 74t90.5 245l71 301h438l-61 -285h201q84 0 136 -34.5t52 -94.5q0 -122 -72 -204t-204 -82h-295l132 621h-251l-58 -242q-51 -213 -125.5 -297.5t-180.5 -84.5l-16 1zM696 336l-55 -257h189q78 0 124 49t46 138q0 34 -33.5 52t-93.5 18
h-177z" />
    <glyph glyph-name="quilsinglleft" horiz-adv-x="292" 
d="M75 311l178 132l-19 -90l-121 -88l84 -87l-17 -80l-122 130z" />
    <glyph glyph-name="afii10059" horiz-adv-x="1089" 
d="M197 336l-72 -336h-94l149 700h94l-61 -285h351l61 285h94l-61 -285h181q98 0 153.5 -41.5t55.5 -134.5q0 -108 -76 -173.5t-200 -65.5h-296l72 336h-351zM642 336l-55 -257h175q89 0 139 41.5t50 106.5q0 54 -33.5 81.5t-101.5 27.5h-174z" />
    <glyph glyph-name="afii10061" horiz-adv-x="617" 
d="M206 381l364 319h128l-393 -331l263 -369h-114l-251 365l-78 -365h-94l149 700h94zM438 878h112l-124 -132h-86z" />
    <glyph glyph-name="afii10060" horiz-adv-x="871" 
d="M781 0h-94l44 205q5 25 5 41q0 33 -17 52q-24 26 -131 26l-57 -2l-79 -5l-68 -317h-94l132 621h-228l17 79h549l-17 -79h-227l-48 -225l93 5l62 2q126 0 168 -23q44 -22 44 -72v-30q0 -18 -2 -30l-5 -28z" />
    <glyph glyph-name="afii10145" horiz-adv-x="724" 
d="M557 79l132 621h94l-149 -700h-231l-40 -185h-82l40 185h-231l149 700h94l-132 -621h356z" />
    <glyph glyph-name="afii10099" horiz-adv-x="585" 
d="M286 700l-13 -62h213l-12 -62h-213l-26 -123q30 34 77.5 54.5t91.5 20.5q73 0 114.5 -43t41.5 -127q0 -88 -31 -211t-68 -187q-42 -74 -98 -109.5t-140 -35.5l14 65h22q82 0 144.5 142t62.5 331q0 54 -26 83q-12 14 -30.5 22t-43.5 8q-66 0 -105 -42t-63 -147l-59 -277
h-89l121 576h-77l13 62h77l13 62h89z" />
    <glyph glyph-name="uni0091" horiz-adv-x="310" 
d="M275 572l-24 -110h-99l24 114q13 69 45 99t85 45l-12 -55q-28 -6 -42 -23q-15 -15 -27 -66l-1 -4h51z" />
    <glyph glyph-name="uni0092" horiz-adv-x="309" 
d="M176 591l23 109h99l-24 -115q-14 -67 -47 -100q-31 -33 -82 -43l11 54q28 8 45 28.5t24 60.5l1 6h-50z" />
    <glyph glyph-name="uni0093" horiz-adv-x="419" 
d="M412 572l-23 -110h-99l24 114q14 66 42.5 96t86.5 48l-11 -55q-25 -6 -41 -23t-29 -66l-1 -4h51zM247 572l-23 -110h-99l24 114q12 65 43 97q29 32 86 47l-11 -55q-28 -6 -44.5 -25.5t-25.5 -62.5l-1 -5h51z" />
    <glyph glyph-name="uni0094" horiz-adv-x="421" 
d="M150 591l24 109h99l-25 -115q-13 -62 -44 -96.5t-85 -46.5l11 54q30 9 45 28.5t24 60.5l1 6h-50zM315 591l24 109h99l-25 -115q-13 -62 -44 -96.5t-85 -46.5l11 54q30 9 45 28.5t24 60.5l1 6h-50z" />
    <glyph glyph-name="uni0095" 
d="M213 350q0 41 29 70.5t71 29.5q40 0 70 -29.5t30 -70.5t-29.5 -70.5t-70.5 -29.5q-42 0 -71 28q-29 31 -29 72z" />
    <glyph glyph-name="uni0096" horiz-adv-x="609" 
d="M63 297h500l-14 -62h-500z" />
    <glyph glyph-name="uni0097" horiz-adv-x="835" 
d="M49 235l14 62h726l-14 -62h-726z" />
    <glyph glyph-name="uni0099" horiz-adv-x="861" 
d="M195 645h-112v55h302v-55h-114v-295h-76v295zM640 350l-102 268h-5l4 -45v-223h-75v350h100l94 -241l9 -35h4l8 35l94 241h100v-350h-75v223l4 45h-5l-103 -268h-52z" />
    <glyph glyph-name="afii10106" horiz-adv-x="854" 
d="M-41 0l14 65l10 -2h8q54 0 90 53t68 201l39 191h360l-42 -201h120q88 0 135 -32.5t47 -100.5t-54.5 -121t-149.5 -53h-252l94 446h-187l-26 -129q-39 -192 -91 -256t-141 -64l-22 1q-13 0 -20 2zM493 245l-39 -183h121q68 0 104.5 28t36.5 78q0 40 -24.5 58.5t-92.5 18.5
h-106z" />
    <glyph glyph-name="quilsinglright" horiz-adv-x="290" 
d="M220 230l-178 -132l19 90l121 88l-84 87l17 80l122 -130z" />
    <glyph glyph-name="afii10107" horiz-adv-x="859" 
d="M159 245l-52 -245h-89l107 508h89l-42 -201h251l42 201h89l-42 -201h120q91 0 136 -31.5t45 -101.5q0 -79 -59 -126.5t-144 -47.5h-252l52 245h-251zM499 245l-39 -183h122q67 0 103 27q36 30 36 79q0 37 -23.5 57t-91.5 20h-107z" />
    <glyph glyph-name="afii10109" horiz-adv-x="487" 
d="M165 279l250 229h112l-279 -243l191 -265h-105l-174 254l-53 -254h-89l107 508h89zM345 700h112l-124 -132h-86z" />
    <glyph glyph-name="afii10108" horiz-adv-x="560" 
d="M261 700l-13 -62h210l-12 -62h-211l-25 -124q39 39 85.5 57.5t99.5 18.5q65 0 102.5 -33.5t37.5 -86.5l-3 -31l-6 -39l-71 -338h-89l67 311l6 41l3 40q0 36 -22.5 55t-63.5 19q-67 0 -115 -45t-69 -144l-58 -277h-89l121 576h-79l12 62h80l13 62h89z" />
    <glyph glyph-name="afii10193" horiz-adv-x="579" 
d="M377 62l94 446h89l-107 -508h-174l-39 -185h-87l39 185h-174l107 508h89l-94 -446h257z" />
    <glyph glyph-name="nonbreakingspace" unicode="&#xa0;" horiz-adv-x="310" 
 />
    <glyph glyph-name="exclamdown" unicode="&#xa1;" horiz-adv-x="578" 
d="M326 279l251 421h105l-351 -575q-46 -74 -92 -105t-116 -31l-41 3l-37 8l18 82l31 -9l32 -2q45 0 75 25t59 78l-155 526h106zM251 878h74q-1 -6 -1 -16q0 -26 16 -43q22 -20 66 -20q40 0 70 18.5t44 60.5h75q-30 -69 -77 -101q-23 -15 -49.5 -23t-60.5 -8
q-80 0 -118.5 33.5t-38.5 98.5z" />
    <glyph glyph-name="cent" unicode="&#xa2;" horiz-adv-x="495" 
d="M-3 -184l14 65l26 -3q13 0 18 -2q26 0 48.5 17t50.5 69l20 38l-114 508h106l76 -398l212 398h98l-323 -568q-49 -85 -82.5 -107t-76.5 -22h-19q-10 0 -26 2zM172 700h74q-1 -6 -1 -16q0 -26 16 -43q22 -20 66 -20q40 0 70 18.5t44 60.5h75q-30 -69 -77 -101
q-23 -15 -49.5 -23t-60.5 -8q-80 0 -118.5 33.5t-38.5 98.5z" />
    <glyph glyph-name="sterling" unicode="&#xa3;" horiz-adv-x="517" 
d="M18 232h96l-11 -49l-3 -31q0 -44 24 -69t71 -25q63 0 96 36t57 139l99 467h94l-97 -458q-33 -157 -90 -210t-162 -53q-90 0 -138 37t-48 127l3 46z" />
    <glyph glyph-name="currency" unicode="&#xa4;" horiz-adv-x="825" 
d="M79 53l111 111q-24 33 -39 76q-13 46 -13 90q0 50 13 90.5t39 75.5l-111 112l66 66l110 -112q35 27 78.5 42t91.5 15q51 0 93 -16q44 -15 77 -41l111 112l66 -66l-111 -112q23 -31 38 -75t15 -91q0 -21 -3 -41.5t-10 -43.5q-12 -43 -40 -81l111 -111l-66 -66l-111 111
q-33 -27 -76.5 -41.5t-93.5 -14.5q-53 0 -94 14.5t-76 41.5l-110 -111zM212 330q0 -89 62 -151.5t151 -62.5q86 0 150.5 63.5t64.5 150.5t-64.5 151t-150.5 64q-81 0 -147 -60.5t-66 -154.5z" />
    <glyph glyph-name="yen" unicode="&#xa5;" horiz-adv-x="538" 
d="M257 621l-132 -621h-94l149 700h357l33 158h82l-44 -237h-351z" />
    <glyph glyph-name="brokenbar" unicode="&#xa6;" horiz-adv-x="478" 
d="M208 206h62v-430h-62v430zM270 399h-62v430h62v-430z" />
    <glyph glyph-name="section" unicode="&#xa7;" horiz-adv-x="585" 
d="M513 557h-73l3 21l3 19q0 28 -18.5 45t-50.5 17q-41 0 -66 -25q-25 -23 -25 -60q0 -32 18.5 -51.5t78.5 -45.5q75 -32 109 -67t34 -91q0 -74 -43.5 -129t-117.5 -75q17 -9 31 -30q13 -23 13 -47q0 -81 -53 -131.5t-136 -50.5q-72 0 -113 34q-20 17 -30 42t-10 62l1 17
q0 11 5 22l72 -1l-3 -16v-18q0 -18 4 -30t16 -25q21 -21 58 -21q47 0 73 28.5t26 69.5q0 30 -122 91t-122 164q0 71 42 126t113 72q-18 20 -27 40q-7 23 -7 48q0 71 50 117.5t132 46.5q68 0 105.5 -29.5t37.5 -80.5l-3 -26zM311 150q61 18 94 62.5t33 91.5q0 38 -31.5 65
t-122.5 67q-51 -15 -86 -54t-35 -89q0 -38 18 -63t130 -80z" />
    <glyph glyph-name="dieresis" unicode="&#xa8;" horiz-adv-x="608" 
d="M210 401h367l-17 -79h-366l-52 -243h416l-16 -79h-511l149 700h499l-17 -79h-405zM281 772l17 79h94l-17 -79h-94zM497 772l17 79h94l-17 -79h-94z" />
    <glyph glyph-name="copyright" unicode="&#xa9;" horiz-adv-x="806" 
d="M66 350q0 143 102.5 246.5t247.5 103.5q143 0 246.5 -102.5t103.5 -247.5q0 -144 -103 -247t-247 -103t-247 102t-103 248zM132 350q0 -122 80.5 -209.5t203.5 -87.5q117 0 200.5 86.5t83.5 210.5q0 123 -83.5 210t-200.5 87q-120 0 -202 -87.5t-82 -209.5zM480 297h65
q-8 -39 -38 -72q-28 -33 -60 -45l-26 -6l-29 -2q-46 0 -79 13.5t-53 45.5q-8 11 -13 28l-4 31q0 87 37 155t111 88l22 4l22 2q48 0 79 -15.5t44 -43.5l6 -27v-29h-63q2 8 2 13q0 11 -6.5 25t-29.5 23l-14 2l-20 2q-44 0 -77 -36q-29 -35 -41 -103l-3 -21v-24q0 -31 13 -53
q14 -20 41 -27l11 -3h18q30 0 52 19q22 22 33 56z" />
    <glyph glyph-name="ordfeminine" unicode="&#xaa;" horiz-adv-x="761" 
d="M347 -21q-138 0 -216 67t-78 206q0 192 105.5 330.5t293.5 138.5q141 0 217.5 -73t76.5 -197q0 -194 -104.5 -333t-294.5 -139zM644 408l1 29q0 97 -52 151t-151 54q-128 0 -209 -112q-40 -56 -59 -122h470zM157 329q-3 -24 -3 -49v-16q0 -106 54 -156t150 -50
q129 0 208 110q50 72 68 161h-477z" />
    <glyph glyph-name="guillemotleft" unicode="&#xab;" horiz-adv-x="477" 
d="M260 311l178 132l-19 -90l-121 -88l84 -87l-17 -80l-122 130zM75 311l178 132l-19 -90l-121 -88l84 -87l-17 -80l-122 130z" />
    <glyph glyph-name="logicalnot" unicode="&#xac;" 
d="M63 386h500v-202h-62v140h-438v62z" />
    <glyph glyph-name="minus" unicode="&#xad;" horiz-adv-x="426" 
d="M73 225l18 85h264l-18 -85h-264z" />
    <glyph glyph-name="registered" unicode="&#xae;" horiz-adv-x="808" 
d="M74 350q0 145 102.5 247.5t247.5 102.5q143 0 246.5 -102.5t103.5 -247.5q0 -144 -103 -247t-247 -103q-147 0 -249 102q-51 52 -76 112.5t-25 135.5zM140 350q0 -122 81 -209.5t203 -87.5q114 0 199 87t85 210t-84 210t-200 87q-119 0 -201.5 -87t-82.5 -210zM260 178
l74 350h123q72 0 101 -22q14 -11 21.5 -25t7.5 -33q0 -32 -20.5 -58.5t-59.5 -42.5q9 -4 14 -7.5t13.5 -14t8.5 -28.5l-1 -17l-3 -19q-12 -61 -10 -70l7 -13h-67q-6 12 -6 27q0 10 3 22q9 30 9 57q0 18 -12.5 28.5t-53.5 10.5h-53l-31 -145h-65zM389 480l-24 -109h76
q33 0 55 18t22 51q0 21 -16 30.5t-45 9.5h-68z" />
    <glyph glyph-name="macron" unicode="&#xaf;" horiz-adv-x="590" 
d="M326 380l257 320h111l-336 -408l-61 -292h-94l61 292l-172 408h105z" />
    <glyph glyph-name="degree" unicode="&#xb0;" horiz-adv-x="263" 
d="M111 605q0 38 27 67q29 29 69 29q39 0 67 -29q29 -27 29 -67q0 -39 -28.5 -67.5t-67.5 -28.5t-67.5 28t-28.5 68zM157 605q0 -22 15 -36t35 -14t35 14.5t15 35.5q0 18 -15 34t-35 16q-21 0 -35.5 -15.5t-14.5 -34.5z" />
    <glyph glyph-name="plusminus" unicode="&#xb1;" 
d="M63 451h219v199h62v-199h219v-62h-219v-179h-62v179h-219v62zM63 142h500v-62h-500v62z" />
    <glyph glyph-name="twosuperior" unicode="&#xb2;" horiz-adv-x="264" 
d="M180 700h94l-149 -700h-94z" />
    <glyph glyph-name="threesuperior" unicode="&#xb3;" horiz-adv-x="228" 
d="M126 508h89l-108 -508h-89zM147 608l20 92h89l-20 -92h-89z" />
    <glyph glyph-name="acute" unicode="&#xb4;" horiz-adv-x="429" 
d="M201 446l-93 -446h-90l107 508h266l29 133h74l-34 -195h-259z" />
    <glyph glyph-name="mu" unicode="&#xb5;" horiz-adv-x="597" 
d="M-19 -185l148 693h89l-60 -277l-6 -35l-2 -54q0 -31 26 -54t65 -23q58 0 94.5 41.5t56.5 124.5l60 277h89l-83 -386l-4 -19v-11q0 -18 11 -25q6 -3 17 -3q10 0 17 1l-14 -65l-40 -3l-4 -1q-45 0 -64 13t-19 50l-1 6l1 7q-23 -33 -59.5 -55t-73.5 -22q-34 0 -60.5 18.5
t-39.5 58.5l-55 -257h-89z" />
    <glyph glyph-name="paragraph" unicode="&#xb6;" horiz-adv-x="511" 
d="M225 -185v555q-68 0 -116.5 47.5t-48.5 117.5q0 68 48 116.5t117 48.5h62v-885h-62zM382 -185v885h62v-885h-62z" />
    <glyph glyph-name="cedilla" unicode="&#xb8;" horiz-adv-x="582" 
d="M416 147h90q-27 -84 -92 -125.5t-138 -41.5q-124 0 -182.5 54.5t-58.5 146.5q0 159 86.5 253t234.5 94q93 0 142 -46t49 -136q0 -14 -1 -28.5t-4 -29.5q-3 -27 -12 -54h-397l-4 -20v-13q0 -86 33 -124q33 -35 96 -35q55 0 99.5 27t58.5 78zM148 296h299l5 27l3 23
q0 61 -32 90q-30 30 -80 30q-73 0 -123.5 -42.5t-71.5 -127.5zM207 608l20 92h89l-20 -92h-89zM441 608l20 92h89l-20 -92h-89z" />
    <glyph glyph-name="onesuperior" unicode="&#xb9;" horiz-adv-x="1115" 
d="M242 548l-117 -548h-94l149 700h93l258 -548l116 548h94l-149 -700h-92zM744 342q17 85 67.5 135.5t124.5 50.5q71 0 107 -38.5t36 -103.5q0 -100 -59 -165t-137 -65q-71 0 -107.5 38t-36.5 105l1 19q0 12 4 24zM822 341l-4 -20v-13q0 -44 17 -67q19 -22 53 -22
q41 0 76.5 43t35.5 114q0 43 -17.5 66t-51.5 23q-42 0 -69.5 -33.5t-39.5 -90.5zM685 0l15 74h304l-15 -74h-304z" />
    <glyph glyph-name="ordmasculine" unicode="&#xba;" horiz-adv-x="587" 
d="M42 268q24 123 101.5 191.5t194.5 68.5q99 0 155.5 -55t56.5 -159q0 -141 -82.5 -237.5t-220.5 -96.5q-107 0 -159.5 57t-52.5 152l1 42zM133 238l-3 -25l-1 -24q0 -75 33 -111t91 -36q92 0 147 82q16 24 27.5 53.5t18.5 60.5h-313zM455 299l1 16q0 68 -33 110
q-15 20 -38 30.5t-54 10.5q-71 0 -125 -55q-37 -40 -58 -112h307z" />
    <glyph glyph-name="guillemotright" unicode="&#xbb;" horiz-adv-x="475" 
d="M220 230l-178 -132l19 90l121 88l-84 87l17 80l122 -130zM405 230l-178 -132l19 90l121 88l-84 87l17 80l122 -130z" />
    <glyph glyph-name="onequarter" unicode="&#xbc;" horiz-adv-x="231" 
d="M128 508h89l-118 -555q-16 -75 -51.5 -108.5t-99.5 -33.5l-25 2h-11q-7 0 -19 2l14 65h9l5 -1q38 0 58 15.5t33 69.5zM149 608l20 92h89l-20 -92h-89z" />
    <glyph glyph-name="onehalf" unicode="&#xbd;" horiz-adv-x="646" 
d="M39 222h96q-6 -24 -6 -44q0 -42 28 -75q39 -45 135 -45q93 0 148.5 45t55.5 107q0 37 -23.5 59t-191.5 63q-106 24 -139 62t-33 97q0 97 74.5 163.5t218.5 66.5q109 0 171.5 -41t62.5 -125l-1 -20q0 -11 -2 -17h-91v8l1 14q0 45 -37 73.5t-111 28.5q-82 0 -133.5 -37.5
t-51.5 -96.5q0 -39 26.5 -59.5t126.5 -40.5q150 -30 192 -68.5t42 -99.5q0 -117 -80.5 -189t-232.5 -72q-144 0 -205 61q-45 47 -45 125q0 10 0.5 18.5t4.5 38.5z" />
    <glyph glyph-name="threequarters" unicode="&#xbe;" horiz-adv-x="501" 
d="M12 151h87q-1 -8 -1 -12q0 -42 28 -68q34 -29 94 -29q32 0 55 7t45 25q40 32 40 77q0 25 -15.5 40.5t-131.5 42.5q-83 18 -110 43q-25 27 -25 69q0 81 54.5 131.5t163.5 50.5q99 0 145 -43q39 -38 39 -93q0 -11 -1 -17h-84v12q0 36 -25 57q-11 10 -28.5 16t-42.5 6
q-57 0 -93 -27.5t-36 -71.5q0 -25 13.5 -38.5t114 -36.5t127.5 -50q27 -24 27 -71q0 -88 -61 -139.5t-172 -51.5q-102 0 -161 45q-47 38 -47 104q0 14 1 22z" />
    <glyph glyph-name="questiondown" unicode="&#xbf;" horiz-adv-x="495" 
d="M174 0l-114 508h106l76 -398l212 398h98l-289 -508l-40 -185h-87z" />
    <glyph glyph-name="Agrave" unicode="&#xc0;" horiz-adv-x="630" 
d="M155 181l-105 -181h-98l406 700h102l116 -700h-97l-28 181h-296zM197 260h245l-50 345z" />
    <glyph glyph-name="Aacute" unicode="&#xc1;" horiz-adv-x="669" 
d="M257 621l-44 -210h202q107 0 158.5 -44t51.5 -128q0 -108 -76 -173.5t-201 -65.5h-317l149 700h497l-18 -79h-402zM196 332l-54 -253h197q90 0 139 41.5t49 106.5q0 53 -33 80q-34 25 -102 25h-196z" />
    <glyph glyph-name="Acircumflex" unicode="&#xc2;" horiz-adv-x="693" 
d="M179 700h295q90 0 138.5 -36.5t48.5 -104.5q0 -65 -36 -116.5t-100 -75.5q27 -9 45 -21t32 -31q26 -35 26 -92q0 -100 -78 -161.5t-216 -61.5h-303zM257 621l-46 -218h189q75 0 119 36.5t44 94.5q0 45 -29.5 66t-91.5 21h-185zM194 324l-52 -245h195q86 0 139.5 37
t53.5 109q0 52 -37 75.5t-104 23.5h-195z" />
    <glyph glyph-name="Atilde" unicode="&#xc3;" horiz-adv-x="539" 
d="M257 621l-132 -621h-94l149 700h446l-17 -79h-352z" />
    <glyph glyph-name="Adieresis" unicode="&#xc4;" horiz-adv-x="737" 
d="M586 79h100l-59 -237h-81l33 158h-544l-33 -158h-82l42 237h68q81 84 139 201q55 112 92 276l31 144h426zM607 621h-238l-18 -87q-30 -142 -78 -253q-23 -52 -55 -103.5t-70 -98.5h344z" />
    <glyph glyph-name="Aring" unicode="&#xc5;" horiz-adv-x="608" 
d="M210 401h367l-17 -79h-366l-52 -243h416l-16 -79h-511l149 700h499l-17 -79h-405z" />
    <glyph glyph-name="AE" unicode="&#xc6;" horiz-adv-x="903" 
d="M353 0l75 353l-354 -353h-132l397 382l-235 318h113l219 -310l66 310h94l-66 -310l335 310h128l-372 -331l238 -369h-116l-221 353l-75 -353h-94z" />
    <glyph glyph-name="Ccedilla" unicode="&#xc7;" horiz-adv-x="675" 
d="M37 215h96q-3 -17 -3 -31q0 -50 34 -84q42 -42 142 -42q97 0 150.5 49.5t53.5 118.5q0 49 -34 75.5t-104 26.5h-92l17 79h83q78 0 122.5 35.5t44.5 91.5q0 52 -35 80q-17 14 -42 21t-62 7q-83 0 -135 -38t-65 -98h-100q24 102 103 159q39 28 89.5 42t116.5 14
q113 0 170.5 -44t57.5 -128q0 -64 -38.5 -110.5t-100.5 -67.5l-1 -3q53 -17 78 -48.5t25 -91.5q0 -117 -85 -183t-222 -66q-144 0 -212 56q-54 47 -54 139v18.5t2 22.5z" />
    <glyph glyph-name="Egrave" unicode="&#xc8;" horiz-adv-x="730" 
d="M154 137l472 563h114l-149 -700h-94l121 567l-474 -567h-113l149 700h94z" />
    <glyph glyph-name="Eacute" unicode="&#xc9;" horiz-adv-x="730" 
d="M154 137l472 563h114l-149 -700h-94l121 567l-474 -567h-113l149 700h94zM299 858h74v-9q0 -34 20 -53q20 -17 61 -17t69 18t46 61h73q-21 -62 -72 -97t-114 -35q-75 0 -116 32.5t-41 99.5z" />
    <glyph glyph-name="Ecircumflex" unicode="&#xca;" horiz-adv-x="617" 
d="M206 381l364 319h128l-393 -331l263 -369h-114l-251 365l-78 -365h-94l149 700h94z" />
    <glyph glyph-name="Edieresis" unicode="&#xcb;" horiz-adv-x="708" 
d="M-41 0l17 82l14 -3l15 1q65 0 114.5 68.5t93.5 250.5l70 301h435l-149 -700h-94l132 621h-246l-55 -242q-42 -189 -111.5 -285.5t-187.5 -96.5l-24 1q-16 0 -24 2z" />
    <glyph glyph-name="Igrave" unicode="&#xcc;" horiz-adv-x="870" 
d="M345 0l-106 568l-5 -26l-116 -542h-87l149 700h119l109 -576l342 576h130l-149 -700h-87l116 542l7 26l-343 -568h-79z" />
    <glyph glyph-name="Iacute" unicode="&#xcd;" horiz-adv-x="709" 
d="M195 329l-70 -329h-94l149 700h94l-62 -292h351l62 292h94l-149 -700h-94l70 329h-351z" />
    <glyph glyph-name="Icircumflex" unicode="&#xce;" horiz-adv-x="761" 
d="M347 -21q-138 0 -216 67t-78 206q0 192 105.5 330.5t293.5 138.5q141 0 217.5 -73t76.5 -197q0 -194 -104.5 -333t-294.5 -139zM358 58q129 0 208 110q39 55 59 121.5t20 147.5q0 97 -52 151t-151 54q-128 0 -208 -112t-80 -266q0 -106 54 -156t150 -50z" />
    <glyph glyph-name="Idieresis" unicode="&#xcf;" horiz-adv-x="712" 
d="M257 621l-132 -621h-94l149 700h542l-149 -700h-94l132 621h-354z" />
    <glyph glyph-name="Eth" unicode="&#xd0;" horiz-adv-x="638" 
d="M180 700h270q113 0 163 -38.5t50 -115.5q0 -125 -76 -196t-201 -71h-202l-59 -279h-94zM257 621l-56 -263h178q92 0 139 46.5t47 125.5q0 44 -33.5 67.5t-109.5 23.5h-165z" />
    <glyph glyph-name="Ntilde" unicode="&#xd1;" horiz-adv-x="715" 
d="M575 232h98q-33 -117 -118.5 -185t-212.5 -68q-132 0 -209.5 66t-77.5 206q0 203 113 336.5t286 133.5q119 0 192 -48t73 -146l-1 -24q0 -12 -2 -19h-95l1 12l1 17q0 61 -46.5 95t-125.5 34q-141 0 -218 -116t-77 -258q0 -99 52.5 -154.5t144.5 -55.5q81 0 139 46t83 128
z" />
    <glyph glyph-name="Ograve" unicode="&#xd2;" horiz-adv-x="569" 
d="M318 621h-227l17 79h548l-17 -79h-227l-132 -621h-94z" />
    <glyph glyph-name="Oacute" unicode="&#xd3;" horiz-adv-x="578" 
d="M326 279l251 421h105l-351 -575q-46 -74 -92 -105t-116 -31l-41 3l-37 8l18 82l31 -9l32 -2q45 0 75 25t59 78l-155 526h106z" />
    <glyph glyph-name="Ocircumflex" unicode="&#xd4;" horiz-adv-x="895" 
d="M340 -26l22 105h-37q-123 0 -195.5 60t-72.5 169q0 149 106.5 237.5t278.5 88.5h38l23 106h94l-23 -106h40q120 0 193.5 -59.5t73.5 -169.5q0 -149 -105.5 -237.5t-279.5 -88.5h-40l-22 -105h-94zM379 158l85 397h-25q-137 0 -209 -65t-72 -173q0 -81 49 -120t146 -39h26
zM473 158h26q140 0 210.5 66.5t70.5 170.5q0 75 -49 117.5t-145 42.5h-28z" />
    <glyph glyph-name="Otilde" unicode="&#xd5;" horiz-adv-x="593" 
d="M307 295l-246 -295h-115l314 370l-164 330h112l130 -275l226 275h114l-296 -350l178 -350h-113z" />
    <glyph glyph-name="Odieresis" unicode="&#xd6;" horiz-adv-x="741" 
d="M142 79h355l132 621h94l-132 -621h98l-59 -237h-82l34 158h-551l149 700h94z" />
    <glyph glyph-name="multiply" unicode="&#xd7;" horiz-adv-x="634" 
d="M152 700h94l-43 -205l-6 -31l-1 -19q0 -38 30 -55q28 -14 119 -14l56 1l82 6l67 317h94l-149 -700h-94l65 304l-87 -6l-55 -1q-125 0 -174.5 30t-49.5 100l1 27q1 13 2 18t6 23z" />
    <glyph glyph-name="Oslash" unicode="&#xd8;" horiz-adv-x="1016" 
d="M142 79h282l132 621h94l-132 -621h282l132 621h94l-149 -700h-846l149 700h94z" />
    <glyph glyph-name="Ugrave" unicode="&#xd9;" horiz-adv-x="1046" 
d="M142 79h282l132 621h94l-132 -621h282l132 621h94l-132 -621h104l-58 -237h-81l33 158h-861l149 700h94z" />
    <glyph glyph-name="Uacute" unicode="&#xda;" horiz-adv-x="724" 
d="M354 700l-61 -285h181q103 0 156 -43t53 -133q0 -109 -73.5 -174t-202.5 -65h-296l132 621h-152l17 79h246zM277 336l-55 -257h175q88 0 138 41.5t50 106.5q0 53 -32.5 81t-100.5 28h-175z" />
    <glyph glyph-name="Ucircumflex" unicode="&#xdb;" horiz-adv-x="859" 
d="M274 700l-61 -285h181q100 0 155 -43t55 -133q0 -108 -75.5 -173.5t-201.5 -65.5h-296l149 700h94zM197 336l-55 -257h176q87 0 137.5 42t50.5 106q0 54 -34 81q-17 14 -41 21t-59 7h-175zM775 700h94l-149 -700h-94z" />
    <glyph glyph-name="Udieresis" unicode="&#xdc;" horiz-adv-x="644" 
d="M274 700l-61 -285h180q99 0 154.5 -41.5t55.5 -134.5q0 -108 -74.5 -173.5t-202.5 -65.5h-295l149 700h94zM197 336l-55 -257h175q88 0 138 41.5t50 106.5q0 53 -33 82q-33 27 -100 27h-175z" />
    <glyph glyph-name="Yacute" unicode="&#xdd;" horiz-adv-x="728" 
d="M203 496h-98q29 99 113.5 162t213.5 63q135 0 208.5 -63.5t73.5 -195.5q0 -214 -103 -348.5t-299 -134.5q-130 0 -198 55q-35 28 -53.5 70t-18.5 101l-1 20l1 18h98l-1 -10v-7q0 -80 46 -124t130 -44q107 0 178.5 68t98.5 195h-332l17 79h331l3 29l2 33q0 90 -48 135
t-138 45q-78 0 -140 -38.5t-84 -107.5z" />
    <glyph glyph-name="Thorn" unicode="&#xde;" horiz-adv-x="994" 
d="M212 408h96q27 135 130.5 224t247.5 89q140 0 216.5 -72.5t76.5 -197.5q0 -195 -105 -333.5t-293 -138.5q-137 0 -216 66t-79 207l1 38q0 23 5 39h-97l-70 -329h-94l149 700h94zM592 58q124 0 205 108t81 277q0 98 -55 148.5t-148 50.5q-131 0 -209.5 -113t-78.5 -271
q0 -102 54 -151t151 -49z" />
    <glyph glyph-name="germandbls" unicode="&#xdf;" horiz-adv-x="673" 
d="M499 278h-153l-230 -278h-123l250 288q-69 6 -110 50t-41 120q0 113 81.5 177.5t207.5 64.5h302l-149 -700h-94zM572 621h-197q-79 0 -132 -43t-53 -120q0 -52 37.5 -76.5t104.5 -24.5h184z" />
    <glyph glyph-name="agrave" unicode="&#xe0;" horiz-adv-x="561" 
d="M163 358h-84q15 87 77.5 128.5t160.5 41.5q96 0 141 -35q47 -33 47 -85l-1 -13q0 -7 -1 -12q-4 -15 -7 -26l-54 -235q-4 -19 -4 -33q0 -8 1 -11q5 -15 33 -15l11 -1l-14 -62q-15 0 -23 -2l-15 -1q-37 0 -54.5 13.5t-17.5 39.5v11q-40 -45 -83 -63t-96 -18
q-83 0 -127.5 30t-44.5 98q0 83 58.5 128t255.5 65q31 0 48.5 6t27.5 17q15 18 15 66q0 36 -25.5 56t-70.5 20q-65 0 -105 -30t-49 -78zM377 217l10 38l-14 -10l-135 -17q-73 -9 -105.5 -36.5t-32.5 -72.5q0 -37 20 -57t64 -20q72 0 120 42t73 133z" />
    <glyph glyph-name="aacute" unicode="&#xe1;" horiz-adv-x="617" 
d="M557 733h75q-8 -29 -22 -47.5t-263 -82.5q-76 -19 -123.5 -74t-63.5 -134q39 64 93 97q29 18 60 27t69 9q88 0 141.5 -52t53.5 -144q0 -154 -79 -253t-221 -99q-108 0 -163.5 54t-55.5 170q0 183 67.5 302.5t186.5 161.5q115 38 193 61l58 12zM159 250l-6 -40l-1 -38
q0 -61 29 -95.5t94 -34.5q92 0 150 78t58 204q0 66 -31.5 104t-91.5 38q-75 0 -128 -54t-73 -162z" />
    <glyph glyph-name="acircumflex" unicode="&#xe2;" horiz-adv-x="541" 
d="M126 508h216q93 0 126 -28t33 -79q0 -46 -24.5 -80.5t-78.5 -55.5q39 -16 58 -40t19 -58q0 -79 -55 -123t-149 -44h-253zM201 446l-32 -150h122q58 0 88 24t30 64q0 32 -20 46q-10 8 -24 12t-38 4h-126zM156 234l-36 -172h128q70 0 102.5 24.5t32.5 69.5q0 40 -25 59
t-76 19h-126z" />
    <glyph glyph-name="atilde" unicode="&#xe3;" horiz-adv-x="431" 
d="M201 446l-94 -446h-89l107 508h349l-14 -62h-259z" />
    <glyph glyph-name="adieresis" unicode="&#xe4;" horiz-adv-x="602" 
d="M-43 62h65q57 71 92.5 148.5t65.5 212.5l18 85h365l-94 -446h88l-50 -194h-73l28 132h-436l-28 -132h-73zM461 446h-187l-15 -71q-10 -48 -22.5 -89t-32.5 -86q-36 -82 -83 -138h259z" />
    <glyph glyph-name="aring" unicode="&#xe5;" horiz-adv-x="582" 
d="M416 147h90q-27 -84 -92 -125.5t-138 -41.5q-124 0 -182.5 54.5t-58.5 146.5q0 159 86.5 253t234.5 94q93 0 142 -46t49 -136q0 -14 -1 -28.5t-4 -29.5q-3 -27 -12 -54h-397l-4 -20v-13q0 -86 33 -124q33 -35 96 -35q55 0 99.5 27t58.5 78zM148 296h299l5 27l3 23
q0 61 -32 90q-30 30 -80 30q-73 0 -123.5 -42.5t-71.5 -127.5z" />
    <glyph glyph-name="ae" unicode="&#xe6;" horiz-adv-x="699" 
d="M253 0l55 251l-244 -251h-115l279 268l-164 240h104l145 -230l47 230h89l-50 -230l229 230h111l-260 -244l172 -264h-109l-149 251l-51 -251h-89z" />
    <glyph glyph-name="ccedilla" unicode="&#xe7;" horiz-adv-x="520" 
d="M11 156h84l-2 -11v-11q0 -40 30 -67q31 -25 85 -25q65 0 109 31.5t44 85.5q0 32 -24.5 53t-72.5 21h-74l13 62h65q57 0 88 22t31 66q0 38 -25 60.5t-68 22.5q-54 0 -94 -27.5t-47 -70.5h-84q15 75 76 117.5t151 42.5q89 0 137 -31t48 -89q0 -52 -24 -86.5t-75 -56.5
q31 -8 52 -34t21 -62q0 -85 -61 -137t-167 -52q-109 0 -163.5 35t-54.5 108v19z" />
    <glyph glyph-name="egrave" unicode="&#xe8;" horiz-adv-x="596" 
d="M129 103l336 405h112l-107 -508h-89l86 406l-337 -406h-112l107 508h89z" />
    <glyph glyph-name="eacute" unicode="&#xe9;" horiz-adv-x="596" 
d="M129 103l336 405h112l-107 -508h-89l86 406l-337 -406h-112l107 508h89zM212 700h74q-1 -6 -1 -16q0 -26 16 -43q23 -20 66 -20q45 0 70 17t44 62h75q-27 -65 -72.5 -98.5t-114.5 -33.5q-82 0 -122 37q-19 17 -27 40.5t-8 54.5z" />
    <glyph glyph-name="ecircumflex" unicode="&#xea;" horiz-adv-x="487" 
d="M165 279l250 229h112l-279 -243l191 -265h-105l-174 254l-53 -254h-89l107 508h89z" />
    <glyph glyph-name="edieresis" unicode="&#xeb;" horiz-adv-x="566" 
d="M-41 0l14 65l10 -2h9q53 0 88.5 50.5t68.5 203.5l40 191h358l-107 -508h-89l94 446h-185l-27 -129q-41 -193 -92.5 -256.5t-140.5 -63.5l-22 1q-12 0 -19 2z" />
    <glyph glyph-name="igrave" unicode="&#xec;" horiz-adv-x="734" 
d="M278 0l-85 408l-6 -27l-80 -381h-89l107 508h123l85 -413l250 413h132l-107 -508h-89l81 381l9 27l-251 -408h-80z" />
    <glyph glyph-name="iacute" unicode="&#xed;" horiz-adv-x="574" 
d="M157 237l-50 -237h-89l107 508h89l-44 -209h252l44 209h89l-108 -508h-89l50 237h-251z" />
    <glyph glyph-name="icircumflex" unicode="&#xee;" horiz-adv-x="587" 
d="M42 268q24 123 101.5 191.5t194.5 68.5q99 0 155.5 -55t56.5 -159q0 -141 -82.5 -237.5t-220.5 -96.5q-107 0 -159.5 57t-52.5 152l1 42zM135 246l-5 -33l-1 -24q0 -75 33 -111t91 -36q92 0 147.5 83t55.5 190q0 68 -33 110q-15 20 -38 30.5t-54 10.5q-71 0 -123 -54
t-73 -166z" />
    <glyph glyph-name="idieresis" unicode="&#xef;" horiz-adv-x="578" 
d="M201 446l-94 -446h-89l107 508h434l-107 -508h-89l94 446h-256z" />
    <glyph glyph-name="eth" unicode="&#xf0;" horiz-adv-x="601" 
d="M124 508h86l-16 -69q46 46 90 67.5t105 21.5q88 0 132.5 -53t44.5 -143q0 -151 -83 -252q-41 -50 -90 -75t-110 -25q-57 0 -100 22t-62 71l-54 -258h-89zM154 252l-7 -37l-1 -30q0 -64 30.5 -103.5t90.5 -39.5q84 0 144.5 82.5t60.5 209.5q0 65 -31.5 98.5t-93.5 33.5
q-66 0 -118 -53.5t-75 -160.5z" />
    <glyph glyph-name="ntilde" unicode="&#xf1;" horiz-adv-x="551" 
d="M414 181h84q-23 -93 -89 -147t-162 -54q-97 0 -154 53t-57 153q0 140 78.5 241t217.5 101q94 0 145 -40t51 -113v-26h-84q0 60 -29 88q-27 29 -82 29q-93 0 -148 -88.5t-55 -196.5q0 -65 31.5 -102t95.5 -37q60 0 99 37.5t58 101.5z" />
    <glyph glyph-name="ograve" unicode="&#xf2;" horiz-adv-x="462" 
d="M228 446h-174l14 62h437l-14 -62h-174l-94 -446h-89z" />
    <glyph glyph-name="oacute" unicode="&#xf3;" horiz-adv-x="495" 
d="M-3 -184l14 65l26 -3q13 0 18 -2q26 0 48.5 17t50.5 69l20 38l-114 508h106l76 -398l212 398h98l-323 -568q-49 -85 -82.5 -107t-76.5 -22h-19q-10 0 -26 2z" />
    <glyph glyph-name="ocircumflex" unicode="&#xf4;" horiz-adv-x="798" 
d="M263 -185l35 168q-125 0 -191.5 60.5t-66.5 163.5q0 142 100 230q50 44 117 66t155 22l37 175h89l-37 -175q62 0 107 -12t82 -41q71 -54 71 -164q0 -154 -100 -238q-50 -42 -118.5 -64.5t-155.5 -22.5l-35 -168h-89zM315 45l88 418q-67 0 -115 -16.5t-84 -53.5
q-70 -73 -70 -189q0 -75 46 -117t135 -42zM484 463l-88 -418q131 0 201 76t70 190q0 72 -45 112t-138 40z" />
    <glyph glyph-name="otilde" unicode="&#xf5;" horiz-adv-x="482" 
d="M256 317l157 191h111l-228 -250l134 -258h-99l-99 209l-174 -209h-112l246 272l-124 236h97z" />
    <glyph glyph-name="odieresis" unicode="&#xf6;" horiz-adv-x="598" 
d="M120 62h254l94 446h89l-94 -446h90l-50 -194h-74l29 132h-440l107 508h89z" />
    <glyph glyph-name="divide" unicode="&#xf7;" horiz-adv-x="508" 
d="M98 508h89l-35 -156l-4 -18v-14q0 -30 20 -41q22 -10 78 -10l42 1h23h24q11 2 15 2l50 236h89l-107 -508h-89l44 211h-29.5t-29.5 -2l-56 -1q-90 0 -127 21t-37 73v17l4 19z" />
    <glyph glyph-name="oslash" unicode="&#xf8;" horiz-adv-x="833" 
d="M120 62h211l94 446h89l-94 -446h211l94 446h89l-107 -508h-689l107 508h89z" />
    <glyph glyph-name="ugrave" unicode="&#xf9;" horiz-adv-x="852" 
d="M120 62h211l94 446h89l-94 -446h211l94 446h89l-94 -446h86l-50 -194h-74l28 132h-692l107 508h89z" />
    <glyph glyph-name="uacute" unicode="&#xfa;" horiz-adv-x="597" 
d="M54 446l14 62h219l-42 -201h120q101 0 141.5 -35.5t40.5 -97.5q0 -78 -58 -126t-146 -48h-252l94 446h-131zM232 245l-39 -183h122q66 0 103 28t37 78q0 40 -24.5 58.5t-91.5 18.5h-107z" />
    <glyph glyph-name="ucircumflex" unicode="&#xfb;" horiz-adv-x="715" 
d="M125 508h89l-42 -200h120q92 0 136.5 -32t44.5 -102q0 -79 -58 -126.5t-144 -47.5h-253zM159 246l-39 -184h122q66 0 102.5 27.5t36.5 78.5q0 43 -26 60q-24 18 -89 18h-107zM607 508h89l-107 -508h-89z" />
    <glyph glyph-name="udieresis" unicode="&#xfc;" horiz-adv-x="521" 
d="M125 508h89l-42 -200h120q93 0 138 -32t45 -102q0 -78 -59.5 -126t-145.5 -48h-252zM159 246l-39 -184h122q70 0 105.5 27.5t35.5 78.5q0 43 -26 60q-24 18 -91 18h-107z" />
    <glyph glyph-name="yacute" unicode="&#xfd;" horiz-adv-x="559" 
d="M192 233l14 62h218l3 25q0 16 2 26q0 56 -26.5 88t-86.5 32q-69 0 -114 -31t-61 -86h-84q22 80 87.5 129.5t170.5 49.5q99 0 153.5 -46.5t54.5 -143.5q0 -153 -79.5 -255.5t-220.5 -102.5q-103 0 -154 44.5t-51 123.5v16l1 13h84l-2 -14v-15q0 -51 33.5 -78.5t88.5 -27.5
q68 0 117 46t72 145h-220z" />
    <glyph glyph-name="thorn" unicode="&#xfe;" horiz-adv-x="788" 
d="M170 299h82q22 98 98.5 163.5t192.5 65.5q99 0 153.5 -54t54.5 -160q0 -141 -81.5 -237.5t-221.5 -96.5q-108 0 -160 56.5t-52 153.5v23l3 24h-82l-50 -237h-89l107 508h89zM335 246l-4 -30l-1 -27q0 -75 32.5 -111t91.5 -36q92 0 147.5 82.5t55.5 190.5q0 77 -34 114
t-91 37q-82 0 -131 -61t-66 -159z" />
    <glyph glyph-name="ydieresis" unicode="&#xff;" horiz-adv-x="524" 
d="M248 200l-162 -200h-104l174 201q-55 8 -83 38.5t-28 88.5q0 77 54.5 128.5t152.5 51.5h253l-107 -508h-89l42 200h-103zM403 446h-125q-71 0 -106 -26q-35 -24 -35 -79q0 -44 25.5 -61.5t79.5 -17.5h122z" />
    <glyph glyph-name="Idotaccent" unicode="&#x130;" horiz-adv-x="312" 
d="M258 700h112l-124 -132h-86z" />
    <glyph glyph-name="dotlessi" unicode="&#x131;" horiz-adv-x="998" 
d="M477 295q-76 -76 -125.5 -99.5t-103.5 -23.5q-79 0 -128.5 49.5t-49.5 128.5q0 80 58.5 129.5t157.5 49.5q73 0 125.5 -30t101.5 -94q58 70 110.5 96.5t121.5 26.5q83 0 133 -45.5t50 -122.5q0 -81 -53.5 -134.5t-147.5 -53.5q-78 0 -142 32t-108 91zM445 334
q-66 86 -109.5 118t-89.5 32q-51 0 -86 -37.5t-35 -96.5q0 -56 35 -91.5t93 -35.5q49 0 93.5 25.5t98.5 85.5zM549 371q57 -78 104.5 -111t99.5 -33q50 0 85 36.5t35 96.5q0 55 -37 86t-92 31q-62 0 -104.5 -24.5t-90.5 -81.5z" />
    <glyph glyph-name="lessequal" unicode="&#x132;" horiz-adv-x="669" 
d="M73 387v48l495 285l30 -54l-449 -255l449 -255l-30 -54zM73 227l30 54l495 -285l-30 -54z" />
    <glyph glyph-name="greaterequal" unicode="&#x133;" horiz-adv-x="669" 
d="M622 387l-495 -285l-30 54l449 255l-449 255l30 54l495 -285v-48zM622 227l-495 -285l-30 54l495 285z" />
    <glyph glyph-name="partialdiff" unicode="&#x134;" horiz-adv-x="587" 
d="M236 686l16 47q162 -28 241.5 -92.5t79.5 -189.5q0 -213 -81.5 -342t-244.5 -129q-107 0 -159.5 54t-52.5 145q0 132 81 230.5t222 98.5q70 0 110.5 -25.5t53.5 -69.5v17q0 105 -54 163q-60 63 -212 93zM253 42q91 0 147 78.5t56 184.5q0 69 -33 105t-92 36
q-93 0 -147.5 -79t-54.5 -188q0 -68 32 -102.5t92 -34.5z" />
    <glyph glyph-name="radical" unicode="&#x135;" horiz-adv-x="650" 
d="M232 500l112 -387l109 716h177v-62h-118l-138 -867h-64l-165 538h-125v62h212z" />
    <glyph glyph-name="approxequal" unicode="&#x136;" 
d="M102 388l-39 16q23 63 57.5 95.5t75.5 32.5q14 0 21 -1t26 -6.5t40 -15.5l103 -55l23 -9l29 -4q25 0 47 20t39 61l39 -16q-24 -65 -57.5 -96.5t-75.5 -31.5q-21 0 -38 4.5t-27.5 8.5t-21.5 10l-103 55l-26 9l-27 4q-28 0 -51 -23t-34 -58zM102 188l-39 16
q23 63 57.5 95.5t75.5 32.5q14 0 21 -1t26 -6.5t40 -15.5l103 -55l23 -9l29 -4q25 0 47 20t39 61l39 -16q-24 -65 -58.5 -96.5t-74.5 -31.5q-21 0 -38 4.5t-27.5 8.5t-21.5 10l-103 55l-26 9l-27 4q-28 0 -51 -23t-34 -58z" />
    <glyph glyph-name="Delta" unicode="&#x137;" horiz-adv-x="624" 
d="M369 603l-311 -524h400zM-48 0l422 700h72l124 -700h-618z" />
    <glyph glyph-name="glyph188" unicode="&#x138;" horiz-adv-x="444" 
d="M147 700h74q-1 -6 -1 -16q0 -26 16 -43q22 -20 66 -20q40 0 70 18.5t44 60.5h75q-30 -69 -77 -101q-23 -15 -49.5 -23t-60.5 -8q-80 0 -118.5 33.5t-38.5 98.5z" />
    <glyph glyph-name="glyph237" unicode="&#x139;" horiz-adv-x="470" 
d="M376 568h-138l-91 132h89l75 -99l112 99h94z" />
    <glyph glyph-name="glyph241" unicode="&#x13a;" horiz-adv-x="422" 
d="M127 608l20 92h89l-20 -92h-89zM361 608l20 92h89l-20 -92h-89z" />
    <glyph glyph-name="fi" unicode="&#x13b;" horiz-adv-x="506" 
d="M160 508l15 69q12 61 53.5 92t108.5 31l20 -1q13 0 21 -2l10 -2l11 -2l-13 -60l-30 3l-31 2q-24 0 -39 -15t-24 -54l-13 -61h244l-108 -508h-89l95 446h-155l-94 -446h-89l94 446h-93l13 62h93zM425 608l20 92h89l-20 -92h-89z" />
    <glyph glyph-name="fl" unicode="&#x13c;" horiz-adv-x="509" 
d="M249 508h154l41 192h89l-148 -700h-89l94 446h-154l-94 -446h-89l94 446h-93l13 62h93l15 69q12 61 53.5 92t108.5 31q20 0 31 -2l31 -5l-12 -60l-31 3l-31 2q-24 0 -39 -15t-24 -54z" />
    <glyph glyph-name="OE" unicode="&#x152;" horiz-adv-x="1143" 
d="M14 0l17 82l11 -2h14q69 0 117.5 74t90.5 245l71 301h438l-61 -285h201q84 0 136 -34.5t52 -94.5q0 -122 -72 -204t-204 -82h-295l132 621h-251l-58 -242q-51 -213 -125.5 -297.5t-180.5 -84.5l-16 1zM696 336l-55 -257h189q78 0 124 49t46 138q0 34 -33.5 52t-93.5 18
h-177z" />
    <glyph glyph-name="oe" unicode="&#x153;" horiz-adv-x="854" 
d="M-41 0l14 65l10 -2h8q54 0 90 53t68 201l39 191h360l-42 -201h120q88 0 135 -32.5t47 -100.5t-54.5 -121t-149.5 -53h-252l94 446h-187l-26 -129q-39 -192 -91 -256t-141 -64l-22 1q-13 0 -20 2zM493 245l-39 -183h121q68 0 104.5 28t36.5 78q0 40 -24.5 58.5t-92.5 18.5
h-106z" />
    <glyph glyph-name="Scaron" unicode="&#x160;" horiz-adv-x="663" 
d="M39 222h96q-6 -24 -6 -44q0 -42 28 -75q39 -45 135 -45q93 0 148.5 45t55.5 107q0 37 -23.5 59t-191.5 63q-106 24 -139 62t-33 97q0 97 74.5 163.5t218.5 66.5q109 0 171.5 -41t62.5 -125l-1 -20q0 -11 -2 -17h-91v8l1 14q0 45 -37 73.5t-111 28.5q-82 0 -133.5 -37.5
t-51.5 -96.5q0 -39 26.5 -59.5t126.5 -40.5q150 -30 192 -68.5t42 -99.5q0 -117 -80.5 -189t-232.5 -72q-144 0 -205 61q-45 47 -45 125q0 10 0.5 18.5t4.5 38.5zM464 746h-138l-91 132h89l75 -99l112 99h94z" />
    <glyph glyph-name="scaron" unicode="&#x161;" horiz-adv-x="510" 
d="M12 151h87q-1 -8 -1 -12q0 -42 28 -68q34 -29 94 -29q32 0 55 7t45 25q40 32 40 77q0 25 -15.5 40.5t-131.5 42.5q-83 18 -110 43q-25 27 -25 69q0 81 54.5 131.5t163.5 50.5q99 0 145 -43q39 -38 39 -93q0 -11 -1 -17h-84v12q0 36 -25 57q-11 10 -28.5 16t-42.5 6
q-57 0 -93 -27.5t-36 -71.5q0 -25 13.5 -38.5t114 -36.5t127.5 -50q27 -24 27 -71q0 -88 -61 -139.5t-172 -51.5q-102 0 -161 45q-47 38 -47 104q0 14 1 22zM391 568h-138l-91 132h89l75 -99l112 99h94z" />
    <glyph glyph-name="Ydieresis" unicode="&#x178;" horiz-adv-x="590" 
d="M326 380l257 320h111l-336 -408l-61 -292h-94l61 292l-172 408h105zM248 786l20 92h89l-20 -92h-89zM482 786l20 92h89l-20 -92h-89z" />
    <glyph glyph-name="florin" unicode="&#x192;" horiz-adv-x="431" 
d="M201 446l-94 -446h-89l107 508h349l-14 -62h-259zM317 700h112l-124 -132h-86z" />
    <glyph glyph-name="circumflex" unicode="&#x2c6;" horiz-adv-x="470" 
d="M260 700h138l91 -132h-89l-75 99l-112 -99h-94z" />
    <glyph glyph-name="tilde" unicode="&#x2dc;" horiz-adv-x="470" 
d="M459 700h58q-16 -48 -47 -75t-72 -27q-20 0 -34 4t-46 20t-43.5 19.5t-28.5 5.5q-21 0 -37 -9.5t-24 -29.5h-58q12 40 45.5 70t75.5 30q22 0 34.5 -4t23 -9t20.5 -12l39 -20q5 -1 14.5 -2.5t18.5 -2.5q18 0 34 11t27 31z" />
    <glyph glyph-name="endash" unicode="&#x2013;" horiz-adv-x="609" 
d="M63 297h500l-14 -62h-500z" />
    <glyph glyph-name="emdash" unicode="&#x2014;" horiz-adv-x="835" 
d="M49 235l14 62h726l-14 -62h-726z" />
    <glyph glyph-name="quoteleft" unicode="&#x2018;" horiz-adv-x="310" 
d="M275 572l-24 -110h-99l24 114q13 69 45 99t85 45l-12 -55q-28 -6 -42 -23q-15 -15 -27 -66l-1 -4h51z" />
    <glyph glyph-name="quoteright" unicode="&#x2019;" horiz-adv-x="309" 
d="M176 591l23 109h99l-24 -115q-14 -67 -47 -100q-31 -33 -82 -43l11 54q28 8 45 28.5t24 60.5l1 6h-50z" />
    <glyph glyph-name="quotesinglbase" unicode="&#x201a;" horiz-adv-x="318" 
d="M51 0l23 109h99l-24 -114q-15 -68 -45 -97.5t-84 -45.5l11 55q24 4 41.5 23t27.5 65l1 5h-50z" />
    <glyph glyph-name="quotedblleft" unicode="&#x201c;" horiz-adv-x="419" 
d="M412 572l-23 -110h-99l24 114q14 66 42.5 96t86.5 48l-11 -55q-25 -6 -41 -23t-29 -66l-1 -4h51zM247 572l-23 -110h-99l24 114q12 65 43 97q29 32 86 47l-11 -55q-28 -6 -44.5 -25.5t-25.5 -62.5l-1 -5h51z" />
    <glyph glyph-name="quotedblright" unicode="&#x201d;" horiz-adv-x="421" 
d="M150 591l24 109h99l-25 -115q-13 -62 -44 -96.5t-85 -46.5l11 54q30 9 45 28.5t24 60.5l1 6h-50zM315 591l24 109h99l-25 -115q-13 -62 -44 -96.5t-85 -46.5l11 54q30 9 45 28.5t24 60.5l1 6h-50z" />
    <glyph glyph-name="quotedblbase" unicode="&#x201e;" horiz-adv-x="429" 
d="M25 0l23 109h99l-24 -114q-13 -64 -42 -94.5t-88 -48.5l12 55q24 4 41.5 23t27.5 65l1 5h-50zM190 0l23 109h99l-24 -114q-15 -68 -45 -97.5t-85 -45.5l12 55q24 4 41.5 23t27.5 65l1 5h-50z" />
    <glyph glyph-name="dagger" unicode="&#x2020;" horiz-adv-x="499" 
d="M306 700h79l-41 -192h185l-15 -68h-185l-133 -625h-79l133 625h-185l15 68h185z" />
    <glyph glyph-name="daggerdbl" unicode="&#x2021;" horiz-adv-x="555" 
d="M362 700h79l-41 -192h185l-15 -68h-185l-41 -192h185l-15 -68h-184l-78 -365h-79l78 365h-186l15 68h185l41 192h-185l15 68h185z" />
    <glyph glyph-name="bullet" unicode="&#x2022;" 
d="M213 350q0 41 29 70.5t71 29.5q40 0 70 -29.5t30 -70.5t-29.5 -70.5t-70.5 -29.5q-42 0 -71 28q-29 31 -29 72z" />
    <glyph glyph-name="ellipsis" unicode="&#x2026;" horiz-adv-x="939" 
d="M52 0l23 109h99l-23 -109h-99zM362 0l23 109h99l-23 -109h-99zM672 0l23 109h99l-23 -109h-99z" />
    <glyph glyph-name="perthousand" unicode="&#x2030;" horiz-adv-x="1278" 
d="M135 0l603 700h79l-603 -700h-79zM97 508q15 90 71 144q28 27 59 41.5t65 14.5q59 0 100 -38.5t41 -114.5q0 -93 -56 -170t-144 -77q-67 0 -104 36t-37 117l1 21q0 11 4 26zM162 508l-4 -23l-1 -14q0 -59 17 -85q19 -25 57 -25q56 0 96.5 57.5t40.5 126.5
q0 51 -19.5 80.5t-55.5 29.5q-42 0 -79 -38t-52 -109zM525 192q17 83 67 141q26 30 57 44.5t70 14.5q70 0 106 -40.5t36 -112.5q0 -107 -61 -177t-140 -70q-63 0 -102 38t-39 115l1 18q0 13 5 29zM590 192l-6 -28v-9q0 -55 19.5 -82.5t54.5 -27.5q49 0 93.5 52.5t44.5 131.5
q0 62 -20 86t-55 24q-45 0 -79.5 -37.5t-51.5 -109.5zM888 192q17 83 67 141q26 30 57 44.5t70 14.5q69 0 105.5 -40t36.5 -113q0 -107 -61 -177t-140 -70q-63 0 -102 38t-39 115l1 18q0 13 5 29zM953 192l-6 -28v-9q0 -56 19 -83t55 -27q49 0 93.5 52.5t44.5 131.5
q0 62 -20 86t-55 24q-45 0 -79.5 -37.5t-51.5 -109.5z" />
    <glyph glyph-name="guilsinglleft" unicode="&#x2039;" horiz-adv-x="292" 
d="M75 311l178 132l-19 -90l-121 -88l84 -87l-17 -80l-122 130z" />
    <glyph glyph-name="guilsinglright" unicode="&#x203a;" horiz-adv-x="290" 
d="M220 230l-178 -132l19 90l121 88l-84 87l17 80l122 -130z" />
    <glyph glyph-name="trademark" unicode="&#x2122;" horiz-adv-x="861" 
d="M195 645h-112v55h302v-55h-114v-295h-76v295zM640 350l-102 268h-5l4 -45v-223h-75v350h100l94 -241l9 -35h4l8 35l94 241h100v-350h-75v223l4 45h-5l-103 -268h-52z" />
    <glyph glyph-name="periodcentered" unicode="&#x2219;" horiz-adv-x="310" 
d="M99 213l23 110h99l-23 -110h-99z" />
  </font>
</defs>
</svg>
