<?xml version="1.0" standalone="no"?>
<!DOCTYPE svg PUBLIC "-//W3C//DTD SVG 1.1//EN" "http://www.w3.org/Graphics/SVG/1.1/DTD/svg11.dtd" >
<svg xmlns="http://www.w3.org/2000/svg" xmlns:xlink="http://www.w3.org/1999/xlink" version="1.1">
<metadata>
Created by FontForge 20170731 at Wed May  9 14:02:41 1928
 By Aleksey,,,
(c)Copyright SoftCom Co., Ltd., 1994.
</metadata>
<defs>
<font id="PragmaticaCTT-BoldItalic" horiz-adv-x="675" >
  <font-face 
    font-family="PragmaticaCTT"
    font-weight="700"
    font-style="italic"
    font-stretch="normal"
    units-per-em="1000"
    panose-1="0 0 0 0 0 0 0 0 0 0"
    ascent="800"
    descent="-200"
    x-height="508"
    cap-height="700"
    bbox="-123 -224 1398 878"
    underline-thickness="40"
    underline-position="-140"
    slope="12"
    unicode-range="U+0020-2219"
  />
<missing-glyph horiz-adv-x="878" 
d="M54 0v878h770v-878h-770zM770 54v770h-662v-770h662z" />
    <glyph glyph-name=".notdef" horiz-adv-x="878" 
d="M54 0v878h770v-878h-770zM770 54v770h-662v-770h662z" />
    <glyph glyph-name=".null" horiz-adv-x="0" 
 />
    <glyph glyph-name="nonmarkingreturn" horiz-adv-x="384" 
 />
    <glyph glyph-name="space" unicode=" " horiz-adv-x="384" 
 />
    <glyph glyph-name="exclam" unicode="!" horiz-adv-x="384" 
d="M200 700h173l-39 -183l-106 -292h-86l18 292zM56 0l33 158h166l-33 -158h-166z" />
    <glyph glyph-name="quotedbl" unicode="&#x22;" horiz-adv-x="498" 
d="M324 700l-94 -192h-66l-12 192h172zM536 700l-94 -192h-66l-12 192h172z" />
    <glyph glyph-name="numbersign" unicode="#" horiz-adv-x="735" 
d="M482 10h-80l23 155h-133l-23 -155h-80l23 155h-134l18 112h134l24 153h-134l17 112h134l24 153h80l-24 -153h133l24 153h80l-24 -153h134l-17 -112h-134l-24 -153h134l-18 -112h-134zM443 277l24 153h-133l-24 -153h133z" />
    <glyph glyph-name="dollar" unicode="$" horiz-adv-x="641" 
d="M25 225h144q-1 -8 -1.5 -17t-0.5 -13q0 -34 17 -59q13 -15 31.5 -24t42.5 -9l41 194q-100 28 -147 76.5t-47 123.5q0 92 73 155q37 31 88.5 47.5t115.5 16.5l14 62h81l-13 -62q45 0 79 -12.5t59 -35.5q46 -43 46 -117q0 -14 -2 -22l-3 -22h-140l1 9l1 7q0 36 -18 54
t-49 23l-37 -173q96 -24 147.5 -74t51.5 -134q0 -109 -83 -168q-42 -31 -95 -49t-114 -18l-16 -79h-82l17 79q-112 0 -163 62q-22 27 -30.5 71t-8.5 108zM371 282l-39 -179q48 0 79 28t31 72q0 30 -18.5 49t-52.5 30zM331 445l32 155q-50 -4 -75.5 -23t-25.5 -56
q0 -29 17.5 -48.5t51.5 -27.5z" />
    <glyph glyph-name="percent" unicode="%" horiz-adv-x="1016" 
d="M170 0l603 700h105l-602 -700h-106zM108 529q15 84 73.5 134t140.5 50q69 0 115 -40t46 -121q0 -98 -61.5 -168.5t-158.5 -70.5q-70 0 -115.5 39.5t-45.5 123.5l1 23q0 15 5 30zM213 508l-4 -20v-15q0 -37 14 -59t44 -22q44 0 76.5 54.5t32.5 112.5q0 33 -15 54t-43 21
q-35 0 -63 -31t-42 -95zM576 203q15 84 74 134t140 50q70 0 114 -40q24 -20 35.5 -49.5t11.5 -71.5q0 -98 -61 -168.5t-159 -70.5q-70 0 -115.5 39.5t-45.5 123.5l1 23q0 15 5 30zM681 182l-4 -20v-15q0 -37 14 -59t44 -22q44 0 76.5 54.5t32.5 112.5q0 33 -15 54t-43 21
q-35 0 -63 -31t-42 -95z" />
    <glyph glyph-name="ampersand" unicode="&#x26;" horiz-adv-x="705" 
d="M532 323h132q-9 -25 -20 -46.5t-27 -44.5q-28 -44 -62 -79l94 -153h-176l-34 58q-50 -41 -99.5 -58t-118.5 -17q-86 0 -141 48t-55 137q0 74 44.5 129.5t165.5 109.5q-14 22 -25 55q-10 35 -10 60q0 69 57 127t150 58q76 0 125 -40t49 -103q0 -64 -44 -114t-116 -78
l72 -116l20 28zM383 152l-92 158q-48 -18 -77.5 -50.5t-29.5 -75.5q0 -37 23 -57t61 -20q34 0 63.5 12t51.5 33zM367 457q47 15 74.5 42t27.5 59q0 23 -16.5 39t-47.5 16q-32 0 -53 -22q-18 -21 -18 -49l1 -19q2 -12 32 -66z" />
    <glyph glyph-name="quotesingle" unicode="'" horiz-adv-x="286" 
d="M324 700l-94 -192h-66l-12 192h172z" />
    <glyph glyph-name="parenleft" unicode="(" horiz-adv-x="397" 
d="M320 700h122q-109 -159 -167 -309q-54 -146 -54 -271q0 -95 8 -168.5t25 -136.5h-109q-40 99 -62 182q-8 36 -12.5 73.5t-4.5 76.5q0 139 58 265q28 63 77 135.5t119 152.5z" />
    <glyph glyph-name="parenright" unicode=")" horiz-adv-x="409" 
d="M81 -185h-122q103 153 162.5 300t59.5 280q0 75 -9 159t-25 146h115q48 -123 63 -192q8 -37 12 -68.5t4 -70.5q0 -139 -60.5 -265t-199.5 -289z" />
    <glyph glyph-name="asterisk" unicode="*" horiz-adv-x="483" 
d="M302 495l-87 -88l-53 52l83 83l-105 51l35 67l102 -51l16 114l74 -8l-16 -114l119 24l13 -71l-114 -22l59 -98l-67 -37z" />
    <glyph glyph-name="plus" unicode="+" 
d="M73 390h243v243h80v-243h243v-80h-243v-243h-80v243h-243v80z" />
    <glyph glyph-name="comma" unicode="," horiz-adv-x="385" 
d="M52 0l34 158h165l-34 -158q-18 -81 -69 -129t-134 -48l17 79q22 0 38.5 7t32.5 22q26 23 35 63l1 6h-86z" />
    <glyph glyph-name="hyphen" unicode="-" horiz-adv-x="450" 
d="M69 205l26 125h288l-26 -125h-288z" />
    <glyph glyph-name="period" unicode="." horiz-adv-x="385" 
d="M52 0l34 158h165l-34 -158h-165z" />
    <glyph glyph-name="slash" unicode="/" horiz-adv-x="455" 
d="M-54 -185l530 885h80l-530 -885h-80z" />
    <glyph glyph-name="zero" unicode="0" horiz-adv-x="658" 
d="M285 -20q-114 0 -176 70t-62 219q0 187 96 319t263 132q117 0 181 -67t64 -210q0 -187 -99.5 -325t-266.5 -138zM302 102q87 0 138 113t51 246q0 71 -26 104q-24 33 -70 33q-82 0 -136 -105q-26 -54 -39 -115.5t-13 -137.5q0 -63 22 -101q25 -37 73 -37z" />
    <glyph glyph-name="one" unicode="1" horiz-adv-x="652" 
d="M175 492l17 83h21q67 0 124.5 33.5t81.5 91.5h123l-148 -700h-165l104 492h-158z" />
    <glyph glyph-name="two" unicode="2" horiz-adv-x="646" 
d="M563 122l-26 -122h-537q14 81 60.5 141.5t177.5 137.5q204 119 229 156t25 80q0 39 -26.5 61t-75.5 22q-57 0 -95 -35.5t-48 -104.5h-153q25 125 98.5 193.5t201.5 68.5q123 0 189.5 -50t66.5 -136q0 -82 -45 -142.5t-162 -126.5q-190 -103 -202.5 -115.5t-21.5 -27.5
h344z" />
    <glyph glyph-name="three" unicode="3" horiz-adv-x="647" 
d="M34 241h156l-3 -19l-1 -21q0 -48 26 -74q28 -25 83 -25q66 0 102.5 38t36.5 91q0 36 -23.5 55t-68.5 19h-69l24 115h53q62 0 98 24t36 74q0 36 -28 58t-79 22q-55 0 -88 -33t-45 -96h-150q21 123 92.5 187t203.5 64q119 0 181 -41.5t62 -124.5q0 -74 -41 -125t-118 -69
q49 -11 82 -44t33 -91q0 -109 -81.5 -177t-224.5 -68q-129 0 -191 51.5t-62 142.5v39q0 16 4 28z" />
    <glyph glyph-name="four" unicode="4" horiz-adv-x="649" 
d="M341 157h-339l29 135l416 408h167l-89 -421h96l-27 -122h-95l-34 -157h-158zM173 279h200l54 258z" />
    <glyph glyph-name="five" unicode="5" horiz-adv-x="647" 
d="M37 203h155v-13q0 -45 28.5 -66.5t73.5 -21.5q64 0 106 51t42 118q0 25 -6 43t-20 33q-26 28 -74 28q-36 0 -63.5 -12.5t-47.5 -37.5h-155l125 375h446l-25 -122h-340l-52 -152q30 30 74 46q23 9 46.5 13.5t50.5 4.5q90 0 145.5 -54.5t55.5 -154.5q0 -139 -83.5 -220
t-225.5 -81q-144 0 -203 59q-28 29 -40.5 68.5t-12.5 95.5z" />
    <glyph glyph-name="six" unicode="6" horiz-adv-x="652" 
d="M659 535h-143q0 28 -29 45q-27 18 -69 18q-67 0 -110.5 -40.5t-64.5 -124.5q33 24 71 36.5t82 12.5q96 0 155.5 -50.5t59.5 -139.5q0 -128 -81.5 -220t-222.5 -92q-133 0 -195.5 64.5t-62.5 181.5q0 205 98 349.5t279 144.5q113 0 173 -49.5t60 -135.5zM201 242l-3 -16
v-18q0 -48 30 -78q31 -28 82 -28q69 0 110.5 51.5t41.5 116.5q0 42 -30.5 66t-79.5 24q-58 0 -98.5 -31t-52.5 -87z" />
    <glyph glyph-name="seven" unicode="7" horiz-adv-x="644" 
d="M95 572l28 128h578l-25 -116q-80 -67 -145 -138q-60 -66 -105 -138q-49 -79 -80.5 -149.5t-51.5 -158.5h-171q12 56 45 133q18 40 36.5 75t43.5 75q48 77 123.5 159t136.5 127z" />
    <glyph glyph-name="eight" unicode="8" horiz-adv-x="649" 
d="M288 -20q-135 0 -193.5 49t-58.5 138q0 80 48 137t120 75q-37 10 -58.5 42.5t-21.5 79.5q0 94 77 156.5t208 62.5q113 0 169.5 -48.5t56.5 -133.5q0 -54 -35 -101.5t-98 -70.5q43 -18 70.5 -53t27.5 -81q0 -117 -82.5 -184.5t-229.5 -67.5zM300 102q63 0 101.5 37.5
t38.5 96.5q0 38 -27 63.5t-79 25.5q-59 0 -98.5 -36.5t-39.5 -94.5q0 -45 27 -69q29 -23 77 -23zM366 418q54 0 86.5 29.5t32.5 79.5q0 30 -25 50.5t-68 20.5q-25 0 -46.5 -7t-38.5 -22q-33 -29 -33 -74q0 -39 23 -59q24 -18 69 -18z" />
    <glyph glyph-name="nine" unicode="9" horiz-adv-x="654" 
d="M39 164h142q0 -28 28.5 -45t70.5 -17q63 0 106.5 38t68.5 125q-33 -24 -71 -38q-17 -5 -37.5 -8t-44.5 -3q-99 0 -157.5 52t-58.5 143q0 141 87 225t223 84q127 0 190 -66t63 -181q0 -204 -99.5 -348.5t-277.5 -144.5q-121 0 -177 51.5t-56 132.5zM495 452l3 16l1 15
q0 53 -30 84t-80 31q-71 0 -112 -52t-41 -117q0 -41 28 -66t81 -25q57 0 97 31t53 83z" />
    <glyph glyph-name="colon" unicode=":" horiz-adv-x="379" 
d="M125 350l33 158h166l-33 -158h-166zM52 0l33 158h166l-33 -158h-166z" />
    <glyph glyph-name="semicolon" unicode=";" horiz-adv-x="379" 
d="M125 350l33 158h166l-33 -158h-166zM52 0l33 158h166l-33 -158q-18 -83 -70 -129q-26 -23 -59.5 -35.5t-74.5 -12.5l17 79q22 0 38.5 7t32.5 22q26 23 35 63l1 6h-86z" />
    <glyph glyph-name="less" unicode="&#x3c;" horiz-adv-x="648" 
d="M147 357l461 -265l-41 -70l-506 293v84l506 293l41 -70z" />
    <glyph glyph-name="equal" unicode="=" 
d="M73 490h566v-80h-566v80zM73 290h566v-80h-566v80z" />
    <glyph glyph-name="greater" unicode="&#x3e;" horiz-adv-x="651" 
d="M541 357l-461 265l41 70l506 -293v-84l-506 -293l-41 70z" />
    <glyph glyph-name="question" unicode="?" horiz-adv-x="584" 
d="M242 477h-155q21 107 90 171t201 64q114 0 171 -41.5t57 -121.5q0 -57 -24.5 -99.5t-86.5 -79.5q-124 -73 -139 -96q-11 -20 -16 -49h-126q5 35 11.5 59t17.5 44q21 36 72 69q110 71 119 90t9 45q0 32 -21 48.5t-56 16.5q-53 0 -86 -33q-29 -32 -38 -87zM146 0l34 158
h165l-34 -158h-165z" />
    <glyph glyph-name="at" unicode="@" horiz-adv-x="837" 
d="M593 104l38 -70q-44 -29 -91 -41.5t-103 -12.5q-177 0 -273.5 106.5t-96.5 263.5q0 160 105.5 265t264.5 105q160 0 265 -94.5t105 -259.5q0 -87 -50.5 -155.5t-135.5 -68.5q-33 0 -54 9t-31 31q-14 -21 -46 -35q-14 -5 -32.5 -8t-41.5 -3q-82 0 -130 54t-48 147
q0 84 47 143t125 59q32 0 58.5 -9t43.5 -25l1 20h99v-254q0 -27 3 -36q5 -9 22 -9q37 0 62 37q25 41 25 103q0 122 -79 199.5t-208 77.5q-128 0 -208 -87t-80 -206q0 -129 79.5 -211.5t208.5 -82.5q44 0 82 12t74 36zM510 337q0 54 -21.5 85.5t-61.5 31.5q-39 0 -62.5 -29.5
t-23.5 -87.5q0 -54 21.5 -85.5t63.5 -31.5q36 0 60 31.5t24 85.5z" />
    <glyph glyph-name="A" unicode="A" horiz-adv-x="677" 
d="M348 700h167l114 -700h-171l-17 131h-254l-73 -131h-177zM247 250h183l-35 267z" />
    <glyph glyph-name="B" unicode="B" horiz-adv-x="728" 
d="M168 700h352q92 0 139 -38.5t47 -109.5q0 -64 -39.5 -115.5t-113.5 -66.5q54 -17 84.5 -53t30.5 -94q0 -102 -80 -162.5t-234 -60.5h-334zM304 564l-29 -136h152q40 0 69.5 19.5t29.5 57.5q0 25 -20.5 42t-53.5 17h-148zM247 292l-33 -156h170q44 0 76.5 21t32.5 62
q0 37 -21.5 55t-73.5 18h-151z" />
    <glyph glyph-name="C" unicode="C" horiz-adv-x="729" 
d="M538 247h164q-30 -116 -122 -191.5t-234 -75.5q-146 0 -220 79t-74 206q0 184 104 319.5t302 135.5q144 0 214.5 -54.5t70.5 -152.5l-1 -31q0 -13 -2 -20h-163v8l1 13q0 50 -34.5 75.5t-92.5 25.5q-100 0 -160.5 -88t-60.5 -206q0 -88 36 -131t97 -43q63 0 105.5 31.5
t69.5 99.5z" />
    <glyph glyph-name="D" unicode="D" horiz-adv-x="757" 
d="M168 700h296q136 0 209 -70t73 -216q0 -193 -114 -303.5t-312 -110.5h-300zM304 564l-90 -428h106q119 0 183.5 79.5t64.5 209.5q0 69 -38 104t-109 35h-117z" />
    <glyph glyph-name="E" unicode="E" horiz-adv-x="655" 
d="M275 425h342l-27 -136h-344l-32 -153h397l-28 -136h-563l148 700h554l-28 -136h-390z" />
    <glyph glyph-name="F" unicode="F" horiz-adv-x="590" 
d="M270 404h291l-28 -136h-291l-57 -268h-165l148 700h509l-29 -136h-344z" />
    <glyph glyph-name="G" unicode="G" horiz-adv-x="787" 
d="M454 380h297l-81 -380h-123l13 59q-38 -41 -90.5 -60t-130.5 -19q-143 0 -216 80t-73 226q0 185 112 309.5t309 124.5q141 0 224 -70q71 -58 71 -145v-12q0 -6 -2 -20h-172v19q0 42 -34 67t-90 25q-113 0 -176.5 -82t-63.5 -202q0 -89 41 -136.5t120 -47.5q67 0 112 38
t65 99h-140z" />
    <glyph glyph-name="H" unicode="H" horiz-adv-x="732" 
d="M248 301l-63 -301h-165l148 700h165l-57 -263h256l57 263h165l-148 -700h-165l63 301h-256z" />
    <glyph glyph-name="I" unicode="I" horiz-adv-x="311" 
d="M168 700h165l-148 -700h-165z" />
    <glyph glyph-name="J" unicode="J" horiz-adv-x="577" 
d="M22 258h165l-6 -28l-6 -28v-11q0 -35 15 -56q16 -19 52 -19q42 0 63 22.5t38 91.5l100 470h165l-95 -447q-33 -157 -98.5 -215t-186.5 -58q-109 0 -162 47.5t-53 136.5l1 40z" />
    <glyph glyph-name="K" unicode="K" horiz-adv-x="713" 
d="M271 405l322 295h208l-343 -309l205 -391h-188l-147 305l-96 -83l-47 -222h-165l148 700h165z" />
    <glyph glyph-name="L" unicode="L" horiz-adv-x="581" 
d="M540 136l-29 -136h-491l148 700h165l-119 -564h326z" />
    <glyph glyph-name="M" unicode="M" horiz-adv-x="944" 
d="M357 0l-64 508l-108 -508h-165l148 700h239l61 -481l252 481h246l-148 -700h-165l110 508l-271 -508h-135z" />
    <glyph glyph-name="N" unicode="N" horiz-adv-x="758" 
d="M278 442l-93 -442h-165l148 700h161l193 -440l93 440h165l-148 -700h-162z" />
    <glyph glyph-name="O" unicode="O" horiz-adv-x="792" 
d="M364 -20q-151 0 -231.5 77t-80.5 212q0 183 114.5 317t307.5 134q145 0 226 -76t81 -213q0 -185 -112.5 -318t-304.5 -133zM377 116q104 0 165 87t61 205q0 90 -39 133t-109 43q-105 0 -165 -87t-60 -205q0 -91 39 -133.5t108 -42.5z" />
    <glyph glyph-name="P" unicode="P" horiz-adv-x="685" 
d="M168 700h327q109 0 163 -49.5t54 -141.5q0 -122 -82.5 -195.5t-236.5 -73.5h-157l-51 -240h-165zM304 564l-40 -188h130q68 0 105.5 27.5t37.5 75.5q0 42 -24 63q-11 10 -30.5 16t-48.5 6h-130z" />
    <glyph glyph-name="Q" unicode="Q" horiz-adv-x="796" 
d="M632 78l64 -78l-90 -71l-70 87q-35 -18 -77 -27t-94 -9q-144 0 -228.5 69.5t-84.5 219.5q0 185 115 318t307 133q148 0 229.5 -75.5t81.5 -212.5q0 -99 -39.5 -193.5t-113.5 -160.5zM462 283l67 -89q36 35 57 89.5t21 106.5q0 99 -37 146.5t-108 47.5
q-109 0 -170.5 -85.5t-61.5 -204.5q0 -91 37.5 -134.5t110.5 -43.5h18q14 3 24 5t17.5 4.5t18.5 8.5l-73 88z" />
    <glyph glyph-name="R" unicode="R" horiz-adv-x="720" 
d="M22 0l148 700h339q107 0 160.5 -48t53.5 -127q0 -70 -42 -130t-115 -75l-1 -3q38 -14 55.5 -37.5t17.5 -55.5l-3 -32l-12 -67l-9 -51l-2 -29q0 -13 2 -21l10 -24h-168l-9 24l-2 22l2 30q1 13 2.5 20.5t5.5 21.5l8 47l4 29q0 26 -21 44q-21 16 -77 16h-128l-54 -254h-165z
M306 564l-37 -174h151q57 0 93 24q35 26 35 70q0 38 -25.5 59t-77.5 21h-139z" />
    <glyph glyph-name="S" unicode="S" horiz-adv-x="665" 
d="M30 227h168l-4 -16v-16q0 -36 28.5 -57.5t88.5 -21.5q68 0 104 23t36 66q0 53 -111 82q-30 8 -52 13q-7 1 -18 5q3 -1 8 -2t13 -3q-115 29 -155.5 71.5t-40.5 116.5q0 104 78 168t239 64q122 0 186.5 -42.5t64.5 -126.5l-1 -24q0 -12 -2 -19h-157v5l1 12q0 27 -26.5 43
t-75.5 16q-61 0 -95 -20q-34 -18 -34 -55q0 -29 23 -46t97 -33q133 -30 184 -71q26 -20 39 -48t13 -68q0 -115 -81 -189t-239 -74q-137 0 -210.5 48t-73.5 147v26z" />
    <glyph glyph-name="T" unicode="T" horiz-adv-x="608" 
d="M290 564h-211l29 136h587l-29 -136h-211l-119 -564h-165z" />
    <glyph glyph-name="U" unicode="U" horiz-adv-x="733" 
d="M158 700h165l-86 -408l-10 -52l-1 -24q0 -47 31 -73.5t86 -26.5q73 0 110.5 42t58.5 134l87 408h165l-92 -435q-33 -158 -115 -221.5t-222 -63.5q-142 0 -210 54.5t-68 160.5l1 28q1 6 4.5 25t9.5 44z" />
    <glyph glyph-name="V" unicode="V" horiz-adv-x="614" 
d="M305 200l231 500h188l-367 -700h-183l-88 700h172z" />
    <glyph glyph-name="W" unicode="W" horiz-adv-x="938" 
d="M531 517l-208 -517h-200l-37 700h168l11 -511l217 511h163l20 -511l203 511h180l-308 -700h-195z" />
    <glyph glyph-name="X" unicode="X" horiz-adv-x="685" 
d="M344 236l-190 -236h-208l325 364l-154 336h188l85 -221l171 221h201l-299 -340l169 -360h-196z" />
    <glyph glyph-name="Y" unicode="Y" horiz-adv-x="640" 
d="M358 410l208 290h184l-340 -436l-56 -264h-165l56 264l-159 436h180z" />
    <glyph glyph-name="Z" unicode="Z" horiz-adv-x="635" 
d="M436 564h-327l31 136h542l-27 -127l-442 -437h375l-30 -136h-585l31 146z" />
    <glyph glyph-name="bracketleft" unicode="[" horiz-adv-x="419" 
d="M200 700h264l-20 -92h-132l-149 -700h132l-19 -93h-264z" />
    <glyph glyph-name="backslash" unicode="\" horiz-adv-x="447" 
d="M354 -185h-80l-179 885h80z" />
    <glyph glyph-name="bracketright" unicode="]" horiz-adv-x="422" 
d="M224 -185h-265l19 93h132l149 700h-132l20 92h264z" />
    <glyph glyph-name="asciicircum" unicode="^" horiz-adv-x="460" 
d="M277 652l-100 -170h-100l130 218h140l130 -218h-100z" />
    <glyph glyph-name="underscore" unicode="_" horiz-adv-x="497" 
d="M0 -185v80h497v-80h-497z" />
    <glyph glyph-name="grave" unicode="`" horiz-adv-x="349" 
d="M274 700l41 -132h-110l-78 132h147z" />
    <glyph glyph-name="a" unicode="a" horiz-adv-x="608" 
d="M236 344h-159q21 84 90 133.5t197 49.5q103 0 153.5 -35.5t50.5 -98.5l-2 -17q0 -11 -7 -39l-51 -232l-7 -35l-2 -24q0 -16 3.5 -24t13.5 -9v-13h-159l-3 50q-21 -18 -40.5 -30.5t-42.5 -21.5q-45 -17 -95 -17q-78 0 -118.5 32.5t-40.5 95.5q0 74 51.5 119.5t203.5 66.5
q108 12 123 30t15 52q0 21 -17 35q-5 4 -13 7q-15 6 -34 6q-44 0 -72.5 -20t-37.5 -61zM382 210l8 32l-38 -13l-69 -14q-56 -9 -82 -32q-26 -21 -26 -57q0 -20 18.5 -31.5t50.5 -11.5q48 0 85 33t53 94z" />
    <glyph glyph-name="b" unicode="b" horiz-adv-x="638" 
d="M7 0l149 700h152l-50 -229q26 23 73.5 39.5t96.5 16.5q76 0 128.5 -60t52.5 -170q0 -140 -83.5 -228t-196.5 -88q-57 0 -94.5 18t-71.5 62l-14 -61h-142zM203 261l-5 -30l-1 -29q0 -50 24 -86q24 -33 74 -33q73 0 114.5 68.5t41.5 154.5q0 61 -26 90t-74 29
q-54 0 -93.5 -45t-54.5 -119z" />
    <glyph glyph-name="c" unicode="c" horiz-adv-x="596" 
d="M397 192h150q-24 -95 -95.5 -153t-180.5 -58q-108 0 -174.5 54t-66.5 163q0 138 82.5 233.5t229.5 95.5q114 0 171.5 -45.5t57.5 -123.5l-1 -21v-10h-146v8l1 9q0 40 -20 60.5t-63 20.5q-69 0 -111.5 -65t-42.5 -160q0 -59 24 -89q25 -28 75 -28q41 0 68 26.5t42 82.5z
" />
    <glyph glyph-name="d" unicode="d" horiz-adv-x="636" 
d="M522 0h-136l11 47q-41 -33 -82 -49q-22 -8 -45 -12.5t-45 -4.5q-88 0 -143 57t-55 158q0 143 82 237t199 94q49 0 91.5 -17.5t68.5 -52.5l52 243h152zM432 246l5 31l2 29q0 57 -26 88t-72 31q-66 0 -111 -63.5t-45 -159.5q0 -51 26 -85t74 -34q51 0 90 41t57 122z" />
    <glyph glyph-name="e" unicode="e" horiz-adv-x="628" 
d="M396 147h154q-30 -77 -99 -121.5t-178 -44.5q-116 0 -179.5 55.5t-63.5 165.5q0 129 84.5 227t237.5 98q113 0 178 -51.5t65 -157.5q0 -7 -1 -18.5t-5 -32t-5 -22.5q-6 -15 -8 -22h-388l-3 -19l-1 -22q0 -51 27 -75t75 -24q35 0 68 18q30 18 42 46zM205 302h232l2 23
l2 21q0 37 -24.5 58t-74.5 21q-51 0 -87 -33q-32 -29 -50 -90z" />
    <glyph glyph-name="f" unicode="f" horiz-adv-x="381" 
d="M426 508l-20 -102h-115l-87 -406h-152l87 406h-93l21 102h94l9 44q16 86 63 121.5t144 35.5l43 -3q20 0 47 -6l-20 -99l-30 4l-31 2q-24 0 -40.5 -14.5t-24.5 -46.5l-8 -38h113z" />
    <glyph glyph-name="g" unicode="g" horiz-adv-x="637" 
d="M19 -40h148q0 -25 23.5 -40t66.5 -15q45 0 74 28.5t44 89.5l8 37q-27 -22 -68 -36q-42 -12 -83 -12q-93 0 -144.5 55t-51.5 155q0 132 75.5 218.5t191.5 86.5q67 0 106 -19t63 -56l15 56h143l-98 -461q-24 -113 -92.5 -178.5t-198.5 -65.5q-118 0 -170 36.5t-52 120.5z
M293 114q65 0 106 61t41 137q0 55 -27.5 84t-71.5 29q-60 0 -103.5 -58.5t-43.5 -147.5q0 -48 26 -77q28 -28 73 -28z" />
    <glyph glyph-name="h" unicode="h" horiz-adv-x="613" 
d="M309 700l-51 -237q28 28 74 46t101 18q64 0 103 -35t39 -101l-3 -33l-6 -39l-68 -319h-152l63 294l4 26l2 21q0 31 -19 48.5t-55 17.5q-45 0 -75.5 -29t-45.5 -92l-61 -286h-152l150 700h152z" />
    <glyph glyph-name="i" unicode="i" horiz-adv-x="274" 
d="M115 508h152l-108 -508h-152zM130 581l26 119h152l-26 -119h-152z" />
    <glyph glyph-name="j" unicode="j" horiz-adv-x="274" 
d="M115 508h152l-113 -533q-18 -82 -63.5 -124.5t-125.5 -42.5h-18h-15q-10 2 -14 2q-18 0 -41 5l21 102l10 -1l5 -1q43 0 62 15.5t30 59.5zM130 581l26 119h152l-26 -119h-152z" />
    <glyph glyph-name="k" unicode="k" horiz-adv-x="563" 
d="M225 307l205 201h181l-236 -220l146 -288h-168l-94 209l-67 -58l-33 -151h-152l150 700h152z" />
    <glyph glyph-name="l" unicode="l" horiz-adv-x="273" 
d="M157 700h152l-150 -700h-152z" />
    <glyph glyph-name="m" unicode="m" horiz-adv-x="918" 
d="M115 508h135l-16 -74q40 46 88.5 69.5t91.5 23.5q52 0 87 -23.5t42 -68.5q47 47 96 69.5t101 22.5q61 0 99 -36t38 -99l-3 -38q0 -8 -1.5 -18.5t-5.5 -26.5l-66 -309h-152l64 299l4 25l2 22q0 35 -15 57t-44 22q-43 0 -72 -32q-30 -30 -45 -101l-63 -292h-152l64 299
q6 30 6 53q0 25 -7 40q-13 33 -49 33q-44 0 -74.5 -34.5t-45.5 -98.5l-63 -292h-152z" />
    <glyph glyph-name="n" unicode="n" horiz-adv-x="614" 
d="M254 508l-11 -55q36 36 80.5 55t109.5 19q62 0 102.5 -35.5t40.5 -100.5q0 -18 -2 -29q-1 -15 -2 -19.5t-6 -23.5l-67 -319h-152l62 294l5 30l2 17q0 39 -19 61.5t-55 22.5q-45 0 -77 -35q-30 -35 -45 -104l-61 -286h-152l108 508h139z" />
    <glyph glyph-name="o" unicode="o" horiz-adv-x="631" 
d="M276 -19q-117 0 -182 55.5t-65 171.5q0 133 86 226t238 93q124 0 186 -60t62 -168q0 -129 -88 -223.5t-237 -94.5zM292 83q69 0 110 65t41 161q0 60 -28 88t-77 28q-70 0 -111 -66q-20 -34 -30 -73t-10 -90q0 -56 26 -85q28 -28 79 -28z" />
    <glyph glyph-name="p" unicode="p" horiz-adv-x="637" 
d="M117 508h134l-12 -52q19 16 40 29t43 23q48 19 99 19q85 0 136 -53.5t51 -148.5q0 -139 -81 -240.5t-205 -101.5q-50 0 -90 17.5t-61 51.5l-51 -237h-152zM205 262l-6 -33l-1 -26q0 -58 26 -88t71 -30q67 0 111 66t44 156q0 60 -27.5 89t-70.5 29q-57 0 -94 -43.5
t-53 -119.5z" />
    <glyph glyph-name="q" unicode="q" horiz-adv-x="637" 
d="M630 508l-147 -693h-152l47 223q-28 -28 -67 -42.5t-84 -14.5q-94 0 -147 59t-53 160q0 138 81.5 232.5t199.5 94.5q55 0 95 -19.5t71 -60.5l14 61h142zM285 83q69 0 112 71t43 158q0 54 -27 83.5t-71 29.5q-69 0 -113 -62t-44 -160q0 -54 24 -89q24 -31 76 -31z" />
    <glyph glyph-name="r" unicode="r" horiz-adv-x="421" 
d="M466 517l-25 -121q-14 0 -21 2l-19 2q-68 0 -117 -38t-68 -104l-5 -18l-7 -32l-45 -208h-152l107 508h146l-15 -72q32 38 80.5 60.5t112.5 22.5l12 -1z" />
    <glyph glyph-name="s" unicode="s" horiz-adv-x="556" 
d="M10 160h156l-1 -7v-11q0 -28 21.5 -43.5t71.5 -15.5q38 0 64 17.5t26 44.5q0 20 -15 33.5t-66 27.5q-153 33 -178 62.5t-25 74.5q0 83 68.5 133.5t189.5 50.5q107 0 158 -35t51 -95q0 -10 -2 -15l-1 -14h-137v4l1 15q0 18 -19.5 28t-55.5 10q-46 0 -70.5 -15t-24.5 -40
q0 -23 14 -35.5t53 -18.5q156 -28 186.5 -53.5t30.5 -75.5q0 -93 -67 -149.5t-200 -56.5q-112 0 -171.5 35.5t-59.5 107.5v22q0 9 2 14z" />
    <glyph glyph-name="t" unicode="t" horiz-adv-x="383" 
d="M45 406l22 102h91l32 152h152l-32 -152h109l-22 -102h-109l-52 -244l-5 -23v-11q0 -18 12.5 -27t40.5 -9l20 2l28 8l-22 -102l-60 -10l-54 -4q-66 0 -96 24q-28 25 -28 71l1 26l5 27l58 272h-91z" />
    <glyph glyph-name="u" unicode="u" horiz-adv-x="609" 
d="M355 0l12 56q-43 -40 -87.5 -57.5t-102.5 -17.5q-69 0 -105 38t-36 98l1 40q0 19 5 33l68 318h152l-62 -294l-7 -33v-13q0 -38 18 -61.5t57 -23.5q42 0 72.5 29.5t48.5 110.5l61 285h152l-109 -508h-138z" />
    <glyph glyph-name="v" unicode="v" horiz-adv-x="498" 
d="M238 165l170 343h157l-288 -508h-147l-85 508h162z" />
    <glyph glyph-name="w" unicode="w" horiz-adv-x="784" 
d="M411 328l-141 -328h-167l-58 508h155l24 -331l139 331h159l13 -331l147 331h169l-260 -508h-166z" />
    <glyph glyph-name="x" unicode="x" horiz-adv-x="541" 
d="M292 363l114 145h183l-233 -251l126 -257h-161l-68 153l-125 -153h-182l246 270l-125 238h166z" />
    <glyph glyph-name="y" unicode="y" horiz-adv-x="555" 
d="M2 -185l22 102l20 -5l28 -2q23 0 42.5 12.5t45.5 58.5l14 25l-116 502h163l67 -344l163 344h161l-290 -535q-53 -99 -100 -133t-115 -34l-57 3q-11 0 -25 2t-23 4z" />
    <glyph glyph-name="z" unicode="z" horiz-adv-x="512" 
d="M80 406l22 102h425l-23 -109l-320 -297h271l-23 -102h-459l22 107l327 299h-242z" />
    <glyph glyph-name="braceleft" unicode="{" horiz-adv-x="503" 
d="M131 249l19 93q52 0 81.5 44.5t46 151t70.5 154t153 47.5l-15 -73q-45 -12 -65.5 -39t-33 -116.5t-50 -138.5t-108.5 -73l-1 -7q45 -22 63 -47q21 -26 21 -57q0 -14 -1 -28.5t-4.5 -32t-5.5 -27t-8 -29.5l-13 -53l-4 -40q0 -18 14.5 -32.5t38.5 -20.5l-15 -73
q-40 0 -64 4.5t-46 18.5q-42 24 -42 82l3 50q2 18 4 26.5t10 32.5l13 58l5 47q0 33 -18 54q-16 21 -48 24z" />
    <glyph glyph-name="bar" unicode="|" horiz-adv-x="469" 
d="M189 -224v1053h80v-1053h-80z" />
    <glyph glyph-name="braceright" unicode="}" horiz-adv-x="505" 
d="M383 342l-19 -93q-51 -6 -81.5 -45.5t-45.5 -137.5q-18 -117 -72 -168q-25 -24 -63 -35t-89 -11l15 73q40 8 63 38q23 27 35 118.5t48.5 136t110.5 74.5l1 7q-44 18 -64 44t-20 60q0 12 1 26.5t4 31.5q7 36 7 38l7 21l12 50l4 42q0 18 -12 30.5t-40 23.5l15 73
q39 0 63 -4.5t47 -18.5q43 -26 43 -82q0 -23 -4 -42l-15 -67l-13 -56l-5 -50q0 -32 18 -56q18 -21 49 -21z" />
    <glyph glyph-name="asciitilde" unicode="~" horiz-adv-x="664" 
d="M139 268l-69 36q27 72 70.5 110t92.5 38q20 0 44 -6q11 -3 21.5 -7t21.5 -10l103 -55q9 -6 25 -11l27 -2q25 0 47 19.5t39 61.5l69 -36q-28 -72 -71.5 -110t-91.5 -38q-26 0 -46 5.5t-41 17.5l-103 55q-13 6 -26 9l-27 4q-29 0 -51 -22t-34 -59z" />
    <glyph glyph-name="afii10051" horiz-adv-x="917" 
d="M483 279l-59 -279h-165l119 564h-211l29 136h587l-29 -136h-211l-31 -149l80 5l78 3q106 0 160 -40t54 -122q0 -122 -81 -201.5t-201 -79.5h-26q-12 3 -19.5 4t-18.5 4t-23 7l26 124l23 -6l22 -1q58 0 89 33t31 81q0 30 -24 45.5t-86 15.5l-56 -3q-27 0 -57 -5z" />
    <glyph glyph-name="afii10052" horiz-adv-x="551" 
d="M304 564l-119 -564h-165l148 700h470l-30 -136h-304zM387 878h160l-128 -132h-116z" />
    <glyph glyph-name="uni0082" horiz-adv-x="385" 
d="M52 0l34 158h165l-34 -158q-18 -81 -69 -129t-134 -48l17 79q22 0 38.5 7t32.5 22q26 23 35 63l1 6h-86z" />
    <glyph glyph-name="afii10100" horiz-adv-x="462" 
d="M246 406l-87 -406h-152l109 508h389l-23 -102h-236zM307 700h160l-128 -132h-116z" />
    <glyph glyph-name="uni0084" horiz-adv-x="562" 
d="M25 0l34 158h166l-34 -158q-18 -79 -69.5 -128t-133.5 -49l17 79q37 0 66.5 24.5t38.5 67.5l1 6h-86zM257 0l34 158h165l-34 -158q-18 -84 -71 -130.5t-132 -46.5l17 79q37 0 73 31q33 27 33 61v6h-85z" />
    <glyph glyph-name="uni0085" unicode="&#x85;" horiz-adv-x="1139" 
d="M52 0l33 158h166l-33 -158h-166zM429 0l33 158h166l-33 -158h-166zM806 0l33 158h166l-33 -158h-166z" />
    <glyph glyph-name="uni0086" horiz-adv-x="565" 
d="M299 700h159l-41 -192h178l-28 -132h-178l-120 -561h-159l120 561h-178l28 132h178z" />
    <glyph glyph-name="uni0087" horiz-adv-x="634" 
d="M368 700h159l-41 -192h178l-28 -132h-178l-41 -192h178l-28 -132h-178l-51 -237h-159l51 237h-178l28 132h178l41 192h-178l28 132h178z" />
    <glyph glyph-name="uni0089" horiz-adv-x="1463" 
d="M169 0l603 700h105l-602 -700h-106zM108 529q15 82 72 133t141 51q69 0 115 -40t46 -121q0 -98 -61.5 -168.5t-158.5 -70.5q-70 0 -115 39.5t-45 123.5v23zM213 508l-4 -20v-15q0 -37 14 -59t43 -22q44 0 76.5 54.5t32.5 112.5q0 34 -16 54q-14 21 -42 21q-35 0 -65 -34
q-27 -33 -39 -92zM575 203q18 89 77 136.5t135 47.5q70 0 115.5 -40.5t45.5 -121.5q0 -106 -64 -172t-156 -66q-76 0 -118 44t-42 119l1 23zM678 181l-3 -20v-15q0 -40 14.5 -60t41.5 -20q45 0 77.5 54.5t32.5 112.5q0 34 -16 54q-14 21 -42 21q-32 0 -65 -34
q-29 -32 -40 -93zM1025 203q18 89 76 136.5t136 47.5q70 0 115.5 -40.5t45.5 -121.5q0 -106 -64 -172t-156 -66q-76 0 -118 44t-42 119l1 23zM1128 181l-3 -20v-15q0 -40 14.5 -60t41.5 -20q45 0 77.5 54.5t32.5 112.5q0 34 -16 54q-14 21 -42 21q-32 0 -65 -34
q-29 -32 -40 -93z" />
    <glyph glyph-name="afii10058" horiz-adv-x="1201" 
d="M13 0l29 136l14 -3l14 1q74 0 113.5 53t69.5 179l76 334h518l-54 -254h175q99 0 151.5 -41.5t52.5 -132.5q0 -133 -82 -202.5t-217 -69.5h-339l119 564h-197l-56 -244q-39 -175 -121 -249.5t-214 -74.5l-25 1zM765 310l-37 -174h141q56 0 90.5 27.5t34.5 86.5
q0 30 -21 45t-72 15h-136z" />
    <glyph glyph-name="quilsinglleft" horiz-adv-x="279" 
d="M75 338l179 137l-31 -145l-98 -76l67 -69l-26 -125l-122 136z" />
    <glyph glyph-name="afii10059" horiz-adv-x="1123" 
d="M251 310l-66 -310h-165l148 700h165l-54 -254h255l54 254h165l-54 -254h144q128 0 184 -52t56 -150q0 -113 -88 -178.5t-223 -65.5h-332l66 310h-255zM671 310l-37 -174h157q46 0 81.5 24.5t35.5 65.5q0 44 -25.5 64t-77.5 20h-134z" />
    <glyph glyph-name="afii10061" horiz-adv-x="671" 
d="M557 700h200l-338 -336l208 -364h-192l-177 346l-73 -346h-165l148 700h165l-65 -298zM446 878h160l-128 -132h-116z" />
    <glyph glyph-name="afii10060" horiz-adv-x="906" 
d="M827 0h-165l36 169l4 27l2 27q0 35 -25 49.5t-78 14.5l-59 -3q-26 0 -58 -5l-59 -279h-165l119 564h-212l29 136h588l-29 -136h-211l-31 -149l82 5l76 3q113 0 161 -38t48 -104v-11q0 -6 -2 -20l-6 -36z" />
    <glyph glyph-name="afii10145" horiz-adv-x="749" 
d="M534 136l119 564h165l-148 -700h-225l-39 -185h-145l39 185h-225l148 700h165l-119 -564h265z" />
    <glyph glyph-name="afii10099" horiz-adv-x="640" 
d="M326 700l-13 -59h238l-12 -60h-238l-27 -128q39 36 84 55t88 19q77 0 112.5 -41.5t35.5 -112.5q0 -89 -29 -213.5t-73.5 -199t-106 -110t-150.5 -35.5l22 102h16q60 0 111 129q26 66 39 134t13 146q0 48 -20.5 73.5t-56.5 25.5q-46 0 -77 -34q-27 -31 -44 -105l-61 -286
h-152l124 581h-79l12 60h79l13 59h152z" />
    <glyph glyph-name="uni0091" horiz-adv-x="376" 
d="M335 542l-33 -158h-166l33 158q16 84 68 128q26 23 60.5 36.5t74.5 13.5l-17 -79q-38 0 -70 -27q-27 -24 -36 -67l-1 -5h87z" />
    <glyph glyph-name="uni0092" horiz-adv-x="377" 
d="M167 542l34 158h165l-34 -158q-18 -86 -68 -130q-25 -22 -59.5 -35t-75.5 -13l17 79q40 0 69 26q30 24 37 67l1 6h-86z" />
    <glyph glyph-name="uni0093" horiz-adv-x="553" 
d="M540 542l-34 -158h-165l34 158q18 86 69 130q27 22 60.5 35t72.5 13l-17 -79q-37 0 -69 -27q-27 -24 -36 -67l-1 -5h86zM308 542l-33 -158h-166l34 158q18 83 68.5 126.5t134.5 51.5l-17 -79q-37 0 -69 -27q-27 -24 -36 -67l-1 -5h85z" />
    <glyph glyph-name="uni0094" horiz-adv-x="554" 
d="M141 542l33 158h166l-33 -158q-18 -85 -68 -129q-25 -23 -59 -36t-77 -13l17 79q38 0 68 26q30 24 37 67l1 6h-85zM372 542l33 158h166l-33 -158q-18 -88 -70 -131q-27 -22 -60 -34.5t-74 -12.5l17 79q40 0 69 26q30 24 37 67l1 6h-86z" />
    <glyph glyph-name="uni0095" 
d="M175 350q0 74 53 127t127 53t127 -53t53 -127q0 -75 -53.5 -127.5t-126.5 -52.5q-75 0 -128 52q-26 27 -39 58t-13 70z" />
    <glyph glyph-name="uni0096" horiz-adv-x="673" 
d="M64 310h566l-18 -85h-566z" />
    <glyph glyph-name="uni0097" horiz-adv-x="900" 
d="M46 225l18 85h793l-18 -85h-793z" />
    <glyph glyph-name="uni0099" horiz-adv-x="941" 
d="M194 618h-109v82h334v-82h-110v-268h-115v268zM684 350l-80 238h-8l8 -46v-192h-112v350h151l70 -214l5 -37h6l4 37l71 214h150v-350h-110v192l6 46h-6l-81 -238h-74z" />
    <glyph glyph-name="afii10106" horiz-adv-x="911" 
d="M-42 -2l22 105l12 -2h12q50 0 78.5 42t54.5 148l50 217h433l-40 -181h96q96 0 142 -33t46 -103q0 -85 -58.5 -138t-163.5 -53h-282l86 406h-136l-25 -114q-37 -170 -93 -235t-164 -65h-13q-6 0 -22 2zM559 225l-27 -123h69q52 0 78.5 16.5t26.5 49.5q0 28 -21.5 42.5
t-59.5 14.5h-66z" />
    <glyph glyph-name="quilsinglright" horiz-adv-x="279" 
d="M208 196l-179 -137l30 145l99 72l-67 71l26 127l121 -136z" />
    <glyph glyph-name="afii10107" horiz-adv-x="893" 
d="M206 220l-47 -220h-152l108 508h152l-40 -186h183l40 186h152l-40 -180h96q98 0 143 -32.5t45 -104.5q0 -85 -58 -139q-29 -26 -69 -39t-95 -13h-282l47 220h-183zM542 226l-28 -124h68q53 0 79 16.5t26 49.5q0 27 -21.5 42.5t-59.5 15.5h-64z" />
    <glyph glyph-name="afii10109" horiz-adv-x="537" 
d="M419 508h174l-253 -249l156 -259h-171l-118 225l-48 -225h-152l109 508h152l-48 -208zM345 700h160l-128 -132h-116z" />
    <glyph glyph-name="afii10108" horiz-adv-x="631" 
d="M326 700l-13 -59h238l-12 -60h-238l-25 -118q33 33 77 48.5t99 15.5q62 0 101.5 -35t39.5 -101l-3 -33l-6 -39l-67 -319h-152l62 294l7 37l1 10q0 43 -17 63.5t-59 20.5q-46 0 -77 -34q-27 -31 -44 -105l-61 -286h-152l124 581h-92l12 60h92l13 59h152z" />
    <glyph glyph-name="afii10193" horiz-adv-x="621" 
d="M375 102l87 406h152l-107 -508h-178l-40 -185h-145l40 185h-177l108 508h152l-87 -406h195z" />
    <glyph glyph-name="nonbreakingspace" unicode="&#xa0;" horiz-adv-x="384" 
 />
    <glyph glyph-name="exclamdown" unicode="&#xa1;" horiz-adv-x="639" 
d="M371 353l197 347h181l-346 -557q-52 -85 -112 -120.5t-138 -35.5q-29 0 -52 4l-51 9l28 136l37 -8l37 -3q35 0 60.5 15.5t45.5 52.5l-159 507h179zM251 878h111q-1 -5 -1 -14q0 -20 14 -34q21 -19 66 -19q40 0 64 18t30 49h112q-21 -68 -79.5 -103t-141.5 -35
q-88 0 -132 30.5t-44 86.5v11z" />
    <glyph glyph-name="cent" unicode="&#xa2;" horiz-adv-x="555" 
d="M2 -185l22 102l20 -5l28 -2q23 0 42.5 12.5t45.5 58.5l14 25l-116 502h163l67 -344l163 344h161l-290 -535q-53 -99 -100 -133t-115 -34l-57 3q-11 0 -25 2t-23 4zM174 700h111q-1 -5 -1 -14q0 -20 14 -34q21 -19 66 -19q40 0 64 18t30 49h112q-21 -68 -79.5 -103
t-141.5 -35q-88 0 -132 30.5t-44 86.5v11z" />
    <glyph glyph-name="sterling" unicode="&#xa3;" horiz-adv-x="577" 
d="M22 258h165l-6 -28l-6 -28v-11q0 -35 15 -56q16 -19 52 -19q42 0 63 22.5t38 91.5l100 470h165l-95 -447q-33 -157 -98.5 -215t-186.5 -58q-109 0 -162 47.5t-53 136.5l1 40z" />
    <glyph glyph-name="currency" unicode="&#xa4;" horiz-adv-x="830" 
d="M427 41q-53 0 -94.5 14.5t-75.5 42.5l-111 -111l-66 66l111 111q-25 35 -41 81q-12 42 -12 85q0 48 13.5 88.5t39.5 77.5l-111 112l66 66l111 -112q33 27 75.5 42t94.5 15q49 0 91 -14.5t79 -42.5l111 112l66 -66l-111 -112q23 -31 38 -77q7 -23 11 -44t4 -45
q0 -21 -3 -41.5t-10 -43.5q-12 -43 -40 -81l111 -111l-66 -66l-111 111q-33 -27 -77 -43q-44 -14 -93 -14zM427 544q-86 0 -150 -63t-64 -151q0 -87 62 -150.5t152 -63.5q86 0 150 63t64 151q0 87 -63.5 150.5t-150.5 63.5z" />
    <glyph glyph-name="yen" unicode="&#xa5;" horiz-adv-x="550" 
d="M305 564l-120 -564h-165l149 700h315l33 158h145l-54 -294h-303z" />
    <glyph glyph-name="brokenbar" unicode="&#xa6;" horiz-adv-x="469" 
d="M189 176h80v-400h-80v400zM269 429h-80v400h80v-400z" />
    <glyph glyph-name="section" unicode="&#xa7;" horiz-adv-x="620" 
d="M563 530h-123l2 10l1 13q0 25 -17 39.5t-50 14.5q-31 0 -53.5 -20.5t-22.5 -51.5q0 -19 15 -34q14 -11 93 -37q100 -32 132 -70t32 -90q0 -65 -34 -115t-96 -75q16 -19 25 -39.5t9 -50.5q0 -87 -58.5 -143t-169.5 -56q-102 0 -151 37t-49 105l1 33q0 14 4 26h125l-3 -13
v-13q0 -27 20 -44q22 -16 63 -16q33 0 53 18.5t20 52.5q0 20 -15 35q-13 10 -69 32q-126 41 -159.5 77.5t-33.5 99.5q0 67 34.5 112t98.5 70q-17 17 -23.5 38t-6.5 50q0 85 62 136.5t156 51.5q98 0 145 -36.5t47 -101.5l-1 -16zM257 215l112 -35q38 9 57.5 33.5t19.5 54.5
q0 22 -14 37q-11 14 -60 32l-113 37q-42 -15 -58.5 -34.5t-16.5 -49.5q0 -28 17 -45.5t56 -29.5z" />
    <glyph glyph-name="dieresis" unicode="&#xa8;" horiz-adv-x="655" 
d="M275 425h342l-29 -136h-342l-32 -153h397l-29 -136h-562l148 700h554l-29 -136h-389zM269 766l23 106h142l-23 -106h-142zM517 766l23 106h142l-23 -106h-142z" />
    <glyph glyph-name="copyright" unicode="&#xa9;" horiz-adv-x="809" 
d="M73 350q0 71 25 133.5t76 113.5q103 103 249 103q143 0 246.5 -103.5t103.5 -246.5q0 -144 -103 -247t-247 -103q-147 0 -249 102q-51 52 -76 112.5t-25 135.5zM158 350q0 -118 77 -198t188 -80q108 0 186.5 80.5t78.5 197.5q0 114 -78 196t-187 82q-110 0 -187.5 -81.5
t-77.5 -196.5zM551 297q-18 -63 -58.5 -94t-99.5 -31q-64 0 -104 33t-40 94q0 106 53.5 173t138.5 67q61 0 96 -26q35 -24 35 -70l-1 -10l-1 -9h-79v4l1 5q0 17 -14 28q-12 12 -37 12q-43 0 -73 -49.5t-30 -111.5q0 -40 18 -57t47 -17q24 0 39.5 14t27.5 45h81z" />
    <glyph glyph-name="ordfeminine" unicode="&#xaa;" horiz-adv-x="792" 
d="M364 -20q-151 0 -231.5 77t-80.5 212q0 183 114.5 317t307.5 134q145 0 226 -76t81 -213q0 -185 -112.5 -318t-304.5 -133zM602 437q-6 70 -38 105q-39 42 -109 42q-105 0 -165 -87q-22 -32 -34 -60h346zM230 301v-9q0 -91 39 -133.5t108 -42.5q104 0 165 86q29 41 45 99
h-357z" />
    <glyph glyph-name="guillemotleft" unicode="&#xab;" horiz-adv-x="470" 
d="M75 338l179 137l-30 -145l-99 -75l67 -70l-26 -125l-122 136zM266 338l179 137l-30 -145l-99 -75l68 -70l-26 -125l-122 136z" />
    <glyph glyph-name="logicalnot" unicode="&#xac;" 
d="M73 390h566v-224h-85v144h-481v80z" />
    <glyph glyph-name="minus" unicode="&#xad;" horiz-adv-x="450" 
d="M69 205l26 125h288l-26 -125h-288z" />
    <glyph glyph-name="registered" unicode="&#xae;" horiz-adv-x="809" 
d="M73 350q0 71 25 133.5t76 113.5q103 103 249 103q143 0 246.5 -103.5t103.5 -246.5q0 -144 -103 -247t-247 -103q-147 0 -249 102q-51 52 -76 112.5t-25 135.5zM157 350q0 -118 77 -198t189 -80q110 0 187.5 81.5t77.5 196.5q0 114 -77.5 196t-187.5 82
q-111 0 -188.5 -81.5t-77.5 -196.5zM262 178l75 350h142q55 0 82.5 -21.5t27.5 -59.5q0 -34 -22 -62.5t-58 -37.5q19 -8 27.5 -20t8.5 -32l-1 -15l-6 -30l-6 -29l-1 -25l1 -8l6 -10h-86l-4 11v10v7l7 48l1 12l1 13q0 20 -14.5 28.5t-51.5 8.5h-17l-29 -138h-83zM407 467
l-19 -90h56q23 0 40 15q14 15 17 37q0 17 -15 27.5t-43 10.5h-36z" />
    <glyph glyph-name="macron" unicode="&#xaf;" horiz-adv-x="640" 
d="M358 410l208 290h184l-340 -436l-56 -264h-165l56 264l-159 436h180z" />
    <glyph glyph-name="degree" unicode="&#xb0;" horiz-adv-x="295" 
d="M111 605q0 24 7 42t25 37q33 33 80 33q44 0 78 -33t34 -79q0 -45 -33 -80q-34 -32 -79 -32q-47 0 -80 32q-32 34 -32 80zM169 605q0 -22 15 -38t39 -16q20 0 38 15q16 16 16 39q0 21 -15 36t-39 18q-23 0 -38.5 -15.5t-15.5 -38.5z" />
    <glyph glyph-name="plusminus" unicode="&#xb1;" 
d="M73 450h243v220h80v-220h243v-80h-243v-180h-80v180h-243v80zM73 140h566v-80h-566v80z" />
    <glyph glyph-name="twosuperior" unicode="&#xb2;" horiz-adv-x="311" 
d="M168 700h165l-148 -700h-165z" />
    <glyph glyph-name="threesuperior" unicode="&#xb3;" horiz-adv-x="274" 
d="M115 508h152l-108 -508h-152zM130 581l26 119h152l-26 -119h-152z" />
    <glyph glyph-name="acute" unicode="&#xb4;" horiz-adv-x="458" 
d="M245 406l-86 -406h-152l108 508h269l28 133h111l-43 -235h-235z" />
    <glyph glyph-name="mu" unicode="&#xb5;" horiz-adv-x="619" 
d="M-28 -185l148 693h152l-58 -266l-5 -31l-1 -40q0 -45 19.5 -66.5t51.5 -21.5q45 0 75.5 39.5t48.5 119.5l57 266h152l-108 -508h-152l16 75q-15 -39 -49 -66.5t-65 -27.5q-33 0 -55 26q-20 26 -20 68l-55 -260h-152z" />
    <glyph glyph-name="paragraph" unicode="&#xb6;" horiz-adv-x="533" 
d="M226 -185v555q-68 0 -117 47.5t-49 117.5q0 66 48.5 115.5t117.5 49.5h80v-885h-80zM386 -185v885h80v-885h-80z" />
    <glyph glyph-name="cedilla" unicode="&#xb8;" horiz-adv-x="628" 
d="M396 147h154q-30 -77 -99 -121.5t-178 -44.5q-116 0 -179.5 55.5t-63.5 165.5q0 129 84.5 227t237.5 98q113 0 178 -51.5t65 -157.5q0 -7 -1 -18.5t-5 -32t-5 -22.5q-6 -15 -8 -22h-388l-3 -19l-1 -22q0 -51 27 -75t75 -24q35 0 68 18q30 18 42 46zM205 302h232l2 23
l2 21q0 37 -24.5 58t-74.5 21q-51 0 -87 -33q-32 -29 -50 -90zM166 581l26 119h152l-26 -119h-152zM448 581l26 119h152l-26 -119h-152z" />
    <glyph glyph-name="onesuperior" unicode="&#xb9;" horiz-adv-x="1173" 
d="M725 0l25 119h351l-26 -119h-350zM281 442l-96 -442h-165l148 700h162l190 -440l96 440h165l-148 -700h-162zM790 390q16 77 71.5 130.5t142.5 53.5q77 0 118.5 -44t41.5 -119q0 -105 -63 -171t-156 -66q-74 0 -117.5 40.5t-43.5 121.5l1 26zM908 365l-4 -20v-20v-13
l3 -12q3 -16 13 -26q5 -4 11 -6t17 -2q38 0 68 46q14 25 21 50t7 57q0 31 -11 46t-30 15q-31 0 -59 -32q-26 -32 -36 -83z" />
    <glyph glyph-name="ordmasculine" unicode="&#xba;" horiz-adv-x="631" 
d="M276 -19q-117 0 -182 55.5t-65 171.5q0 133 86 226t238 93q124 0 186 -60t62 -168q0 -129 -88 -223.5t-237 -94.5zM442 317q0 53 -27.5 80.5t-76.5 27.5q-70 0 -111 -66q-2 -3 -7.5 -14.5t-12.5 -27.5h235zM188 215l-1 -19q0 -56 26 -85q28 -28 79 -28q69 0 110 65
q9 14 15.5 30t12.5 37h-242z" />
    <glyph glyph-name="guillemotright" unicode="&#xbb;" horiz-adv-x="470" 
d="M208 196l-180 -137l30 145l100 72l-68 71l26 127l122 -136zM399 196l-179 -137l30 145l99 72l-68 71l27 127l121 -136z" />
    <glyph glyph-name="onequarter" unicode="&#xbc;" horiz-adv-x="274" 
d="M115 508h152l-113 -533q-18 -82 -63.5 -124.5t-125.5 -42.5h-18h-15q-10 2 -14 2q-18 0 -41 5l21 102l10 -1l5 -1q43 0 62 15.5t30 59.5zM130 581l26 119h152l-26 -119h-152z" />
    <glyph glyph-name="onehalf" unicode="&#xbd;" horiz-adv-x="665" 
d="M30 227h168l-4 -16v-16q0 -36 28.5 -57.5t88.5 -21.5q68 0 104 23t36 66q0 53 -111 82q-30 8 -52 13q-7 1 -18 5q3 -1 8 -2t13 -3q-115 29 -155.5 71.5t-40.5 116.5q0 104 78 168t239 64q122 0 186.5 -42.5t64.5 -126.5l-1 -24q0 -12 -2 -19h-157v5l1 12q0 27 -26.5 43
t-75.5 16q-61 0 -95 -20q-34 -18 -34 -55q0 -29 23 -46t97 -33q133 -30 184 -71q26 -20 39 -48t13 -68q0 -115 -81 -189t-239 -74q-137 0 -210.5 48t-73.5 147v26z" />
    <glyph glyph-name="threequarters" unicode="&#xbe;" horiz-adv-x="556" 
d="M10 160h156l-1 -7v-11q0 -28 21.5 -43.5t71.5 -15.5q38 0 64 17.5t26 44.5q0 20 -15 33.5t-66 27.5q-153 33 -178 62.5t-25 74.5q0 83 68.5 133.5t189.5 50.5q107 0 158 -35t51 -95q0 -10 -2 -15l-1 -14h-137v4l1 15q0 18 -19.5 28t-55.5 10q-46 0 -70.5 -15t-24.5 -40
q0 -23 14 -35.5t53 -18.5q156 -28 186.5 -53.5t30.5 -75.5q0 -93 -67 -149.5t-200 -56.5q-112 0 -171.5 35.5t-59.5 107.5v22q0 9 2 14z" />
    <glyph glyph-name="questiondown" unicode="&#xbf;" horiz-adv-x="555" 
d="M58 508h163l67 -344l163 344h161l-283 -521l-38 -172h-151l38 172z" />
    <glyph glyph-name="Agrave" unicode="&#xc0;" horiz-adv-x="677" 
d="M348 700h167l114 -700h-171l-17 131h-254l-73 -131h-177zM247 250h183l-35 267z" />
    <glyph glyph-name="Aacute" unicode="&#xc1;" horiz-adv-x="707" 
d="M304 564l-25 -121h168q115 0 167.5 -53t52.5 -152q0 -98 -81 -168t-231 -70h-335l148 700h545l-29 -136h-380zM250 307l-36 -171h160q54 0 86 27.5t32 62.5t-25 59q-11 10 -30.5 16t-48.5 6h-138z" />
    <glyph glyph-name="Acircumflex" unicode="&#xc2;" horiz-adv-x="728" 
d="M168 700h352q92 0 139 -38.5t47 -109.5q0 -64 -39.5 -115.5t-113.5 -66.5q54 -17 84.5 -53t30.5 -94q0 -102 -80 -162.5t-234 -60.5h-334zM304 564l-29 -136h152q40 0 69.5 19.5t29.5 57.5q0 25 -20.5 42t-53.5 17h-148zM247 292l-33 -156h170q44 0 76.5 21t32.5 62
q0 37 -21.5 55t-73.5 18h-151z" />
    <glyph glyph-name="Atilde" unicode="&#xc3;" horiz-adv-x="551" 
d="M304 564l-119 -564h-165l148 700h470l-30 -136h-304z" />
    <glyph glyph-name="Adieresis" unicode="&#xc4;" horiz-adv-x="793" 
d="M656 136h99l-70 -294h-145l33 158h-474l-34 -158h-145l55 294h68q69 75 116.5 177t72.5 225l33 162h510zM581 564h-188l-16 -83q-20 -102 -58.5 -190.5t-95.5 -154.5h268z" />
    <glyph glyph-name="Aring" unicode="&#xc5;" horiz-adv-x="655" 
d="M275 425h342l-27 -136h-344l-32 -153h397l-28 -136h-563l148 700h554l-28 -136h-390z" />
    <glyph glyph-name="AE" unicode="&#xc6;" horiz-adv-x="980" 
d="M357 0l70 321l-278 -321h-212l347 381l-190 319h194l156 -289l61 289h165l-63 -289l268 289h206l-328 -339l189 -361h-200l-152 321l-68 -321h-165z" />
    <glyph glyph-name="Ccedilla" unicode="&#xc7;" horiz-adv-x="725" 
d="M31 241h161l-3 -13v-7q0 -51 34 -79q34 -26 113 -26q71 0 114.5 27.5t43.5 79.5q0 34 -24.5 52t-79.5 18h-99l27 129h82q62 0 95 24q31 25 31 66q0 37 -32 54q-30 18 -86 18q-63 0 -102 -29q-39 -27 -51 -82h-167q25 123 116 185t241 62q123 0 191 -45.5t68 -130.5
q0 -71 -42 -119t-113 -63q60 -15 91 -51q16 -19 24 -40.5t8 -51.5q0 -109 -91.5 -174t-257.5 -65q-141 0 -213 40t-83 126l-2 26l2 35l1 18z" />
    <glyph glyph-name="Egrave" unicode="&#xc8;" horiz-adv-x="755" 
d="M238 248l361 452h178l-148 -700h-165l96 457l-362 -457h-178l148 700h165z" />
    <glyph glyph-name="Eacute" unicode="&#xc9;" horiz-adv-x="755" 
d="M238 248l361 452h178l-148 -700h-165l96 457l-362 -457h-178l148 700h165zM301 872h111q-3 -9 -3 -17q0 -18 15 -32q21 -18 68 -18q37 0 61 17.5t33 49.5h111q-21 -64 -76 -101t-145 -37q-94 0 -140 37q-36 30 -36 81q0 13 1 20z" />
    <glyph glyph-name="Ecircumflex" unicode="&#xca;" horiz-adv-x="671" 
d="M557 700h200l-338 -336l208 -364h-192l-177 346l-73 -346h-165l148 700h165l-65 -298z" />
    <glyph glyph-name="Edieresis" unicode="&#xcb;" horiz-adv-x="771" 
d="M-41 0l30 136q9 0 14 -2h14q75 0 117.5 57.5t66.5 174.5l69 334h523l-148 -700h-165l119 564h-200l-53 -244q-36 -169 -121 -246.5t-217 -77.5l-22 1z" />
    <glyph glyph-name="Igrave" unicode="&#xcc;" horiz-adv-x="944" 
d="M357 0l-64 508l-108 -508h-165l148 700h239l61 -481l252 481h246l-148 -700h-165l110 508l-271 -508h-135z" />
    <glyph glyph-name="Iacute" unicode="&#xcd;" horiz-adv-x="732" 
d="M248 301l-63 -301h-165l148 700h165l-57 -263h256l57 263h165l-148 -700h-165l63 301h-256z" />
    <glyph glyph-name="Icircumflex" unicode="&#xce;" horiz-adv-x="792" 
d="M364 -20q-151 0 -231.5 77t-80.5 212q0 183 114.5 317t307.5 134q145 0 226 -76t81 -213q0 -185 -112.5 -318t-304.5 -133zM377 116q104 0 165 87t61 205q0 90 -39 133t-109 43q-105 0 -165 -87t-60 -205q0 -91 39 -133.5t108 -42.5z" />
    <glyph glyph-name="Idieresis" unicode="&#xcf;" horiz-adv-x="740" 
d="M304 564l-119 -564h-165l148 700h594l-148 -700h-165l119 564h-264z" />
    <glyph glyph-name="Eth" unicode="&#xd0;" horiz-adv-x="685" 
d="M168 700h327q109 0 163 -49.5t54 -141.5q0 -122 -82.5 -195.5t-236.5 -73.5h-157l-51 -240h-165zM304 564l-40 -188h130q68 0 105.5 27.5t37.5 75.5q0 42 -24 63q-11 10 -30.5 16t-48.5 6h-130z" />
    <glyph glyph-name="Ntilde" unicode="&#xd1;" horiz-adv-x="729" 
d="M538 247h164q-30 -116 -122 -191.5t-234 -75.5q-146 0 -220 79t-74 206q0 184 104 319.5t302 135.5q144 0 214.5 -54.5t70.5 -152.5l-1 -31q0 -13 -2 -20h-163v8l1 13q0 50 -34.5 75.5t-92.5 25.5q-100 0 -160.5 -88t-60.5 -206q0 -88 36 -131t97 -43q63 0 105.5 31.5
t69.5 99.5z" />
    <glyph glyph-name="Ograve" unicode="&#xd2;" horiz-adv-x="608" 
d="M290 564h-211l29 136h587l-29 -136h-211l-119 -564h-165z" />
    <glyph glyph-name="Oacute" unicode="&#xd3;" horiz-adv-x="639" 
d="M371 353l197 347h181l-346 -557q-52 -85 -112 -120.5t-138 -35.5q-29 0 -52 4l-51 9l28 136l37 -8l37 -3q35 0 60.5 15.5t45.5 52.5l-159 507h179z" />
    <glyph glyph-name="Ocircumflex" unicode="&#xd4;" horiz-adv-x="942" 
d="M328 -26l21 99h-26q-118 0 -198.5 61.5t-80.5 187.5q0 133 105 226t295 93h25l20 99h165l-20 -99h27q119 0 199.5 -62.5t80.5 -186.5q0 -147 -112.5 -233t-287.5 -86h-27l-21 -99h-165zM392 209l63 296h-11q-101 0 -161.5 -50.5t-60.5 -133.5q0 -53 36.5 -82.5
t119.5 -29.5h14zM528 209h14q96 0 158.5 45.5t62.5 138.5q0 54 -38 83q-18 14 -48 21.5t-71 7.5h-15z" />
    <glyph glyph-name="Otilde" unicode="&#xd5;" horiz-adv-x="685" 
d="M344 236l-190 -236h-208l325 364l-154 336h188l85 -221l171 221h201l-299 -340l169 -360h-196z" />
    <glyph glyph-name="Odieresis" unicode="&#xd6;" horiz-adv-x="789" 
d="M214 136h272l120 564h165l-120 -564h99l-71 -294h-145l34 158h-548l149 700h165z" />
    <glyph glyph-name="multiply" unicode="&#xd7;" horiz-adv-x="684" 
d="M138 700h165l-37 -169l-5 -27l-1 -25q0 -32 24 -50q13 -8 34 -12t57 -4l52 1q11 0 24 1.5t30 5.5l60 279h165l-149 -700h-165l61 285l-67 -7l-81 -1q-123 0 -169 40t-46 117l1 39q0 8 2 18t5 22z" />
    <glyph glyph-name="Oslash" unicode="&#xd8;" horiz-adv-x="1081" 
d="M214 136h220l119 564h165l-119 -564h220l119 564h165l-148 -700h-935l148 700h165z" />
    <glyph glyph-name="Ugrave" unicode="&#xd9;" horiz-adv-x="1121" 
d="M214 136h220l119 564h165l-119 -564h220l119 564h165l-119 -564h99l-69 -288h-145l32 152h-881l148 700h165z" />
    <glyph glyph-name="Uacute" unicode="&#xda;" horiz-adv-x="774" 
d="M404 700l-54 -254h145q119 0 179 -51.5t60 -150.5q0 -113 -88 -178.5t-222 -65.5h-333l119 564h-131l29 136h296zM322 310l-37 -174h157q46 0 81.5 23t35.5 67q0 42 -24.5 63t-78.5 21h-134z" />
    <glyph glyph-name="Ucircumflex" unicode="&#xdb;" horiz-adv-x="961" 
d="M333 700l-53 -254h145q125 0 182 -52t57 -150q0 -114 -87 -179t-224 -65h-333l148 700h165zM251 310l-37 -174h157q47 0 82.5 24t35.5 66t-26.5 63t-76.5 21h-135zM818 700h165l-148 -700h-165z" />
    <glyph glyph-name="Udieresis" unicode="&#xdc;" horiz-adv-x="703" 
d="M333 700l-54 -254h145q127 0 183 -54t56 -148q0 -114 -87.5 -179t-223.5 -65h-332l148 700h165zM251 310l-37 -174h157q46 0 81.5 24t35.5 66q0 44 -26 64t-77 20h-134z" />
    <glyph glyph-name="Yacute" unicode="&#xdd;" horiz-adv-x="777" 
d="M261 467h-174q30 120 124 186q47 33 104.5 50t128.5 17q162 0 242 -76t80 -215q0 -206 -114.5 -327.5t-305.5 -121.5q-148 0 -228.5 60t-80.5 174v18l3 20h168l-1 -10v-8q0 -57 38.5 -87.5t108.5 -30.5q83 0 135 44.5t70 123.5h-267l28 136h266l1 11l1 9q0 69 -38 106
q-19 19 -47 28.5t-69 9.5q-63 0 -106.5 -29.5t-66.5 -87.5z" />
    <glyph glyph-name="Thorn" unicode="&#xde;" horiz-adv-x="1086" 
d="M277 435h97q39 132 142 208.5t252 76.5q139 0 223 -71t84 -218q0 -187 -112 -319t-305 -132q-149 0 -230.5 78t-81.5 211v30h-98l-63 -299h-165l148 700h165zM671 116q103 0 164.5 87.5t61.5 204.5q0 89 -38.5 132.5t-109.5 43.5q-101 0 -163 -82.5t-62 -209.5
q0 -83 35.5 -129.5t111.5 -46.5z" />
    <glyph glyph-name="germandbls" unicode="&#xdf;" horiz-adv-x="710" 
d="M470 242h-98l-184 -242h-192l221 258q-67 10 -103 61.5t-36 133.5q0 117 87 182t214 65h353l-148 -700h-165zM538 564h-146q-60 0 -98 -29.5t-38 -79.5q0 -37 27 -58q29 -19 75 -19h141z" />
    <glyph glyph-name="agrave" unicode="&#xe0;" horiz-adv-x="608" 
d="M236 344h-159q21 84 90 133.5t197 49.5q103 0 153.5 -35.5t50.5 -98.5l-2 -17q0 -11 -7 -39l-51 -232l-7 -35l-2 -24q0 -16 3.5 -24t13.5 -9v-13h-159l-3 50q-21 -18 -40.5 -30.5t-42.5 -21.5q-45 -17 -95 -17q-78 0 -118.5 32.5t-40.5 95.5q0 74 51.5 119.5t203.5 66.5
q108 12 123 30t15 52q0 21 -17 35q-5 4 -13 7q-15 6 -34 6q-44 0 -72.5 -20t-37.5 -61zM382 210l8 32l-38 -13l-69 -14q-56 -9 -82 -32q-26 -21 -26 -57q0 -20 18.5 -31.5t50.5 -11.5q48 0 85 33t53 94z" />
    <glyph glyph-name="aacute" unicode="&#xe1;" horiz-adv-x="648" 
d="M564 747h123q-12 -44 -36.5 -73t-279.5 -88q-77 -18 -125 -65.5t-78 -147.5q17 34 40.5 62t54.5 49q61 43 144 43q97 0 155 -61.5t58 -170.5q0 -131 -87.5 -222.5t-229.5 -91.5q-119 0 -183.5 60.5t-64.5 184.5q0 161 68.5 287.5t186.5 171.5q41 15 80.5 23.5t77.5 8.5
t62 8t34 22zM217 240l-4 -29v-28q0 -52 23.5 -76t66.5 -24q69 0 114 66t45 155q0 58 -23.5 89.5t-67.5 31.5q-57 0 -99.5 -51t-54.5 -134z" />
    <glyph glyph-name="acircumflex" unicode="&#xe2;" horiz-adv-x="581" 
d="M116 508h294q74 0 108 -28t34 -78q0 -52 -33 -88t-89 -48l-1 -3q41 -4 70 -33q14 -14 21.5 -33t7.5 -42q0 -79 -58.5 -117t-161.5 -38h-301zM246 406l-21 -99h78q46 0 70.5 15t24.5 47q0 18 -17.5 27.5t-52.5 9.5h-82zM205 214l-24 -112h94q48 0 73.5 16t25.5 44
q0 27 -19.5 39.5t-58.5 12.5h-91z" />
    <glyph glyph-name="atilde" unicode="&#xe3;" horiz-adv-x="462" 
d="M246 406l-87 -406h-152l109 508h389l-23 -102h-236z" />
    <glyph glyph-name="adieresis" unicode="&#xe4;" horiz-adv-x="676" 
d="M-33 102h67q54 63 87.5 133.5t57.5 178.5l20 94h436l-87 -406h84l-58 -234h-130l29 132h-390l-28 -132h-130zM461 406h-143l-12 -53q-18 -75 -46 -140t-68 -111h204z" />
    <glyph glyph-name="aring" unicode="&#xe5;" horiz-adv-x="628" 
d="M396 147h154q-30 -77 -99 -121.5t-178 -44.5q-116 0 -179.5 55.5t-63.5 165.5q0 129 84.5 227t237.5 98q113 0 178 -51.5t65 -157.5q0 -7 -1 -18.5t-5 -32t-5 -22.5q-6 -15 -8 -22h-388l-3 -19l-1 -22q0 -51 27 -75t75 -24q35 0 68 18q30 18 42 46zM205 302h232l2 23
l2 21q0 37 -24.5 58t-74.5 21q-51 0 -87 -33q-32 -29 -50 -90z" />
    <glyph glyph-name="ae" unicode="&#xe6;" horiz-adv-x="773" 
d="M261 0l51 227l-192 -227h-183l255 274l-134 234h167l100 -211l45 211h145l-48 -211l186 211h173l-236 -248l142 -260h-176l-101 227l-48 -227h-146z" />
    <glyph glyph-name="ccedilla" unicode="&#xe7;" horiz-adv-x="572" 
d="M5 170h144l-3 -10v-11q0 -29 26 -47.5t70 -18.5q54 0 85.5 20t31.5 54q0 27 -18.5 42.5t-63.5 15.5h-57l19 93h70q34 0 54 19t23 44q0 24 -18.5 39t-61.5 15q-41 0 -71.5 -20.5t-40.5 -59.5h-148q18 89 87.5 135.5t190.5 46.5q108 0 164 -32t56 -106q0 -48 -30.5 -79
t-86.5 -41q26 -10 40.5 -18t27.5 -23q22 -25 22 -67q0 -85 -73 -132.5t-203 -47.5q-121 0 -180.5 36.5t-59.5 119.5l1 16z" />
    <glyph glyph-name="egrave" unicode="&#xe8;" horiz-adv-x="642" 
d="M197 178l258 330h180l-109 -508h-152l71 330l-258 -330h-180l109 508h152z" />
    <glyph glyph-name="eacute" unicode="&#xe9;" horiz-adv-x="642" 
d="M197 178l258 330h180l-109 -508h-152l71 330l-258 -330h-180l109 508h152zM212 700h112q-3 -9 -3 -18q0 -18 15 -32q22 -17 67 -17q39 0 63 17.5t31 49.5h111q-17 -66 -77.5 -102t-142.5 -36q-91 0 -138 35q-39 30 -39 84q0 13 1 19z" />
    <glyph glyph-name="ecircumflex" unicode="&#xea;" horiz-adv-x="537" 
d="M419 508h174l-253 -249l156 -259h-171l-118 225l-48 -225h-152l109 508h152l-48 -208z" />
    <glyph glyph-name="edieresis" unicode="&#xeb;" horiz-adv-x="628" 
d="M-42 -2l23 105l12 -2h11q50 0 78.5 42t54.5 148l50 217h434l-109 -508h-152l87 406h-137l-25 -114q-37 -170 -93 -235t-164 -65h-13q-6 0 -22 2z" />
    <glyph glyph-name="igrave" unicode="&#xec;" horiz-adv-x="792" 
d="M292 0l-63 350l-4 -26l-69 -324h-149l109 508h202l58 -344l193 344h216l-109 -508h-149l69 324l9 26l-200 -350h-113z" />
    <glyph glyph-name="iacute" unicode="&#xed;" horiz-adv-x="610" 
d="M205 215l-46 -215h-152l109 508h152l-41 -191h183l41 191h152l-109 -508h-152l46 215h-183z" />
    <glyph glyph-name="icircumflex" unicode="&#xee;" horiz-adv-x="631" 
d="M276 -19q-117 0 -182 55.5t-65 171.5q0 133 86 226t238 93q124 0 186 -60t62 -168q0 -129 -88 -223.5t-237 -94.5zM292 83q69 0 110 65t41 161q0 60 -28 88t-77 28q-70 0 -111 -66q-20 -34 -30 -73t-10 -90q0 -56 26 -85q28 -28 79 -28z" />
    <glyph glyph-name="idieresis" unicode="&#xef;" horiz-adv-x="623" 
d="M246 406l-87 -406h-152l109 508h500l-109 -508h-152l87 406h-196z" />
    <glyph glyph-name="eth" unicode="&#xf0;" horiz-adv-x="637" 
d="M117 508h134l-12 -52q19 16 40 29t43 23q48 19 99 19q85 0 136 -53.5t51 -148.5q0 -139 -81 -240.5t-205 -101.5q-50 0 -90 17.5t-61 51.5l-51 -237h-152zM205 262l-6 -33l-1 -26q0 -58 26 -88t71 -30q67 0 111 66t44 156q0 60 -27.5 89t-70.5 29q-57 0 -94 -43.5
t-53 -119.5z" />
    <glyph glyph-name="ntilde" unicode="&#xf1;" horiz-adv-x="596" 
d="M397 192h150q-24 -95 -95.5 -153t-180.5 -58q-108 0 -174.5 54t-66.5 163q0 138 82.5 233.5t229.5 95.5q114 0 171.5 -45.5t57.5 -123.5l-1 -21v-10h-146v8l1 9q0 40 -20 60.5t-63 20.5q-69 0 -111.5 -65t-42.5 -160q0 -59 24 -89q25 -28 75 -28q41 0 68 26.5t42 82.5z
" />
    <glyph glyph-name="ograve" unicode="&#xf2;" horiz-adv-x="512" 
d="M213 406h-168l22 102h488l-22 -102h-168l-87 -406h-152z" />
    <glyph glyph-name="oacute" unicode="&#xf3;" horiz-adv-x="555" 
d="M2 -185l22 102l20 -5l28 -2q23 0 42.5 12.5t45.5 58.5l14 25l-116 502h163l67 -344l163 344h161l-290 -535q-53 -99 -100 -133t-115 -34l-57 3q-11 0 -25 2t-23 4z" />
    <glyph glyph-name="ocircumflex" unicode="&#xf4;" horiz-adv-x="854" 
d="M258 -185l36 171q-68 0 -116.5 15t-82.5 45q-64 58 -64 165q0 144 104 226.5t273 82.5l38 180h152l-38 -180q130 0 196 -57q33 -29 50 -70.5t17 -98.5q0 -129 -99 -216q-51 -45 -119.5 -68.5t-158.5 -23.5l-36 -171h-152zM327 88l70 330h-26q-78 0 -133 -59
q-27 -29 -40 -64.5t-13 -83.5q0 -60 36 -92q18 -15 44 -23t62 -8zM527 418l-70 -330q94 0 153 58.5t59 151.5q0 56 -35.5 88t-106.5 32z" />
    <glyph glyph-name="otilde" unicode="&#xf5;" horiz-adv-x="541" 
d="M292 363l114 145h183l-233 -251l126 -257h-161l-68 153l-125 -153h-182l246 270l-125 238h166z" />
    <glyph glyph-name="odieresis" unicode="&#xf6;" horiz-adv-x="649" 
d="M181 102h188l87 406h152l-87 -406h84l-58 -234h-130l28 132h-438l109 508h152z" />
    <glyph glyph-name="divide" unicode="&#xf7;" horiz-adv-x="563" 
d="M92 508h152l-32 -148l-4 -18v-11q0 -24 14.5 -33.5t63.5 -9.5h36q20 0 36 4l46 216h152l-108 -508h-152l40 190l-50 -3l-48 -1q-95 0 -140 24t-45 90l1 28q0 13 4 25z" />
    <glyph glyph-name="oslash" unicode="&#xf8;" horiz-adv-x="909" 
d="M181 102h165l87 406h152l-87 -406h165l87 406h152l-109 -508h-786l109 508h152z" />
    <glyph glyph-name="ugrave" unicode="&#xf9;" horiz-adv-x="943" 
d="M181 102h165l87 406h152l-87 -406h165l87 406h152l-87 -406h83l-57 -234h-131l29 132h-732l109 508h152z" />
    <glyph glyph-name="uacute" unicode="&#xfa;" horiz-adv-x="642" 
d="M67 508h285l-39 -181h94q98 0 143 -33t45 -103q0 -90 -61 -140.5t-161 -50.5h-282l87 406h-133zM291 225l-26 -123h67q52 0 78.5 16.5t26.5 49.5q0 27 -21 42t-60 15h-65z" />
    <glyph glyph-name="ucircumflex" unicode="&#xfb;" horiz-adv-x="796" 
d="M116 508h152l-39 -181h94q98 0 143 -32.5t45 -103.5q0 -90 -61 -140.5t-161 -50.5h-282zM207 225l-26 -123h67q47 0 76 15q26 16 29 51q0 28 -20 42q-18 15 -61 15h-65zM637 508h152l-109 -508h-152z" />
    <glyph glyph-name="udieresis" unicode="&#xfc;" horiz-adv-x="557" 
d="M114 508h152l-40 -180h97q98 0 142.5 -32.5t44.5 -104.5q0 -90 -61 -140.5t-161 -50.5h-281zM206 226l-28 -124h69q52 0 78.5 16.5t26.5 49.5q0 28 -21 43t-60 15h-65z" />
    <glyph glyph-name="yacute" unicode="&#xfd;" horiz-adv-x="618" 
d="M230 206l20 102h176l2 14l1 14q0 45 -25.5 67t-71.5 22q-54 0 -89 -26t-49 -73h-139q24 99 99 150t186 51q116 0 181.5 -53t65.5 -162q0 -139 -88 -235t-247 -96q-116 0 -174.5 45.5t-58.5 139.5v11l2 15h142l-1 -9v-12q0 -40 28 -65q13 -11 32 -17t44 -6q54 0 87 30
t54 93h-177z" />
    <glyph glyph-name="thorn" unicode="&#xfe;" horiz-adv-x="868" 
d="M227 317h63q31 98 111 154t193 56q114 0 179 -56t65 -172q0 -128 -86.5 -223t-233.5 -95q-128 0 -190 63q-29 31 -42.5 73t-13.5 98h-67l-46 -215h-152l109 508h152zM533 83q70 0 108.5 68.5t38.5 157.5q0 58 -26.5 87t-74.5 29q-69 0 -109 -66t-40 -163q0 -56 27 -86
q27 -27 76 -27z" />
    <glyph glyph-name="ydieresis" unicode="&#xff;" horiz-adv-x="583" 
d="M305 176l-132 -176h-182l167 187q-47 0 -79 38q-28 34 -28 90q0 87 62 140q32 26 73 39.5t91 13.5h299l-109 -508h-152l38 176h-48zM402 406h-80q-54 0 -83 -20q-29 -18 -29 -52q0 -28 19 -43q21 -13 61 -13h85z" />
    <glyph glyph-name="Idotaccent" unicode="&#x130;" horiz-adv-x="345" 
d="M249 700h160l-128 -132h-116z" />
    <glyph glyph-name="dotlessi" unicode="&#x131;" horiz-adv-x="998" 
d="M477 295q-76 -76 -125.5 -99.5t-103.5 -23.5q-79 0 -128.5 49.5t-49.5 128.5q0 80 58.5 129.5t157.5 49.5q73 0 125.5 -30t101.5 -94q58 70 110.5 96.5t121.5 26.5q83 0 133 -45.5t50 -122.5q0 -81 -53.5 -134.5t-147.5 -53.5q-78 0 -142 32t-108 91zM445 334
q-66 86 -109.5 118t-89.5 32q-51 0 -86 -37.5t-35 -96.5q0 -56 35 -91.5t93 -35.5q49 0 93.5 25.5t98.5 85.5zM549 371q57 -78 104.5 -111t99.5 -33q50 0 85 36.5t35 96.5q0 55 -37 86t-92 31q-62 0 -104.5 -24.5t-90.5 -81.5z" />
    <glyph glyph-name="lessequal" unicode="&#x132;" horiz-adv-x="648" 
d="M61 363v84l506 293l41 -70l-461 -265l461 -265l-41 -70zM61 183l41 70l506 -293l-41 -70z" />
    <glyph glyph-name="greaterequal" unicode="&#x133;" horiz-adv-x="648" 
d="M627 363l-506 -293l-41 70l461 265l-461 265l41 70l506 -293v-84zM627 183l-506 -293l-41 70l506 293z" />
    <glyph glyph-name="partialdiff" unicode="&#x134;" horiz-adv-x="647" 
d="M246 682l27 73q80 0 144 -25t109 -70q86 -83 86 -239q0 -184 -94 -312t-256 -128q-116 0 -174.5 53.5t-58.5 148.5q0 127 86 220t234 93q64 0 107.5 -26.5t55.5 -80.5h7q0 70 -15 120.5t-50 87.5q-70 73 -208 85zM341 394q-70 0 -112.5 -58.5t-42.5 -150.5q0 -51 23 -77
q25 -25 65 -25q66 0 111.5 58.5t45.5 146.5q0 54 -23 80q-21 26 -67 26z" />
    <glyph glyph-name="radical" unicode="&#x135;" horiz-adv-x="690" 
d="M252 500l112 -387l109 716h197v-80h-118l-138 -849h-104l-165 520h-125v80h232z" />
    <glyph glyph-name="approxequal" unicode="&#x136;" horiz-adv-x="664" 
d="M139 378l-69 36q27 72 70.5 110t92.5 38q20 0 44 -6q11 -3 21.5 -7t21.5 -10l103 -55q9 -6 25 -11l27 -2q25 0 47 19.5t39 61.5l69 -36q-28 -72 -71.5 -110t-91.5 -38q-26 0 -46 5.5t-41 17.5l-103 55q-13 6 -26 9l-27 4q-29 0 -51 -22t-34 -59zM139 158l-69 36
q27 72 70.5 110t92.5 38q20 0 44 -6q11 -3 21.5 -7t21.5 -10l103 -55q9 -6 25 -11q8 -2 27 -2q25 0 47 19.5t39 61.5l69 -36q-28 -72 -71.5 -110t-91.5 -38q-26 0 -46 5.5t-41 17.5l-103 55q-13 6 -26 9l-27 4q-29 0 -51 -22t-34 -59z" />
    <glyph glyph-name="Delta" unicode="&#x137;" horiz-adv-x="760" 
d="M399 500l-253 -364h348zM523 700l189 -700h-775l486 700h100z" />
    <glyph glyph-name="glyph188" unicode="&#x138;" horiz-adv-x="496" 
d="M145 700h111q-1 -5 -1 -14q0 -20 14 -34q21 -19 66 -19q40 0 64 18t30 49h112q-21 -68 -79.5 -103t-141.5 -35q-88 0 -132 30.5t-44 86.5v11z" />
    <glyph glyph-name="glyph237" unicode="&#x139;" horiz-adv-x="523" 
d="M333 608l112 92h123l-139 -132h-201l-83 132h115z" />
    <glyph glyph-name="glyph241" unicode="&#x13a;" horiz-adv-x="534" 
d="M119 581l26 119h152l-26 -119h-152zM401 581l26 119h152l-26 -119h-152z" />
    <glyph glyph-name="fi" unicode="&#x13b;" horiz-adv-x="605" 
d="M313 508h285l-108 -508h-152l86 406h-133l-87 -406h-152l87 406h-93l21 102h94l9 44q16 86 63 121.5t144 35.5l43 -3q20 0 47 -6l-20 -99l-30 4l-31 2q-24 0 -40.5 -14.5t-24.5 -46.5zM461 581l26 119h152l-26 -119h-152z" />
    <glyph glyph-name="fl" unicode="&#x13c;" horiz-adv-x="604" 
d="M313 508h134l41 192h152l-150 -700h-152l87 406h-134l-87 -406h-152l87 406h-93l21 102h94l9 44q16 86 63 121.5t144 35.5l43 -3q20 0 47 -6l-20 -99l-30 4l-31 2q-24 0 -40.5 -14.5t-24.5 -46.5z" />
    <glyph glyph-name="OE" unicode="&#x152;" horiz-adv-x="1201" 
d="M13 0l29 136l14 -3l14 1q74 0 113.5 53t69.5 179l76 334h518l-54 -254h175q99 0 151.5 -41.5t52.5 -132.5q0 -133 -82 -202.5t-217 -69.5h-339l119 564h-197l-56 -244q-39 -175 -121 -249.5t-214 -74.5l-25 1zM765 310l-37 -174h141q56 0 90.5 27.5t34.5 86.5
q0 30 -21 45t-72 15h-136z" />
    <glyph glyph-name="oe" unicode="&#x153;" horiz-adv-x="911" 
d="M-42 -2l22 105l12 -2h12q50 0 78.5 42t54.5 148l50 217h433l-40 -181h96q96 0 142 -33t46 -103q0 -85 -58.5 -138t-163.5 -53h-282l86 406h-136l-25 -114q-37 -170 -93 -235t-164 -65h-13q-6 0 -22 2zM559 225l-27 -123h69q52 0 78.5 16.5t26.5 49.5q0 28 -21.5 42.5
t-59.5 14.5h-66z" />
    <glyph glyph-name="Scaron" unicode="&#x160;" horiz-adv-x="666" 
d="M30 227h168l-4 -16v-16q0 -36 28.5 -57.5t88.5 -21.5q68 0 104 23t36 66q0 53 -111 82q-30 8 -52 13q-7 1 -18 5q3 -1 8 -2t13 -3q-115 29 -155.5 71.5t-40.5 116.5q0 104 78 168t239 64q122 0 186.5 -42.5t64.5 -126.5l-1 -24q0 -12 -2 -19h-157v5l1 12q0 27 -26.5 43
t-75.5 16q-61 0 -95 -20q-34 -18 -34 -55q0 -29 23 -46t97 -33q133 -30 184 -71q26 -20 39 -48t13 -68q0 -115 -81 -189t-239 -74q-137 0 -210.5 48t-73.5 147v26zM404 786l112 92h123l-139 -132h-201l-83 132h115z" />
    <glyph glyph-name="scaron" unicode="&#x161;" horiz-adv-x="556" 
d="M10 160h156l-1 -7v-11q0 -28 21.5 -43.5t71.5 -15.5q38 0 64 17.5t26 44.5q0 20 -15 33.5t-66 27.5q-153 33 -178 62.5t-25 74.5q0 83 68.5 133.5t189.5 50.5q107 0 158 -35t51 -95q0 -10 -2 -15l-1 -14h-137v4l1 15q0 18 -19.5 28t-55.5 10q-46 0 -70.5 -15t-24.5 -40
q0 -23 14 -35.5t53 -18.5q156 -28 186.5 -53.5t30.5 -75.5q0 -93 -67 -149.5t-200 -56.5q-112 0 -171.5 35.5t-59.5 107.5v22q0 9 2 14zM349 608l112 92h123l-139 -132h-201l-83 132h115z" />
    <glyph glyph-name="Ydieresis" unicode="&#x178;" horiz-adv-x="640" 
d="M358 410l208 290h184l-340 -436l-56 -264h-165l56 264l-159 436h180zM227 759l26 119h152l-26 -119h-152zM509 759l26 119h152l-26 -119h-152z" />
    <glyph glyph-name="florin" unicode="&#x192;" horiz-adv-x="462" 
d="M246 406l-87 -406h-152l109 508h389l-23 -102h-236zM307 700h160l-128 -132h-116z" />
    <glyph glyph-name="circumflex" unicode="&#x2c6;" horiz-adv-x="523" 
d="M352 660l-112 -92h-123l140 132h200l83 -132h-115z" />
    <glyph glyph-name="tilde" unicode="&#x2dc;" horiz-adv-x="537" 
d="M489 700h93q-27 -64 -64 -97q-37 -31 -79 -31h-14q-7 0 -20.5 2.5t-59.5 23.5q-29 13 -46 18t-33 7q-18 0 -32 -11t-21 -30h-93q20 57 60 91.5t83 34.5q21 0 43.5 -6.5t45.5 -18.5q30 -16 47.5 -21t36.5 -5t32.5 10.5t20.5 32.5z" />
    <glyph glyph-name="endash" unicode="&#x2013;" horiz-adv-x="673" 
d="M64 310h566l-18 -85h-566z" />
    <glyph glyph-name="emdash" unicode="&#x2014;" horiz-adv-x="900" 
d="M46 225l18 85h793l-18 -85h-793z" />
    <glyph glyph-name="quoteleft" unicode="&#x2018;" horiz-adv-x="376" 
d="M335 542l-33 -158h-166l33 158q16 84 68 128q26 23 60.5 36.5t74.5 13.5l-17 -79q-38 0 -70 -27q-27 -24 -36 -67l-1 -5h87z" />
    <glyph glyph-name="quoteright" unicode="&#x2019;" horiz-adv-x="377" 
d="M167 542l34 158h165l-34 -158q-18 -86 -68 -130q-25 -22 -59.5 -35t-75.5 -13l17 79q40 0 69 26q30 24 37 67l1 6h-86z" />
    <glyph glyph-name="quotesinglbase" unicode="&#x201a;" horiz-adv-x="385" 
d="M52 0l34 158h165l-34 -158q-18 -81 -69 -129t-134 -48l17 79q22 0 38.5 7t32.5 22q26 23 35 63l1 6h-86z" />
    <glyph glyph-name="quotedblleft" unicode="&#x201c;" horiz-adv-x="553" 
d="M540 542l-34 -158h-165l34 158q18 86 69 130q27 22 60.5 35t72.5 13l-17 -79q-37 0 -69 -27q-27 -24 -36 -67l-1 -5h86zM308 542l-33 -158h-166l34 158q18 83 68.5 126.5t134.5 51.5l-17 -79q-37 0 -69 -27q-27 -24 -36 -67l-1 -5h85z" />
    <glyph glyph-name="quotedblright" unicode="&#x201d;" horiz-adv-x="554" 
d="M141 542l33 158h166l-33 -158q-18 -85 -68 -129q-25 -23 -59 -36t-77 -13l17 79q38 0 68 26q30 24 37 67l1 6h-85zM372 542l33 158h166l-33 -158q-18 -88 -70 -131q-27 -22 -60 -34.5t-74 -12.5l17 79q40 0 69 26q30 24 37 67l1 6h-86z" />
    <glyph glyph-name="quotedblbase" unicode="&#x201e;" horiz-adv-x="562" 
d="M25 0l34 158h166l-34 -158q-18 -79 -69.5 -128t-133.5 -49l17 79q37 0 66.5 24.5t38.5 67.5l1 6h-86zM257 0l34 158h165l-34 -158q-18 -84 -71 -130.5t-132 -46.5l17 79q37 0 73 31q33 27 33 61v6h-85z" />
    <glyph glyph-name="dagger" unicode="&#x2020;" horiz-adv-x="565" 
d="M299 700h159l-41 -192h178l-28 -132h-178l-120 -561h-159l120 561h-178l28 132h178z" />
    <glyph glyph-name="daggerdbl" unicode="&#x2021;" horiz-adv-x="634" 
d="M368 700h159l-41 -192h178l-28 -132h-178l-41 -192h178l-28 -132h-178l-51 -237h-159l51 237h-178l28 132h178l41 192h-178l28 132h178z" />
    <glyph glyph-name="bullet" unicode="&#x2022;" 
d="M175 350q0 74 53 127t127 53t127 -53t53 -127q0 -75 -53.5 -127.5t-126.5 -52.5q-75 0 -128 52q-26 27 -39 58t-13 70z" />
    <glyph glyph-name="ellipsis" unicode="&#x2026;" horiz-adv-x="1139" 
d="M52 0l33 158h166l-33 -158h-166zM429 0l33 158h166l-33 -158h-166zM806 0l33 158h166l-33 -158h-166z" />
    <glyph glyph-name="perthousand" unicode="&#x2030;" horiz-adv-x="1463" 
d="M169 0l603 700h105l-602 -700h-106zM108 529q15 82 72 133t141 51q69 0 115 -40t46 -121q0 -98 -61.5 -168.5t-158.5 -70.5q-70 0 -115 39.5t-45 123.5v23zM213 508l-4 -20v-15q0 -37 14 -59t43 -22q44 0 76.5 54.5t32.5 112.5q0 34 -16 54q-14 21 -42 21q-35 0 -65 -34
q-27 -33 -39 -92zM575 203q18 89 77 136.5t135 47.5q70 0 115.5 -40.5t45.5 -121.5q0 -106 -64 -172t-156 -66q-76 0 -118 44t-42 119l1 23zM678 181l-3 -20v-15q0 -40 14.5 -60t41.5 -20q45 0 77.5 54.5t32.5 112.5q0 34 -16 54q-14 21 -42 21q-32 0 -65 -34
q-29 -32 -40 -93zM1025 203q18 89 76 136.5t136 47.5q70 0 115.5 -40.5t45.5 -121.5q0 -106 -64 -172t-156 -66q-76 0 -118 44t-42 119l1 23zM1128 181l-3 -20v-15q0 -40 14.5 -60t41.5 -20q45 0 77.5 54.5t32.5 112.5q0 34 -16 54q-14 21 -42 21q-32 0 -65 -34
q-29 -32 -40 -93z" />
    <glyph glyph-name="guilsinglleft" unicode="&#x2039;" horiz-adv-x="279" 
d="M75 338l179 137l-31 -145l-98 -76l67 -69l-26 -125l-122 136z" />
    <glyph glyph-name="guilsinglright" unicode="&#x203a;" horiz-adv-x="279" 
d="M208 196l-179 -137l30 145l99 72l-67 71l26 127l121 -136z" />
    <glyph glyph-name="trademark" unicode="&#x2122;" horiz-adv-x="941" 
d="M194 618h-109v82h334v-82h-110v-268h-115v268zM684 350l-80 238h-8l8 -46v-192h-112v350h151l70 -214l5 -37h6l4 37l71 214h150v-350h-110v192l6 46h-6l-81 -238h-74z" />
    <glyph glyph-name="periodcentered" unicode="&#x2219;" horiz-adv-x="380" 
d="M92 189l33 158h165l-33 -158h-165z" />
  </font>
</defs>
</svg>
